<?xml version="1.0" encoding="UTF-8"?>
<svg id="Layer_2" data-name="Layer 2" xmlns="http://www.w3.org/2000/svg" viewBox="0 0 1618.19 1148.94">
  <defs>
    <style>
      .cls-1 {
        fill: #fcfcfc;
      }

      .cls-1, .cls-2, .cls-3, .cls-4, .cls-5, .cls-6, .cls-7, .cls-8, .cls-9, .cls-10, .cls-11, .cls-12, .cls-13, .cls-14, .cls-15, .cls-16 {
        isolation: isolate;
      }

      .cls-1, .cls-3 {
        font-size: 50.57px;
      }

      .cls-1, .cls-3, .cls-16 {
        font-family: MongolianBaiti, 'Mongolian Baiti';
      }

      .cls-17, .cls-18, .cls-2, .cls-4, .cls-19, .cls-20, .cls-21, .cls-5, .cls-22, .cls-23, .cls-24, .cls-6, .cls-7, .cls-25, .cls-26, .cls-27, .cls-8, .cls-28, .cls-10, .cls-11, .cls-29, .cls-12, .cls-30, .cls-31, .cls-32, .cls-33, .cls-34, .cls-35, .cls-13, .cls-14, .cls-15, .cls-36 {
        stroke-width: 0px;
      }

      .cls-17, .cls-4 {
        fill: #f5b819;
      }

      .cls-18 {
        fill: #ffb900;
      }

      .cls-2 {
        fill: #ff5c33;
      }

      .cls-2, .cls-4, .cls-6, .cls-9, .cls-10, .cls-37 {
        opacity: .2;
      }

      .cls-3, .cls-7, .cls-8, .cls-28, .cls-10, .cls-11, .cls-15, .cls-16 {
        fill: #fff;
      }

      .cls-38, .cls-8 {
        opacity: .5;
      }

      .cls-39 {
        opacity: .44;
      }

      .cls-19 {
        fill: #d54c38;
      }

      .cls-20 {
        fill: #e1e1e1;
      }

      .cls-21 {
        fill: #ececec;
      }

      .cls-5 {
        opacity: .96;
      }

      .cls-5, .cls-23, .cls-12, .cls-14 {
        fill: #c2c932;
      }

      .cls-22 {
        fill: #ff8b7b;
      }

      .cls-7, .cls-13 {
        opacity: .3;
      }

      .cls-25 {
        fill: #f5f5f5;
      }

      .cls-26, .cls-9, .cls-40 {
        fill: none;
      }

      .cls-41, .cls-14 {
        opacity: .4;
      }

      .cls-27 {
        fill: #1a2e35;
      }

      .cls-9, .cls-40 {
        stroke: #fff;
        stroke-miterlimit: 10;
        stroke-width: .5px;
      }

      .cls-11 {
        opacity: .6;
      }

      .cls-29 {
        fill: #ffba9a;
      }

      .cls-12, .cls-42 {
        opacity: .28;
      }

      .cls-30 {
        fill: #ff5551;
      }

      .cls-31 {
        fill: #f4f4f4;
      }

      .cls-32 {
        fill: #f7cc7f;
      }

      .cls-33 {
        fill: #e67b62;
      }

      .cls-34 {
        fill: #e8950c;
      }

      .cls-35 {
        fill: #974245;
      }

      .cls-13 {
        fill: #4a191b;
      }

      .cls-15 {
        opacity: .1;
      }

      .cls-16 {
        font-size: 20.69px;
      }

      .cls-43 {
        opacity: .29;
      }

      .cls-36 {
        fill: #001f40;
      }
    </style>
  </defs>
  <g id="Layer_1-2" data-name="Layer 1">
    <g>
      <g>
        <path class="cls-17" d="m1015.49,799.98l-194.25.23v-45.4c0-15.98,12.87-28.96,28.85-28.96l136.32-.12c15.98,0,28.96,12.87,28.96,28.85l.12,45.4Z"/>
        <rect class="cls-17" x="855.61" y="529.18" width="125.63" height="222.52"/>
        <polygon class="cls-34" points="855.61 625.27 855.61 529.18 981.24 529.18 981.13 575.85 855.61 625.27"/>
        <path class="cls-18" d="m1134.46,357.58l-8.05-26.44c147.12-44.48,209.54-136.55,190.68-281.37-.23-.23-1.72-1.15-3.68-.57l-20.23,5.52c-8.16,2.18-13.56,8.28-13.56,15.06v31.38c0,19.08-16.09,34.25-36.55,34.71-21.15.46-57.47,1.03-62.3,1.03v-27.7c3.33,0,26.44-.46,61.72-1.03,5.17-.11,9.43-3.33,9.43-7.01v-31.38c0-19.54,13.68-36.32,34.02-41.84l20.23-5.52c8.97-2.41,18.39-.92,25.98,4.14,6.9,4.6,11.38,11.72,12.41,19.54,9.88,76.09-1.15,140.34-32.99,190.91-34.25,54.83-93.91,95.4-177.12,120.57Z"/>
        <path class="cls-17" d="m702.05,357.58c-83.22-25.17-142.87-65.75-177.24-120.46-31.72-50.57-42.87-114.82-32.99-190.91,1.03-7.82,5.52-15.06,12.41-19.54,7.59-5.06,17.01-6.55,25.98-4.14l20.23,5.52c20.34,5.52,34.02,22.3,34.02,41.84v31.38c0,3.68,4.37,6.9,9.43,7.01,35.4.69,58.5,1.03,61.72,1.03v27.7c-4.83,0-41.15-.69-62.3-1.03-20.46-.34-36.55-15.63-36.55-34.71v-31.38c0-6.78-5.4-12.87-13.56-15.06l-20.23-5.52c-1.95-.57-3.45.34-3.79.8-18.74,144.59,43.68,236.66,190.8,281.14l-7.93,26.32Z"/>
        <path class="cls-17" d="m1194.91,52.53l-30.11,375.39c-3.56,45.06-25.52,84.48-58.16,111.26-27.82,22.87-63.45,36.55-101.95,36.55h-172.75c-83.68,0-153.44-64.37-160.11-147.81l-15.63-194.82-14.48-180.57c-2.3-28.28,20.11-52.53,48.5-52.53h456.2c28.51,0,50.8,24.25,48.5,52.53Z"/>
        <path class="cls-17" d="m1106.76,539.18c-27.82,22.87-63.45,36.55-101.95,36.55h-172.75c-83.68,0-153.44-64.37-160.11-147.81l-15.63-194.82c109.42,138.27,283.9,256.89,450.45,306.08Z"/>
        <rect class="cls-23" x="832.05" y="573.43" width="180" height="4.6"/>
        <rect class="cls-23" x="850.21" y="723.43" width="33.45" height="4.6"/>
        <rect class="cls-23" x="954" y="723.43" width="33.45" height="4.6"/>
        <path class="cls-17" d="m1060.78,909.75l-284.71.34-.11-75.4c0-27.93,22.64-50.69,50.57-50.69l183.44-.23c27.93,0,50.69,22.64,50.69,50.57l.11,75.4Z"/>
        <rect class="cls-34" x="821.47" y="782.17" width="193.9" height="4.6"/>
        <ellipse class="cls-11" cx="1066.41" cy="161.95" rx="25.4" ry="49.54"/>
      </g>
      <g class="cls-43">
        <path class="cls-17" d="m926.99,623.43c-8.39.23-16.67-.12-26.44-3.56-20.69-7.47-46.44,4.83-46.55,28.62-.11,18.51,16.9,30.8,32.64,36.44,29.77,10.69,91.26,5.06,88.39-39.08-.92-14.14-8.39-20.69-21.95-22.3-9.54-1.26-17.82-.46-26.09-.11Z"/>
      </g>
      <g class="cls-39">
        <g class="cls-38">
          <path class="cls-17" d="m1319.39,904.12c-28.16-82.87-103.56-150.92-190.8-159.19-82.3-7.82-161.72,34.94-244.36,35.75-133.68,1.26-244.59-104.83-375.51-131.61-152.18-31.26-320.11,63.33-372.4,209.65-33.79,94.48-16.44,202.75,37.01,287.12h1121.93c38.27-74.25,50.8-162.98,24.14-241.72Z"/>
        </g>
        <g>
          <path class="cls-28" d="m271.49,917.33c108.39-16.9,204.71-94.25,246.32-195.63,8.74-21.26,14.83-43.33,18.97-65.75-.8-.23-1.61-.46-2.41-.69-2.76,15.06-6.44,30-11.15,44.71-16.9,52.07-48.27,98.73-88.62,135.51-40.11,36.44-89.42,63.1-142.3,75.4-54.83,12.76-112.76,9.08-166.2-8.16-.46-.12-.92-.34-1.38-.46-.11.8-.34,1.61-.46,2.41,47.13,15.4,97.81,20.34,147.24,12.64Z"/>
          <path class="cls-28" d="m447.69,990.55c80.92,10.8,164.13,16.67,244.13-3.91,36.32-9.31,71.38-24.02,102.07-45.63,30.8-21.72,56.44-50,76.66-81.72,16.21-25.29,28.85-52.3,38.96-80.23-.92.12-1.84.23-2.64.23-6.9,18.85-15.06,37.36-24.71,55.29-18.62,34.6-42.87,66.55-73.22,91.84-30,24.83-65.4,42.41-102.53,53.56-78.5,23.79-161.61,20.23-242.06,10.23-87.93-10.92-175.97-29.54-265.05-25.52-26.67,1.15-53.56,4.37-79.88,10.11,0,.8,0,1.72.11,2.53,21.49-4.71,43.33-7.82,65.06-9.43,88.27-6.32,175.97,11.03,263.1,22.64Z"/>
          <path class="cls-28" d="m1239.86,1048.71c-31.15-6.78-61.84-16.32-90.23-30.92-26.44-13.56-51.38-31.72-69.08-55.98-18.16-24.94-26.78-55.17-24.14-85.86,4.94-56.55,41.84-101.61,89.42-128.5-1.26-.23-2.41-.46-3.68-.69-40,23.1-71.84,58.5-84.02,104.94-7.82,29.65-5.98,61.15,7.01,89.08,12.53,26.78,33.91,48.16,58.16,64.48,25.63,17.24,54.6,29.31,84.14,37.82,35.52,10.23,72.18,16.55,109.08,18.85,2.99.23,5.86.34,8.85.46.23-.8.34-1.61.57-2.41-28.73-1.38-57.7-5.06-86.09-11.26Z"/>
          <path class="cls-28" d="m592.63,718.95c5.63-11.84,11.95-23.45,18.74-34.48-.8-.34-1.49-.69-2.3-1.03-4.94,8.05-9.54,16.21-13.91,24.6-10.69,20.92-19.31,42.87-25.52,65.4-6.9,24.71-12.64,51.84-6.32,77.24,4.94,19.65,17.7,37.93,37.24,44.94,22.07,7.93,46.09-.34,65.63-11.15,21.26-11.84,40.8-27.59,59.31-43.45,18.62-15.86,36.09-32.99,52.41-51.26,6.55-7.36,12.99-14.83,19.19-22.53-.92-.23-1.72-.57-2.64-.8-29.88,36.9-64.37,70.11-102.76,98.16-19.65,14.37-41.84,28.96-66.78,31.38-24.71,2.3-45.52-11.95-55.29-34.25-10.92-24.71-6.44-52.87-.23-78.16,5.63-22.18,13.33-43.91,23.22-64.6Z"/>
          <path class="cls-28" d="m1257.79,984.11c25.63,1.38,51.26-4.94,74.71-16.21-.12-.69-.12-1.49-.23-2.18-19.42,9.2-40.46,14.83-62.3,15.98-24.6,1.15-49.65-5.29-67.93-22.3-16.44-15.4-24.71-37.82-18.39-59.88,2.76-9.77,8.39-19.08,16.32-25.52,10.34-8.39,23.79-10.57,36.67-10.92,11.72-.34,23.45.46,35.06-1.03,8.51-1.03,16.78-3.45,24.6-6.78-.46-.69-.8-1.38-1.26-2.18-2.53,1.03-5.17,2.07-7.82,2.87-23.91,7.7-49.54.23-73.33,7.82-18.51,5.98-30.92,22.53-34.02,41.49-3.33,19.77,4.14,39.08,18.05,53.22,15.63,16.32,37.59,24.48,59.88,25.63Z"/>
          <path class="cls-28" d="m1022.04,1065.72c-11.15-26.44-22.18-52.87-33.33-79.31-7.82-18.51-15.98-38.62-32.64-50.92-17.7-12.87-41.72-12.87-61.49-5.06-21.03,8.39-37.7,24.71-51.95,41.84-28.39,34.02-48.73,74.6-60,117.35-4.83,18.39-8.05,37.13-9.43,55.98h2.53c4.25-55.29,23.33-109.54,55.75-154.82,13.22-18.51,28.62-37.01,47.81-49.54,19.77-12.99,46.09-19.19,68.16-8.16,20.11,10,29.77,32.07,38.05,51.72,10.34,24.48,20.57,49.08,30.92,73.68,12.18,29.08,24.37,58.16,36.67,87.24h2.64c-11.26-26.67-22.41-53.33-33.68-80Z"/>
        </g>
      </g>
      <g>
        <path class="cls-33" d="m162.75,848.95c2.07,10.23,4.48,20.23,7.36,30.23,1.38,4.94,2.99,10,4.71,14.94,1.72,5.06,3.56,10,5.98,15.06,1.26,2.53,2.41,5.17,4.48,8.16.46.69,1.15,1.49,1.84,2.41.8.92,1.61,1.84,3.1,2.87.92.69,1.95,1.15,2.87,1.38s1.84.46,2.53.46c1.49.12,2.53-.12,3.33-.23,1.61-.34,2.76-.8,3.68-1.26,1.84-.92,3.22-1.72,4.48-2.64s2.41-1.72,3.45-2.64c2.18-1.84,4.25-3.56,6.09-5.4,3.91-3.68,7.47-7.47,11.03-11.26,3.45-3.91,6.9-8.28,10.11-12.3l-7.24-6.78c-7.93,6.21-15.86,12.53-23.91,18.16-1.95,1.38-3.91,2.76-5.98,4.02-.34.23-.8.46-1.15.69-.46-.92-.8-1.95-1.26-2.99-1.61-4.25-2.99-8.97-4.37-13.68-1.38-4.71-2.64-9.54-3.79-14.37-2.41-9.65-4.71-19.54-7.13-29.19l-20.23,4.37Z"/>
        <path class="cls-33" d="m12.18,1007.91s6.09,2.18,15.17,5.17c24.6,8.16,70.92,19.65,80.57,14.71,12.87-6.67,29.31-57.47,35.06-70.23l-37.24-12.07-14.6,55.4s-14.71-2.87-30.69-1.26c-6.78.69-18.39.57-28.16.23-9.88-.34-18.05-.8-18.05-.8l-2.07,8.85Z"/>
        <path class="cls-17" d="m12.18,1007.91s6.09,2.18,15.17,5.17c1.38-3.45,3.45-8.85,4.83-13.22-9.88-.34-18.05-.8-18.05-.8l-1.95,8.85Z"/>
        <path class="cls-23" d="m15.17,1006.3s2.76.69,3.22,2.99-3.91,6.09-5.63,12.99c-1.03,3.91-1.49,5.06-1.72,7.01-.23,2.64-2.41,4.48-4.83,5.75h0l-6.21-38.85s5.75-1.03,8.85-.12c3.1.8,8.05,1.61,7.82,2.64-1.26,4.48-3.56,6.44-1.49,7.59Z"/>
        <path class="cls-17" d="m171.49,925.61s-23.1,61.26-30.11,67.01c-4.83,3.91-47.01-19.31-47.01-19.31l7.24-40.69,69.88-7.01Z"/>
        <path class="cls-23" d="m140.69,995.61s-37.82-11.15-48.73-22.87l2.53-8.16s24.25,16.09,50.8,22.76l-4.6,8.28Z"/>
        <g>
          <path class="cls-33" d="m179.65,1021.93c-1.95,9.31,5.98,48.27,16.55,93.68,1.38,5.75,2.64,11.61,4.02,17.47h9.88s.11-6.9.11-17.59c0-33.79-.8-105.17-6.67-114.02-7.82-11.72-47.81-72.07-47.81-72.07l-43.68-2.53s-9.54,37.47,67.58,95.06Z"/>
          <path class="cls-17" d="m196.2,1115.61c1.38,5.75,2.64,11.61,4.02,17.47h9.88s.11-6.9.11-17.59c-2.87-.11-9.77-.23-14.02.12Z"/>
          <path class="cls-23" d="m206.55,1131.93s1.49-2.41,3.79-2.18c2.3.12,4.71,5.52,10.8,9.2,3.45,2.07,4.48,2.99,6.21,3.68,2.53,1.03,3.68,3.56,4.02,6.32h0l-38.96-5.52s.8-5.75,2.41-8.51c1.72-2.76,3.91-7.24,4.83-6.67,4.02,2.64,5.17,5.29,6.9,3.68Z"/>
          <path class="cls-17" d="m151.95,925.38l32.07,40.8s-22.64,27.24-36.55,33.56c-7.36,3.33-47.36-46.55-48.04-55.4s3.68-20,3.68-20l48.85,1.03Z"/>
          <path class="cls-40" d="m107.01,931.24s17.13,38.73,44.6,60.92"/>
          <path class="cls-23" d="m186.2,966.87s-24.02,31.26-38.96,37.24l-6.78-5.29s23.68-16.78,39.54-39.19l6.21,7.24Z"/>
        </g>
        <path class="cls-23" d="m101.95,931.01c5.52,11.72,70.34,10,70.57-2.87.23-9.08,7.36-70.92,10.69-80.46,3.22-9.65-17.01-18.97-17.01-18.97l-6.9-2.64s-15.4-3.22-25.52-1.26c-.34.12-.69.12-1.03.23-7.13,1.61-14.6,17.13-19.54,32.64-2.18,6.67-3.91,13.45-4.83,18.97-3.56,18.85-8.74,49.54-6.44,54.37Z"/>
        <path class="cls-33" d="m113.1,857.57c.69,0,1.38.12,2.07.12,6.32,0,15.63-1.38,19.54-9.2,4.83-9.54,1.03-19.42-1.03-23.68-.34.12-.69.12-1.03.23-5.86,1.26-12.07,12.18-16.78,24.71-.92,2.53-1.84,5.17-2.76,7.82Z"/>
        <path class="cls-6" d="m113.1,857.57c.69,0,1.38.12,2.07.12l16.9-13.56-16.32,5.63c-.8,2.53-1.72,5.17-2.64,7.82Z"/>
        <path class="cls-9" d="m121.84,857.11s-15.4,52.3-11.61,79.08"/>
        <path class="cls-10" d="m173.79,857.45l-1.03,14.02s-21.72.34-34.14-4.94c0,0,.23-11.72,2.64-14.94,0,0,11.26,4.6,32.53,5.86Z"/>
        <g>
          <g>
            <path class="cls-33" d="m168.39,833.66c-1.38.8-3.45,2.64-7.01,1.49-4.6-1.38-7.47-8.16-7.24-10.34,4.02-5.63,8.05-12.41,9.43-18.62l3.56,7.24,5.17,10.46h0c-.11.12-.23.23-.34.34-.11.23-.23.34-.46.57-.34.46-.69.92-.92,1.38-.23.34-.46.8-.57,1.15-.57,1.15-1.03,2.41-1.26,3.68-.11,1.15-.23,1.84-.34,2.64Z"/>
            <g class="cls-37">
              <path class="cls-24" d="m168.73,831.36c-2.76-2.07-5.4-6.21-5.17-9.77.23-2.3,1.84-4.14,2.76-3.91l4.37,8.97c-.23.34-.46.8-.57,1.15-.69,1.03-1.03,2.3-1.38,3.56Z"/>
            </g>
            <g>
              <path class="cls-33" d="m166.09,794.92c3.56-9.54,15.75-12.53,23.1-4.83,7.47,7.7,2.53,22.07-3.1,29.54-6.32,8.28-19.65,7.47-23.56-2.87-2.64-6.9,0-12.3,3.56-21.84"/>
              <path class="cls-27" d="m194.13,797.91s2.99,3.79,4.25,1.61c1.15-2.18-1.38-4.25-1.38-4.25,0,0,5.98-2.99,4.48-5.06s-5.06-1.49-5.06-1.49c0,0,1.61-6.21-1.26-6.9s-5.17,1.26-5.17,1.26c0,0,.23-4.94-2.64-6.09-2.76-1.15-4.25,1.95-4.25,1.95,0,0-2.87-3.56-5.52-3.1-2.64.57-2.53,3.68-2.53,3.68,0,0-3.45-3.79-5.4-2.53-2.07,1.26-1.84,4.02-1.84,4.02,0,0-2.53-1.49-3.56.92s1.15,3.56,1.15,3.56c0,0-2.18.8-2.41,2.3s2.3,2.87,4.6.92c2.18-1.72,19.77,2.99,26.55,9.19Z"/>
            </g>
            <path class="cls-17" d="m194.48,798.26s.34,5.4-1.49,6.55c-1.84,1.15-11.15-10.69-27.24-9.08,0,0-.34-4.71,1.84-6.78s19.54,1.72,26.9,9.31Z"/>
            <path class="cls-27" d="m188.04,793.43s-1.03,3.1-2.87,2.41c-1.84-.69,0-2.87,0-2.87,0,0-4.14,3.1-5.52,1.49s2.18-3.56,2.18-3.56c0,0,4.37-.46,6.21,2.53Z"/>
            <path class="cls-28" d="m177.24,816.76c-.46,1.03-.23,2.3.69,2.64.92.46,1.95-.12,2.53-1.15.46-1.03.23-2.3-.69-2.64s-1.95.11-2.53,1.15Z"/>
            <path class="cls-33" d="m159.31,799.29c-.34,2.76.46,5.4,1.84,7.13,2.07,2.64,5.17,1.26,6.21-1.72,1.03-2.76,1.15-7.36-1.72-8.97-2.76-1.49-5.86.46-6.32,3.56"/>
            <path class="cls-27" d="m178.73,805.04c-.34.8-.23,1.49.23,1.72.46.23,1.15-.23,1.49-.92.34-.8.23-1.49-.23-1.72-.57-.23-1.26.23-1.49.92"/>
            <path class="cls-27" d="m187.01,808.72c-.34.8-.23,1.49.23,1.72.46.23,1.15-.23,1.49-.92.34-.8.23-1.49-.23-1.72-.46-.34-1.15.12-1.49.92"/>
          </g>
          <path class="cls-27" d="m190.68,807.22c-.11-.12-.23-.23-.23-.34-.11-.69-.34-1.15-.69-1.49-.69-.57-1.61-.46-1.61-.46-.23,0-.46-.12-.46-.34s.11-.46.34-.46c0,0,1.26-.12,2.18.57.57.46.92,1.15,1.03,2.07,0,.23-.11.46-.34.46h-.23Z"/>
          <path class="cls-27" d="m177.7,801.7l-.11-.12c-.11-.12-.11-.46,0-.57,0,0,1.03-.8,2.18-.69.69.12,1.38.46,1.95,1.15.11.23.11.46-.11.57s-.46.12-.57-.12c-.46-.57-.92-.8-1.38-.92-.8-.12-1.61.46-1.61.46,0,.35-.23.35-.34.23Z"/>
          <path class="cls-19" d="m183.79,806.76s-.57,2.64.69,5.06c1.15,2.41-3.22,2.18-3.22,2.18l2.53-7.24Z"/>
        </g>
        <path class="cls-33" d="m61.72,865.38c.11.92.23,1.84.46,2.64.23.8.57,1.72.92,2.3.92,1.84,1.84,3.1,2.76,4.37.92,1.15,1.84,2.3,2.76,3.33,1.84,2.07,3.68,3.91,5.63,5.63,3.79,3.45,7.59,6.67,11.61,9.65,3.91,3.1,7.93,5.98,12.18,8.74l6.67-7.82c-6.32-7.24-12.87-14.37-18.51-21.61-1.38-1.84-2.76-3.56-4.02-5.4-.46-.69-.8-1.26-1.26-1.84.69-.57,1.72-1.26,2.87-1.84,1.61-.92,3.56-1.84,5.52-2.76,1.95-.92,4.02-1.72,6.21-2.53,4.25-1.61,8.62-3.1,13.1-4.6,4.48-1.38,8.97-2.76,13.56-4.02,4.48-1.26,9.2-2.53,13.56-3.79l-4.83-20.11c-5.06,1.15-9.77,2.41-14.6,3.79-4.83,1.38-9.54,2.87-14.37,4.6-4.71,1.72-9.54,3.45-14.25,5.63-4.71,2.07-9.43,4.37-14.37,7.7-1.26.8-2.41,1.72-3.68,2.76s-2.53,2.18-3.79,3.79c-1.26,1.61-2.76,3.56-3.68,6.55-.35,1.15-.58,2.99-.46,4.83Z"/>
        <g>
          <polygon class="cls-33" points="104.37 894 113.45 902.39 101.26 911.7 96.66 900.09 104.37 894"/>
          <path class="cls-33" d="m106.66,896.53s3.56.34,5.52,1.26c1.95.92,2.64,7.82,2.64,7.82l-2.3-3.56-5.86-5.52Z"/>
          <path class="cls-33" d="m112.64,901.01s4.25,5.06,3.33,7.24c-.92,2.18-3.45.69-3.45.69,0,0,0,2.41-1.03,2.87-1.26.69-2.07-.23-2.07-.23,0,0,0,2.07-1.03,2.41s-2.18,0-2.18,0c0,0,.46.8-1.38,1.26-1.72.46-3.68-3.56-3.68-3.56l11.49-10.69Z"/>
          <g class="cls-37">
            <path class="cls-24" d="m110,898.6s2.53,2.18,4.25,3.79c.11.34.11.8.23,1.15-1.15-1.15-3.56-3.45-4.83-4.48-.11-.12-.23-.34-.11-.46.11-.12.34-.12.46,0Z"/>
          </g>
        </g>
        <path class="cls-9" d="m173.44,832.74s1.49,12.18-9.88,11.15c-13.45-1.26-14.83-19.42-14.83-19.42"/>
        <g>
          <path class="cls-33" d="m230.45,883.43s-.46-7.59,1.15-9.31,9.77,4.25,9.2,6.21c-.57,1.84-5.98-1.61-5.98-1.61,0,0,.46,4.83-1.84,5.63-2.3.8-2.53-.92-2.53-.92Z"/>
          <path class="cls-33" d="m232.64,875.61s2.76-6.55,5.63-6.67,8.51,5.75,9.2,8.74-2.3,6.67-5.4,5.98c-2.99-.57-9.43-8.05-9.43-8.05Z"/>
          <path class="cls-33" d="m242.18,882.39s.23,4.83-3.91,6.09c-4.02,1.26-7.82-5.63-7.82-5.63,0,0,2.07-6.44,4.48-7.13,2.41-.57,7.24,6.67,7.24,6.67Z"/>
          <path class="cls-6" d="m237.81,879.63c-.34.12-.69.23-1.15.23-1.61,0-3.68-.8-3.79-.92-.11-.12-.23-.23-.11-.46.11-.12.23-.23.46-.12.8.34,3.22,1.15,4.48.69.23-.12.46-.23.57-.57.57-1.38-2.76-3.45-4.02-4.14-.11-.12-.23-.23-.11-.46.11-.12.23-.23.46-.12.23.12,1.72.92,2.87,1.84,1.15-.34,2.3-2.64,2.76-3.45.11-.12.23-.23.46-.12.11.12.23.23.11.46-.11.34-1.38,2.87-2.76,3.68.69.8,1.26,1.61,1.03,2.41q0,.12.11.23c2.99-.46,4.02-3.79,4.02-3.91s.23-.23.34-.23.23.23.23.34-1.15,3.68-4.48,4.25c.34.92,1.03,1.72,1.61,2.3h0c3.22-.34,4.25-3.91,4.25-3.91,0-.12.23-.23.34-.23s.23.23.23.34-1.03,3.56-4.37,4.25c.46.46.92.69.92.8.11.12.23.34.11.46q-.11.12-.23.12h-.23c-.11-.12-2.3-1.61-3.33-3.79.46,2.99-1.26,4.14-1.38,4.14h-.11c-.11,0-.23,0-.23-.12-.11-.12,0-.34.11-.46-.23.11,1.26-.92.8-3.56h0Z"/>
        </g>
      </g>
      <g>
        <g>
          <g>
            <g>
              <g>
                <polygon class="cls-23" points="660.56 913.43 656.31 940.55 692.74 940.55 678.49 926.18 679.52 912.85 660.56 913.43"/>
                <rect class="cls-28" x="670.63" y="927.41" width="8.39" height="2.3" transform="translate(-377.67 470.44) rotate(-30.47)"/>
              </g>
              <path class="cls-17" d="m735.73,716.65c-.57,3.22-1.03,6.44-1.61,9.54-1.03,5.98-2.07,11.95-3.1,17.82-3.79,21.03-8.05,41.38-12.53,61.15h0c-9.08,39.77-19.42,77.12-30.92,112.3h-32.41c12.99-62.18,25.63-123.79,29.77-171.38.57-7.01,1.03-13.68,1.26-20.11l49.54-9.31Z"/>
            </g>
            <g>
              <g>
                <polygon class="cls-23" points="734.47 912.16 732.86 939.98 771.71 940.55 756.3 926.18 757.45 912.85 734.47 912.16"/>
                <rect class="cls-28" x="748.07" y="927.29" width="8.97" height="2.3" transform="translate(-352.34 472.88) rotate(-28.57)"/>
              </g>
              <path class="cls-17" d="m761.71,916.76h-33.79c-2.41-38.5-5.29-76.09-9.43-111.61h0c-2.41-20.8-5.29-41.03-8.74-60.23-1.15-6.21-2.3-12.3-3.45-18.28l27.93-.46,13.91-.23c.92,5.63,1.84,11.38,2.53,17.13,7.82,55.98,10,114.59,11.03,173.67Z"/>
            </g>
          </g>
          <path class="cls-13" d="m750.56,743.09l-19.54.92-21.26.92-24.83,1.15c.57-7.01,1.03-13.68,1.26-20.11l49.65-9.31c-.57,3.22-1.03,6.44-1.61,9.54l13.91-.23c.8,5.75,1.72,11.38,2.41,17.13Z"/>
          <polygon class="cls-23" points="716.3 819.87 715.16 819.64 726.65 762.51 727.8 762.74 716.3 819.87"/>
        </g>
        <g>
          <path class="cls-23" d="m726.76,648.95c-17.13,1.84-31.15.46-44.83-7.82l-13.22,22.53,15.4,13.79-3.1,48.73c-.23,2.87,1.38,5.52,3.91,6.9,1.03.46,2.07.8,3.22.8h58.5c3.22,0,5.98-1.95,7.13-4.94.23-.69.46-1.49.46-2.3l2.53-51.61,26.21-6.21-6.09-20.69c-19.88,2.3-37.82,3.56-50.11.8Z"/>
          <g>
            <path class="cls-29" d="m682.05,641.13l-13.22,22.53-18.39-16.44c-.46-.34-.8-.69-1.15-1.15-3.56-3.56-6.09-8.16-7.13-13.1-.11-.69-.34-1.38-.46-2.07-4.02-17.93-11.72-52.76-11.26-55.86.57-4.14,4.83-2.3,4.83-2.3.34-3.91,3.68-1.84,3.68-1.84,0-2.3.69-2.76,2.99-2.64,2.18.12,5.17,13.68,5.17,13.68,0,0,3.33-7.01,5.75-6.44,2.41.46-2.07,14.02-2.07,14.02l15.98,39.19c4.94,5.29,10.11,9.31,15.29,12.41Z"/>
            <path class="cls-2" d="m651.71,639.87c0,2.41-.92,4.6-2.53,6.21-3.56-3.56-6.09-8.16-7.13-13.1-.11-.69-.34-1.38-.46-2.07.34,0,.8-.12,1.15-.12,4.94.12,8.97,4.14,8.97,9.08Z"/>
            <g>
              <path class="cls-35" d="m644.12,589.76c-1.95-2.07-1.95-4.25.11-6.32l.46.46c-1.84,1.84-1.84,3.68-.11,5.52l-.46.34Z"/>
              <polygon class="cls-35" points="639.64 576.65 638.49 571.02 639.07 570.91 640.21 576.54 639.64 576.65"/>
              <polygon class="cls-35" points="636.19 577.57 634.81 572.86 635.39 572.74 636.77 577.34 636.19 577.57"/>
              <rect class="cls-35" x="632.96" y="574.5" width=".57" height="4.48" transform="translate(-127.76 183.69) rotate(-15.01)"/>
            </g>
          </g>
          <g>
            <path class="cls-29" d="m809.98,654.24c-.23.46-.57.8-.8,1.26l-1.72,2.53c-2.3,3.45-5.86,5.98-9.88,7.13-.23.12-.46.12-.69.23l-13.91,3.33-5.98-20.57c5.52-.69,11.26-1.38,17.13-2.18l17.24-32.64s0-13.91,1.95-14.25c1.95-.46,3.45,8.05,3.45,8.05,0,0,7.47-11.26,9.77-11.26s1.72,3.22,1.72,3.22c0,0,2.18-2.64,3.45-1.38.69.69.57,3.1.57,3.1,0,0,.8-.8,2.53-.12,3.22,1.38-7.13,25.29-24.83,53.56Z"/>
            <path class="cls-2" d="m809.98,654.24c-.23.46-.57.8-.8,1.26l-1.72,2.53c-2.3,3.45-5.86,5.98-9.88,7.13-.34-.92-.57-1.95-.57-2.99,0-4.94,4.02-8.97,8.97-8.97,1.49.12,2.87.46,4.02,1.03Z"/>
            <g>
              <path class="cls-35" d="m818.14,615.16l-.34-.46c2.18-1.26,2.76-3.1,1.49-5.4l.46-.23c1.49,2.53.92,4.6-1.61,6.09Z"/>
              <polygon class="cls-35" points="825.96 603.66 825.38 603.43 828.14 598.26 828.72 598.61 825.96 603.66"/>
              <polygon class="cls-35" points="829.75 605.16 829.29 604.93 831.82 599.99 832.39 600.33 829.75 605.16"/>
              <polygon class="cls-35" points="832.28 605.73 831.82 605.39 834.23 601.59 834.69 601.94 832.28 605.73"/>
            </g>
          </g>
          <rect class="cls-17" x="680.03" y="658.09" width="1.15" height="30.92" transform="translate(-272.83 762.2) rotate(-50.01)"/>
          <polygon class="cls-17" points="756.53 695.27 755.38 695.27 757.11 662.17 758.26 662.28 756.53 695.27"/>
          <path class="cls-17" d="m726.88,670.33c-3.68,0-7.59-1.72-10.46-4.6l.8-.8c2.99,3.1,7.01,4.6,10.8,4.25,3.22-.34,5.98-2.18,7.7-5.06l1.03.57c-1.95,3.22-4.94,5.17-8.62,5.63h-1.26Z"/>
        </g>
        <g>
          <path class="cls-29" d="m727.11,661.02h0c-4.6.46-8.74-2.76-9.2-7.36l-2.18-19.65,16.55-1.84,2.18,19.65c.46,4.6-2.76,8.74-7.36,9.2Z"/>
          <path class="cls-36" d="m721.25,641.48c3.79,4.37,8.16,7.47,13.1,8.74l-1.15-10.57-11.95,1.84Z"/>
          <path class="cls-29" d="m741.02,620.22s3.22,20.8-4.14,23.56c-6.78,2.53-15.75-2.3-15.75-2.3l-5.98-17.47,7.82-7.13,18.05,3.33Z"/>
          <path class="cls-36" d="m718.37,630.44c.46-4.02,1.95-7.47,6.09-9.65,11.84,4.83,19.31,1.15,24.6-6.55,0,0-6.78,1.49-10.92-1.15-4.14-2.64-14.6-10.34-21.26.8-9.31,4.37-7.36,11.84-3.56,16.67l5.06-.12Z"/>
          <g>
            <path class="cls-29" d="m720.21,629.87c1.38,2.41.8,5.29-1.26,6.44-2.07,1.15-4.83.23-6.21-2.18-1.38-2.41-.8-5.29,1.26-6.44s4.94-.23,6.21,2.18Z"/>
            <path class="cls-36" d="m717.22,634.12c-.11-1.84-.92-3.1-2.41-3.79l.57-1.03c1.84.92,2.87,2.53,2.99,4.83h-1.15Z"/>
          </g>
        </g>
      </g>
      <g class="cls-42">
        <g>
          <path class="cls-23" d="m1536.06,988.6c-13.56,3.91-28.51,3.91-42.07,0-15.63-4.48-32.99-12.76-25.17-29.31,5.98-12.64,25.98-25.75,21.49-37.36-4.48-11.61-34.48-23.22-12.41-44.25,22.07-21.03,18.62-67.81,34.94-70.11.8-.12,1.49-.12,2.3,0,.69-.12,1.49-.12,2.3,0,16.32,2.3,12.99,48.96,34.94,70.11,21.95,21.03-7.93,32.64-12.41,44.25-4.48,11.61,15.52,24.6,21.49,37.36,7.59,16.55-9.77,24.83-25.4,29.31Z"/>
          <polygon class="cls-23" points="1519.27 1074.69 1510.77 1074.69 1513.76 854.69 1516.29 854.69 1519.27 1074.69"/>
        </g>
        <path class="cls-20" d="m1514.1,906.07c-12.99-4.94-19.88-22.3-20.11-22.99l1.03-.46c.12.23,7.01,17.59,19.54,22.41l-.46,1.03Z"/>
        <path class="cls-20" d="m1500.54,894.81c-1.49,0-8.05-.12-10.8-1.61l.57-1.03c2.76,1.49,10.46,1.49,10.46,1.49v1.15c.11,0,0,0-.23,0Z"/>
        <path class="cls-20" d="m1516.17,949.29l-.46-1.03c12.53-4.71,19.42-22.18,19.54-22.41l1.03.46c-.23.69-7.13,18.05-20.11,22.99Z"/>
        <path class="cls-20" d="m1529.73,938.02h-.34v-1.15c.12,0,7.7.12,10.46-1.49l.57,1.03c-2.64,1.49-9.2,1.61-10.69,1.61Z"/>
        <path class="cls-20" d="m1516.29,884.81l-.69-.92c.12-.12,9.65-7.36,14.14-18.51l1.03.46c-4.48,11.49-14.37,18.97-14.48,18.97Z"/>
      </g>
      <g class="cls-42">
        <g>
          <path class="cls-23" d="m1199.28,988.6c-13.56,3.91-28.51,3.91-42.07,0-15.63-4.48-32.99-12.76-25.17-29.31,5.98-12.64,25.98-25.75,21.49-37.36-4.48-11.61-34.48-23.22-12.41-44.25,21.95-21.03,18.62-67.81,34.94-70.11.8-.12,1.49-.12,2.3,0,.69-.12,1.49-.12,2.3,0,16.32,2.3,12.99,48.96,34.94,70.11,21.95,21.03-7.93,32.64-12.41,44.25-4.48,11.61,15.52,24.6,21.49,37.36,7.47,16.55-9.88,24.83-25.4,29.31Z"/>
          <g class="cls-42">
            <polygon class="cls-23" points="1182.5 1074.69 1173.88 1074.69 1176.98 854.69 1179.4 854.69 1182.5 1074.69"/>
          </g>
        </g>
        <path class="cls-20" d="m1177.33,906.07c-12.99-4.94-19.88-22.3-20.11-22.99l1.03-.46c.12.23,7.01,17.59,19.54,22.41l-.46,1.03Z"/>
        <path class="cls-20" d="m1163.77,894.81c-1.49,0-8.05-.12-10.8-1.61l.57-1.03c2.76,1.49,10.46,1.49,10.46,1.49v1.15s-.12,0-.23,0Z"/>
        <path class="cls-20" d="m1179.28,949.29l-.46-1.03c12.53-4.71,19.42-22.18,19.54-22.41l1.03.46c-.23.69-7.01,18.05-20.11,22.99Z"/>
        <path class="cls-20" d="m1192.96,938.02h-.34v-1.15c.12,0,7.7.12,10.46-1.49l.57,1.03c-2.76,1.49-9.2,1.61-10.69,1.61Z"/>
        <path class="cls-20" d="m1179.4,884.81l-.69-.92c.12-.12,9.65-7.36,14.14-18.51l1.03.46c-4.48,11.49-14.37,18.97-14.48,18.97Z"/>
      </g>
      <path class="cls-21" d="m1352.84,774.12c.23-3.33-.69-7.13-4.48-8.74-7.93-3.56-13.56,3.1-13.56,3.1,0,0-3.1-21.49-20.11-21.84s-19.54,20.69-19.54,20.69c0,0-6.78-7.24-13.79-5.4-4.48,1.15-7.93,7.7-9.77,12.18h81.26Z"/>
      <path class="cls-21" d="m1206.06,730.56c-.12-3.33-1.03-20.8-14.94-20.8-15.4,0-17.13,17.82-17.13,17.82,0,0-3.56-8.74-13.22-7.36-6.55.92-9.77,8.28-10.57,10.34h55.86Z"/>
      <path class="cls-21" d="m1447.44,726.42c-.12-3.33-1.03-20.8-14.94-20.8-15.4,0-17.13,17.82-17.13,17.82,0,0-3.56-8.74-13.22-7.36-6.55.92-9.77,8.28-10.57,10.34h55.86Z"/>
      <circle class="cls-25" cx="1264.98" cy="720.17" r="21.38"/>
      <path class="cls-12" d="m1288.82,1074.69c0-4.48-1.15-27.82-26.21-31.38-27.7-4.02-39.31,22.41-39.31,22.41,0,0-4.83-10-13.45-10.92-12.64-1.38-19.08,10.92-19.08,10.92,0,0-19.42-21.26-43.56-17.24-21.26,3.56-27.36,21.95-28.51,26.21h170.11Z"/>
      <path class="cls-23" d="m1359.39,1069.86s-14.48-14.83-9.65-18.39c4.83-3.56,12.53,12.53,12.53,12.53,0,0,.57-13.79,6.55-12.99,5.98.8-2.53,18.97-2.53,18.97h-6.9v-.11Z"/>
      <path class="cls-23" d="m1476.06,1074.8s14.48-14.83,9.65-18.39c-4.83-3.68-12.53,12.53-12.53,12.53,0,0-.57-13.79-6.55-12.99s2.53,18.97,2.53,18.97h6.9v-.11Z"/>
      <path class="cls-12" d="m1597.43,1074.46c-1.72-5.63-6.9-14.71-21.95-17.82-22.41-4.6-31.03,12.07-31.03,12.07-21.61-7.7-33.68-.23-39.42,5.86h92.41v-.12Z"/>
      <ellipse class="cls-31" cx="1369.97" cy="1114.34" rx="247.24" ry="7.13"/>
      <g>
        <g>
          <path class="cls-23" d="m1505.48,776.53s13.45,39.88,41.61,33.68c17.7-3.91,14.37-19.08,14.37-19.08,0,0,23.45,11.84,36.44-8.05,12.87-19.65-3.1-34.14-3.1-34.14,0,0,15.98,5.86,20.69-6.32,3.79-9.77-20-18.51-20-18.51l-90,52.41Z"/>
          <path class="cls-7" d="m1507.78,777.68s13.45,39.88,41.61,33.68c17.7-3.91,14.37-19.08,14.37-19.08,0,0,23.45,11.84,36.44-8.05,12.87-19.65-3.1-34.14-3.1-34.14,0,0,15.98,5.86,20.69-6.32,3.79-9.77-20-18.51-20-18.51l-90,52.41Z"/>
          <path class="cls-23" d="m1526.4,781.48s12.76,161.95-7.47,332.98h38.39s-20.46-262.98-14.14-345.39l-16.78,12.41Z"/>
          <path class="cls-23" d="m1542.26,840.9s12.76-3.1,20.46-11.38c9.2-9.77,15.98-15.17,25.52-26.55,0,0-10.92,19.42-18.85,28.62-7.36,8.51-26.67,24.48-26.67,24.48l-.46-15.17Z"/>
          <path class="cls-23" d="m1531.57,819.29s-12.18-4.83-18.74-14.14c-7.7-10.92-13.68-17.24-21.61-29.88,0,0,8.16,20.69,14.71,31.03,6.09,9.54,23.91,27.47,23.91,27.47l1.72-14.48Z"/>
          <g>
            <path class="cls-23" d="m1493.76,715.84s-25.86-12.18-37.59,11.84,18.74,43.56,18.74,43.56c0,0-13.45,21.95,9.77,31.84,19.08,8.16,32.53-13.1,32.53-13.1,0,0,19.42,14.94,32.76-12.07,13.33-27.01-4.71-92.53-56.21-62.07Z"/>
            <path class="cls-7" d="m1492.61,715.84s-25.86-12.18-37.59,11.84,18.74,43.56,18.74,43.56c0,0-13.45,21.95,9.77,31.84,19.08,8.16,32.53-13.1,32.53-13.1,0,0,19.42,14.94,32.76-12.07,13.33-27.01-4.71-92.53-56.21-62.07Z"/>
            <g>
              <path class="cls-23" d="m1507.78,650.9s-35.52,19.19-38.85,42.07c-3.33,22.87,26.44,27.01,26.44,27.01,0,0-21.38,34.37-6.55,47.47,14.94,12.99,39.42-7.47,39.42-7.47,0,0,22.3,29.77,44.37,21.72s16.67-36.67,16.67-36.67c0,0,41.72-24.71,20.46-55.52-21.26-30.8-51.15-19.31-51.15-19.31,0,0-11.72-40.46-50.8-19.31Z"/>
              <path class="cls-8" d="m1507.78,650.9s-35.52,19.19-38.85,42.07c-3.33,22.87,26.44,27.01,26.44,27.01,0,0-21.38,34.37-6.55,47.47,14.94,12.99,39.42-7.47,39.42-7.47,0,0,22.3,29.77,44.37,21.72s16.67-36.67,16.67-36.67c0,0,41.72-24.71,20.46-55.52-21.26-30.8-51.15-19.31-51.15-19.31,0,0-11.72-40.46-50.8-19.31Z"/>
            </g>
          </g>
        </g>
        <g>
          <path class="cls-23" d="m1590.88,1114.69c-1.61-5.06-6.55-17.01-18.28-19.08-14.94-2.64-23.1,13.79-23.1,13.79,0,0-7.82-9.88-25.86-8.85-13.79.8-20,9.77-22.18,14.02h89.42v.12Z"/>
          <path class="cls-8" d="m1590.88,1114.69c-1.61-5.06-6.55-17.01-18.28-19.08-14.94-2.64-23.1,13.79-23.1,13.79,0,0-7.82-9.88-25.86-8.85-13.79.8-20,9.77-22.18,14.02h89.42v.12Z"/>
        </g>
      </g>
      <g>
        <path class="cls-23" d="m1478.7,1112.62s-14.02-14.37-9.43-17.93c4.71-3.56,12.18,12.07,12.18,12.07,0,0,.57-13.33,6.32-12.53,5.75.8-2.41,18.39-2.41,18.39h-6.67Z"/>
        <path class="cls-8" d="m1478.7,1111.47s-14.02-14.37-9.43-17.93c4.71-3.56,12.18,12.07,12.18,12.07,0,0,.57-13.33,6.32-12.53,5.75.8-2.41,18.39-2.41,18.39h-6.67Z"/>
      </g>
      <g>
        <g>
          <path class="cls-23" d="m1191.58,1104.69s-18.74-24.02-10.57-27.24c8.16-3.22,13.33,16.32,13.33,16.32,0,0,1.84-25.75,9.43-23.79,7.47,1.95-4.71,26.9-4.71,26.9,0,0,5.29-10.57,12.18-10.34s-8.16,17.13-8.16,17.13l-11.49,1.03Z"/>
          <g class="cls-41">
            <path class="cls-28" d="m1191.58,1104.69s-18.74-24.02-10.57-27.24c8.16-3.22,13.33,16.32,13.33,16.32,0,0,1.84-25.75,9.43-23.79,7.47,1.95-4.71,26.9-4.71,26.9,0,0,5.29-10.57,12.18-10.34s-8.16,17.13-8.16,17.13l-11.49,1.03Z"/>
          </g>
        </g>
        <g>
          <path class="cls-23" d="m1272.84,1115.26c2.76-3.45,6.44-8.74,3.22-8.97-4.71-.23-8.39,7.13-8.39,7.13,0,0,8.28-17.13,3.22-18.51-5.29-1.38-6.55,16.32-6.55,16.32,0,0-3.56-13.33-9.2-11.15-3.91,1.49,1.26,10.23,4.71,15.17h12.99Z"/>
          <g class="cls-41">
            <path class="cls-28" d="m1272.84,1115.84c2.76-3.45,6.44-8.74,3.22-8.97-4.71-.23-8.39,7.13-8.39,7.13,0,0,8.28-17.13,3.22-18.51-5.29-1.38-6.55,16.32-6.55,16.32,0,0-3.56-13.33-9.2-11.15-3.91,1.49,1.26,10.23,4.71,15.17h12.99Z"/>
          </g>
        </g>
        <path class="cls-23" d="m1143.77,1116.41s11.03-20,25.63-22.76c18.39-3.45,27.59,9.77,27.59,9.77,0,0,6.21-8.51,16.67-7.13,7.47.92,12.64,7.13,12.64,7.13,0,0,12.64-9.2,22.64-3.79,9.54,5.17,11.84,16.78,11.84,16.78h-117.01Z"/>
      </g>
      <g>
        <g>
          <g class="cls-42">
            <path class="cls-23" d="m824.92,1011.58s69.77-37.01,81.72-56.44c11.95-19.31-5.63-20.46-5.63-20.46,0,0,31.15-32.64,26.78-46.32-4.37-13.68-20.46-1.15-20.46-1.15,0,0,20-48.04,10.57-52.87-17.59-8.97-42.3,42.64-42.3,42.64,0,0,5.29-22.41-6.78-21.72-18.28,1.15-17.47,51.84-17.47,51.84,0,0-2.07-19.42-13.1-13.1-19.77,11.49-13.33,117.58-13.33,117.58Z"/>
          </g>
          <path class="cls-5" d="m832.05,886.3c8.62-5.17,17.13,9.88,17.13,9.88,0,0-.92-39.65,17.36-40.69,12.07-.69,6.78,21.72,6.78,21.72,0,0,24.71-51.61,42.3-42.64l-92.99,176.32c-.69-12.41-7.7-114.37,9.43-124.59Z"/>
        </g>
        <g>
          <path class="cls-23" d="m822.16,1010.9s57.01,7.59,71.84.8c14.83-6.78,4.14-15.17,4.14-15.17,0,0,31.72-6.67,34.14-17.24,2.41-10.46-12.18-9.65-12.18-9.65,0,0,30.46-21.26,26.32-28.39-7.59-13.33-42.41,8.16-42.41,8.16,0,0,11.72-11.72,3.91-16.55-11.84-7.36-30.46,24.71-30.46,24.71,0,0,1.15-7.93-8.05-8.74-16.55-1.49-47.24,62.07-47.24,62.07Z"/>
          <path class="cls-23" d="m871.36,944.35c9.2.92,8.51,14.48,8.51,14.48,0,0,18.97-37.93,30.8-30.57,7.82,4.83-1.38,20.8-1.38,20.8,0,0,32.07-19.77,39.54-6.44l-124.48,69.19c4.14-8.05,31.49-68.96,47.01-67.47Z"/>
        </g>
      </g>
      <g>
        <g>
          <path class="cls-14" d="m600.79,1021.58s-83.56-41.26-98.04-62.76c-14.37-21.49,6.78-22.76,6.78-22.76,0,0-37.36-36.32-32.07-51.61,5.29-15.29,24.83-.69,24.83-.69,0,0-24.25-54.02-12.99-59.31,21.03-10,50.57,47.47,50.57,47.47,0,0-6.32-24.94,8.16-24.14,21.84,1.26,21.03,57.7,21.03,57.7,0,0,2.53-21.61,15.63-14.6,23.79,12.64,16.09,130.69,16.09,130.69Z"/>
          <path class="cls-23" d="m589.53,882.16c-10.34-5.75-20.57,11.03-20.57,11.03,0,0,1.03-44.14-20.8-45.29-14.48-.8-8.16,24.14-8.16,24.14,0,0-29.54-57.47-50.57-47.47l111.49,196.09c.8-13.68,9.08-127.12-11.38-138.5Z"/>
        </g>
        <g>
          <path class="cls-23" d="m598.61,1018.6s-68.39,8.51-86.09.92c-17.7-7.59-5.06-16.9-5.06-16.9,0,0-38.05-7.47-40.92-19.08-2.99-11.61,15.17-10.46,15.17-10.46,0,0-37.01-23.79-32.18-31.72,9.08-14.83,50.92,9.08,50.92,9.08,0,0-14.14-12.99-4.71-18.39,14.14-8.16,36.55,27.47,36.55,27.47,0,0-1.38-8.74,9.65-9.77,19.88-1.95,56.67,68.85,56.67,68.85Z"/>
          <path class="cls-23" d="m540.79,937.68c-11.03.92-10.92,11.72-10.92,11.72,0,0-20.46-32.3-34.6-24.14-9.43,5.4,1.72,23.1,1.72,23.1,0,0-38.39-21.95-47.47-7.13l149.19,77.01c-4.94-8.85-39.42-82.18-57.93-80.57Z"/>
        </g>
      </g>
      <g>
        <g>
          <polygon class="cls-17" points="740.33 688.26 739.06 686.31 737.34 687.8 739.18 676.65 742.17 677.11 740.33 688.26"/>
          <polygon class="cls-17" points="745.84 687.8 744.12 686.31 742.86 688.26 741.02 677.11 744.01 676.65 745.84 687.8"/>
        </g>
        <path class="cls-17" d="m748.37,679.18c0,.69-.57,1.15-.8,1.72s-.11,1.38-.46,1.84c-.34.46-1.15.57-1.61,1.03-.46.34-.8,1.03-1.49,1.26-.57.23-1.26-.23-1.95-.23s-1.38.34-1.95.23c-.57-.23-.92-.92-1.49-1.26-.46-.34-1.26-.46-1.61-1.03-.34-.46-.23-1.26-.46-1.84-.23-.57-.8-1.15-.8-1.72,0-.69.57-1.15.8-1.72s.11-1.38.46-1.84c.34-.46,1.15-.57,1.61-1.03.46-.34.8-1.03,1.49-1.26.57-.23,1.26.23,1.95.23s1.38-.34,1.95-.23c.57.23.92.92,1.49,1.26.46.34,1.26.46,1.61,1.03.34.46.23,1.26.46,1.84.23.57.8,1.03.8,1.72Z"/>
        <path class="cls-32" d="m743.66,684.7c-.23,0-.46,0-.69-.12s-.57-.12-.92-.12-.57.12-.92.12c-.23,0-.46.12-.69.12h-.23c-.23-.12-.46-.34-.69-.57s-.34-.46-.57-.57c-.23-.23-.46-.34-.8-.46-.34-.12-.69-.23-.8-.46s-.23-.57-.23-.92c0-.23,0-.57-.11-.92-.11-.23-.23-.57-.34-.8-.23-.34-.34-.57-.34-.92s.23-.57.34-.92c.11-.23.34-.46.34-.8.11-.23.11-.57.11-.92s.11-.69.23-.92.46-.34.8-.46c.23-.12.57-.23.8-.46s.46-.34.57-.57c.23-.23.46-.57.69-.57h.23c.23,0,.46,0,.69.12s.57.12.92.12.57-.12.92-.12c.23,0,.46-.12.69-.12h.23c.23.12.46.34.69.57s.34.46.57.57c.23.23.46.34.8.46.34.12.69.23.8.46s.23.57.23.92c0,.23,0,.57.11.92.11.23.23.57.34.8.23.34.34.57.34.92s-.23.57-.34.92c-.11.23-.34.46-.34.8-.11.23-.11.57-.11.92s-.11.69-.23.92-.46.34-.8.46c-.23.12-.57.23-.8.46s-.46.34-.57.57c-.23.23-.46.57-.69.57h-.23Z"/>
        <circle class="cls-23" cx="742.26" cy="679.23" r="4.48" transform="translate(-33.22 1320.26) rotate(-82.04)"/>
        <circle class="cls-28" cx="742.05" cy="679.18" r="4.25"/>
        <circle class="cls-32" cx="741.99" cy="679.32" r="3.91" transform="translate(-7.07 1350.84) rotate(-84.35)"/>
        <g>
          <path class="cls-28" d="m739.98,680.79l.11-1.15h-.46v-.34h.46l.11-.8h-.46v-.34h.57l.11-1.03h.34l-.11,1.03h.57l.11-1.03h.34l-.11,1.03h.46v.34h-.46l-.11.8h.46v.34h-.57l-.11,1.15h-.34l.11-1.15h-.57l-.11,1.15h-.34Zm1.15-1.38l.11-.8h-.57l-.11.8h.57Z"/>
          <path class="cls-28" d="m743.55,677.68h0l-.69.34-.11-.34.8-.46h.46v3.68h-.46v-3.22Z"/>
        </g>
      </g>
      <g>
        <polygon class="cls-17" points="518.61 1086.64 315.51 1086.64 332.41 984.57 501.71 984.57 518.61 1086.64"/>
        <polygon class="cls-17" points="283.21 1086.64 315.51 1086.64 332.41 984.57 295.28 1030.78 283.21 1086.64"/>
        <polygon class="cls-17" points="551.02 1086.64 518.72 1086.64 501.71 984.57 538.95 1030.78 551.02 1086.64"/>
      </g>
      <g>
        <polygon class="cls-17" points="1087.56 1090.09 884.46 1090.09 901.36 988.02 1070.66 988.02 1087.56 1090.09"/>
        <polygon class="cls-17" points="852.16 1090.09 884.46 1090.09 901.36 988.02 864.23 1034.23 852.16 1090.09"/>
        <polygon class="cls-17" points="1119.97 1090.09 1087.68 1090.09 1070.66 988.02 1107.9 1034.23 1119.97 1090.09"/>
      </g>
      <g>
        <path class="cls-22" d="m1349.05,1109.97l-11.61,1.72h0c-.12-.34-2.53-6.55-6.44-15.75-.34-.8-.69-1.72-1.03-2.53-7.13-17.01-18.39-42.41-28.73-60.46-2.87-5.06-5.86-12.07-8.74-20.34-.12-.23-.23-.46-.23-.8-13.91-40.11-26.21-107.35-26.21-107.35,0,0,40.69-12.99,47.7,0,7.01,12.87,5.17,109.08,5.17,109.08,8.85,11.26,19.77,52.41,25.75,77.24,2.64,11.26,4.37,19.19,4.37,19.19Z"/>
        <path class="cls-17" d="m1332.96,1100.78c2.64,6.55,4.25,10.69,4.37,10.92h0l11.61-1.72s-1.38-6.21-3.56-15.52c-4.25,1.84-8.39,4.02-12.41,6.32Z"/>
        <path class="cls-6" d="m1316.06,1013.19l-2.87,10.23-20.69-10.8c-.12-.23-.23-.57-.23-.8l23.79,1.38Z"/>
        <path class="cls-17" d="m1321.23,959.17l-7.47.69-3.56-8.62-.69,9.43s-25.29,6.9-33.33,4.83l-.92-5.86-2.87-17.59,46.67-32.53,2.18,49.65Z"/>
        <path class="cls-6" d="m1319.05,909.63c.92,4.02-2.99,25.63-24.25,40.11-10.34,7.01-15.98,9.2-19.54,10l-2.87-17.59,46.67-32.53Z"/>
        <path class="cls-22" d="m1258.36,833.54c.69,8.74.92,17.24.8,25.86-.12,4.37-.23,8.74-.57,13.1-.34,4.37-.8,8.85-1.84,13.56-.57,2.41-1.03,4.83-2.41,7.82-.34.8-.8,1.61-1.38,2.53-.69.92-1.49,1.95-2.99,3.1-.57.34-1.61,1.03-2.3,1.15-.34.12-.8.23-1.15.34s-.69.12-1.03.12h-1.61c-.34,0-.8-.12-1.15-.23-1.38-.34-2.3-.69-3.1-1.03-1.49-.69-2.64-1.49-3.68-2.18-1.03-.69-1.95-1.49-2.87-2.18-1.84-1.49-3.45-2.99-5.06-4.48-6.44-6.09-12.07-12.53-17.47-19.19l6.09-5.98c3.33,2.53,6.55,5.17,9.88,7.7,3.33,2.53,6.55,5.06,9.88,7.36,1.61,1.15,3.33,2.3,4.94,3.33.8.46,1.61.92,2.3,1.38.69.34,1.49.69,1.84.8.23.12.34,0-.12-.12-.12,0-.23-.12-.46-.12h-.8c-.23,0-.34,0-.57.12-.23,0-.57.12-.8.23-.12,0-.23.12-.34.12-.12.12-.34.12-.46.23s-.34.12-.46.23l-.34.23c-.69.46-.8.69-.8.69,0,0,0-.12.12-.23.34-.92.69-2.64.92-4.37.46-3.56.69-7.59.8-11.61.12-4.02.12-8.16,0-12.3-.12-8.16-.46-16.67-.69-24.83l16.9-1.15Z"/>
        <g>
          <path class="cls-22" d="m1217.44,867.22s.46-6.9-1.03-8.51c-1.49-1.61-8.85,3.91-8.39,5.63s5.4-1.49,5.4-1.49c0,0-.34,4.37,1.72,5.17,2.07.69,2.3-.8,2.3-.8Z"/>
          <path class="cls-22" d="m1215.37,859.98s-2.53-5.98-5.17-6.09-7.82,5.29-8.39,7.93c-.57,2.64,2.18,6.09,4.94,5.52,2.87-.57,8.62-7.36,8.62-7.36Z"/>
          <path class="cls-22" d="m1206.75,866.19s-.12,4.48,3.56,5.63c3.68,1.15,7.24-5.17,7.24-5.17,0,0-1.84-5.98-4.02-6.55-2.3-.46-6.78,6.09-6.78,6.09Z"/>
          <path class="cls-6" d="m1210.78,863.66c.34.12.69.23,1.03.23,1.49,0,3.33-.8,3.45-.8.12-.12.23-.23.12-.34-.12-.12-.23-.23-.34-.12-.8.34-2.99,1.03-4.02.69-.23-.12-.46-.23-.46-.46-.57-1.26,2.53-3.22,3.68-3.79.12-.12.23-.23.12-.34-.12-.12-.23-.23-.34-.12-.23.12-1.49.8-2.64,1.72-1.03-.34-2.18-2.41-2.53-3.22-.12-.12-.23-.23-.34-.12-.12.12-.23.23-.12.34.12.34,1.26,2.64,2.53,3.33-.69.69-1.15,1.49-.92,2.18q0,.12-.12.23c-2.76-.46-3.68-3.45-3.68-3.56s-.23-.23-.34-.23-.23.23-.23.34,1.03,3.33,4.02,3.91c-.34.8-.92,1.49-1.49,2.07h0c-2.99-.34-3.91-3.56-3.91-3.56,0-.12-.23-.23-.34-.23s-.23.23-.23.34,1.03,3.33,4.02,3.91c-.46.46-.8.69-.8.69-.12.12-.12.23-.12.46,0,.12.12.12.23.12h.12c.12-.12,2.07-1.49,2.99-3.45-.34,2.64,1.15,3.79,1.26,3.79h.12c.12,0,.23,0,.23-.12.12-.12,0-.34-.12-.46.11,0-1.26-.92-.8-3.45h0Z"/>
        </g>
        <g>
          <path class="cls-23" d="m1315.37,896.19c-22.41,12.18-54.94,13.91-55.06,8.39-.57-21.38-7.36-34.48-12.76-40.23-11.03-11.72-5.17-12.64-5.29-20,0-1.15-.23-2.53-.69-4.14-.12-.34-.12-.69-.23-.92-1.84-8.05,0-14.83,7.47-17.93.34-.12.69-.23.92-.34,2.41-.92,1.95-1.38,4.37-2.18h.12c6.32-1.95,12.41-3.1,19.42-4.25,1.03-.23,2.18-.34,3.33-.57,1.49-.23,2.87-.46,4.37-.57.69-.12,1.38-.12,2.07-.23,7.7-.8,14.48,5.17,14.48,12.87,0,4.6.23,9.08.57,13.33,2.41,26.21,11.03,45.52,16.9,56.78Z"/>
          <path class="cls-22" d="m1248.82,821.13c-.92,2.53-3.22,9.2-5.52,14.37-.69,1.49-1.26,2.64-1.84,3.68-1.95-8.05-.11-14.83,7.36-18.05Z"/>
          <path class="cls-22" d="m1273.76,814.23c-1.38,4.83-4.94,15.4-10.57,18.51-7.01,3.91-13.56-5.29-8.85-14.25,6.21-1.84,12.3-2.99,19.42-4.25Z"/>
          <path class="cls-22" d="m1298.59,839.18c-5.63,4.02-12.18,6.21-15.86,3.56-7.7-5.29-2.87-24.48-1.38-29.65.69-.12,1.38-.12,2.07-.23,7.7-.8,14.48,5.17,14.48,12.87,0,1.84,0,3.56.12,5.29.12,2.41.23,4.71.46,7.13.11.34.11.69.11,1.03Z"/>
          <path class="cls-6" d="m1298.47,838.14l-11.38-8.05,11.03.92c0,2.53.23,4.83.34,7.13Z"/>
          <path class="cls-10" d="m1246.18,837.8l-1.38,12.18s17.7.46,28.73-4.14c0,0,1.61-10.23.12-12.99.11,0-9.77,3.91-27.47,4.94Z"/>
          <g>
            <path class="cls-22" d="m1272.38,815.5s-4.02,4.14-7.7,9.31c-.8,1.03-1.61,2.07-2.64,2.99-2.64,2.41-5.17,4.02-6.32,2.76-.23-.23-.46-.57-.69-.92-1.26-2.3-1.03-5.17.46-7.24,1.72-2.3,1.61-4.71.57-7.01-.57-1.26-1.38-2.64-2.3-3.79l1.26-2.53,6.78-11.61c1.49,6.09,4.83,15.98,10.57,18.05Z"/>
            <path class="cls-6" d="m1256.29,815.27c-.57-1.26-1.38-2.64-2.3-3.79l1.26-2.53,5.17-.57c-.12,0-.92,4.37-4.14,6.9Z"/>
            <path class="cls-22" d="m1261.81,785.84c2.3,10.23,3.45,14.6,0,21.15-5.29,9.88-18.16,10.46-23.45,1.03-4.71-8.51-7.7-23.79.92-30.57,8.39-6.67,20.23-1.84,22.53,8.39"/>
            <path class="cls-27" d="m1233.88,792.51s-8.28-6.09,2.64-15.17c0,0,7.59-10.23,19.42-5.98,11.84,4.14,14.6,17.59,7.82,30.57,0,0-.8-10.46-5.17-12.76s-8.97-3.91-7.82-7.47c0,0-12.99,5.4-14.83,2.07-.8.57-2.18,1.95-2.07,8.74Z"/>
            <path class="cls-27" d="m1305.14,804.12c-19.42,4.25-16.78-9.65-22.53-9.77-5.75-.23-2.64,6.67-8.39,8.28-5.75,1.61-10.57-6.78-10.57-6.78l.57-2.87c0-.34,2.76-2.53,4.71-1.15,1.95,1.38,4.83-4.94,10.92-7.82,6.09-2.99,11.15,1.61,14.02,9.54,2.87,7.82,11.26,10.57,11.26,10.57Z"/>
            <path class="cls-28" d="m1240.89,805.27s5.29-1.84,6.55-4.02c0,0,.46,4.02-2.3,5.29-2.76,1.26-4.25-1.26-4.25-1.26Z"/>
            <path class="cls-27" d="m1244.8,792.97c.23.8,0,1.61-.57,1.72s-1.15-.34-1.38-1.26,0-1.61.57-1.72c.46-.12,1.15.34,1.38,1.26"/>
            <path class="cls-27" d="m1236.52,795.5c.23.8,0,1.61-.57,1.72s-1.15-.34-1.38-1.26c-.23-.8,0-1.61.57-1.72.57-.11,1.15.46,1.38,1.26"/>
            <path class="cls-27" d="m1235.37,794.23h-2.18c.11,0,1.49,1.26,2.18,0"/>
            <path class="cls-30" d="m1240.09,795.96s-.69,2.18-1.49,4.14c-.23.69.12,1.38.8,1.49,1.15.23,2.3.12,2.3.12l-1.61-5.75Z"/>
            <path class="cls-22" d="m1267.44,791.82c-.34,2.18-1.61,3.91-2.99,4.71-2.07,1.26-3.91-.92-4.02-3.56-.12-2.41.92-5.98,3.33-6.09,2.41-.23,4.02,2.41,3.68,4.94"/>
            <path class="cls-27" d="m1246.87,790.44c-.12,0-.23-.12-.34-.12-1.49-1.72-3.33-1.38-3.33-1.38-.23,0-.57-.12-.57-.46,0-.23.12-.57.46-.57.12,0,2.41-.34,4.25,1.72.23.23.12.57,0,.69-.23,0-.34.11-.46.11"/>
            <path class="cls-27" d="m1232.73,792.74c-.12,0-.23,0-.34-.12-.23-.12-.34-.46-.23-.69,1.38-2.41,3.79-2.53,3.79-2.53.23,0,.46.23.57.46,0,.23-.23.46-.46.57-.12,0-1.84.12-2.99,2.07-.12.12-.23.23-.34.23"/>
            <path class="cls-27" d="m1243.65,791.71h-2.18s1.49,1.26,2.18,0"/>
          </g>
          <path class="cls-17" d="m1234.57,779.06s-8.39.46-15.06,1.61c-5.17.92.92,4.48,14.37,4.48s20.11-5.17,20.11-5.17c-9.08.12-16.67,0-19.42-.92Z"/>
          <path class="cls-4" d="m1234.57,779.06s-8.39.46-15.06,1.61c-5.17.92.92,4.48,14.37,4.48s20.11-5.17,20.11-5.17c-9.08.12-16.67,0-19.42-.92Z"/>
          <path class="cls-17" d="m1233.76,779.18s.92-4.14,5.63-4.83c0,0,10.23,2.18,21.49,0,0,0,4.37,1.15,4.94,6.32.12,0-14.6,2.41-32.07-1.49Z"/>
          <path class="cls-15" d="m1233.76,779.18s.92-4.14,5.63-4.83c0,0,10.23,2.18,21.49,0,0,0,4.37,1.15,4.94,6.32.12,0-14.6,2.41-32.07-1.49Z"/>
        </g>
        <path class="cls-22" d="m1298.13,999.63l17.24,10.23-6.78,6.21s-5.06-1.03-12.76-2.99h0c-27.24-6.67-88.04-23.79-83.45-42.07,5.06-20.11,37.82-52.07,50.8-64.25l52.3-10.57c16.67,29.54-65.17,75.17-68.62,72.99l51.26,30.46Z"/>
        <path class="cls-17" d="m1315.37,1009.75l-6.78,6.21s-5.06-1.03-12.76-2.99l-1.49-.34,3.91-13.1,17.13,10.23Z"/>
        <path class="cls-17" d="m1260.31,904.58l-18.97,22.07,23.56,13.45,7.47-2.76-1.84,6.09,12.76,10.34s49.65-32.18,32.18-57.47c-15.52,3.45-37.47-1.26-55.17,8.28Z"/>
        <path class="cls-9" d="m1311,896.88s14.71,21.03-32.64,49.88"/>
        <path class="cls-23" d="m1341.12,1110.55s-2.18-1.72-4.37-.69-2.53,6.9-6.78,12.41c-2.53,3.1-3.1,4.37-4.48,5.63-1.95,1.84-2.18,4.6-1.61,7.36h0l34.48-18.74s-2.76-5.17-5.29-7.13c-2.53-1.95-6.21-5.4-6.78-4.6-2.76,3.79-2.87,6.78-5.17,5.75Z"/>
        <path class="cls-23" d="m1311.46,1013.08s-2.76-.46-4.14,1.38c-1.38,1.84,1.03,7.24-.23,14.14-.69,3.91-.69,5.29-1.38,7.01-.92,2.53.34,5.06,2.07,7.13h0l21.72-32.76s-4.83-3.22-7.93-3.79-8.05-1.84-8.16-.8c-.8,4.83.46,7.59-1.95,7.7Z"/>
        <g>
          <path class="cls-22" d="m1344.68,839.41c0,.23-.12.57-.12.8s-.12.57-.12.69c-.23.92-.46,1.49-.69,2.07-.46,1.15-1.03,1.84-1.49,2.41-.92,1.26-1.72,2.18-2.64,2.99-1.72,1.72-3.33,2.99-4.94,4.37-1.61,1.26-3.33,2.53-4.94,3.68-6.67,4.71-13.45,8.85-20.46,12.64l-4.83-7.01c2.87-2.53,5.86-5.17,8.62-7.82,2.87-2.53,5.75-5.17,8.51-7.82,1.38-1.26,2.76-2.64,4.02-3.91.69-.69,1.38-1.38,1.95-2.07-.8-.34-1.72-.69-2.64-1.03-1.61-.57-3.33-1.03-5.06-1.61-3.45-1.03-7.13-1.84-10.8-2.64-7.36-1.61-14.94-2.99-22.3-4.37l2.64-17.01c8.16,1.15,15.86,2.76,23.79,4.71,3.91,1.03,7.82,2.18,11.84,3.56,1.95.69,4.02,1.49,5.98,2.41,2.07.92,4.14,1.84,6.32,3.33,1.15.69,2.3,1.49,3.56,2.76.34.23.69.69.92,1.03.34.46.69.8,1.03,1.26.12.23.34.46.46.8.12.23.34.57.46.92.12.23.34.69.46,1.03l.23.57c.12.34.23.8.34,1.26.12.46.12.8.12,1.15-.11.11-.11.46-.23.8Z"/>
          <polygon class="cls-22" points="1306.64 860.9 1296.98 864.23 1303.19 875.27 1310.43 868.03 1306.64 860.9"/>
          <path class="cls-22" d="m1304.11,861.93s-2.87-.92-4.6-.8-4.6,5.06-4.6,5.06l2.87-1.84,6.32-2.41Z"/>
          <path class="cls-22" d="m1298.13,863.31s-4.83,2.3-4.94,4.25,2.3,1.72,2.3,1.72c0,0-.8,1.84-.23,2.53.69.92,1.61.46,1.61.46,0,0-.69,1.49,0,2.18.69.69,1.61.69,1.61.69,0,0-.57.46.57,1.38s3.91-1.38,3.91-1.38l-4.83-11.84Z"/>
          <g class="cls-37">
            <path class="cls-24" d="m1300.89,862.39s-2.64.8-4.48,1.49c-.23.23-.34.57-.57.8,1.26-.46,3.91-1.38,5.17-1.72.12,0,.23-.23.23-.34s-.23-.23-.34-.23Z"/>
          </g>
        </g>
      </g>
      <path class="cls-28" d="m390.22,1056.99l1.49-11.03h-4.6v-3.33h5.06l1.03-8.16h-4.83v-3.33h5.29l1.49-10.69h3.22l-1.38,10.69h5.86l1.49-10.69h3.33l-1.38,10.69h4.6v3.33h-5.06l-1.03,8.16h4.83v3.33h-5.29l-1.49,11.03h-3.33l1.49-11.03h-5.86l-1.49,11.03h-3.45Zm11.15-14.37l1.03-8.16h-5.86l-1.03,8.16h5.86Z"/>
      <path class="cls-28" d="m967.22,1060.43l1.49-11.03h-4.6v-3.33h5.06l1.03-8.16h-4.83v-3.33h5.29l1.49-10.69h3.22l-1.38,10.69h5.86l1.49-10.69h3.33l-1.38,10.69h4.6v3.33h-5.06l-1.03,8.16h4.83v3.33h-5.29l-1.49,11.03h-3.33l1.49-11.03h-5.86l-1.49,11.03h-3.45Zm11.15-14.37l1.03-8.16h-5.86l-1.03,8.16h5.86Z"/>
      <rect class="cls-26" x="992.05" y="1023.08" width="35.29" height="45.63"/>
      <text class="cls-3" transform="translate(992.1 1058.18)"><tspan x="0" y="0">2</tspan></text>
      <rect class="cls-26" x="417.35" y="1019.63" width="26.09" height="45.63"/>
      <text class="cls-3" transform="translate(417.4 1054.73)"><tspan x="0" y="0">3</tspan></text>
      <rect class="cls-26" x="872.16" y="645.73" width="89.65" height="16.09"/>
      <text class="cls-16" transform="translate(872.16 660.04)"><tspan x="0" y="0">WelCome</tspan></text>
      <g>
        <polygon class="cls-17" points="810.56 1042.96 607.46 1042.96 624.35 940.9 793.66 940.9 810.56 1042.96"/>
        <polygon class="cls-17" points="575.16 1042.96 607.46 1042.96 624.35 940.9 587.23 987.1 575.16 1042.96"/>
        <polygon class="cls-17" points="842.97 1042.96 810.67 1042.96 793.66 940.9 830.9 987.1 842.97 1042.96"/>
      </g>
      <path class="cls-28" d="m694.81,1009.86l1.49-11.03h-4.6v-3.33h5.06l1.03-8.16h-4.83v-3.33h5.29l1.49-10.69h3.22l-1.38,10.69h5.86l1.49-10.69h3.33l-1.38,10.69h4.6v3.33h-5.06l-1.03,8.16h4.83v3.33h-5.29l-1.49,11.03h-3.33l1.49-11.03h-5.86l-1.49,11.03h-3.45Zm11.15-14.37l1.03-8.16h-5.86l-1.03,8.16h5.86Z"/>
      <rect class="cls-26" x="712.74" y="972.51" width="29.54" height="37.59"/>
      <text class="cls-1" transform="translate(712.8 1007.61)"><tspan x="0" y="0">1</tspan></text>
    </g>
  </g>
</svg>