<?xml version="1.0" encoding="UTF-8"?>
<svg id="Layer_2" data-name="Layer 2" xmlns="http://www.w3.org/2000/svg" viewBox="0 0 1396 790.86">
  <defs>
    <style>
      .cls-1, .cls-2, .cls-3, .cls-4, .cls-5, .cls-6, .cls-7, .cls-8, .cls-9, .cls-10, .cls-11, .cls-12, .cls-13, .cls-14, .cls-15, .cls-16, .cls-17, .cls-18, .cls-19, .cls-20, .cls-21, .cls-22, .cls-23, .cls-24, .cls-25, .cls-26, .cls-27, .cls-28, .cls-29, .cls-30, .cls-31, .cls-32, .cls-33, .cls-34, .cls-35, .cls-36, .cls-37, .cls-38, .cls-39 {
        stroke-width: 0px;
      }

      .cls-1, .cls-14, .cls-23, .cls-26, .cls-30, .cls-34 {
        fill: #f5b819;
      }

      .cls-2 {
        fill: #b0494c;
      }

      .cls-3, .cls-7 {
        opacity: .4;
      }

      .cls-3, .cls-15, .cls-21, .cls-22, .cls-28, .cls-35 {
        fill: #fff;
      }

      .cls-40, .cls-41, .cls-42, .cls-43, .cls-44, .cls-45, .cls-46, .cls-47 {
        fill: none;
      }

      .cls-40, .cls-15, .cls-30, .cls-39 {
        opacity: .5;
      }

      .cls-40, .cls-42, .cls-43, .cls-44 {
        stroke: #fff;
      }

      .cls-40, .cls-44, .cls-45, .cls-46, .cls-47 {
        stroke-linecap: round;
        stroke-linejoin: round;
      }

      .cls-40, .cls-45 {
        stroke-width: 3px;
      }

      .cls-4, .cls-5 {
        isolation: isolate;
      }

      .cls-4, .cls-48, .cls-18, .cls-43, .cls-35, .cls-47 {
        opacity: .2;
      }

      .cls-5, .cls-13, .cls-19, .cls-49, .cls-26 {
        opacity: .3;
      }

      .cls-6 {
        fill: #007cff;
      }

      .cls-8 {
        fill: #d54c38;
      }

      .cls-50, .cls-23, .cls-27 {
        opacity: .28;
      }

      .cls-9 {
        fill: #ff8b7b;
      }

      .cls-10, .cls-19, .cls-27, .cls-37, .cls-39 {
        fill: #c2c932;
      }

      .cls-11 {
        opacity: .05;
      }

      .cls-41 {
        stroke: #c2c932;
        stroke-width: .43px;
      }

      .cls-41, .cls-42, .cls-43 {
        stroke-miterlimit: 10;
      }

      .cls-14 {
        opacity: .75;
      }

      .cls-16 {
        fill: #f37a50;
      }

      .cls-17 {
        fill: #c76668;
      }

      .cls-20 {
        fill: #1a2e35;
      }

      .cls-21 {
        opacity: .43;
      }

      .cls-42, .cls-43, .cls-44, .cls-47 {
        stroke-width: .5px;
      }

      .cls-24 {
        fill: #201d40;
      }

      .cls-25 {
        fill: #fafafa;
      }

      .cls-28, .cls-36 {
        opacity: .1;
      }

      .cls-29 {
        fill: #ff5551;
      }

      .cls-31 {
        fill: #e67b62;
      }

      .cls-32 {
        fill: #b94d3c;
      }

      .cls-45 {
        stroke: #f5b819;
      }

      .cls-33 {
        fill: #fe8a7b;
      }

      .cls-34 {
        opacity: .6;
      }

      .cls-46 {
        stroke: #1a2e35;
        stroke-width: .75px;
      }

      .cls-37 {
        fill-rule: evenodd;
      }

      .cls-47 {
        stroke: #000;
      }

      .cls-38 {
        fill: #de623c;
      }
    </style>
  </defs>
  <g id="Layer_1-2" data-name="Layer 1">
    <g>
      <path class="cls-23" d="m69.75,784.88c-112.49-160.17-48.29-321.22,81.32-412.62,131.76-92.91-16.99-285.14,245.25-363.36,135.66-40.46,254.96,69.89,387.93,74.68,119.15,4.3,242.41-93.02,363.39-47.94,80.9,25.95,161.77,98.78,155.74,185.86-3.12,45-30.71,98.27-2.14,132.45,120.59,144.27,108.16,270.47,60.9,428.9.01,0-1292.4,2.02-1292.4,2.02Z"/>
      <path class="cls-1" d="m1363.04,790.86H57.55c-2.57,0-4.66-2.08-4.66-4.66h0c0-2.57,2.08-4.66,4.66-4.66h1305.49c2.57,0,4.66,2.09,4.66,4.66h0c0,2.57-2.08,4.66-4.66,4.66Z"/>
      <g id="c">
        <g>
          <polygon id="v-2" class="cls-16" points="688.78 398.51 688.8 398.51 700.54 398.55 703.2 426.28 689.49 433.52 674.88 426.37 677.24 398.55 688.78 398.51"/>
          <g>
            <path class="cls-16" d="m664.13,379.9c2.83,19.24,17.38,33.04,32.49,30.82,15.11-2.22,25.07-19.62,22.24-38.86-2.83-19.24-17.38-33.04-32.49-30.81-15.11,2.22-25.07,19.62-22.24,38.86Z"/>
            <path class="cls-12" d="m711.48,376.18c.54,1.37,2.08,2.04,3.44,1.51,1.37-.53,2.04-2.08,1.51-3.44-.53-1.37-2.08-2.04-3.44-1.51-1.37.53-2.04,2.08-1.51,3.44Z"/>
            <path class="cls-12" d="m690.25,379.45c.58,1.48,2.25,2.21,3.73,1.63,1.48-.58,2.21-2.25,1.63-3.73-.58-1.48-2.25-2.21-3.73-1.63-1.48.58-2.21,2.25-1.63,3.73Z"/>
            <path class="cls-38" d="m706.58,379.36c2.84,3.59,6.41,7.96,6.41,7.96,0,0-.96,4.22-6.32,4.87,2.17-1.19,4.24-2.97,2.98-5.89-1.26-2.92-3.07-6.94-3.07-6.94Z"/>
            <path class="cls-24" d="m685.56,376.55c-.1-.02-.2-.06-.29-.11-.65-.33-.91-1.13-.58-1.78.9-1.78,3.65-4.91,7.59-3.99.72.18,1.16.88.99,1.59-.17.71-.88,1.16-1.59.99-2.91-.68-4.6,2.57-4.62,2.61-.28.56-.91.83-1.49.69Z"/>
            <path class="cls-24" d="m710.09,370.07c-.18-.04-.36-.14-.51-.28-.44-.42-.45-1.12-.03-1.56.07-.07,1.65-1.69,3.88-1.57,1.52.08,2.91.92,4.14,2.49.37.48.29,1.18-.19,1.55-.48.37-1.18.29-1.55-.19-.81-1.04-1.66-1.6-2.51-1.64-1.21-.06-2.16.89-2.17.9-.28.29-.69.4-1.05.31Z"/>
            <path class="cls-24" d="m657.67,364.49c-1.9-18.34,14.91-24.61,14.91-24.61,0,0-3.8-1.28-2.96-6.84,2.69,1.6,5.97,2.32,9.08,1.96,20.97-2.37,34.24.89,32.26,9.15-.7,2.94,12.88,4.01,7.09,23.53-.52-1.37-2.56-10.64-6.67-12.48-4.12-1.85-1.6,4.84-10.89,3.93-9.37-.92-15.52-4.72-22.29-.93-5.4,3.43-13.45,28.71-12.16,29.59-3.98-2.76-7.53-15.25-8.37-23.31Z"/>
            <path class="cls-24" d="m719.16,382.37s-1.64,10.5-3.89,13.33c-.56-4.5-4.93-.92-8.14-1.25-7.77-.8-20.77-6.57-24.82,4.41-9.9.71-15.67-20.06-15.67-20.06-5.79,21.89,9.19,37.25,33.25,39.13,15.85,1.24,22.36-19.7,19.27-35.57Z"/>
            <path class="cls-38" d="m698.23,399.69c-1.4-.71-2.81-1.69-4.22-2.94-.37-.32-.4-.88-.07-1.25.32-.37.88-.4,1.25-.08,3.11,2.76,6.18,4.07,9.12,3.89,3.63-.22,5.86-2.71,5.89-2.73.32-.37.88-.4,1.25-.08.37.32.41.88.09,1.24-.11.12-2.7,3.05-7.07,3.33-2.05.13-4.13-.33-6.22-1.39Z"/>
            <g>
              <path class="cls-16" d="m670.34,376.3c3.36,3.11,4.02,7.85,1.48,10.6-2.54,2.75-7.32,2.46-10.68-.65-3.36-3.11-4.02-7.85-1.48-10.6,2.54-2.75,7.32-2.46,10.68.65Z"/>
              <path class="cls-38" d="m667.48,385.67c.14-.06.27-.14.38-.26,1.54-1.72,1.84-3.77.82-5.49-1.05-1.76-3.2-2.71-5.11-2.25-.54.13-.87.67-.74,1.2.13.54.67.87,1.2.74,1.05-.25,2.33.34,2.92,1.33.57.96.36,2.07-.59,3.14-.37.41-.33,1.04.08,1.41.29.26.69.32,1.04.18Z"/>
            </g>
          </g>
        </g>
        <path class="cls-10" d="m710.21,761.29c10.38,14.32,35.87,5.53,35.03,24.91-38.77-.25-54.88,0-54.88,0,.05-4.45.82-15.01,1.71-19.15l18.14-5.76Z"/>
        <path class="cls-10" d="m652.21,761.67c10.38,14.32,35.87,5.53,35.03,24.91-38.77-.25-54.88,0-54.88,0,.05-4.45.82-15.01,1.71-19.14l18.14-5.76Z"/>
        <path class="cls-1" d="m728.16,542.63s6.29,91.8,3.74,112.21c-2.56,20.41-11.61,46.57-10.59,114.08-12.64,3.16-30.95,0-30.95,0,0,0-2.71-76.33,10.65-110.43-5.43-33.12-22.86-108.97-22.86-108.97l50.01-6.9Z"/>
        <path class="cls-1" d="m703.23,545.14s-12.71,103.06-18.93,122.61c-6.22,19.55-11.64,33.87-22.9,100.37-12.99.65-31.74.25-31.74.25,0,0,1.7-82.39,21.92-101.58.68-33.58-3.27-120.99-3.27-120.99l54.92-.66Z"/>
        <g id="v">
          <path id="h-5" class="cls-10" d="m645.64,428.17s22.07-7.73,29.43-4.18c22.87,11.01,28.12,0,28.12,0,7.31.63,29.37,4.18,29.37,4.18,0,24.64,1.65,49.36,1.2,68.01-.32,16.24,2.78,60.43,2.78,60.43,0,0-24.34,6.38-47.36,6.55-23.02-.15-46.45-6.29-46.45-6.29,0,0,1.23-44.75,2.25-61.39-.33-18.65.66-42.73.66-67.3Z"/>
        </g>
        <g id="c-2" data-name="c">
          <path id="c-3" data-name="c" class="cls-1" d="m771.81,464.79c-9.11-21.74-36.15-35.57-39.24-36.62l-6.27,27.91c12.99,7.68,22.42,15.99,22.42,15.99-1.6,7.77-1.33,15.39-5.83,25.22,0,0,3.91-5.39,8.73-2.2,4.69,3.1,13.3-3.23,13.3-3.23,0,0,13.85-10.46,6.89-27.07Z"/>
        </g>
        <g id="c-4" data-name="c">
          <g id="c-5" data-name="c">
            <g id="c-6" data-name="c">
              <path id="c-7" data-name="c" class="cls-1" d="m766.73,519.73c.16.05.32.08.47.1h.52c.95-.1,1.8-.75,2.1-1.72l24.29-78.31c.05-.16.08-.32.1-.47.01-.1,0-.21,0-.31,0-.06,0-.13,0-.19,0-.06-.02-.11-.03-.16-.15-.89-.77-1.67-1.69-1.96-.15-.05-.3-.08-.46-.1-.18-.02-.35-.02-.53,0h-61.15l-24.5,83.22h60.92l-.04-.1Z"/>
              <path id="c-8" data-name="c" class="cls-1" d="m730.91,436.7c-1.3-.4-2.68.32-3.09,1.62l-24.14,78.12-.05.18c-.4,1.3.32,2.67,1.61,3.08h0c1.3.41,2.68-.32,3.09-1.62l24.2-78.3c.4-1.3-.32-2.68-1.62-3.09Z"/>
            </g>
          </g>
          <path id="c-9" data-name="c" class="cls-16" d="m777.11,486.39c.23-.15.48-.25.73-.32-.03-.04-.05-.07-.08-.11-1.52-2.29-1.42-5.04.23-6.13.27-.18.57-.3.88-.37-.43-1.7-.04-3.32,1.13-4.1.47-.31,1.01-.45,1.58-.44-.54-1.67-.11-3.42,1.21-4.29,1.65-1.09,4.03-.39,5.33,1.57,1.3,1.96,1.02,4.43-.63,5.52-.42.28-.88.44-1.36.49,1.1,2.14.87,4.47-.61,5.46-.27.18-.57.3-.88.37.43,1.7.04,3.32-1.13,4.1-.43.29-.93.43-1.46.44.54,1.46.2,3.03-.96,3.8-1.39.92-3.41.33-4.5-1.33-1.1-1.65-.86-3.74.53-4.66Z"/>
          <path class="cls-16" d="m701.93,481.44l5.57-3.23s1.54-7.91,10.49-8.1c-1.02,3.32-2.5,8.1-2.5,8.1,0,0,4.41,3.42,14.85-2.43,10.22-2.3,5.85,5.15,9.24,5.69,5,.79-3.64,10.61-13.84,12.11-13.2,1.94-14.76-.76-14.76-.76l-7.47,2.61-1.59-13.98Z"/>
          <path id="c-10" data-name="c" class="cls-1" d="m644.93,490.63c18.63-1.3,55.84-11.25,55.84-11.25,5.09,7.8,3.68,18.16,3.68,18.16-28.93,25.37-72.48,33.57-85.84,27.46-12.2-5.57-3.53-79.84,27.09-96.85l-.77,62.48Z"/>
        </g>
        <path class="cls-10" d="m743.37,448.6c-1.06,2.64-3.77,4.05-6.06,3.13-2.29-.92-3.29-3.8-2.24-6.44,1.06-2.64,3.77-4.05,6.06-3.13,2.29.91,3.29,3.8,2.24,6.44Z"/>
        <path class="cls-10" d="m751.18,447.7c-.63,1.58-2.25,2.41-3.62,1.87-1.37-.55-1.96-2.27-1.34-3.84.63-1.58,2.25-2.41,3.62-1.87,1.37.55,1.96,2.27,1.33,3.84Z"/>
      </g>
      <path class="cls-10" d="m657.57,628.27c-3.57,0-7.18-.1-10.72-.29-1.62-.09-2.86-1.47-2.77-3.09.09-1.62,1.48-2.86,3.09-2.77,4.09.22,8.25.31,12.38.27h.03c1.61,0,2.92,1.29,2.93,2.9.02,1.62-1.28,2.95-2.9,2.96-.68,0-1.36.01-2.05.01Zm14.58-.54c-1.52,0-2.81-1.17-2.92-2.71-.12-1.62,1.09-3.02,2.71-3.15,4.17-.31,8.3-.76,12.3-1.34,1.61-.23,3.09.88,3.32,2.48.23,1.6-.88,3.09-2.48,3.32-4.13.6-8.4,1.07-12.7,1.39-.07,0-.15,0-.22,0Zm157.56-.75s-.07,0-.11,0c-4.66-.17-9.1-1-13.19-2.45-1.53-.54-2.32-2.22-1.78-3.75.54-1.53,2.22-2.32,3.75-1.78,3.53,1.26,7.37,1.97,11.44,2.12,1.62.06,2.88,1.42,2.83,3.04-.06,1.58-1.36,2.83-2.93,2.83Zm-195.22-.1c-.12,0-.24,0-.36-.02-4.34-.54-8.6-1.23-12.64-2.06-1.59-.32-2.61-1.88-2.28-3.46.33-1.59,1.88-2.61,3.46-2.28,3.89.8,7.99,1.47,12.18,1.98,1.61.2,2.75,1.66,2.55,3.27-.18,1.49-1.45,2.57-2.91,2.57Zm207.69-1.19c-1.31,0-2.51-.89-2.84-2.22-.39-1.57.56-3.16,2.13-3.56,3.98-1,7.54-2.53,10.56-4.56,1.35-.9,3.17-.54,4.07.8.9,1.34.54,3.17-.8,4.07-3.59,2.41-7.76,4.22-12.41,5.38-.24.06-.48.09-.71.09Zm-145.17-1.61c-1.34,0-2.55-.92-2.86-2.29-.36-1.58.63-3.15,2.21-3.51,4.15-.94,8.13-2.04,11.84-3.27,1.54-.51,3.2.32,3.71,1.86.51,1.54-.32,3.2-1.86,3.71-3.89,1.29-8.06,2.44-12.39,3.42-.22.05-.44.07-.65.07Zm-87.12-2.33c-.29,0-.58-.04-.87-.13-4.38-1.36-8.45-2.92-12.11-4.64-1.47-.69-2.1-2.44-1.41-3.9s2.43-2.1,3.9-1.41c3.42,1.6,7.24,3.07,11.36,4.34,1.55.48,2.41,2.12,1.93,3.67-.39,1.26-1.55,2.06-2.8,2.06Zm196.81-3.5c-.73,0-1.47-.27-2.04-.82-3.49-3.37-5.87-7.43-7.08-12.07-.41-1.57.53-3.17,2.1-3.58,1.57-.41,3.17.53,3.58,2.1.93,3.58,2.78,6.72,5.48,9.33,1.17,1.13,1.2,2.98.07,4.15-.58.6-1.34.9-2.11.9Zm-85.9-2.19c-1.09,0-2.14-.61-2.64-1.66-.7-1.46-.09-3.21,1.37-3.92,3.86-1.86,7.33-3.93,10.32-6.14,1.3-.96,3.14-.69,4.1.61.96,1.3.69,3.14-.61,4.1-3.28,2.43-7.07,4.68-11.26,6.71-.41.2-.84.29-1.27.29Zm141.29-4.49c-.46,0-.92-.11-1.36-.34-1.44-.75-1.99-2.52-1.24-3.96,1.48-2.83,2.23-6,2.23-9.42,0-.4-.01-.81-.03-1.22-.08-1.62,1.16-3,2.78-3.08,1.61-.07,3,1.16,3.08,2.78.03.51.04,1.02.04,1.52,0,4.37-.98,8.46-2.9,12.14-.52,1-1.55,1.57-2.6,1.57Zm-274.71-.73c-.62,0-1.25-.2-1.79-.61-1.04-.8-2.04-1.64-2.95-2.48-2.08-1.92-4.39-4.1-6.58-6.16-1.18-1.11-1.23-2.97-.12-4.15,1.11-1.18,2.97-1.23,4.15-.12,2.18,2.05,4.47,4.22,6.53,6.11.79.73,1.65,1.45,2.56,2.15,1.28.99,1.52,2.83.54,4.11-.58.75-1.45,1.14-2.33,1.14Zm153.17-9.94c-.61,0-1.23-.19-1.75-.58-1.3-.97-1.56-2.81-.59-4.11.21-.28.42-.57.62-.85,2.17-3.12,4.85-6.16,7.95-9.03,1.19-1.1,3.05-1.02,4.15.17,1.1,1.19,1.03,3.05-.16,4.15-2.79,2.58-5.19,5.29-7.12,8.07-.24.34-.48.68-.73,1.02-.58.77-1.46,1.18-2.35,1.18Zm59.62-5.82c-.1,0-.21,0-.31-.02-1.61-.17-2.78-1.61-2.61-3.22.46-4.39,1.29-8.7,2.47-12.81.45-1.56,2.07-2.46,3.63-2.01,1.56.45,2.46,2.07,2.01,3.63-1.09,3.78-1.85,7.75-2.28,11.8-.16,1.51-1.43,2.63-2.91,2.63Zm-231.27-1.32c-.72,0-1.43-.26-2-.79-3.34-3.1-6.36-5.86-9.25-8.44-1.21-1.08-1.32-2.93-.24-4.14,1.08-1.21,2.93-1.32,4.14-.24,2.92,2.6,5.98,5.39,9.35,8.52,1.19,1.1,1.25,2.96.15,4.15-.58.62-1.36.94-2.15.94Zm292.65-6.44c-1.09,0-2.14-.61-2.65-1.66-1.62-3.36-3.95-6.34-6.92-8.86-1.24-1.05-1.39-2.9-.35-4.13,1.04-1.24,2.9-1.39,4.13-.35,3.61,3.05,6.44,6.68,8.42,10.8.7,1.46.09,3.21-1.37,3.92-.41.2-.84.29-1.27.29Zm-102.82-3.55c-.96,0-1.91-.47-2.47-1.34-.88-1.36-.49-3.18.88-4.06,3.5-2.25,7.31-4.36,11.35-6.26,1.47-.69,3.21-.06,3.9,1.41.69,1.47.06,3.21-1.41,3.9-3.8,1.79-7.39,3.77-10.67,5.88-.49.32-1.04.47-1.59.47Zm-208.66-6.71c-.66,0-1.33-.22-1.88-.68-3.29-2.75-6.56-5.38-9.71-7.81-1.28-.99-1.52-2.83-.53-4.12.99-1.28,2.83-1.52,4.11-.53,3.22,2.48,6.55,5.16,9.9,7.96,1.24,1.04,1.41,2.89.37,4.13-.58.69-1.41,1.05-2.25,1.05Zm231.32-4.05c-1.22,0-2.36-.77-2.78-1.99-.52-1.53.3-3.2,1.84-3.72,4.04-1.37,8.21-2.55,12.4-3.49,1.58-.36,3.15.64,3.51,2.22.36,1.58-.64,3.15-2.22,3.51-3.99.9-7.96,2.02-11.81,3.32-.31.11-.63.16-.94.16Zm61.68-1.85c-.36,0-.73-.07-1.09-.21-3.45-1.38-7.32-2.43-11.5-3.12-1.6-.27-2.68-1.78-2.41-3.37.26-1.6,1.78-2.68,3.37-2.41,4.6.76,8.88,1.93,12.72,3.46,1.5.6,2.24,2.31,1.63,3.81-.46,1.15-1.56,1.84-2.72,1.84Zm-35.97-.05c-.44,0-.89-.1-1.32-.31-1.37-.69-1.97-2.32-1.4-3.72-.76-.45-1.3-1.24-1.41-2.18-.18-1.61.97-3.06,2.58-3.25.65-.07,1.3-.14,1.95-.21,1.2-1.94,2.49-3.84,3.88-5.67.98-1.3,2.82-1.55,4.11-.58,1.29.98,1.55,2.82.58,4.11-.42.56-.83,1.12-1.23,1.69,1.22-.03,2.43-.04,3.62-.03,1.62.02,2.92,1.34,2.91,2.96-.02,1.61-1.33,2.91-2.93,2.91h-.03c-2.42-.03-4.88.05-7.39.22-.45.81-.89,1.63-1.3,2.45-.52,1.02-1.55,1.62-2.62,1.62Zm-276.98-9.38c-.58,0-1.16-.17-1.67-.53-3.5-2.43-6.99-4.71-10.39-6.78-1.38-.84-1.82-2.65-.98-4.03.84-1.38,2.65-1.82,4.03-.98,3.5,2.13,7.09,4.48,10.68,6.98,1.33.92,1.66,2.75.73,4.08-.57.82-1.48,1.26-2.41,1.26Zm291.96-10.63c-.77,0-1.54-.3-2.12-.9-1.12-1.17-1.08-3.03.09-4.15,3.02-2.89,6.37-5.69,9.95-8.29,1.31-.95,3.15-.66,4.1.65.95,1.31.66,3.15-.65,4.1-3.37,2.45-6.52,5.07-9.34,7.78-.57.55-1.3.82-2.03.82Zm-313.46-2.41c-.45,0-.91-.1-1.34-.32-3.76-1.93-7.53-3.66-11.19-5.13-1.5-.61-2.23-2.32-1.62-3.82.61-1.5,2.32-2.23,3.82-1.62,3.82,1.54,7.75,3.34,11.67,5.35,1.44.74,2.01,2.51,1.27,3.95-.52,1.01-1.55,1.6-2.61,1.6Zm-84.11-2.79c-1.02,0-2.02-.54-2.56-1.49-.8-1.41-.3-3.2,1.11-4,3.84-2.17,7.81-4.03,11.8-5.51,1.52-.57,3.21.21,3.77,1.73.56,1.52-.21,3.21-1.73,3.77-3.7,1.37-7.39,3.1-10.96,5.12-.46.26-.95.38-1.44.38Zm60.79-6.52c-.26,0-.53-.04-.79-.11-4.02-1.12-8.02-1.97-11.91-2.52-1.6-.22-2.72-1.71-2.5-3.31.23-1.6,1.71-2.72,3.31-2.5,4.14.58,8.41,1.48,12.67,2.68,1.56.44,2.47,2.06,2.04,3.62-.36,1.3-1.54,2.14-2.82,2.14Zm560.63-1.24c-1.13,0-2.21-.66-2.69-1.76-1.12-2.57-3.64-5.12-7.5-7.6-1.36-.88-1.76-2.69-.88-4.05.87-1.36,2.69-1.76,4.05-.88,4.85,3.11,8.12,6.54,9.71,10.19.65,1.48-.03,3.21-1.52,3.86-.38.17-.78.25-1.17.25Zm-597.94-.91c-1.38,0-2.62-.98-2.88-2.39-.3-1.59.75-3.13,2.34-3.42,4.24-.79,8.61-1.23,12.99-1.3,1.62-.02,2.95,1.27,2.98,2.89.02,1.62-1.27,2.95-2.89,2.98-4.05.06-8.09.46-12,1.2-.18.03-.36.05-.54.05Zm394.32-.95c-1.02,0-2.01-.53-2.55-1.49-.8-1.41-.31-3.2,1.1-4,3.6-2.04,7.45-3.99,11.46-5.8,1.48-.67,3.21,0,3.88,1.47.67,1.48,0,3.22-1.47,3.88-3.84,1.73-7.53,3.6-10.97,5.55-.46.26-.95.38-1.45.38Zm22.88-10.37c-1.2,0-2.33-.74-2.76-1.94-.55-1.52.24-3.21,1.77-3.75,3.89-1.4,7.98-2.71,12.16-3.91,1.56-.44,3.18.46,3.63,2.01s-.46,3.18-2.01,3.63c-4.05,1.16-8.02,2.43-11.79,3.79-.33.12-.66.17-.99.17Zm160.87-2.21c-.35,0-.71-.06-1.06-.2-3.49-1.36-7.42-2.63-11.66-3.77-1.56-.42-2.49-2.03-2.07-3.6.42-1.56,2.03-2.49,3.6-2.07,4.45,1.2,8.58,2.54,12.26,3.97,1.51.59,2.26,2.29,1.67,3.8-.45,1.16-1.56,1.87-2.74,1.87Zm-136.7-4.73c-1.34,0-2.55-.93-2.86-2.29-.35-1.58.64-3.15,2.22-3.51,4.05-.91,8.25-1.74,12.49-2.46,1.6-.27,3.11.8,3.39,2.4.27,1.6-.8,3.11-2.4,3.39-4.14.71-8.24,1.52-12.19,2.4-.22.05-.43.07-.65.07Zm112.49-1.95c-.19,0-.37-.02-.56-.05-3.91-.76-8.03-1.43-12.25-2-1.61-.22-2.73-1.7-2.51-3.3.22-1.61,1.69-2.73,3.3-2.51,4.33.59,8.56,1.28,12.58,2.06,1.59.31,2.63,1.85,2.32,3.44-.27,1.4-1.5,2.38-2.88,2.38Zm-87.7-2.31c-1.46,0-2.73-1.09-2.91-2.58-.2-1.61.95-3.07,2.55-3.27,4.15-.51,8.4-.94,12.64-1.28,1.6-.13,3.03,1.08,3.16,2.69.13,1.62-1.08,3.03-2.69,3.16-4.16.33-8.33.75-12.39,1.25-.12.02-.24.02-.36.02Zm62.78-1.11c-.09,0-.17,0-.26-.01-4.07-.36-8.25-.63-12.42-.81-1.62-.07-2.87-1.44-2.8-3.06.07-1.62,1.45-2.87,3.06-2.8,4.26.19,8.52.46,12.68.83,1.61.14,2.81,1.56,2.67,3.18-.13,1.53-1.41,2.68-2.92,2.68Zm-37.71-.89c-1.57,0-2.87-1.24-2.93-2.82-.06-1.62,1.2-2.98,2.82-3.04,3.93-.15,7.92-.22,11.85-.22h.85c1.62,0,2.93,1.32,2.93,2.94,0,1.62-1.32,2.93-2.93,2.93h-.84c-3.86,0-7.78.07-11.63.22-.04,0-.08,0-.11,0Z"/>
      <g>
        <path class="cls-27" d="m449.23,453.46h-75.47c-4.69,0-8.49,3.8-8.49,8.49v42.35c0,4.69,3.8,8.49,8.49,8.49h2.46l8.75,16.48c1.14,2.14,4.17,2.23,5.43.16l10.11-16.63h48.72c4.69,0,8.49-3.8,8.49-8.49v-42.35c0-4.69-3.8-8.49-8.49-8.49Z"/>
        <path class="cls-27" d="m409.9,443.99h0c-2.74,0-4.96-2.22-4.96-4.96v-15.09c0-2.74,2.22-4.96,4.96-4.96h0c2.74,0,4.96,2.22,4.96,4.96v15.09c0,2.74-2.22,4.96-4.96,4.96Z"/>
        <path class="cls-27" d="m427.89,442.53h0c-1.94-1.94-1.94-5.08,0-7.02l10.67-10.67c1.94-1.94,5.08-1.94,7.02,0h0c1.94,1.94,1.94,5.08,0,7.02l-10.67,10.67c-1.94,1.94-5.08,1.94-7.02,0Z"/>
        <path class="cls-27" d="m391.91,442.53h0c1.94-1.94,1.94-5.08,0-7.02l-10.67-10.67c-1.94-1.94-5.08-1.94-7.02,0h0c-1.94,1.94-1.94,5.08,0,7.02l10.67,10.67c1.94,1.94,5.08,1.94,7.02,0Z"/>
        <path class="cls-10" d="m444.65,449.88h-75.47c-4.69,0-8.49,3.8-8.49,8.49v42.35c0,4.69,3.8,8.49,8.49,8.49h2.46l8.75,16.48c1.14,2.14,4.17,2.23,5.43.16l10.11-16.63h48.72c4.69,0,8.49-3.8,8.49-8.49v-42.35c0-4.69-3.8-8.49-8.49-8.49Z"/>
        <g>
          <path class="cls-22" d="m438.19,463.13l.02,33.08c0,1.26-1.02,2.28-2.28,2.28l-57.5.04c-1.26,0-2.28-1.02-2.28-2.28l-.02-33.08c0-1.26,1.02-2.28,2.28-2.28l57.5-.04c1.26,0,2.28,1.02,2.28,2.28Z"/>
          <path class="cls-10" d="m438.19,463.13v1.83s-26.18,18.83-26.18,18.83c-2.54,1.9-6.03,1.94-8.6.08l-27.27-19.66v-1.04c0-1.26,1.02-2.28,2.28-2.28l57.49-.04c1.26,0,2.28,1.02,2.28,2.28Z"/>
        </g>
        <path class="cls-10" d="m406.53,440.85h0c-2.74,0-4.96-2.22-4.96-4.96v-15.09c0-2.74,2.22-4.96,4.96-4.96h0c2.74,0,4.96,2.22,4.96,4.96v15.09c0,2.74-2.22,4.96-4.96,4.96Z"/>
        <path class="cls-10" d="m424.51,439.39h0c-1.94-1.94-1.94-5.08,0-7.02l10.67-10.67c1.94-1.94,5.08-1.94,7.02,0h0c1.94,1.94,1.94,5.08,0,7.02l-10.67,10.67c-1.94,1.94-5.08,1.94-7.02,0Z"/>
        <path class="cls-10" d="m388.54,439.39h0c1.94-1.94,1.94-5.08,0-7.02l-10.67-10.67c-1.94-1.94-5.08-1.94-7.02,0h0c-1.94,1.94-1.94,5.08,0,7.02l10.67,10.67c1.94,1.94,5.08,1.94,7.02,0Z"/>
      </g>
      <g>
        <path class="cls-27" d="m1097.58,237h47.88c14.91,0,27.01,12.1,27.01,27.01v2.44c0,14.91-12.1,27.01-27.01,27.01h-47.88c-14.91,0-27.01-12.1-27.01-27.01v-2.44c0-14.91,12.1-27.01,27.01-27.01Z"/>
        <path class="cls-27" d="m1030.49,317.95h62.16c19.35,0,35.06,15.71,35.06,35.06v3.17c0,19.35-15.71,35.06-35.06,35.06h-62.16c-19.35,0-35.06-15.71-35.06-35.06v-3.17c0-19.35,15.71-35.06,35.06-35.06Z"/>
        <polygon class="cls-22" points="1086.74 293.46 1086.74 322.81 1105.02 293.46 1086.74 293.46"/>
        <path class="cls-22" d="m1108.98,387.96v27.29c0,2.19-2.95,2.9-3.94.94l-14.34-28.23h18.28Z"/>
        <path class="cls-22" d="m1155.97,259.91h-68.9c-3.34,0-6.04-2.71-6.04-6.04h0c0-3.34,2.71-6.04,6.04-6.04h68.9c3.34,0,6.04,2.71,6.04,6.04h0c0,3.34-2.71,6.04-6.04,6.04Z"/>
        <rect class="cls-22" x="1081.03" y="267.34" width="80.98" height="12.09" rx="6.04" ry="6.04"/>
        <path class="cls-22" d="m1110.46,340.85h-96.55c-3.71,0-6.72-3.01-6.72-6.72h0c0-3.71,3.01-6.72,6.72-6.72h96.55c3.71,0,6.72,3.01,6.72,6.72h0c0,3.71-3.01,6.72-6.72,6.72Z"/>
        <path class="cls-22" d="m1110.46,362.18h-96.55c-3.71,0-6.72-3.01-6.72-6.72h0c0-3.71,3.01-6.72,6.72-6.72h96.55c3.71,0,6.72,3.01,6.72,6.72h0c0,3.71-3.01,6.72-6.72,6.72Z"/>
        <path class="cls-22" d="m1050.48,370.06h59.98c3.71,0,6.72,3.01,6.72,6.72h0c0,3.71-3.01,6.72-6.72,6.72h-59.98c-3.71,0-6.72-3.01-6.72-6.72h0c0-3.71,3.01-6.72,6.72-6.72Z"/>
      </g>
      <path class="cls-10" d="m209.31,343.83c-.05,0-.1,0-.15,0-1.62-.08-2.86-1.46-2.78-3.08.1-1.86.51-6.85,2.29-13.06.45-1.56,2.07-2.46,3.63-2.01,1.56.45,2.46,2.07,2.01,3.63-1.61,5.63-1.99,10.09-2.07,11.75-.08,1.57-1.38,2.78-2.93,2.78Zm6.87-24.06c-.47,0-.94-.11-1.38-.35-1.43-.76-1.97-2.54-1.21-3.97,2.11-3.95,4.64-7.61,7.53-10.88,1.07-1.21,2.93-1.33,4.14-.25,1.21,1.07,1.33,2.93.25,4.14-2.59,2.93-4.86,6.21-6.75,9.75-.53.99-1.54,1.55-2.59,1.55Zm16.51-18.63c-.93,0-1.84-.44-2.41-1.26-.92-1.33-.59-3.16.74-4.08,3.52-2.44,7.41-4.55,11.58-6.26,1.5-.62,3.21.1,3.83,1.6.62,1.5-.1,3.21-1.6,3.83-3.77,1.55-7.29,3.45-10.46,5.65-.51.35-1.09.52-1.67.52Zm23-9.63c-1.35,0-2.57-.94-2.87-2.32-.34-1.58.67-3.14,2.25-3.48,4.04-.87,8.35-1.47,12.83-1.79,1.62-.12,3.02,1.1,3.14,2.72.12,1.62-1.1,3.02-2.72,3.14-4.2.3-8.25.87-12.02,1.67-.21.04-.41.07-.62.07Zm34.56-1.52c-1.82,0-3.7-.06-5.59-.19-1.38-.09-2.76-.16-4.1-.21-1.62-.06-2.88-1.42-2.83-3.04.06-1.62,1.42-2.88,3.04-2.83,1.4.05,2.84.13,4.28.22,2.75.18,5.47.23,8.06.12,1.61-.06,2.98,1.19,3.05,2.81.07,1.62-1.19,2.98-2.81,3.05-1.02.04-2.06.06-3.1.06Zm15.4-1.77c-1.32,0-2.52-.9-2.85-2.23-.39-1.57.57-3.16,2.15-3.55,3.94-.97,7.66-2.37,11.05-4.17,1.43-.76,3.21-.21,3.97,1.22.76,1.43.21,3.21-1.22,3.97-3.82,2.02-7.99,3.6-12.39,4.69-.24.06-.47.09-.7.09Zm21.91-11.72c-.78,0-1.56-.31-2.14-.92-1.11-1.18-1.06-3.04.12-4.15,2.81-2.65,5.32-5.72,7.46-9.13.86-1.37,2.67-1.78,4.05-.92,1.37.86,1.78,2.67.92,4.05-2.41,3.83-5.24,7.29-8.41,10.27-.57.53-1.29.8-2.01.8Zm13.39-21c-.33,0-.66-.06-.99-.17-1.53-.55-2.32-2.23-1.77-3.75,1.32-3.67,2.31-7.59,2.97-11.65.26-1.6,1.76-2.69,3.36-2.43,1.6.26,2.69,1.76,2.43,3.36-.71,4.41-1.8,8.68-3.24,12.69-.43,1.2-1.56,1.95-2.76,1.95Zm390.26-4.73c-1,0-1.97-.51-2.52-1.42-2.1-3.48-4.37-6.96-6.77-10.32-.94-1.32-.63-3.15.69-4.09,1.32-.94,3.15-.63,4.09.69,2.48,3.49,4.85,7.08,7.02,10.7.84,1.39.39,3.19-1,4.03-.47.28-1,.42-1.51.42Zm-408.09-19.44c-.06,0-.11,0-.17,0-4.52-.26-8.86-.83-12.9-1.7-1.58-.34-2.59-1.9-2.25-3.48.34-1.58,1.9-2.59,3.48-2.25,3.74.8,7.78,1.33,12.01,1.58,1.62.09,2.85,1.48,2.76,3.1-.09,1.56-1.38,2.77-2.93,2.77Zm12.56-.04c-1.54,0-2.84-1.21-2.93-2.77-.09-1.62,1.14-3,2.76-3.1,2.1-.12,4.27-.3,6.48-.54-.14-3.05-.45-6.09-.95-9.06-.27-1.6.81-3.11,2.41-3.38,1.6-.27,3.11.81,3.38,2.41.51,3.06.85,6.17,1.01,9.3,1.58-.19,3.03.91,3.26,2.49.23,1.6-.88,3.09-2.48,3.32-.63.09-1.25.18-1.88.26-.48.35-1.07.56-1.71.56-.37,0-.77-.07-1.11-.21-2.76.32-5.46.55-8.06.7-.06,0-.11,0-.17,0Zm380.96-.99c-.84,0-1.68-.36-2.26-1.06-2.6-3.13-5.37-6.23-8.23-9.22-1.12-1.17-1.08-3.03.09-4.15,1.17-1.12,3.03-1.08,4.15.09,2.96,3.09,5.82,6.29,8.51,9.53,1.04,1.25.86,3.1-.38,4.13-.55.46-1.21.68-1.87.68Zm-356.08-2.51c-1.36,0-2.57-.95-2.87-2.33-.34-1.59.68-3.14,2.26-3.48,3.87-.82,7.93-1.8,12.08-2.9,1.56-.42,3.17.52,3.59,2.08.42,1.57-.52,3.17-2.08,3.59-4.25,1.13-8.41,2.13-12.37,2.97-.21.04-.41.06-.61.06Zm-61.86-1.89c-.39,0-.79-.08-1.17-.25-3.39-1.48-6.61-3.28-9.56-5.33-.62-.43-1.23-.86-1.82-1.29-1.31-.95-1.61-2.78-.66-4.1.95-1.31,2.78-1.61,4.1-.66.56.41,1.14.82,1.73,1.23,2.64,1.83,5.52,3.44,8.57,4.77,1.48.65,2.16,2.38,1.51,3.86-.48,1.1-1.56,1.76-2.69,1.76Zm86.18-4.53c-1.25,0-2.41-.81-2.8-2.07-.48-1.55.39-3.19,1.93-3.67,3.81-1.18,7.8-2.49,11.86-3.89,1.53-.53,3.2.28,3.73,1.82.53,1.53-.28,3.2-1.81,3.73-4.12,1.42-8.17,2.75-12.04,3.95-.29.09-.58.13-.87.13Zm23.79-8.19c-1.19,0-2.31-.73-2.75-1.9-.57-1.52.2-3.21,1.72-3.78,3.75-1.4,7.67-2.93,11.67-4.52,1.5-.6,3.21.13,3.81,1.64.6,1.5-.13,3.21-1.64,3.81-4.04,1.61-8,3.15-11.79,4.57-.34.13-.69.19-1.03.19Zm290.6-1.03c-.71,0-1.41-.25-1.98-.77-3.02-2.75-6.19-5.46-9.42-8.04-1.27-1.01-1.47-2.86-.46-4.12,1.01-1.27,2.86-1.47,4.12-.46,3.33,2.66,6.6,5.45,9.71,8.29,1.2,1.09,1.28,2.95.19,4.14-.58.64-1.37.96-2.17.96Zm-421.07-.59c-.74,0-1.48-.28-2.06-.84-3.7-3.63-6.45-7.24-8.19-10.71-.72-1.45-.14-3.21,1.31-3.94,1.45-.72,3.21-.13,3.94,1.31,1.44,2.89,3.81,5.97,7.05,9.15,1.16,1.14,1.17,2.99.04,4.15-.57.58-1.33.88-2.09.88Zm62.6-5.43c-1.2,0-2.33-.75-2.76-1.94-1.42-3.95-3.16-7.54-5.19-10.68-.88-1.36-.49-3.18.87-4.06,1.36-.88,3.18-.49,4.06.87,2.27,3.51,4.22,7.51,5.79,11.89.55,1.53-.25,3.21-1.77,3.75-.33.12-.66.17-.99.17Zm91.23-2.25c-1.15,0-2.24-.68-2.71-1.8-.63-1.49.08-3.21,1.57-3.84,3.67-1.54,7.55-3.19,11.53-4.92,1.49-.65,3.21.04,3.86,1.52.65,1.49-.04,3.21-1.52,3.86-4.01,1.74-7.91,3.41-11.61,4.95-.37.15-.75.23-1.13.23Zm247.6-7.42c-.58,0-1.17-.17-1.68-.53-3.36-2.35-6.84-4.64-10.36-6.8-1.38-.85-1.81-2.65-.97-4.04.85-1.38,2.65-1.81,4.04-.97,3.62,2.22,7.21,4.58,10.66,7,1.33.93,1.65,2.76.72,4.09-.57.81-1.48,1.25-2.4,1.25Zm-224.52-2.58c-1.12,0-2.19-.65-2.68-1.74-.66-1.48,0-3.21,1.48-3.87,3.58-1.6,7.33-3.28,11.45-5.16,1.48-.67,3.21-.02,3.88,1.46.67,1.48.02,3.21-1.46,3.88-4.14,1.88-7.89,3.57-11.49,5.17-.39.17-.79.25-1.19.25Zm-185.55-4.35c-.38,0-.77-.08-1.15-.24-1.49-.64-2.18-2.36-1.55-3.85,1.73-4.06,5.37-7.46,10.51-9.83,1.47-.68,3.21-.04,3.89,1.44.68,1.47.04,3.21-1.44,3.89-3.8,1.75-6.41,4.1-7.57,6.81-.48,1.11-1.56,1.78-2.7,1.78Zm57.37-3.97c-.62,0-1.25-.2-1.78-.6-2.03-1.56-4.2-2.74-6.43-3.52-1.28-.45-2.59-.86-3.91-1.23-1.56-.44-2.47-2.06-2.03-3.62.44-1.56,2.06-2.47,3.62-2.03,1.42.4,2.85.85,4.24,1.33,2.82.98,5.54,2.46,8.07,4.4,1.29.98,1.53,2.83.55,4.11-.58.75-1.45,1.15-2.33,1.15Zm151.09-2.07c-1.11,0-2.17-.63-2.67-1.71-.68-1.47-.03-3.21,1.44-3.89,2.63-1.21,5.25-2.41,7.85-3.6l3.58-1.65c1.47-.68,3.21-.03,3.89,1.44.68,1.47.03,3.21-1.44,3.89l-3.58,1.65c-2.6,1.2-5.22,2.4-7.85,3.61-.4.18-.81.27-1.22.27Zm180.19-.18c-.47,0-.94-.11-1.38-.35-3.63-1.94-7.36-3.79-11.1-5.52-1.47-.68-2.12-2.42-1.44-3.89.68-1.47,2.42-2.12,3.89-1.44,3.85,1.77,7.69,3.68,11.42,5.67,1.43.76,1.97,2.54,1.21,3.97-.53.99-1.54,1.55-2.59,1.55Zm-367.5-5.27c-1.47,0-2.74-1.11-2.91-2.61-.18-1.61.98-3.06,2.59-3.24,4.16-.47,8.64-.49,13.16-.05,1.61.15,2.8,1.59,2.64,3.2-.15,1.61-1.59,2.79-3.2,2.64-4.11-.39-8.19-.38-11.94.04-.11.01-.22.02-.33.02Zm210.18-5.05c-1.11,0-2.18-.64-2.67-1.72-.67-1.47-.02-3.21,1.45-3.89,1.32-.6,2.64-1.2,3.95-1.79,2.54-1.15,5.16-2.24,7.79-3.23,1.52-.57,3.21.19,3.78,1.71.57,1.52-.19,3.21-1.71,3.78-2.52.95-5.02,1.99-7.44,3.08-1.31.59-2.62,1.19-3.94,1.79-.39.18-.81.27-1.22.27Zm134.49-.2c-.36,0-.72-.07-1.07-.2-3.84-1.5-7.77-2.9-11.68-4.16-1.54-.5-2.39-2.15-1.89-3.69.5-1.54,2.15-2.39,3.69-1.89,4.02,1.3,8.06,2.74,12.01,4.28,1.51.59,2.26,2.29,1.67,3.8-.45,1.16-1.56,1.87-2.73,1.87Zm-23.92-7.72c-.24,0-.49-.03-.73-.09-4.01-1.03-8.08-1.94-12.09-2.71-1.59-.3-2.64-1.84-2.33-3.43.3-1.59,1.84-2.64,3.43-2.33,4.14.79,8.32,1.73,12.45,2.79,1.57.4,2.51,2,2.11,3.57-.34,1.32-1.53,2.2-2.84,2.2Zm-87.06-.9c-1.29,0-2.47-.86-2.83-2.16-.43-1.56.5-3.18,2.06-3.6,4.06-1.11,8.28-2.06,12.52-2.82,1.59-.29,3.12.77,3.41,2.37.29,1.59-.77,3.12-2.37,3.41-4.07.73-8.11,1.64-12.01,2.7-.26.07-.52.1-.77.1Zm62.37-3.81c-.12,0-.24,0-.36-.02-4.11-.51-8.26-.88-12.32-1.1-1.62-.09-2.86-1.47-2.77-3.09.09-1.62,1.47-2.86,3.09-2.77,4.2.23,8.48.61,12.72,1.14,1.61.2,2.75,1.66,2.55,3.27-.18,1.49-1.45,2.57-2.91,2.57Zm-37.65-.66c-1.5,0-2.77-1.14-2.92-2.66-.15-1.61,1.03-3.05,2.64-3.2,4.18-.4,8.48-.64,12.78-.72,1.63-.02,2.96,1.26,2.99,2.88.03,1.62-1.26,2.96-2.88,2.99-4.14.07-8.29.31-12.33.69-.09,0-.19.01-.28.01Z"/>
      <g>
        <polygon class="cls-10" points="733.72 230.56 724.22 246.12 806 301.92 733.72 230.56"/>
        <polygon class="cls-10" points="715.78 264.8 720.73 282.64 802.37 299.35 715.78 264.8"/>
        <polygon class="cls-22" points="806 301.92 668.08 254.91 715.78 238.13 806 301.92"/>
        <polygon class="cls-22" points="733.72 230.56 806 301.92 763.7 217.9 733.72 230.56"/>
      </g>
      <path class="cls-10" d="m1223.19,120.35c-1.62,0-2.93-1.31-2.93-2.93,0-1.62,1.31-2.93,2.93-2.94,4.22,0,8.16-.47,11.72-1.39,1.57-.4,3.17.54,3.57,2.11.4,1.57-.54,3.17-2.11,3.57-4.03,1.04-8.47,1.57-13.18,1.57h0Zm-12.51-1.12c-.16,0-.33-.01-.49-.04-4-.68-8.23-1.67-12.57-2.94-1.55-.46-2.45-2.09-1.99-3.64.46-1.56,2.09-2.45,3.64-1.99,4.12,1.21,8.13,2.14,11.9,2.79,1.6.27,2.67,1.79,2.4,3.38-.24,1.43-1.48,2.44-2.89,2.44Zm36.39-5.44c-.94,0-1.86-.45-2.43-1.29-.91-1.34-.56-3.16.78-4.08,2.77-1.88,5.25-4.24,7.37-7.02.98-1.29,2.83-1.53,4.11-.55,1.29.98,1.53,2.83.55,4.11-2.5,3.27-5.44,6.07-8.73,8.31-.5.34-1.08.51-1.65.51Zm-202.85-.65c-.59,0-1.18-.18-1.7-.54-1.32-.94-1.63-2.77-.69-4.09,2.38-3.34,5.2-6.69,8.39-9.95,1.13-1.16,2.99-1.18,4.15-.05,1.16,1.13,1.18,2.99.05,4.15-2.98,3.05-5.61,6.17-7.81,9.26-.57.8-1.48,1.23-2.39,1.23Zm142.32-.85c-.35,0-.71-.06-1.07-.2-3.82-1.49-7.77-3.19-11.73-5.06-1.47-.69-2.09-2.44-1.4-3.9.69-1.47,2.44-2.09,3.9-1.4,3.85,1.81,7.67,3.46,11.36,4.9,1.51.59,2.26,2.29,1.67,3.8-.45,1.16-1.56,1.87-2.73,1.87Zm-22.76-10.67c-.47,0-.95-.11-1.4-.36-3.67-1.99-7.38-4.14-11.02-6.37-1.38-.85-1.82-2.65-.97-4.03.85-1.38,2.65-1.82,4.03-.97,3.56,2.18,7.18,4.27,10.76,6.22,1.42.77,1.95,2.56,1.18,3.98-.53.98-1.54,1.53-2.58,1.53Zm-102.12-6.51c-.86,0-1.72-.38-2.3-1.11-1.01-1.27-.8-3.11.47-4.12,3.4-2.71,6.97-5.2,10.6-7.41,1.38-.84,3.19-.4,4.03.98.84,1.38.4,3.19-.98,4.03-3.43,2.09-6.79,4.44-10,6.99-.54.43-1.18.64-1.82.64Zm80.67-6.62c-.57,0-1.15-.17-1.65-.51-1.3-.89-2.6-1.8-3.86-2.7-2.06-1.47-4.21-2.77-6.39-3.88-1.44-.73-2.02-2.5-1.29-3.94.73-1.44,2.5-2.02,3.94-1.29,2.44,1.24,4.84,2.7,7.14,4.33,1.24.88,2.5,1.77,3.77,2.63,1.34.91,1.68,2.74.77,4.08-.57.83-1.49,1.28-2.42,1.28Zm-59.21-6.37c-1.14,0-2.22-.66-2.7-1.77-.64-1.49.05-3.21,1.53-3.86,4.12-1.78,8.29-3.18,12.37-4.17,1.57-.38,3.16.59,3.54,2.16.38,1.58-.59,3.16-2.16,3.54-3.77.91-7.61,2.21-11.44,3.86-.38.16-.77.24-1.16.24Zm36.83-4.61c-.21,0-.42-.02-.63-.07-3.78-.82-7.77-1.18-11.78-1.06-1.61.06-2.97-1.22-3.02-2.84-.05-1.62,1.22-2.97,2.84-3.02,4.48-.14,8.95.26,13.2,1.19,1.58.34,2.59,1.91,2.24,3.49-.3,1.37-1.51,2.31-2.86,2.31Z"/>
      <g>
        <polygon class="cls-10" points="1041.39 101.27 1045.63 114.62 974.4 141.24 1041.39 101.27"/>
        <polygon class="cls-10" points="1048.49 130.09 1041.53 142.49 977.58 139.99 1048.49 130.09"/>
        <polygon class="cls-22" points="974.4 141.24 1085.88 131.47 1053.38 110.21 974.4 141.24"/>
        <polygon class="cls-22" points="1041.39 101.27 974.4 141.24 1021.36 86.34 1041.39 101.27"/>
      </g>
      <path class="cls-22" d="m950.21,255.32c3.46-2.62,7.62-3.93,12.47-3.93,10.47,0,16.02,5.7,16.02,13.71,0,4.62-2.23,9.32-6.78,14.01-5.77,6.08-9.93,9.09-12.55,9.09s-4.39-2-4.39-4.39c0-2.16,2-4.31,5.47-7.47.23-.23.46-.46.62-.54,3.93-3.62,5.16-5.62,5.16-8.08,0-3.08-2.08-4.77-5.08-4.77-1.39,0-3,.31-4.93.92-1.92.62-3.31.92-4.16.92-2.16,0-4.62-1.85-4.62-4.93,0-1.62.92-3.16,2.77-4.54Zm10.55,51.36c-4.7,0-7.85-3.54-7.85-7.85,0-3.7,3.16-7.24,7.85-7.24,4.08,0,7.24,3.54,7.24,7.24,0,4.23-3,7.85-7.24,7.85Z"/>
      <g class="cls-50">
        <path class="cls-10" d="m885.19,201.68c6.54-4.94,14.39-7.41,23.54-7.41,19.76,0,30.22,10.75,30.22,25.87,0,8.72-4.21,17.58-12.79,26.45-10.9,11.48-18.75,17.15-23.69,17.15s-8.28-3.78-8.28-8.28c0-4.07,3.78-8.14,10.32-14.1.44-.44.87-.87,1.16-1.02,7.41-6.83,9.74-10.61,9.74-15.26,0-5.81-3.92-9.01-9.59-9.01-2.62,0-5.67.58-9.3,1.74-3.63,1.16-6.25,1.74-7.85,1.74-4.07,0-8.72-3.49-8.72-9.3,0-3.05,1.74-5.96,5.23-8.57Zm19.91,96.92c-8.86,0-14.82-6.68-14.82-14.82,0-6.98,5.96-13.66,14.82-13.66,7.7,0,13.66,6.68,13.66,13.66,0,7.99-5.67,14.82-13.66,14.82Z"/>
      </g>
      <g>
        <path class="cls-10" d="m371.04,81.1l-24.66,45.62c-.94,1.74-3.11,2.39-4.84,1.45l-79.29-42.86c-1.74-.94-2.38-3.11-1.44-4.84l24.66-45.62c.94-1.74,3.11-2.39,4.84-1.45l79.29,42.86c1.74.94,2.38,3.11,1.44,4.84Z"/>
        <path class="cls-22" d="m371.04,81.1l-1.36,2.52-50.15,6.42c-4.93.73-9.75-1.83-11.92-6.31l-22.92-47.45.78-1.44c.94-1.74,3.11-2.38,4.85-1.45l79.29,42.86c1.74.94,2.38,3.11,1.45,4.85Z"/>
      </g>
      <path class="cls-1" d="m845.86,172.39c-12.59,0-22.83-10.24-22.83-22.83s10.24-22.83,22.83-22.83,22.83,10.24,22.83,22.83-10.24,22.83-22.83,22.83Zm0-39.37c-9.12,0-16.54,7.42-16.54,16.54s7.42,16.54,16.54,16.54,16.54-7.42,16.54-16.54-7.42-16.54-16.54-16.54Z"/>
      <g class="cls-50">
        <path class="cls-10" d="m1326.15,334.06c-12.59,0-22.83-10.24-22.83-22.83s10.24-22.83,22.83-22.83,22.83,10.24,22.83,22.83-10.24,22.83-22.83,22.83Zm0-39.36c-9.12,0-16.54,7.42-16.54,16.54s7.42,16.54,16.54,16.54,16.54-7.42,16.54-16.54-7.42-16.54-16.54-16.54Z"/>
      </g>
      <path class="cls-1" d="m897.03,113.23c0,7.2-5.83,13.03-13.03,13.03s-13.03-5.83-13.03-13.03,5.83-13.03,13.03-13.03,13.03,5.83,13.03,13.03Z"/>
      <circle class="cls-27" cx="1327.18" cy="259.91" r="13.03"/>
      <g>
        <g>
          <g>
            <path class="cls-10" d="m1180.33,583.88s-10.49-69.38-12.75-86.26c-2.26-16.88,0-25.51,6.38-31.04,6.38-5.53,36.08-12.89,55.95-13.57,15.54-.54,23.61,2.5,36.84,37.45l-21.97,9.56s17.57,57.61,15.45,79.97l-79.9,3.89Z"/>
            <polygon class="cls-13" points="1240.71 501.81 1240.71 501.81 1237.12 503.26 1231.56 488.9 1237.45 509.18 1242.37 507.01 1240.71 501.81"/>
          </g>
          <g>
            <path class="cls-10" d="m1173.94,466.54s-12.47,5.42-17.3,17.67c-2.37,6.02-7.2,16.84-11.92,27.43l36.78,5.48-7.56-50.58Z"/>
            <path class="cls-33" d="m1147.8,512.18s-14.83,26.03-10.42,37.47h26.67l1.05-11.46-4.76-2.77,9.71-20.47-22.24-2.77Z"/>
            <path class="cls-5" d="m1160.34,535.41s-7.76-1.96-13.46.63c0,0,4.73-6.66,14.29-2.38l-.83,1.74Z"/>
            <path class="cls-13" d="m1164.88,495.11s-1.55,8.31.28,13.88c1.83,5.58,4.89,5.96,4.89,5.96l-5.17-19.84Z"/>
          </g>
          <path class="cls-20" d="m1244.29,407.43c-1.94-.86-4.1-1.19-6.01-2.11-4.12-1.97-6.52-6.31-8.23-10.54-1.71-4.23-3.07-8.76-6.12-12.16-2.89-3.22-7.19-5.13-11.52-5.12-4.33.02-8.61,1.97-11.47,5.22l9.68,34.87c2.29,3.98,5.89,7.18,10.11,9.01,1.77.76,3.77,1.29,5.6.69,1.83-.6,3.25-2.69,2.53-4.47,1.51,2.36,4.91,3.28,7.4,1.99,2.49-1.29,3.72-4.59,2.67-7.19,2.01-.04,4.08-.1,5.92-.92,1.84-.82,3.39-2.6,3.31-4.61-.09-2.12-1.93-3.79-3.87-4.65Z"/>
          <g>
            <g>
              <path class="cls-20" d="m1168.28,391.6c-8.05,7.88-5.03,16.48-3.71,22.86,2.77,8.43,3.87,14.46,7.78,22.42l13.41-54.88c-5.15,2.07-8.72,1.68-17.48,9.61Z"/>
              <path class="cls-20" d="m1179.88,384.72c8.19-5.86,17.93-2.59,23.7-.13,6.52,3.71,11.13,10.03,12.69,17.37,1.29,6.89,2.86,15.24-.64,19.61-1.95,2.52-4.87,4.1-8.04,4.36l-39.97-25.03c2.64-6.35,6.86-11.92,12.26-16.18Z"/>
              <g>
                <path class="cls-33" d="m1197.45,472.02c5.49-.38,5.01-.55,8.24-2.64,15.7-10.03,8.79-15.18,8.79-15.18-4.82-3.89-3.68-9.08-3.83-17.8-.02-.25.5-4.64.45-4.89-.23-1.12-1.46,3.93-2.29,3.14-2.22-2.22-5.81-2.22-8.02,0,0,0,0,0,0,0l-8.81,4.41h0c0,.13,0,.27,0,.41.84,4.62,1.65,8.18,2.15,11.01,0,.35.12.7.17,1.03h0c0,.35.09.71.15,1.05.5,3.91-4.3,7.6-4.21,12.98-1.44,1.23,1.74,6.47,7.22,6.47Z"/>
                <path class="cls-4" d="m1191.97,439.03h0c.02.14.02.29,0,.43.84,4.62,1.65,8.18,2.15,11.01.08.34.14.68.17,1.03h0c.05.36.07.73.07,1.1h0c4.66-2.26,8.71-5.11,11.96-8.82,2.46-2.8,3.91-6.34,4.25-10.04h0c-.22-1.11-1.04,1.73-1.83.92-2.19-2.24-5.78-2.28-8.03-.09l-8.73,4.46Z"/>
                <path class="cls-33" d="m1211.04,405.18c2.64,15.99,4.1,22.68-1.84,32.75-8.95,15.13-28.68,15.25-36.01.45-6.48-13.35-9.77-37.2,3.87-47.33,13.64-10.13,31.33-1.88,33.99,14.13Z"/>
                <path class="cls-33" d="m1221.16,417.24c-.96,3.74-3.42,6.6-6,8.06-3.87,2.2-7.88-3.9-7.61-8.47.24-4.11,3.64-7.73,7.92-8.03,4.22-.3,6.79,4.16,5.69,8.44Z"/>
                <path class="cls-47" d="m1212.13,418.84c-.31-1.52,0-3.15.85-4.45.85-1.3,2.23-2.23,3.74-2.55"/>
                <g>
                  <g>
                    <path class="cls-20" d="m1192.09,415.68c.38,1.69-.14,3.3-1.17,3.61-1.03.31-2.17-.81-2.56-2.49-.38-1.69.14-3.3,1.17-3.61,1.03-.31,2.17.81,2.56,2.49Z"/>
                    <path class="cls-20" d="m1176.56,419.93c.37,1.63-.16,3.21-1.19,3.52-1.03.31-2.16-.77-2.52-2.4-.37-1.63.16-3.21,1.19-3.52,1.03-.31,2.16.77,2.52,2.4Z"/>
                    <path class="cls-20" d="m1193.76,408.98c-.19.08-.41.08-.61-.02-3.04-1.57-5.56-.03-5.58-.01-.37.23-.84.11-1.05-.27-.21-.39-.07-.89.31-1.13.13-.08,3.28-2.02,7.06-.07.38.19.52.68.32,1.09-.1.2-.26.34-.44.41Z"/>
                    <path class="cls-20" d="m1169.16,413.48c-.17,0-.34-.09-.46-.24-.24-.32-.19-.82.11-1.12,3.04-3.02,6.13-2.22,6.26-2.18.37.1.57.53.45.95-.12.42-.52.69-.89.59-.12-.03-2.53-.61-4.94,1.79-.16.15-.35.23-.53.22Z"/>
                    <path class="cls-32" d="m1180.57,418s-.83,6.57-2.59,11.01c-.31.78.25,1.63,1.08,1.7,2.14.18,4.23-1.1,4.23-1.1l-2.73-11.61Z"/>
                  </g>
                  <path class="cls-20" d="m1190.14,413.09l-3.85.15s2.72,2.15,3.85-.15Z"/>
                  <path class="cls-20" d="m1174.42,417.46l-3.85.15s2.72,2.15,3.85-.15Z"/>
                </g>
              </g>
              <path class="cls-20" d="m1206.76,409.85s-11.05-8.68-13.01-17.52c0,0-34.61,1.98-26.33,29.51,0,0-10.9-26.06,14.95-35.03,25.85-8.96,37.87,24.74,28.09,39.11-.07-.12,3.15-10.62-3.7-16.07Z"/>
            </g>
            <path class="cls-20" d="m1214.81,408.34c-2.45-10.64-8.35-18.04-16.46-19.89-10.99-2.51-23.95.39-23.95.39-.12,3.19-6.35,12.87-6.53,16.1,2.98-.68,11.74-7.21,14.42-8.65l-1.8,2.36s4.77-.84,7.08-3.87c5.22,13.03,22.73,13.55,27.24,13.55Z"/>
            <path class="cls-6" d="m1195.76,382.14s7.78.65,12.13,5.79c0-.04-4.18-7.04-12.13-5.79Z"/>
            <path class="cls-46" d="m1189.09,433.56c1.82-1.52,3.94-3.11,5.09-5.36"/>
          </g>
          <path class="cls-1" d="m1190.33,459.72s-9.12,14.84,7.33,14.35c16.45-.49,21.38-16.16,22.11-20.48l-5.13-1.77s-2.97,12.75-14.09,15.29-8.52-8.88-8.52-8.88l-1.7,1.5Z"/>
          <g>
            <path class="cls-33" d="m1262.17,492.38s9.23,26.45,10.24,33.75c.39,2.83,3.28,9.95-5.55,16.21-7.75,5.49-63.5,7.31-63.5,7.31l-1.62-14.26,45.83-12.02-6.85-21.56,21.46-9.43Z"/>
            <g>
              <path class="cls-33" d="m1204.7,534.81s-8.41-6.61-8.77-6.73-10.58-.6-12.02.6-2.4,6.73-2.4,6.73c0,0-3.85,1.44-4.57,3.37s.72,3.61.72,3.61c0,0-.84,2.04.48,3.73l1.32,1.68s-1.32,1.56-.12,2.76,28.18-.91,28.18-.91l-2.81-14.83Z"/>
              <path class="cls-5" d="m1181.5,535.41l11.71-1.96s-5.27-.82-8.08,0c-2.81.82-3.63,1.96-3.63,1.96Z"/>
              <path class="cls-1" d="m1195.22,518.17l-6.15,16.08c-1.26-.26-2.74.6-3.54.49l6.79-17.8c.34-.81,1.27-1.2,2.09-.86.81.34,1.2,1.27.86,2.09h-.05Z"/>
            </g>
            <path class="cls-5" d="m1247.56,523.39s10.05.46,11.52,6.32c0,0-.03-9.39-12.26-8.68l.75,2.35Z"/>
          </g>
          <g>
            <path class="cls-33" d="m1165.1,538.19s18.91-1.37,23.36,2.26c4.45,3.63,8.54,9.82,8.54,9.82l-33.89-.62,1.99-11.46Z"/>
            <path class="cls-5" d="m1175.73,537.97s-1.27,5.27.99,9.02c.73,1.21-.85,2.43-.33,2.9l5.1.09-4.07-12.01h-1.7Z"/>
          </g>
        </g>
        <g>
          <polygon class="cls-33" points="1096.04 763.45 1098.17 750.91 1123.59 752.74 1116.63 770.93 1101.56 771.44 1096.04 763.45"/>
          <g>
            <path class="cls-10" d="m1093.48,761.33h6.68c1.51,0,2.91.76,3.8,1.98,3.85,5.26,6.75,3.27,10.93-1.67,2.66-.31,3.38,2.75,3.6,3.57l4.99,18.16c.43,1.52-.44,3.1-1.96,3.53-.27.08-.55.11-.83.11h-52.91c-8.42,0-10.16-8.48-6.69-9.27,15.59-3.44,26.63-8.03,31.44-12.57.89-.79-.02-1.39.95-3.85Z"/>
            <path class="cls-44" d="m1089.13,767.28c2.3.31,4.43,1.69,5.67,3.65"/>
            <path class="cls-44" d="m1084.69,769.61c2.3.31,4.43,1.69,5.67,3.65"/>
            <path class="cls-44" d="m1079.53,772.24c2.3.31,4.43,1.69,5.67,3.65"/>
          </g>
          <polygon class="cls-33" points="1102.7 724.58 1097.2 713.11 1119 699.91 1123.84 718.78 1111.83 727.91 1102.7 724.58"/>
          <g>
            <path class="cls-10" d="m1099.4,724.33l5.45-3.86c1.23-.87,2.82-1.06,4.25-.58,6.18,2.07,7.4-1.23,7.96-7.69,1.99-1.79,4.35.29,5,.83l14.57,11.93c1.23.99,1.43,2.78.44,4.01-.18.22-.38.41-.61.57-6.62,4.69-9.75,6.91-17.99,12.74l-25.19,17.84c-6.87,4.86-13.19-1.05-10.82-3.69,10.73-11.82,17.09-21.94,18.4-28.43.27-1.16-.82-1.12-1.45-3.69Z"/>
            <path class="cls-44" d="m1099.28,731.7c2.06-1.07,4.59-1.19,6.74-.3"/>
            <path class="cls-44" d="m1097.01,736.17c2.06-1.07,4.59-1.19,6.74-.3"/>
            <path class="cls-44" d="m1094.31,741.3c2.06-1.07,4.59-1.18,6.74-.3"/>
          </g>
          <path class="cls-1" d="m1180.91,578.61s-80.58-11-104.92,11.89c0,0-18.87,11.96-11.61,52.24,4.74,24.86,18.83,56.95,33.93,77.26l21.15-17.98s-11.71-49.64-12.45-75.07l29.27-1.74,41.97-28.69,4.4-11.89-1.74-6.03Z"/>
          <path class="cls-19" d="m1110.11,626.77s-2.14-7.59-.11-16.83c2.03-9.24,7.37-18.3,36.2-21.99,28.83-3.69-33.01,38.82-33.01,38.82h-3.08Z"/>
          <path class="cls-1" d="m1260.12,577.73s2.23,22.96-5.05,39.76c-7.29,16.8-33.03,22.96-50.39,21.84-17.36-1.12-39.76-2.55-49.27.13,0,0-12.32,69.87-33.6,120.82l-25.76-2.23s14-98.61,16.24-121.52c2.25-22.91,1.12-26.32,15.11-37.51,14-11.19,85.68-26.32,132.73-21.28Z"/>
          <path class="cls-19" d="m1110.11,654.95l-8.34,62.1s-.24-32.8.35-42.75c.72-11.98,7.98-19.35,7.98-19.35Z"/>
        </g>
        <g>
          <polyline class="cls-45" points="1135.24 781.46 1163.46 647.99 1259.14 647.99 1280.32 781.46"/>
          <polyline class="cls-40" points="1135.24 781.46 1163.46 647.99 1259.14 647.99 1280.32 781.46"/>
          <path class="cls-10" d="m1261.54,647.99h-100.33c-2.78,0-5.03-2.25-5.03-5.03h0c0-2.78,2.25-5.03,5.03-5.03h100.33c2.78,0,5.03,2.25,5.03,5.03h0c0,2.78-2.25,5.03-5.03,5.03Z"/>
        </g>
        <g>
          <rect class="cls-10" x="1229.32" y="561.08" width="68.71" height="30.1"/>
          <rect class="cls-3" x="1229.32" y="561.08" width="68.71" height="30.1"/>
          <g>
            <rect class="cls-15" x="1224.6" y="555.36" width="7.98" height="226.09"/>
            <rect class="cls-10" x="1009.04" y="557.91" width="215.56" height="33.27"/>
            <rect class="cls-3" x="1009.04" y="557.91" width="215.56" height="33.27"/>
            <rect class="cls-10" x="1224.6" y="555.36" width="7.98" height="226.09"/>
            <rect class="cls-15" x="1224.6" y="556.36" width="7.98" height="226.09"/>
            <rect class="cls-10" x="1294.85" y="555.36" width="7.98" height="226.09"/>
            <rect class="cls-15" x="1294.85" y="555.36" width="7.98" height="226.09"/>
            <rect class="cls-10" x="1005.05" y="555.36" width="7.98" height="226.09"/>
            <rect class="cls-15" x="1005.05" y="555.36" width="7.98" height="226.09"/>
            <g>
              <rect class="cls-10" x="997.2" y="549.65" width="308.2" height="11.43"/>
              <rect class="cls-15" x="997.2" y="549.65" width="308.2" height="11.43"/>
            </g>
          </g>
        </g>
        <g>
          <rect class="cls-1" x="1118.23" y="546.96" width="88.56" height="3.02"/>
          <rect class="cls-15" x="1118.23" y="546.96" width="88.56" height="3.02"/>
        </g>
      </g>
      <g id="Character">
        <path class="cls-17" d="m976.75,472.93c-6.24,4.08-11.38,5.5-11.38,5.5,1.98-2.47,2.89-3.59,3.57-5.18,1.35-3.17-.3-5.27-1.4-5.84-.85-.45-1.79,1.76-4.87,4.13-3.93,3.03-7.07,3.56-10.39,7.78-1.24,1.58-6.84,4.26-15.33,4.26s-15.41-.28-15.41-.28c0,0,8.44-14.63,12.65-24.47,4.2-9.84,11.76-31.59,11.39-38.79-.72-14.03-18.23-15.19-26.65-13.8,0,0-18.38,71.76-23.53,87.44-5.16,15.68,12.21,11.62,25,11.07,12.79-.55,23.12-2.64,23.12-2.64,6.85-.46,15.2-2.34,20.48-3.54,18.35-4.16,23.98-10.05,24.77-18.09,1.25-12.83-3.56-13.06-12.02-7.54Z"/>
        <g id="Character-2" data-name="Character">
          <g>
            <g>
              <path class="cls-1" d="m810.13,699.72c-.97-.49-3.69,2.59-4.13,3.76-.44,1.17-.16,4.11.56,7.03.72,2.92,1.37,6.48,1.05,10.79-.26,3.55-.45,8.83,1.34,14.97,1.79,6.14,8.01,17.35,22.49,17.24,8.78-.07,10.31-3.55,10.31-5.58l-31.62-48.21Z"/>
              <path class="cls-10" d="m836.9,702.23c-1.85,4.07-5.23,15.86-.2,25.9,3.39,6.76,4.98,13.32,3.15,18.89-1.9,5.79-22.86-3.27-25.44-7.76-2.38-4.13-3.68-8.42-3.92-15.03-.17-4.64.71-7.69.2-11.18-.56-3.77-2.48-8.48-1.41-11.78.59-1.81,3.55-4.52,6.26-6.65,2.48-1.96,4.97-3.78,6.29-2.99l-.9,1.29c.8,1.78,2.06,2.98,3.39,4.07.66.54.23,3.61,1.1,3.94.87.33,1.04-2.17,2.76-2.49,5.61-1.05,8.73,3.78,8.73,3.78Z"/>
              <path class="cls-19" d="m836.9,702.23c-1.85,4.07-5.23,15.86-.2,25.9,3.39,6.76,4.98,13.32,3.15,18.89-1.9,5.79-22.86-3.27-25.44-7.76-2.38-4.13-3.68-8.42-3.92-15.03-.17-4.64.71-7.69.2-11.18-.56-3.77-2.48-8.48-1.41-11.78.59-1.81,3.55-4.52,6.26-6.65,2.48-1.96,4.97-3.78,6.29-2.99l-.9,1.29c.8,1.78,2.06,2.98,3.39,4.07.66.54.23,3.61,1.1,3.94.87.33,1.04-2.17,2.76-2.49,5.61-1.05,8.73,3.78,8.73,3.78Z"/>
              <path class="cls-22" d="m822.44,710.7c-.81.17-1.32.96-1.15,1.77.17.81.97,1.33,1.77,1.16.07-.01,5.49-1.11,11.1.22.37-1,.43-2.01.33-3-6.1-1.35-11.73-.21-12.05-.14Z"/>
              <path class="cls-22" d="m834.1,717.43c-6.28-1.16-12.03.3-12.35.38-.8.21-1.27,1.03-1.07,1.82.21.8,1.03,1.27,1.82,1.07.07-.02,5.92-1.49,11.86-.15.27-1.05.26-2.1-.27-3.13Z"/>
              <path class="cls-22" d="m835.39,724.9c-6.81-1.7-13.43-.02-13.78.07-.8.21-1.27,1.03-1.07,1.82.21.8,1.02,1.27,1.82,1.07.08-.02,7.8-1.95,14.51.65.44-.13-.37-2.53-1.49-3.61Z"/>
              <path class="cls-25" d="m814.4,739.27s5.4-8.09,15.06-8.21c9.66-.12,11.48,3.93,12.31,5.38.83,1.45,4.25,9.69-2.39,13.48,0,0-15.97,4.25-24.98-10.65Z"/>
            </g>
            <g>
              <path class="cls-17" d="m923.02,623.38c-.38-3.25-.83-7.06-1.32-11.22,2.81-5.51,6.1-12.64,9.54-21.66,8.19-21.49,11.23-74.8,10.85-86.03l-76.79,1.83c0,11.44-.76,21.87.54,36.72,1.5,17.22,8.83,43.28,14.92,62.68-5.9,6.81-14.09,16.61-17.86,22.68-6.24,10.05-34.85,55.78-34.85,55.78h0l-6.56,9.41c-1.05,1.91-1.46,6.3,2.94,9.55,4.4,3.25,10.17,2.68,11.51,1.06,0,0,34.84-34.54,55.48-55.09,1.04,5.87,2.43,12.51,4.09,18.98,4.6,17.97,14.12,44.15,18.94,57,1.96,5.23,3.4,10.64,4.3,16.15h0l2.5,7.22,17.3-3.93-3.09-15s-9.87-84.45-12.43-106.14Z"/>
              <path class="cls-2" d="m879.89,605.7l8.62,25.91s.71,10.63,2.09,17.84l-3.65,3.7s-2.11-12.28-.96-20.92l-6.11-26.53Z"/>
              <path class="cls-1" d="m864.3,514.51c0,.96-2.89,24.54,0,39.71,2.89,15.17,16.94,70.05,16.94,70.05,0,0,4.92,5.51,22.84,1.56,17.91-3.95,18.95-7.48,18.95-7.48v-5.51s11.16-20.95,15.21-45.2c4.05-24.25,4.84-47.54,4.84-47.54l-78.78-5.59Z"/>
              <path class="cls-34" d="m863.3,514.51c0,.96-2.89,24.54,0,39.71,2.89,15.17,16.94,70.05,16.94,70.05,0,0,4.92,5.51,22.84,1.56,17.91-3.95,18.95-7.48,18.95-7.48v-5.51s11.16-20.95,15.21-45.2c4.05-24.25,4.84-47.54,4.84-47.54l-78.78-5.59Z"/>
              <path class="cls-7" d="m920.28,609.01s-5.3-54.88-6.99-61.86c0,0,12.64-4.81,16.52-9.23,0,0-2.77,6.17-11.81,11.66l2.29,59.42Z"/>
              <path class="cls-10" d="m862.56,530.03c10.46,7.62,59.45,14.98,81.46-1.09.26-.19-.02-2.66-.03-2.97-.04-4.49-.09-8.98-.15-13.46-.09-6.92-.19-13.84-.31-20.76-.14-8.03-.3-16.07-.5-24.1-.19-7.83-.42-15.66-.72-23.49-.13-3.43-.29-6.85-.45-10.28-.24-5.11-1.49-10.58-3.58-15.3-1.99-4.48-5.26-8.58-9.75-10.54-3-1.31-6.37-1.6-9.59-1.82-2.22-.15-4.6.22-6.81.4-2.55.2-5.09.44-7.63.7-5.16.53-10.32,1.14-15.46,1.8-.62.08-1.25.16-1.86.25-.56.07-1.1.13-1.63.2-6.5.85-11.33,1.56-12.07,1.68-.07.02-.1.02-.1.02-2.14.54-4.11,1.05-5.7,1.53-4.35,1.28-1.12.18-2.07,4.39-2.81,12.35.46,57.26.46,57.26l-3.51,55.6Z"/>
            </g>
            <g>
              <path class="cls-1" d="m917.67,753.51c-1.01.43-.4,4.53.21,5.62.61,1.1,2.61,3.24,5.32,4.59,2.71,1.34,5,3.19,7.72,6.59,1.93,2.42,6.86,7.38,12.75,9.99,5.89,2.61,13.42,2.31,20.1-.79,6.68-3.1,7.19-5.05,6.79-7.7l-52.9-18.29Z"/>
              <path class="cls-10" d="m937.41,734.53c1.93,4.07,6.98,14.91,15.12,19.52,6.47,3.67,15.07,7.65,18.17,12.68,3.22,5.23-8.45,9.89-13.66,10.14-4.06.2-9.42.63-13.67-1.57-2.45-1.26-4.18-2.48-5.91-3.83-3.69-2.88-6.48-6.66-9.17-8.98-2.69-2.31-8.14-4.34-9.98-7.31-1.01-1.63-1.17-5.67-1.06-9.14.1-3.18-.39-6.11,1.08-6.62l.41,1.8c2.06.04,4.34-.09,6.04-.41.84-.16,2.93,2.17,3.75,1.72.82-.45-.99-2.2-.13-3.74,2.83-5,9-4.27,9-4.27Z"/>
              <path class="cls-19" d="m937.41,734.53c1.93,4.07,6.98,14.91,15.12,19.52,6.47,3.67,15.07,7.65,18.17,12.68,3.22,5.23-8.45,9.89-13.66,10.14-4.06.2-9.42.63-13.67-1.57-2.45-1.26-4.18-2.48-5.91-3.83-3.69-2.88-6.48-6.66-9.17-8.98-2.69-2.31-8.14-4.34-9.98-7.31-1.01-1.63-1.17-5.67-1.06-9.14.1-3.18-.39-6.11,1.08-6.62l.41,1.8c2.06.04,4.34-.09,6.04-.41.84-.16,2.93,2.17,3.75,1.72.82-.45-.99-2.2-.13-3.74,2.83-5,9-4.27,9-4.27Z"/>
              <path class="cls-22" d="m951.51,753.41c-3.65,1.15-7.63,3.56-9.94,6.94-.47.68-.29,1.61.39,2.08.26.18.55.26.84.26.48,0,.95-.23,1.24-.65,2.52-3.7,7.88-6.23,11.4-6.37-.35-.94-2.97-2.42-3.94-2.25Z"/>
              <path class="cls-22" d="m945.78,748.27c-3.53,1.03-7.28,3.16-9.61,6.22-.5.66-.38,1.59.28,2.1.27.21.59.31.91.31.45,0,.9-.2,1.19-.59,2.22-2.9,6.26-4.93,9.6-5.55-.22-1.15-1.03-1.97-2.37-2.49Z"/>
              <path class="cls-22" d="m943.27,745c.06-1.3-.44-2.24-1.74-2.67-3.65.88-7.61,2.92-10.12,6-.52.64-.42,1.58.22,2.1.28.22.61.33.94.33.44,0,.87-.19,1.16-.55,2.25-2.77,6.23-4.65,9.54-5.22Z"/>
              <path class="cls-25" d="m943.37,775.3s.77-10.37,9.21-15.22c8.43-4.85,11.99-1.34,13.43-.47,1.44.87,8.53,5.59,4.56,12.19,0,0-10.85,11.28-27.2,3.51Z"/>
            </g>
          </g>
          <g>
            <g>
              <path class="cls-20" d="m881.04,370.89s3.5,16.44,4.9,19.14c1.4,2.7,4.3,3.47,4.3,3.47l-.24-11.56-8.96-11.04Z"/>
              <path class="cls-20" d="m885.43,347.34s-3.77-.65-6.71,2.36c-2.88,2.94-1.27,12.16,2.31,21.19l6.59.76-2.2-24.3Z"/>
              <path class="cls-17" d="m889.6,371.65c-1.32.79-3.21-1.75-4.84-3.45-1.63-1.7-6.95-4.03-9.6,1.56-2.7,5.7,2.34,13.23,6.53,14.54,7.22,2.27,8.3-2.36,8.3-2.36l.48,26.54c7.56,13.68,33.14,6.68,23.55-2.39l-.02-6.73s6.54.99,9.73.5c5.31-.82,8.65-5.01,10.26-10.75,2.59-9.23,3.62-16.34,2.02-34.83-1.73-19.96-26.19-20.1-38.69-12.24-12.5,7.86-7.73,29.62-7.73,29.62Z"/>
              <path class="cls-20" d="m882.95,363.09c.38,1.58.73,4.09,1.98,5.28,1.62,1.54,4.11,5.84,4.76,5.83,3.51-.07,4.09-14.74,4.76-17.25.4-1.49,1.91-2.47,3.44-2.73,1.52-.26,3.08.06,4.6.33,6.26,1.14,12.76,1.17,19.12.98,4.55-.13,9.21-2.61,13.3-4.62,6.03-2.96,9.3-10.3,5.61-16.46-2.06-3.44-6.56-5.19-10.4-4.07-1.03-3.62-4.36-6.47-8.1-6.92-3.74-.45-7.65,1.52-9.51,4.79-3.13-2.48-7.61-3.27-11.27-1.67-3.66,1.59-6.18,5.66-5.66,9.61-3.14-1.86-7.38-1.38-10.28.85-2.89,2.22-4.43,5.96-4.35,9.61.13,5.6.67,10.99,1.99,16.43Z"/>
              <g>
                <path class="cls-1" d="m877.24,355.54s7.16-6.35,24.77-8.95c17.61-2.6,31.91.08,34.78,3.07,1.68,3.38.92,7.33-.3,10.84,0,0-.11-3.5-18.35-3.5s-34.8,6.29-38.75,9.28c0,0-3.91-5.78-2.14-10.74Z"/>
                <path class="cls-22" d="m937.7,353.18c-.03-.46-.1-.91-.2-1.37-16.35-6.84-42.49-4.39-60.67,5.57-.05.45-.05.9-.03,1.35,18.16-10.21,44.73-12.7,60.9-5.55Z"/>
                <path class="cls-22" d="m877.7,362.9c.15.39.3.75.45,1.09,17.56-9.8,42.88-12.41,59.11-6.13.09-.39.17-.77.24-1.16-16.5-6.28-42.03-3.65-59.8,6.21Z"/>
              </g>
              <path class="cls-2" d="m914.01,399.35s-11.85-2.39-15.99-4.59c-2.77-1.47-5.06-4.03-5.73-5.67,0,0,.78,3.52,3.25,6.68,3.03,3.87,18.46,6.73,18.46,6.73v-3.15Z"/>
            </g>
            <g>
              <path class="cls-20" d="m910.68,369.87c0,1.36-1.06,2.46-2.37,2.46-1.31,0-2.37-1.11-2.37-2.47s1.06-2.46,2.37-2.46c1.31,0,2.37,1.11,2.37,2.47Z"/>
              <path class="cls-20" d="m908.3,362.01l-5.08,2.8c-.75-1.46-.22-3.27,1.18-4.04,1.4-.77,3.15-.22,3.9,1.24Z"/>
              <path class="cls-2" d="m914.24,386.27l5.42,2.03c-.54,1.55-2.18,2.36-3.68,1.8-1.5-.56-2.28-2.28-1.74-3.83Z"/>
              <path class="cls-20" d="m931.61,363.39l-5.33-2.4c.61-1.51,2.3-2.2,3.77-1.53,1.47.66,2.17,2.42,1.56,3.93Z"/>
              <path class="cls-20" d="m930.15,369.87c0,1.36-1.06,2.46-2.37,2.46-1.31,0-2.37-1.11-2.37-2.47s1.06-2.46,2.37-2.46c1.31,0,2.37,1.11,2.37,2.47Z"/>
              <polygon class="cls-2" points="917.49 368.22 918.27 382.5 925.72 379.96 917.49 368.22"/>
            </g>
          </g>
        </g>
        <g>
          <g>
            <g>
              <path class="cls-1" d="m893.02,537.83c.79-2.17,1.12-4.82,1.44-7.11.04-.27.07-.54.1-.81.47-4.61,3.12-8.72,7.21-10.9.14-.07.28-.15.42-.23,2.57-1.4,4.28-2.93,5.86-5.38,1.21-1.87,1.78-5.47.23-8.49-.33-.66-.73-1.31-1.18-1.93-.83-1.16-.9-2.7-.12-3.91l2.16-3.35-10.71-6.92-2.16,3.35c-.78,1.2-2.21,1.77-3.61,1.5-.75-.15-1.51-.25-2.25-.28-3.4-.17-6.44,1.82-7.65,3.7-1.59,2.45-2.29,4.63-2.5,7.55-.01.15-.02.3-.03.44-.3,4.64-2.96,8.75-6.98,11.09-.24.14-.47.28-.7.42-1.95,1.24-4.24,2.62-5.89,4.24-1.6,1.57-2.96,3.48-4.23,5.44l-10.07,15.58c-1.31,2.03-1.28,4.91.39,8.17,1.37,2.67,3.62,5.18,6.31,7.24,1.22.94,2.52,1.78,3.87,2.5,2.98,1.58,6.17,2.59,9.14,2.75,3.66.19,6.3-.97,7.6-2.99l7.28-11.27c.91-1.4,1.91-2.84,2.85-4.31,1.26-1.95,2.45-3.97,3.22-6.06Z"/>
              <path class="cls-14" d="m893.02,537.83c.79-2.17,1.12-4.82,1.44-7.11.04-.27.07-.54.1-.81.47-4.61,3.12-8.72,7.21-10.9.14-.07.28-.15.42-.23,2.57-1.4,4.28-2.93,5.86-5.38,1.21-1.87,1.78-5.47.23-8.49-.33-.66-.73-1.31-1.18-1.93-.83-1.16-.9-2.7-.12-3.91l2.16-3.35-10.71-6.92-2.16,3.35c-.78,1.2-2.21,1.77-3.61,1.5-.75-.15-1.51-.25-2.25-.28-3.4-.17-6.44,1.82-7.65,3.7-1.59,2.45-2.29,4.63-2.5,7.55-.01.15-.02.3-.03.44-.3,4.64-2.96,8.75-6.98,11.09-.24.14-.47.28-.7.42-1.95,1.24-4.24,2.62-5.89,4.24-1.6,1.57-2.96,3.48-4.23,5.44l-10.07,15.58c-1.31,2.03-1.28,4.91.39,8.17,1.37,2.67,3.62,5.18,6.31,7.24,1.22.94,2.52,1.78,3.87,2.5,2.98,1.58,6.17,2.59,9.14,2.75,3.66.19,6.3-.97,7.6-2.99l7.28-11.27c.91-1.4,1.91-2.84,2.85-4.31,1.26-1.95,2.45-3.97,3.22-6.06Z"/>
              <path class="cls-11" d="m901.77,519c.14-.07.28-.15.42-.23,2.22-1.2,3.78-2.51,5.18-4.41-.75.62-1.57,1.15-2.44,1.57-2.51,1.2-5.31,1.63-8.07,1.95-2.8.32-5.94.72-7.68,2.94-1.69,2.15-1.41,5.26-.46,7.82.95,2.56,2.47,4.91,3.1,7.57.27,1.16.36,2.34.37,3.54.3-.63.59-1.26.83-1.9.79-2.17,1.12-4.82,1.44-7.11.04-.27.07-.54.1-.81.47-4.61,3.12-8.72,7.21-10.9Z"/>
              <path class="cls-36" d="m861.04,529.48s-.29,0-.75.05l-3.12,4.83c1.67,5.38,7.62,12.28,14.59,14.11,6.53,1.71,13.62.33,17.3-3.43l1.9-3.13-20.94-8.23-8.98-4.19Z"/>
              <g>
                <path class="cls-1" d="m894.21,491.37l-1.16,1.8c-.7,1.07-.69,2.61.21,4.36,1.78,3.47,6.38,6.45,10.29,6.65.97.05,1.81-.08,2.49-.36.68-.27,1.2-.7,1.55-1.23l1.18-1.83c.1-.16.2-.33.26-.52.41-1.03.29-2.35-.46-3.82-.02-.04-.04-.09-.07-.12-1.83-3.43-6.37-6.33-10.22-6.52-1.65-.08-2.92.35-3.68,1.14-.15.14-.28.3-.39.47Z"/>
                <path class="cls-36" d="m904.72,502.35c3.9.2,5.62-2.46,3.84-5.94-1.78-3.48-6.39-6.45-10.29-6.65-3.9-.2-5.62,2.46-3.84,5.94,1.78,3.48,6.39,6.45,10.29,6.65Z"/>
                <path class="cls-1" d="m895.57,489.27l-.7,1.08c-.11.17-.2.35-.27.54-.41,1.02-.28,2.35.47,3.82.8,1.56,2.16,3.01,3.77,4.15,1.99,1.43,4.36,2.39,6.53,2.5.97.05,1.8-.08,2.49-.35.47-.19.86-.45,1.17-.77.15-.13.27-.3.38-.46l.72-1.12c.7-1.08.69-2.61-.2-4.35-.08-.15-.16-.31-.26-.46-1.93-3.28-6.31-6.01-10.03-6.19-1.96-.1-3.37.52-4.06,1.61Z"/>
                <path class="cls-15" d="m895.6,489.24c-1.49,2.31.55,6.29,4.57,8.88,4.02,2.6,8.48,2.83,9.97.52,1.49-2.31-.55-6.29-4.57-8.88-4.02-2.6-8.48-2.83-9.97-.52Z"/>
              </g>
            </g>
            <path class="cls-1" d="m903.13,488l-2.43,3.77c-.04.06-.07.12-.09.19-.14.35-.1.82.16,1.32.28.54.75,1.04,1.31,1.44.69.49,1.51.83,2.26.86.34.02.62-.03.86-.12.16-.06.3-.16.41-.27.05-.05.09-.1.13-.16l2.44-3.78c.24-.37.24-.9-.07-1.51-.03-.05-.06-.11-.09-.16-.67-1.14-2.19-2.08-3.48-2.15-.68-.03-1.17.18-1.41.56Z"/>
            <path class="cls-15" d="m903.14,487.99c-.52.8.19,2.18,1.58,3.08,1.39.9,2.94.98,3.46.18.52-.8-.19-2.18-1.58-3.08-1.39-.9-2.94-.98-3.46-.18Z"/>
            <path class="cls-30" d="m904.77,489.04c-.18.28.07.77.56,1.09.49.32,1.04.35,1.23.06.18-.28-.07-.77-.56-1.09-.49-.32-1.04-.35-1.23-.06Z"/>
            <path class="cls-26" d="m904.77,489.04c-.18.28.07.77.56,1.09.49.32,1.04.35,1.23.06.18-.28-.07-.77-.56-1.09-.49-.32-1.04-.35-1.23-.06Z"/>
          </g>
          <path class="cls-17" d="m886.14,527.11c-3.86-.59-10.75-3.49-12.78-5.81-2.03-2.32-1.78-4.14-1.78-4.14,2.17-1.34,3.46-2.19,4.75-3.44,0,0-4.09-2.38-5.63-2.95-2.31-.85-6.38-4.4-9.14-7.24-6.62-7.56-13.35-18.03-18-26.38l21.27-25.5s8.88-.35,13.71-9.93c3.07-6.09,7.2-20.3-1.12-31.05,0,0-6.24-.55-14.71,3-5.49,2.3-14.52,13.05-21.64,23.48-6.21,9.09-23.79,33.14-24.43,42.12-.26,3.7,4.16,9.47,15.25,21.07h0c4.92,5.32,10.59,11.14,16.62,17.39,4.02,4.11,10.88,16.54,14.78,20.85,5.46,6.04,9.25,7.64,14.16,7.73,4.99.1,13.88-1.62,16.49-8.92,2.61-7.3-1.06-9.27-7.81-10.3Z"/>
          <g>
            <path class="cls-10" d="m853.41,524.23s-1.83-2.34-.37-5.92c1.46-3.59,6.31-8.39,9.23-9.95s4.31-.25,4.31-.25c-1.29-2.54-2.99-4.4-5.03-5.73-.52-.34-1.17-.44-1.78-.33-1.04.2-2.74.72-4.51,2.14-2.9,2.32-6.5,6.2-7.63,9.57-.87,2.59-.25,4.69-.25,4.69,1.85,2.27,3.86,4.1,6.04,5.77Z"/>
            <path class="cls-1" d="m848.97,512.22l3.17,3.15c.97.96,2.52.94,3.46-.06l3.93-4.17c.94-1,.93-2.6-.02-3.59l-2.94-3.06c-.95-.99-2.5-1-3.46-.02l-4.17,4.24c-.96.97-.95,2.55.02,3.51Z"/>
            <path class="cls-1" d="m849.11,512.27l3.17,3.15c.97.96,2.52.94,3.46-.06l3.93-4.17c.94-1,.93-2.6-.02-3.59l-2.94-3.06c-.95-.99-2.49-1-3.46-.02l-4.17,4.24c-.96.97-.95,2.55.02,3.51Z"/>
            <path class="cls-10" d="m859.43,509.29c.03.47-.13.93-.44,1.26l-3.93,4.17c-.28.3-.65.46-1.05.47-.4,0-.78-.15-1.07-.43l-3.17-3.15c-.27-.27-.43-.62-.45-1-.03-.44.13-.88.44-1.19l4.17-4.24c.28-.29.66-.45,1.06-.44.4,0,.77.17,1.06.46l2.94,3.06c.26.28.42.64.45,1.04h0Z"/>
            <g class="cls-49">
              <path class="cls-12" d="m841.47,519c-.07,0-.15,0-.22-.02l-8.74-1.64c-.64-.12-1.06-.74-.94-1.38.12-.64.75-1.06,1.38-.94l8.74,1.64c.64.12,1.06.74.94,1.38-.11.57-.6.96-1.16.96Z"/>
              <path class="cls-12" d="m833.33,526.4c-.49,0-.94-.3-1.11-.79-.22-.61.11-1.29.72-1.5l8.39-2.95c.62-.21,1.29.11,1.5.72.22.61-.11,1.29-.72,1.5l-8.39,2.95c-.13.05-.26.07-.39.07Z"/>
              <path class="cls-12" d="m838.36,533.93c-.27,0-.55-.09-.77-.28-.49-.42-.55-1.17-.13-1.66l5.79-6.75c.42-.5,1.17-.55,1.66-.13.49.43.55,1.17.13,1.66l-5.79,6.75c-.23.27-.56.41-.9.41Z"/>
              <path class="cls-12" d="m846.49,537.93c-.07,0-.15,0-.22-.02-.64-.12-1.06-.74-.94-1.38l1.64-8.74c.12-.64.74-1.06,1.38-.94.64.12,1.06.74.94,1.38l-1.64,8.74c-.11.57-.6.96-1.16.96Z"/>
            </g>
          </g>
        </g>
      </g>
      <g>
        <path class="cls-31" d="m194.09,425.78c2.43,12.23,5.39,24.08,8.79,36.04,1.7,5.97,3.54,11.9,5.58,17.87,2.03,5.98,4.28,11.89,7.08,18.02,1.44,3.09,2.92,6.16,5.32,9.67.59.86,1.33,1.82,2.18,2.83.93,1.03,1.96,2.14,3.74,3.42,1.07.75,2.37,1.37,3.5,1.71,1.1.34,2.15.49,2.99.55,1.77.11,2.95-.08,3.96-.29,1.99-.43,3.25-.97,4.38-1.49,2.19-1.06,3.79-2.08,5.31-3.14,1.49-1.06,2.85-2.11,4.16-3.17,2.61-2.13,5.01-4.27,7.32-6.46,4.61-4.38,8.93-8.86,13.1-13.45,4.17-4.62,8.17-9.82,12.06-14.74l-8.67-8.05c-9.48,7.35-18.98,14.95-28.49,21.7-2.37,1.67-4.73,3.31-7.06,4.75-.48.3-.96.59-1.43.86-.49-1.12-1-2.35-1.47-3.58-1.92-5.07-3.57-10.67-5.2-16.28-1.6-5.64-3.1-11.37-4.57-17.14-2.91-11.51-5.66-23.27-8.45-34.78l-24.14,5.17Z"/>
        <path class="cls-31" d="m14.37,615.36s7.24,2.58,18.12,6.2c29.37,9.76,84.61,23.51,96.08,17.6,15.36-7.91,34.98-68.55,41.77-83.86l-44.45-14.4-17.38,66.17s-17.55-3.38-36.61-1.52c-8.16.79-21.91.64-33.65.26-11.8-.38-21.56-.95-21.56-.95l-2.33,10.5Z"/>
        <path class="cls-1" d="m14.37,615.36s7.24,2.58,18.12,6.2c1.63-4.15,4.07-10.57,5.77-15.75-11.8-.38-21.56-.95-21.56-.95l-2.33,10.5Z"/>
        <path class="cls-10" d="m18.05,613.49s3.25.87,3.87,3.58c.62,2.71-4.69,7.34-6.75,15.5-1.17,4.63-1.81,6.1-2,8.32-.27,3.22-2.85,5.41-5.76,6.79h0l-7.41-46.31s6.85-1.17,10.54-.19c3.69.98,9.63,1.94,9.27,3.16-1.59,5.45-4.26,7.76-1.76,9.15Z"/>
        <path class="cls-1" d="m204.53,517.2s-27.57,73.14-35.97,79.95c-5.76,4.67-56.14-23.1-56.14-23.1l8.71-48.53,83.4-8.32Z"/>
        <path class="cls-10" d="m167.76,600.79s-45.13-13.26-58.2-27.29l3-9.78s28.95,19.17,60.63,27.16l-5.43,9.92Z"/>
        <g>
          <path class="cls-31" d="m214.26,632.11c-2.38,11.07,7.08,57.54,19.71,111.85,1.6,6.86,3.21,13.83,4.79,20.82l11.86-.05s.08-8.28.07-21.04c-.03-40.32-.95-125.45-7.98-136.11-9.28-14.03-56.99-85.94-56.99-85.94l-52.09-2.97s-11.38,44.83,80.63,113.43Z"/>
          <path class="cls-1" d="m233.96,743.96c1.6,6.86,3.21,13.83,4.79,20.82l11.86-.05s.08-8.28.07-21.04c-3.31-.07-11.57-.17-16.72.27Z"/>
          <path class="cls-10" d="m246.34,763.4s1.79-2.85,4.56-2.65,5.63,6.64,12.83,11.01c4.08,2.48,5.3,3.52,7.36,4.36,2.99,1.2,4.33,4.31,4.8,7.5h0l-46.44-6.54s.9-6.89,2.92-10.13,4.68-8.63,5.74-7.93c4.74,3.13,6.17,6.36,8.23,4.37Z"/>
          <path class="cls-1" d="m181.16,516.95l38.31,48.67s-27.08,32.55-43.58,40.11c-8.72,3.99-56.51-55.56-57.29-66.14-.78-10.58,4.43-23.9,4.43-23.9l58.13,1.26Z"/>
          <path class="cls-42" d="m127.63,523.9s20.39,46.18,53.27,72.65"/>
          <path class="cls-10" d="m222.01,566.52s-28.65,37.31-46.44,44.44l-8.04-6.33s28.32-20.09,47.2-46.75l7.29,8.64Z"/>
        </g>
        <path class="cls-10" d="m121.51,523.71c6.58,13.99,83.96,11.99,84.26-3.5.21-10.81,8.81-84.59,12.7-96.07,3.88-11.5-20.36-22.62-20.36-22.62l-8.22-3.11s-18.32-3.77-30.47-1.58c-.41.08-.82.16-1.22.25-8.48,1.89-17.39,20.4-23.32,38.9-2.58,7.99-4.61,15.99-5.8,22.63-4.07,22.67-10.26,59.32-7.56,65.09Z"/>
        <path class="cls-31" d="m134.87,435.99c.77.05,1.62.08,2.5.08,7.58.05,18.61-1.63,23.31-11.02,5.71-11.38,1.22-23.18-1.27-28.21-.41.08-.82.16-1.22.25-7.03,1.58-14.36,14.55-20.04,29.49-1.17,3.07-2.26,6.24-3.28,9.4Z"/>
        <path class="cls-18" d="m134.87,435.99c.77.05,1.62.08,2.5.08l20.22-16.21-19.44,6.73c-1.17,3.07-2.26,6.24-3.28,9.4Z"/>
        <path class="cls-43" d="m145.21,435.42s-18.39,62.4-13.79,94.39"/>
        <path class="cls-35" d="m207.33,435.93l-1.25,16.74s-25.96.45-40.77-5.88c0,0,.27-14.06,3.2-17.82,0,0,13.33,5.46,38.82,6.96Z"/>
        <g>
          <g>
            <path class="cls-31" d="m200.88,407.54c-1.65.91-4.05,3.11-8.4,1.83-5.49-1.62-8.95-9.75-8.59-12.28,4.79-6.74,9.55-14.87,11.3-22.16l4.23,8.65,6.14,12.54v.02c-.13.15-.26.33-.4.48-.18.22-.33.44-.5.67-.41.55-.77,1.1-1.11,1.66-.27.46-.52.91-.74,1.38-.7,1.44-1.21,2.91-1.53,4.38-.21.95-.33,1.89-.39,2.82Z"/>
            <g class="cls-48">
              <path class="cls-12" d="m201.27,404.72c-3.32-2.41-6.5-7.39-6.19-11.72.21-2.81,2.15-4.91,3.24-4.73l5.22,10.68c-.27.46-.52.91-.74,1.38-.7,1.44-1.21,2.91-1.53,4.38Z"/>
            </g>
            <g>
              <path class="cls-31" d="m198.04,361.24c4.26-11.38,18.85-14.9,27.59-5.8,8.88,9.24,3.06,26.35-3.75,35.24-7.57,9.88-23.5,8.86-28.1-3.44-3.06-8.18,0-14.62,4.26-26"/>
              <path class="cls-20" d="m231.48,364.82s3.59,4.47,5.03,1.93c1.43-2.54-1.66-5.13-1.66-5.13,0,0,7.17-3.59,5.41-6.02s-6.08-1.77-6.08-1.77c0,0,1.88-7.39-1.54-8.17-3.42-.77-6.18,1.55-6.18,1.55,0,0,.22-5.96-3.09-7.28-3.31-1.32-5.13,2.32-5.13,2.32,0,0-3.43-4.3-6.6-3.64-3.17.66-2.95,4.41-2.95,4.41,0,0-4.08-4.53-6.51-2.98-2.43,1.55-2.21,4.86-2.21,4.86,0,0-2.98-1.77-4.19,1.1s1.32,4.26,1.32,4.26c0,0-2.65.97-2.87,2.77-.22,1.8,2.76,3.45,5.52,1.13s23.72,3.21,31.73,10.65Z"/>
            </g>
            <path class="cls-1" d="m231.98,365.32s.4,6.49-1.84,7.84c-2.24,1.34-13.31-12.7-32.55-10.87,0,0-.37-5.57,2.16-8.11,2.54-2.54,23.4,1.99,32.23,11.15Z"/>
            <path class="cls-20" d="m224.28,359.46s-1.24,3.65-3.45,2.88,0-3.42,0-3.42c0,0-4.99,3.76-6.58,1.77-1.59-1.99,2.61-4.23,2.61-4.23,0,0,5.16-.47,7.42,3Z"/>
            <path class="cls-22" d="m211.44,387.38c-.6,1.26-.25,2.68.79,3.17,1.03.49,2.36-.13,2.95-1.39.6-1.26.25-2.68-.79-3.17-1.03-.49-2.36.13-2.95,1.39Z"/>
            <path class="cls-31" d="m189.99,366.5c-.47,3.24.61,6.4,2.26,8.53,2.48,3.2,6.12,1.57,7.45-2.03,1.19-3.24,1.34-8.81-2.11-10.72-3.41-1.88-7.06.52-7.59,4.23"/>
            <path class="cls-20" d="m213.09,373.4c-.4.9-.25,1.85.34,2.11.59.26,1.39-.26,1.8-1.16.4-.9.25-1.85-.34-2.11-.59-.26-1.39.26-1.79,1.16"/>
            <path class="cls-20" d="m223.03,377.68c-.4.9-.25,1.85.34,2.11.59.26,1.39-.26,1.8-1.16.4-.9.25-1.85-.34-2.11-.59-.26-1.39.26-1.8,1.16"/>
          </g>
          <path class="cls-20" d="m227.43,375.97c-.15-.07-.27-.22-.28-.39-.08-.8-.36-1.41-.84-1.8-.79-.64-1.9-.53-1.91-.53-.26.03-.5-.16-.53-.42-.03-.26.16-.5.42-.54.06,0,1.52-.17,2.63.73.69.56,1.09,1.39,1.19,2.46.03.27-.17.5-.44.53-.09,0-.17,0-.24-.04Z"/>
          <path class="cls-20" d="m211.93,369.43c-.06-.03-.12-.07-.17-.13-.17-.2-.14-.51.06-.68.05-.04,1.18-.97,2.6-.83.88.09,1.67.56,2.34,1.4.17.21.13.51-.08.68-.21.17-.51.13-.68-.08-.5-.63-1.06-.98-1.68-1.04-1.02-.11-1.89.6-1.9.61-.15.12-.34.14-.51.07Z"/>
          <path class="cls-8" d="m219.22,375.46s-.62,3.14.8,6.05c1.41,2.91-3.8,2.61-3.8,2.61l3-8.66Z"/>
        </g>
        <path class="cls-31" d="m73.58,445.31c.1,1.08.29,2.15.58,3.15.27.96.7,2.04,1.04,2.72,1.12,2.21,2.24,3.7,3.33,5.2,1.11,1.43,2.19,2.73,3.31,3.94,2.22,2.41,4.44,4.59,6.69,6.68,4.51,4.16,9.11,7.97,13.82,11.59,4.73,3.65,9.49,7.08,14.54,10.35l7.93-9.3c-7.5-8.61-15.31-17.2-22.15-25.84-1.7-2.14-3.33-4.31-4.73-6.4-.53-.77-1.01-1.51-1.45-2.22.88-.66,2.1-1.48,3.4-2.22,1.99-1.15,4.25-2.26,6.61-3.32,2.36-1.08,4.83-2.1,7.35-3.07,5.06-1.92,10.3-3.74,15.62-5.43,5.31-1.7,10.7-3.32,16.13-4.87,5.38-1.55,10.94-3.09,16.2-4.5l-5.73-24.02c-6.01,1.34-11.64,2.84-17.39,4.5-5.72,1.66-11.41,3.46-17.09,5.44-5.66,2-11.33,4.16-16.97,6.68-5.68,2.52-11.31,5.25-17.1,9.15-1.45.97-2.92,2.04-4.42,3.29s-3.03,2.65-4.59,4.53c-1.54,1.87-3.24,4.24-4.32,7.87-.52,1.8-.8,3.95-.6,6.1Z"/>
        <g>
          <polygon class="cls-31" points="124.48 479.49 135.28 489.57 120.65 500.66 115.21 486.77 124.48 479.49"/>
          <path class="cls-31" d="m127.19,482.51s4.32.42,6.6,1.57,3.16,9.35,3.16,9.35l-2.72-4.19-7.04-6.73Z"/>
          <path class="cls-31" d="m134.27,487.82s5.03,5.97,3.98,8.61c-1.05,2.64-4.05.86-4.05.86,0,0-.05,2.84-1.23,3.46-1.52.81-2.5-.32-2.5-.32,0,0,.02,2.42-1.27,2.88s-2.57,0-2.57,0c0,0,.48.98-1.61,1.57-2.09.59-4.38-4.21-4.38-4.21l13.62-12.83Z"/>
          <g class="cls-48">
            <path class="cls-12" d="m131.21,484.93s3.07,2.63,5.05,4.53c.09.48.16.95.26,1.42-1.36-1.33-4.31-4.16-5.82-5.28-.19-.14-.22-.4-.09-.58.14-.19.4-.23.58-.09Z"/>
          </g>
        </g>
        <path class="cls-43" d="m206.8,406.45s1.72,14.57-11.78,13.33c-16.05-1.46-17.71-23.17-17.71-23.17"/>
        <g>
          <path class="cls-31" d="m274.92,466.92s-.6-9.06,1.39-11.1c1.99-2.04,11.61,5.09,10.99,7.34-.63,2.25-7.12-1.97-7.12-1.97,0,0,.49,5.72-2.26,6.72-2.75,1-3-.99-3-.99Z"/>
          <path class="cls-31" d="m277.54,457.55s3.34-7.76,6.73-7.89c3.4-.13,10.13,6.88,10.95,10.38s-2.8,7.96-6.43,7.17c-3.63-.79-11.25-9.66-11.25-9.66Z"/>
          <path class="cls-31" d="m288.92,465.66s.21,5.78-4.65,7.33c-4.86,1.55-9.39-6.7-9.39-6.7,0,0,2.43-7.74,5.29-8.5,2.87-.76,8.74,7.86,8.74,7.86Z"/>
          <path class="cls-18" d="m283.68,462.38c-.4.16-.88.23-1.38.23-1.98,0-4.4-1.03-4.53-1.08-.19-.08-.28-.31-.2-.5.08-.19.31-.28.5-.2,1,.43,3.91,1.42,5.31.84.33-.13.55-.34.67-.64.68-1.66-3.3-4.17-4.76-4.92-.19-.1-.26-.33-.17-.52.1-.19.33-.26.52-.17.33.17,2.01,1.06,3.38,2.24,1.32-.44,2.78-3.1,3.25-4.14.09-.19.32-.28.51-.19.19.09.28.31.19.51-.18.39-1.61,3.47-3.34,4.39.89.91,1.47,1.93,1.17,2.91.02.09.07.18.09.27,3.62-.57,4.83-4.55,4.84-4.59.06-.2.27-.32.47-.26.2.06.32.27.26.47-.05.19-1.32,4.41-5.32,5.12.48,1.06,1.23,1.99,1.93,2.72,0,0,0,0,0,0,3.85-.39,5.11-4.6,5.12-4.64.06-.2.27-.32.47-.26.2.06.32.27.26.47-.05.18-1.29,4.31-5.18,5.09.62.56,1.08.89,1.1.9.17.12.22.36.1.53-.07.11-.19.17-.32.17-.07,0-.15-.02-.22-.07-.13-.09-2.76-1.94-3.96-4.57.52,3.51-1.54,4.9-1.63,4.96-.06.04-.13.06-.2.06-.13,0-.25-.06-.32-.18-.11-.18-.06-.42.12-.53.02-.01,1.82-1.23,1.26-4.43h0Z"/>
        </g>
      </g>
      <g>
        <path class="cls-9" d="m302.55,752.99l13.87,2.1h.01c.14-.4,3.04-7.82,7.63-18.8.43-.99.85-2,1.29-3.04,8.53-20.33,21.92-50.64,34.33-72.21,3.46-6.01,6.95-14.4,10.37-24.21.11-.3.22-.62.33-.93,16.55-47.92,31.27-128.06,31.27-128.06,0,0-48.59-15.44-56.97,0-8.39,15.43-6.19,130.1-6.19,130.1-10.59,13.51-23.55,62.6-30.65,92.11-3.25,13.52-5.28,22.95-5.28,22.95Z"/>
        <path class="cls-1" d="m321.68,742.02c-3.19,7.77-5.14,12.75-5.25,13.06h-.01s-13.87-2.08-13.87-2.08c0,0,1.6-7.41,4.23-18.52,5.16,2.14,10.08,4.74,14.91,7.55Z"/>
        <path class="cls-18" d="m341.87,637.42l3.44,12.24,24.73-12.83c.11-.3.23-.62.33-.93l-28.5,1.52Z"/>
        <path class="cls-1" d="m335.69,573.02l8.94.83,4.3-10.32.83,11.3s30.13,8.29,39.73,5.8l1.1-6.93,3.36-21.04-55.62-38.75-2.65,59.11Z"/>
        <path class="cls-18" d="m338.34,513.91c-1.14,4.81,3.63,30.63,28.94,47.85,12.29,8.36,19.03,10.91,23.32,11.95l3.36-21.04-55.62-38.75Z"/>
        <path class="cls-9" d="m410.75,423.16c-.77,10.39-1.07,20.54-.89,30.91.08,5.17.29,10.37.7,15.63.4,5.28.99,10.55,2.15,16.2.64,2.87,1.26,5.71,2.92,9.31.44.91.94,1.88,1.71,2.99.81,1.12,1.74,2.36,3.56,3.67.62.46,1.97,1.2,2.78,1.41.45.15.98.3,1.38.37.39.07.78.12,1.18.16.43.04.69.04,1.01.04.31,0,.64-.01.92-.04.48-.05,1.03-.12,1.44-.21,1.67-.36,2.74-.82,3.67-1.24,1.84-.88,3.17-1.74,4.43-2.61,1.24-.88,2.37-1.75,3.46-2.64,2.16-1.77,4.16-3.54,6.08-5.36,7.65-7.28,14.39-14.9,20.88-22.96l-7.23-7.18c-3.92,3.04-7.85,6.2-11.82,9.19-3.94,3.03-7.88,6.03-11.84,8.81-1.97,1.39-3.93,2.74-5.86,3.93-.96.59-1.91,1.14-2.81,1.61-.87.46-1.74.86-2.22.98-.23.07-.36.03.07-.09.1-.03.33-.08.5-.08.13-.02.3-.03.45-.03.17,0,.27,0,.54.02.24.01.47.05.71.1.24.05.63.13.92.23.16.05.31.11.47.18.18.07.37.16.56.25.18.09.36.19.54.3l.38.25c.79.57.93.8,1.03.88.07.06,0-.1-.07-.34-.35-1.04-.8-3.17-1.08-5.25-.59-4.3-.78-9.1-.93-13.89-.11-4.82-.09-9.71-.03-14.63.17-9.8.49-19.83.88-29.58l-20.53-1.3Z"/>
        <g>
          <path class="cls-9" d="m459.55,463.24s-.55-8.29,1.27-10.15c1.82-1.86,10.62,4.65,10.05,6.71-.57,2.06-6.51-1.8-6.51-1.8,0,0,.45,5.23-2.07,6.14-2.51.91-2.74-.9-2.74-.9Z"/>
          <path class="cls-9" d="m461.95,454.67s3.05-7.1,6.15-7.21c3.1-.11,9.26,6.29,10.01,9.49.75,3.2-2.56,7.28-5.88,6.56-3.31-.73-10.29-8.83-10.29-8.83Z"/>
          <path class="cls-9" d="m472.35,462.09s.19,5.28-4.25,6.7c-4.44,1.42-8.58-6.12-8.58-6.12,0,0,2.22-7.07,4.84-7.77,2.62-.7,7.99,7.19,7.99,7.19Z"/>
          <path class="cls-18" d="m467.57,459.09c-.37.15-.8.21-1.26.21-1.81,0-4.02-.94-4.14-.99-.18-.08-.26-.28-.18-.46.08-.18.28-.26.46-.18.92.39,3.57,1.3,4.86.77.3-.12.5-.31.61-.58.62-1.52-3.02-3.81-4.35-4.5-.17-.09-.24-.3-.15-.47.09-.17.3-.24.47-.15.3.16,1.84.97,3.09,2.05,1.2-.4,2.54-2.83,2.97-3.78.08-.18.29-.25.46-.18.18.08.26.29.18.46-.16.36-1.48,3.17-3.05,4.02.81.83,1.34,1.76,1.07,2.66.02.08.06.16.09.25,3.31-.52,4.41-4.16,4.42-4.2.05-.19.25-.29.43-.24.19.05.29.25.24.43-.05.17-1.2,4.03-4.86,4.68.44.97,1.12,1.82,1.76,2.48,0,0,0,0,0,0,3.52-.36,4.67-4.21,4.68-4.24.05-.19.25-.29.43-.24.19.05.29.25.24.43-.05.17-1.18,3.94-4.73,4.66.56.51.99.81,1,.82.16.11.2.33.09.49-.07.1-.18.15-.29.15-.07,0-.14-.02-.2-.06-.12-.08-2.53-1.77-3.62-4.18.48,3.21-1.41,4.48-1.49,4.54-.06.04-.12.05-.19.05-.12,0-.23-.06-.3-.16-.1-.16-.05-.38.11-.48.02-.01,1.67-1.13,1.15-4.05h0Z"/>
        </g>
        <g>
          <path class="cls-10" d="m342.68,497.86c26.81,14.55,65.5,16.58,65.69,9.97.69-25.57,8.83-41.13,15.28-47.98,13.11-13.95,6.18-15.11,6.32-23.9.03-1.43.23-3.07.75-5.01.11-.38.2-.77.29-1.15,2.25-9.59-.01-17.67-8.87-21.45-.37-.17-.75-.32-1.15-.46-2.83-1.03-2.36-1.66-5.24-2.56-.05-.01-.09-.03-.15-.04-7.54-2.33-14.81-3.72-23.24-5.13-1.3-.23-2.62-.44-3.97-.66-1.75-.28-3.47-.53-5.15-.74-.86-.11-1.7-.2-2.53-.29-9.19-1.01-17.23,6.17-17.26,15.42-.03,5.54-.28,10.85-.74,15.95-2.79,31.63-12.99,54.68-20.02,68.05Z"/>
          <path class="cls-9" d="m422.14,408.33c1.1,2.98,3.88,11.03,6.65,17.12.79,1.76,1.52,3.18,2.23,4.33,2.25-9.59-.01-17.67-8.87-21.45Z"/>
          <path class="cls-9" d="m392.36,400.15c1.6,5.69,5.85,18.42,12.67,22.13,8.42,4.6,16.12-6.28,10.57-17-7.54-2.33-14.81-3.72-23.24-5.13Z"/>
          <path class="cls-9" d="m362.7,429.82c6.78,4.83,14.49,7.35,18.9,4.32,9.14-6.28,3.38-29.2,1.63-35.39-.86-.11-1.7-.2-2.53-.29-9.19-1.01-17.23,6.17-17.26,15.42-.01,2.15-.05,4.24-.15,6.32-.09,2.87-.26,5.68-.5,8.44-.03.4-.05.79-.09,1.19Z"/>
          <path class="cls-18" d="m362.8,428.62l13.64-9.56-13.13,1.13c-.09,2.87-.26,5.68-.5,8.44Z"/>
          <path class="cls-35" d="m425.21,428.17l1.61,14.52s-21.15.49-34.25-4.94c0,0-1.99-12.19-.19-15.46,0,0,11.75,4.68,32.83,5.89Z"/>
          <g>
            <path class="cls-9" d="m394.03,401.59s4.85,4.92,9.14,11.11c.89,1.29,1.94,2.48,3.09,3.54,3.12,2.86,6.13,4.82,7.48,3.31.3-.33.56-.71.79-1.11,1.52-2.72,1.26-6.19-.61-8.68-2.11-2.81-1.91-5.68-.69-8.42.67-1.56,1.7-3.09,2.81-4.54l-1.46-2.99-8.08-13.91c-1.65,7.45-5.65,19.19-12.47,21.7Z"/>
            <path class="cls-18" d="m413.23,401.33c.67-1.56,1.7-3.09,2.81-4.54l-1.46-2.99-6.22-.73s.92,5.23,4.86,8.26Z"/>
            <path class="cls-9" d="m406.58,366.2c-2.72,12.25-4.13,17.37.06,25.26,6.31,11.86,21.66,12.43,27.92,1.22,5.63-10.09,9.14-28.42-1.05-36.52-10.03-7.98-24.21-2.2-26.94,10.04"/>
            <path class="cls-20" d="m439.95,374.1s9.84-7.29-3.18-18.11c0,0-8.99-12.14-23.12-7.17-14.13,4.97-17.47,20.96-9.31,36.43,0,0,.92-12.54,6.1-15.16s10.71-4.72,9.38-8.91c0,0,15.45,6.46,17.64,2.48.95.73,2.54,2.41,2.49,10.44Z"/>
            <path class="cls-20" d="m354.93,387.95c23.18,5.12,19.97-11.46,26.82-11.7,6.85-.24,3.2,7.97,10.04,9.84,6.85,1.88,12.63-8.08,12.63-8.08l-.66-3.42c0-.46-3.24-3.09-5.56-1.42-2.32,1.67-5.75-5.84-13.03-9.38-7.28-3.54-13.35,1.88-16.77,11.4-3.43,9.52-13.47,12.74-13.47,12.74Z"/>
            <path class="cls-22" d="m431.51,389.4s-6.29-2.26-7.84-4.8c0,0-.52,4.8,2.81,6.29s5.03-1.49,5.03-1.49Z"/>
            <path class="cls-20" d="m426.93,374.65c-.28.98.01,1.92.65,2.11.64.18,1.39-.46,1.67-1.44.28-.98-.01-1.92-.65-2.11-.64-.18-1.39.46-1.67,1.44"/>
            <path class="cls-20" d="m436.73,377.75c-.28.98.01,1.92.65,2.11.64.18,1.39-.46,1.67-1.44.28-.98-.01-1.92-.65-2.11-.64-.18-1.39.46-1.67,1.44"/>
            <path class="cls-20" d="m438.1,376.28h2.55s-1.73,1.49-2.55,0"/>
            <path class="cls-29" d="m432.59,378.32s.78,2.61,1.77,4.96c.32.76-.13,1.65-.94,1.8-1.4.26-2.81.15-2.81.15l1.98-6.91Z"/>
            <path class="cls-9" d="m399.91,373.32c.42,2.61,1.89,4.6,3.53,5.61,2.46,1.51,4.63-1.04,4.73-4.23.09-2.87-1.08-7.13-3.93-7.31-2.81-.18-4.81,2.95-4.33,5.94"/>
            <path class="cls-20" d="m424.4,371.64c.16,0,.31-.07.43-.2,1.78-1.99,3.96-1.68,3.99-1.68.32.05.63-.17.68-.5.05-.33-.17-.63-.5-.68-.11-.02-2.85-.41-5.06,2.06-.22.25-.2.62.05.85.12.11.27.16.42.15"/>
            <path class="cls-20" d="m441.31,374.46c.15.03.3.01.44-.07.28-.17.38-.54.21-.82-1.7-2.84-4.46-2.98-4.58-2.99-.33-.01-.61.24-.62.58-.01.33.24.61.57.62.11,0,2.25.15,3.6,2.41.09.15.23.24.38.28"/>
            <path class="cls-20" d="m428.3,373.18h2.55s-1.73,1.49-2.55,0"/>
          </g>
          <path class="cls-1" d="m439.12,358.16s10.06.59,18.01,1.92c6.17,1.03-1.08,5.4-17.12,5.41-16.04.01-23.97-6.18-23.97-6.18,10.67.06,19.76-.12,23.08-1.14Z"/>
          <path class="cls-23" d="m439.12,358.16s10.06.59,18.01,1.92c6.17,1.03-1.08,5.4-17.12,5.41-16.04.01-23.97-6.18-23.97-6.18,10.67.06,19.76-.12,23.08-1.14Z"/>
          <path class="cls-1" d="m440.01,358.22s-1.14-4.93-6.74-5.73c0,0-12.22,2.56-25.69,0,0,0-5.26,1.36-5.94,7.51,0,0,17.6,2.87,38.37-1.78Z"/>
          <path class="cls-28" d="m440.01,358.22s-1.14-4.93-6.74-5.73c0,0-12.22,2.56-25.69,0,0,0-5.26,1.36-5.94,7.51,0,0,17.6,2.87,38.37-1.78Z"/>
        </g>
        <path class="cls-9" d="m363.27,621.25l-20.59,12.19,8.12,7.39s5.99-1.26,15.25-3.54h.01c32.48-7.97,105.03-28.35,99.53-50.16-6.06-24.04-45.19-62.17-60.57-76.65l-62.35-12.62c-19.9,35.25,77.82,89.63,81.85,87.1l-61.27,36.28Z"/>
        <path class="cls-1" d="m342.68,633.44l8.12,7.39s5.99-1.26,15.25-3.54l1.84-.45-4.62-15.6-20.59,12.19Z"/>
        <path class="cls-1" d="m408.37,507.83l22.68,26.29-28.1,16.06-8.92-3.31,2.25,7.28-15.23,12.29s-59.2-38.44-38.37-68.57c18.46,4.19,44.57-1.33,65.68,9.96Z"/>
        <path class="cls-43" d="m347.89,498.72s-17.5,25.07,38.93,59.5"/>
        <path class="cls-10" d="m311.91,753.7s2.67-2.04,5.2-.88c2.52,1.16,2.95,8.19,8.16,14.81,2.95,3.75,3.73,5.16,5.37,6.66,2.38,2.18,2.54,5.55,1.87,8.71h0l-41.21-22.4s3.25-6.14,6.28-8.46c3.03-2.32,7.41-6.45,8.16-5.42,3.35,4.59,3.55,8.11,6.18,6.98Z"/>
        <path class="cls-10" d="m347.4,637.4s3.32-.54,5,1.66c1.68,2.21-1.24,8.62.24,16.9.84,4.7.87,6.3,1.61,8.4,1.08,3.04-.36,6.1-2.44,8.57h0l-25.86-39.13s5.76-3.89,9.52-4.52,9.57-2.21,9.75-.95c.8,5.62-.68,8.83,2.18,9.06Z"/>
        <g>
          <path class="cls-9" d="m307.65,430.06c.03.32.07.64.11.97.05.33.11.66.16.88.26,1.07.58,1.85.86,2.51.62,1.3,1.19,2.15,1.74,2.91,1.1,1.51,2.1,2.56,3.1,3.59,2.02,1.99,3.96,3.61,5.94,5.18,1.95,1.56,3.92,3.03,5.91,4.43,7.91,5.62,16.01,10.49,24.44,15.07l5.77-8.39c-3.42-3.09-6.97-6.12-10.35-9.26-3.44-3.07-6.83-6.19-10.09-9.3-1.62-1.56-3.22-3.13-4.75-4.69-.81-.84-1.59-1.69-2.33-2.52.99-.43,2.08-.84,3.21-1.22,1.92-.69,3.96-1.26,6.03-1.88,4.17-1.19,8.53-2.18,12.92-3.17,8.76-1.92,17.88-3.61,26.66-5.25l-3.11-20.33c-9.68,1.33-18.93,3.22-28.35,5.66-4.7,1.21-9.38,2.63-14.13,4.27-2.37.82-4.75,1.77-7.17,2.83-2.43,1.08-4.88,2.25-7.53,3.92-1.33.85-2.7,1.82-4.21,3.25-.37.32-.78.78-1.15,1.18-.41.48-.8.91-1.21,1.51-.21.3-.4.59-.6.91-.19.34-.4.7-.58,1.06-.18.33-.37.81-.53,1.22l-.23.64c-.15.47-.27.96-.37,1.45-.11.52-.14.93-.15,1.33-.03.41-.03.85-.01,1.23Z"/>
          <polygon class="cls-9" points="353.15 455.7 364.59 459.68 357.29 472.85 348.6 464.23 353.15 455.7"/>
          <path class="cls-9" d="m356.18,457.06s3.38-1.11,5.47-1.01c2.09.1,5.47,5.97,5.47,5.97l-3.43-2.24-7.51-2.72Z"/>
          <path class="cls-9" d="m363.25,458.7s5.76,2.81,5.84,5.14-2.75,1.99-2.75,1.99c0,0,.9,2.15.23,3.01-.87,1.11-1.99.59-1.99.59,0,0,.81,1.81,0,2.58-.81.77-1.93.84-1.93.84,0,0,.69.58-.69,1.71s-4.68-1.71-4.68-1.71l5.96-14.15Z"/>
          <g class="cls-48">
            <path class="cls-12" d="m360,457.55s3.18.96,5.29,1.72c.22.33.44.66.67.98-1.46-.55-4.62-1.69-6.12-2.03-.18-.04-.3-.23-.26-.41.04-.18.23-.3.41-.26Z"/>
          </g>
        </g>
      </g>
      <g>
        <path class="cls-39" d="m440.67,239.9h107.31c12.66,0,22.93,10.26,22.93,22.93v43.16c0,12.66-10.26,22.93-22.93,22.93h-74.02l2.6,48.19c.2,3.7-4.86,4.94-6.4,1.58l-22.81-49.77h-6.68c-12.66,0-22.93-10.26-22.93-22.93v-43.16c0-12.66,10.26-22.93,22.93-22.93Z"/>
        <path class="cls-22" d="m437.56,271.47h111.56c4.33,0,7.84-3.51,7.84-7.84h0c0-4.33-3.51-7.84-7.84-7.84h-111.56c-4.33,0-7.84,3.51-7.84,7.84h0c0,4.33,3.51,7.84,7.84,7.84Z"/>
        <path class="cls-21" d="m437.56,294.71h111.56c4.33,0,7.84-3.51,7.84-7.84h0c0-4.33-3.51-7.84-7.84-7.84h-111.56c-4.33,0-7.84,3.51-7.84,7.84h0c0,4.33,3.51,7.84,7.84,7.84Z"/>
        <rect class="cls-22" x="466.72" y="302.27" width="90.24" height="15.68" rx="7.84" ry="7.84" transform="translate(1023.67 620.21) rotate(-180)"/>
      </g>
      <path class="cls-41" d="m1045.8,250.6h0c-20.44,0-37.01-16.57-37.01-37.01h0c0-20.44,16.57-37.01,37.01-37.01h0c20.44,0,37.01,16.57,37.01,37.01h0c0,20.44-16.57,37.01-37.01,37.01Z"/>
      <g>
        <path class="cls-37" d="m1068.19,211.8c-.29-11.49-9.76-20.72-21.41-20.72s-20.9,9.02-21.4,20.33c-.01.31-.02.62-.02.93,0,4.02,1.12,7.77,3.07,10.98l-3.86,11.4,11.87-3.77c3.07,1.69,6.6,2.65,10.35,2.65,11.84,0,21.42-9.52,21.42-21.26,0-.18,0-.36,0-.54Zm-21.41,18.42c-3.66,0-7.06-1.08-9.91-2.96l-6.92,2.21,2.25-6.64c-2.16-2.95-3.43-6.57-3.43-10.48,0-.58.03-1.16.09-1.74.88-9.05,8.59-16.14,17.92-16.14s17.23,7.27,17.95,16.48c.04.46.06.92.06,1.39,0,9.86-8.08,17.87-18.01,17.87Z"/>
        <path class="cls-37" d="m1056.59,216.63c-.53-.26-3.11-1.52-3.59-1.7-.48-.18-.83-.26-1.18.26-.35.52-1.36,1.7-1.67,2.04-.31.35-.61.39-1.14.13-.52-.26-2.22-.8-4.22-2.59-1.55-1.37-2.62-3.08-2.92-3.6-.3-.52-.03-.8.23-1.06.24-.24.52-.61.79-.91.07-.09.13-.17.19-.25.12-.19.21-.37.33-.62.18-.35.09-.65-.04-.91-.13-.26-1.18-2.83-1.62-3.87-.43-1.04-.87-.86-1.18-.86s-.65-.05-1-.05-.92.13-1.4.65c-.48.52-1.84,1.79-1.84,4.35,0,.6.11,1.2.27,1.78.53,1.84,1.68,3.35,1.88,3.61.26.34,3.63,5.78,8.97,7.87,5.35,2.08,5.35,1.38,6.31,1.29.96-.08,3.11-1.25,3.54-2.48.44-1.21.44-2.26.31-2.48-.13-.21-.48-.34-1-.6Z"/>
      </g>
      <path class="cls-41" d="m1054.1,457.86h0c-15.25,0-27.62-12.36-27.62-27.62h0c0-15.25,12.36-27.62,27.62-27.62h0c15.25,0,27.62,12.36,27.62,27.62h0c0,15.25-12.36,27.62-27.62,27.62Z"/>
      <path class="cls-37" d="m1065.95,435.34c-.66-.32-3.84-1.88-4.43-2.09-.59-.22-1.03-.32-1.46.32-.43.64-1.68,2.09-2.06,2.51-.38.43-.75.48-1.41.16-.64-.32-2.74-.99-5.21-3.2-1.92-1.7-3.23-3.8-3.6-4.45-.37-.64-.04-.99.29-1.31.3-.3.64-.76.98-1.13.09-.11.16-.21.24-.31.15-.24.26-.46.41-.77.22-.43.11-.8-.05-1.13-.16-.32-1.46-3.49-2.01-4.78-.53-1.29-1.08-1.07-1.46-1.07s-.81-.06-1.24-.06-1.14.16-1.73.8c-.59.64-2.27,2.2-2.27,5.38,0,.74.14,1.49.33,2.19.66,2.27,2.07,4.14,2.32,4.46.32.42,4.48,7.13,11.07,9.72,6.6,2.56,6.6,1.71,7.79,1.6,1.19-.1,3.84-1.55,4.37-3.06.55-1.5.55-2.79.38-3.06-.16-.26-.59-.42-1.24-.74Z"/>
    </g>
  </g>
</svg>