<?xml version="1.0" encoding="UTF-8"?>
<svg id="Layer_2" data-name="Layer 2" xmlns="http://www.w3.org/2000/svg" viewBox="0 0 500 372.61">
  <defs>
    <style>
      .cls-1, .cls-2, .cls-3, .cls-4, .cls-5, .cls-6, .cls-7, .cls-8, .cls-9, .cls-10, .cls-11, .cls-12, .cls-13, .cls-14, .cls-15, .cls-16, .cls-17, .cls-18, .cls-19, .cls-20, .cls-21 {
        stroke-width: 0px;
      }

      .cls-1, .cls-13 {
        fill: #f5b819;
      }

      .cls-22 {
        opacity: .6;
      }

      .cls-2 {
        fill: #ff8b7b;
      }

      .cls-3 {
        fill: #e6e6e6;
      }

      .cls-4, .cls-12 {
        fill: #c2c932;
      }

      .cls-6, .cls-23, .cls-21 {
        opacity: .3;
      }

      .cls-7 {
        fill: #e0e0e0;
      }

      .cls-8 {
        fill: #ff5652;
      }

      .cls-9 {
        fill: #f5f5f5;
      }

      .cls-10 {
        fill: #f0f0f0;
      }

      .cls-24 {
        fill: none;
        stroke: #000;
        stroke-linecap: round;
        stroke-linejoin: round;
      }

      .cls-11, .cls-12 {
        opacity: .2;
      }

      .cls-13 {
        opacity: .4;
      }

      .cls-14, .cls-21, .cls-25 {
        fill: #fff;
      }

      .cls-15 {
        fill: #fafafa;
      }

      .cls-16 {
        fill: #263238;
      }

      .cls-17 {
        fill: #ebebeb;
      }

      .cls-18 {
        fill: #ff9a6c;
      }

      .cls-19 {
        fill: #455a64;
      }

      .cls-20 {
        fill: #ffbf9d;
      }

      .cls-25 {
        font-family: KonkhmerSleokchher-Regular, 'Konkhmer Sleokchher';
        font-size: 3.59px;
      }
    </style>
  </defs>
  <g id="Background_Complete" data-name="Background Complete">
    <g>
      <rect class="cls-17" y="327.45" width="500" height=".25"/>
      <rect class="cls-17" x="288.4" y="341.39" width="33.12" height=".25"/>
      <rect class="cls-17" x="407.08" y="338.68" width="8.69" height=".25"/>
      <rect class="cls-17" x="327.67" y="334.26" width="68.92" height=".25"/>
      <rect class="cls-17" x="194.84" y="340.16" width="30.3" height=".25"/>
      <rect class="cls-17" x="166.72" y="340.16" width="19.22" height=".25"/>
      <rect class="cls-17" x="52.46" y="335.94" width="46.84" height=".25"/>
      <path class="cls-17" d="m237.01,282.85H43.91c-3.15,0-5.71-2.56-5.71-5.71V5.71c0-3.15,2.56-5.71,5.71-5.71h193.1c3.15,0,5.71,2.56,5.71,5.71v271.43c0,3.15-2.56,5.71-5.71,5.71ZM43.91.25c-3.01,0-5.46,2.45-5.46,5.46v271.43c0,3.01,2.45,5.46,5.46,5.46h193.1c3.01,0,5.46-2.45,5.46-5.46V5.71c0-3.01-2.45-5.46-5.46-5.46H43.91Z"/>
      <path class="cls-17" d="m453.31,282.85h-193.1c-3.15,0-5.71-2.56-5.71-5.71V5.71c0-3.15,2.56-5.71,5.71-5.71h193.1c3.15,0,5.71,2.56,5.71,5.71v271.43c0,3.15-2.56,5.71-5.71,5.71ZM260.21.25c-3.01,0-5.46,2.45-5.46,5.46v271.43c0,3.01,2.45,5.46,5.46,5.46h193.1c3.01,0,5.46-2.45,5.46-5.46V5.71c0-3.01-2.45-5.46-5.46-5.46h-193.1Z"/>
    </g>
    <g>
      <g>
        <rect class="cls-3" x="57.34" y="23.01" width="170.29" height="156.78" transform="translate(284.97 202.8) rotate(180)"/>
        <rect class="cls-9" x="53.3" y="23.01" width="172.58" height="156.78" transform="translate(279.17 202.8) rotate(180)"/>
        <rect class="cls-15" x="69.04" y="22.37" width="141.1" height="158.07" transform="translate(240.99 -38.18) rotate(90)"/>
        <polygon class="cls-14" points="199.09 171.95 145.93 30.85 123.55 30.85 176.71 171.95 199.09 171.95"/>
        <polygon class="cls-14" points="170.36 171.95 117.21 30.85 101.79 30.85 154.95 171.95 170.36 171.95"/>
        <rect class="cls-3" x="47.84" y="97.07" width="141.1" height="8.66" transform="translate(219.79 -16.99) rotate(90)"/>
        <rect class="cls-3" x="96.03" y="97.07" width="141.1" height="8.66" transform="translate(267.98 -65.18) rotate(90)"/>
        <rect class="cls-9" x="39.73" y="95.5" width="151.9" height="10.94" transform="translate(216.66 -14.71) rotate(90)"/>
        <rect class="cls-9" x="87.93" y="95.5" width="151.9" height="10.94" transform="translate(264.85 -62.9) rotate(90)"/>
        <rect class="cls-3" x="-9.61" y="101.02" width="141.1" height=".77" transform="translate(162.34 40.46) rotate(90)"/>
      </g>
      <g>
        <g>
          <rect class="cls-17" x="270.69" y="24.44" width="175.19" height="122.54"/>
          <rect class="cls-7" x="445.88" y="24.44" width="1.48" height="122.54" transform="translate(893.23 171.43) rotate(180)"/>
          <rect class="cls-14" x="303.15" y="4.26" width="110.27" height="162.91" transform="translate(444 -272.57) rotate(90)"/>
          <rect class="cls-7" x="222.3" y="85.11" width="110.27" height="1.22" transform="translate(363.15 -191.72) rotate(90)"/>
        </g>
        <rect class="cls-9" x="380.55" y="42.47" width="39.8" height="55.92"/>
        <rect class="cls-9" x="289.59" y="52.84" width="39.8" height="55.92"/>
        <rect class="cls-17" x="353.01" y="66.75" width="39.8" height="55.92"/>
        <rect class="cls-9" x="322.69" y="69.2" width="15.54" height="15.54"/>
        <rect class="cls-10" x="318.18" y="100.98" width="15.54" height="15.54"/>
      </g>
      <g>
        <path class="cls-7" d="m409.1,320.26c0-3.97,3.22-7.18,7.18-7.18s7.18,3.22,7.18,7.18-3.22,7.18-7.18,7.18-7.18-3.22-7.18-7.18Z"/>
        <path class="cls-7" d="m421.22,320.26c0-3.97,3.22-7.18,7.18-7.18s7.19,3.22,7.19,7.18-3.22,7.18-7.19,7.18-7.18-3.22-7.18-7.18Z"/>
        <path class="cls-7" d="m222.67,320.26c0-3.97,3.22-7.18,7.19-7.18s7.18,3.22,7.18,7.18-3.22,7.18-7.18,7.18-7.19-3.22-7.19-7.18Z"/>
        <path class="cls-7" d="m234.8,320.26c0-3.97,3.22-7.18,7.19-7.18s7.18,3.22,7.18,7.18-3.22,7.18-7.18,7.18-7.19-3.22-7.19-7.18Z"/>
        <rect class="cls-17" x="421.54" y="168.05" width="17.01" height="153.2" transform="translate(860.08 489.3) rotate(180)"/>
        <rect class="cls-9" x="221.2" y="168.05" width="200.34" height="153.2"/>
        <rect class="cls-17" x="227.71" y="174.33" width="187.31" height="140.63"/>
        <rect class="cls-9" x="230.38" y="233.48" width="181.98" height="78.89"/>
        <rect class="cls-9" x="230.38" y="177.29" width="181.98" height="54.19"/>
        <path class="cls-17" d="m263.49,234.81h115.76c.73,0,1.33-.6,1.33-1.33h0c0-.73-.6-1.33-1.33-1.33h-115.76c-.73,0-1.33.6-1.33,1.33h0c0,.73.6,1.33,1.33,1.33Z"/>
        <path class="cls-17" d="m263.49,178.63h115.76c.73,0,1.33-.6,1.33-1.33h0c0-.73-.6-1.33-1.33-1.33h-115.76c-.73,0-1.33.6-1.33,1.33h0c0,.73.6,1.33,1.33,1.33Z"/>
      </g>
      <g>
        <g>
          <rect class="cls-9" x="63.91" y="249.22" width="88.22" height="78.22"/>
          <rect class="cls-17" x="152.12" y="249.22" width="34.29" height="78.22" transform="translate(338.54 576.67) rotate(180)"/>
        </g>
        <g>
          <rect class="cls-17" x="59.56" y="235.5" width="94.48" height="13.72"/>
          <rect class="cls-7" x="154.04" y="235.5" width="36.73" height="13.72" transform="translate(344.8 484.72) rotate(180)"/>
        </g>
      </g>
    </g>
  </g>
  <g id="Shadow">
    <ellipse id="_Path_" data-name="&amp;lt;Path&amp;gt;" class="cls-9" cx="250" cy="361.29" rx="193.89" ry="11.32"/>
  </g>
  <g id="Placeholder">
    <g>
      <rect class="cls-1" x="407.69" y="131.94" width="1" height="11.92"/>
      <rect class="cls-1" x="407.69" y="97.8" width="1" height="25.8"/>
      <rect class="cls-7" x="147.25" y="76.96" width="254.07" height="143.28" rx="7.15" ry="7.15"/>
      <g>
        <rect class="cls-14" x="150.9" y="73.31" width="254.07" height="143.28" rx="7.15" ry="7.15"/>
        <path class="cls-1" d="m397.83,217.09h-239.77c-4.22,0-7.65-3.43-7.65-7.65V80.46c0-4.22,3.43-7.65,7.65-7.65h239.77c4.22,0,7.65,3.43,7.65,7.65v128.98c0,4.22-3.43,7.65-7.65,7.65ZM158.05,73.81c-3.67,0-6.65,2.98-6.65,6.65v128.98c0,3.67,2.98,6.65,6.65,6.65h239.77c3.67,0,6.65-2.98,6.65-6.65V80.46c0-3.67-2.98-6.65-6.65-6.65h-239.77Z"/>
      </g>
      <path class="cls-7" d="m262.8,135.54h-92.4c-2.05,0-3.73-1.67-3.73-3.73v-12.74c0-2.05,1.67-3.73,3.73-3.73h92.4c2.05,0,3.73,1.67,3.73,3.73v12.74c0,2.05-1.67,3.73-3.73,3.73Zm-92.4-19.19c-1.5,0-2.73,1.22-2.73,2.73v12.74c0,1.5,1.22,2.73,2.73,2.73h92.4c1.5,0,2.73-1.22,2.73-2.73v-12.74c0-1.5-1.22-2.73-2.73-2.73h-92.4Z"/>
      <path class="cls-7" d="m311.48,162.53h-141.08c-2.05,0-3.73-1.67-3.73-3.73v-12.74c0-2.05,1.67-3.73,3.73-3.73h141.08c2.05,0,3.73,1.67,3.73,3.73v12.74c0,2.05-1.67,3.73-3.73,3.73Zm-141.08-19.19c-1.5,0-2.73,1.22-2.73,2.73v12.74c0,1.5,1.22,2.73,2.73,2.73h141.08c1.5,0,2.73-1.22,2.73-2.73v-12.74c0-1.5-1.22-2.73-2.73-2.73h-141.08Z"/>
      <path class="cls-7" d="m171.46,156.45c-.28,0-.5-.22-.5-.5v-7.03c0-.28.22-.5.5-.5s.5.22.5.5v7.03c0,.28-.22.5-.5.5Z"/>
      <path class="cls-7" d="m373.57,135.54h-92.4c-2.05,0-3.73-1.67-3.73-3.73v-12.74c0-2.05,1.67-3.73,3.73-3.73h92.4c2.05,0,3.73,1.67,3.73,3.73v12.74c0,2.05-1.67,3.73-3.73,3.73Zm-92.4-19.19c-1.5,0-2.73,1.22-2.73,2.73v12.74c0,1.5,1.22,2.73,2.73,2.73h92.4c1.5,0,2.73-1.22,2.73-2.73v-12.74c0-1.5-1.22-2.73-2.73-2.73h-92.4Z"/>
      <path class="cls-12" d="m230.51,97.8h-59.23c-2.26,0-4.11-1.85-4.11-4.11h0c0-2.26,1.85-4.11,4.11-4.11h59.23c2.26,0,4.11,1.85,4.11,4.11h0c0,2.26-1.85,4.11-4.11,4.11Z"/>
      <path class="cls-12" d="m246.81,177.07h-64.17c-.9,0-1.64-.74-1.64-1.64h0c0-.9.74-1.64,1.64-1.64h64.17c.9,0,1.64.74,1.64,1.64h0c0,.9-.74,1.64-1.64,1.64Z"/>
      <circle class="cls-1" cx="170.48" cy="175.44" r="3.31"/>
      <path class="cls-7" d="m282.23,129.46c-.28,0-.5-.22-.5-.5v-7.03c0-.28.22-.5.5-.5s.5.22.5.5v7.03c0,.28-.22.5-.5.5Z"/>
      <path class="cls-7" d="m171.46,129.46c-.28,0-.5-.22-.5-.5v-7.03c0-.28.22-.5.5-.5s.5.22.5.5v7.03c0,.28-.22.5-.5.5Z"/>
      <g class="cls-22">
        <path class="cls-16" d="m175.44,128.42v-6.14h4.14v.73h-3.33v1.9h2.88v.72h-2.88v2.79h-.81Z"/>
        <path class="cls-16" d="m180.55,123.15v-.87h.75v.87h-.75Zm0,5.27v-4.45h.75v4.45h-.75Z"/>
        <path class="cls-16" d="m182.44,128.42v-4.45h.68v.67c.17-.32.33-.52.48-.62.15-.1.31-.15.48-.15.25,0,.51.08.78.24l-.26.7c-.18-.11-.37-.16-.55-.16-.17,0-.31.05-.44.15-.13.1-.22.24-.28.41-.08.27-.13.56-.13.88v2.33h-.75Z"/>
        <path class="cls-16" d="m185.01,127.1l.75-.12c.04.3.16.53.35.69.19.16.46.24.8.24s.6-.07.77-.21c.17-.14.25-.31.25-.5,0-.17-.07-.3-.22-.4-.1-.07-.36-.15-.77-.26-.55-.14-.94-.26-1.15-.36-.21-.1-.38-.24-.49-.42-.11-.18-.17-.38-.17-.6,0-.2.04-.38.14-.55.09-.17.21-.31.37-.42.12-.09.28-.16.48-.22.2-.06.42-.09.65-.09.35,0,.66.05.92.15.26.1.46.24.59.41.12.17.21.4.26.69l-.74.1c-.03-.23-.13-.41-.29-.54-.16-.13-.39-.19-.68-.19-.35,0-.59.06-.74.17-.15.11-.22.25-.22.4,0,.1.03.19.09.26.06.08.16.15.29.2.08.03.3.09.67.19.53.14.91.26,1.12.35s.38.22.5.4c.12.17.18.39.18.65s-.07.49-.22.71c-.15.22-.36.39-.63.52-.28.12-.59.18-.94.18-.58,0-1.02-.12-1.32-.36-.3-.24-.5-.6-.58-1.07Z"/>
        <path class="cls-16" d="m191.25,127.75l.11.67c-.21.04-.4.07-.57.07-.27,0-.49-.04-.64-.13-.15-.09-.26-.2-.32-.34s-.09-.44-.09-.89v-2.56h-.55v-.59h.55v-1.1l.75-.45v1.55h.76v.59h-.76v2.6c0,.22.01.35.04.42.03.06.07.11.13.15.06.04.15.05.26.05.08,0,.19,0,.33-.03Z"/>
        <path class="cls-16" d="m194.37,128.42v-4.45h.68v.63c.33-.49.8-.73,1.42-.73.27,0,.51.05.74.14.23.1.39.22.5.38.11.16.19.34.24.56.03.14.04.38.04.73v2.74h-.75v-2.71c0-.31-.03-.54-.09-.69-.06-.15-.16-.27-.31-.36s-.33-.14-.53-.14c-.32,0-.6.1-.83.31-.23.2-.35.59-.35,1.16v2.43h-.75Z"/>
        <path class="cls-16" d="m202.04,127.88c-.28.24-.55.4-.81.5-.26.1-.54.15-.83.15-.49,0-.86-.12-1.13-.36-.26-.24-.39-.54-.39-.92,0-.22.05-.42.15-.6.1-.18.23-.32.39-.43.16-.11.34-.19.54-.25.15-.04.37-.08.67-.11.61-.07,1.06-.16,1.34-.26,0-.1,0-.17,0-.2,0-.31-.07-.52-.21-.65-.19-.17-.48-.26-.86-.26-.35,0-.62.06-.79.19-.17.12-.29.34-.38.66l-.74-.1c.07-.32.18-.57.33-.76.15-.19.38-.34.67-.45.29-.1.63-.16,1.01-.16s.69.04.93.13c.24.09.41.2.52.34.11.14.19.31.23.51.03.13.04.36.04.7v1.01c0,.7.02,1.14.05,1.33.03.19.1.36.19.53h-.79c-.08-.16-.13-.34-.15-.55Zm-.06-1.68c-.27.11-.68.21-1.23.28-.31.04-.53.1-.66.15-.13.06-.23.14-.3.25-.07.11-.1.23-.1.36,0,.2.08.37.23.5.15.13.38.2.67.2s.55-.06.78-.19c.23-.13.39-.3.5-.52.08-.17.12-.42.12-.75v-.28Z"/>
        <path class="cls-16" d="m203.91,128.42v-4.45h.67v.62c.14-.22.33-.39.56-.53.23-.13.5-.2.79-.2.33,0,.6.07.81.2.21.14.36.33.45.57.35-.52.81-.78,1.38-.78.44,0,.78.12,1.02.37.24.24.36.62.36,1.13v3.05h-.75v-2.8c0-.3-.02-.52-.07-.65-.05-.13-.14-.24-.27-.32-.13-.08-.28-.12-.45-.12-.31,0-.57.1-.78.31-.21.21-.31.54-.31,1v2.59h-.75v-2.89c0-.34-.06-.59-.18-.75-.12-.17-.32-.25-.6-.25-.21,0-.41.06-.59.17-.18.11-.31.28-.39.49-.08.22-.12.53-.12.93v2.31h-.75Z"/>
        <path class="cls-16" d="m214.1,126.99l.78.1c-.12.46-.35.81-.68,1.06-.33.25-.76.38-1.27.38-.65,0-1.17-.2-1.55-.6-.38-.4-.57-.96-.57-1.69s.19-1.33.58-1.74c.39-.41.88-.62,1.5-.62s1.08.2,1.46.61c.38.4.57.97.57,1.71,0,.04,0,.11,0,.2h-3.32c.03.49.17.86.41,1.12.25.26.56.39.93.39.28,0,.51-.07.71-.22.2-.15.35-.38.46-.7Zm-2.48-1.22h2.48c-.03-.37-.13-.66-.29-.84-.24-.29-.55-.44-.93-.44-.35,0-.64.12-.87.35-.24.23-.37.54-.39.93Z"/>
      </g>
      <g class="cls-22">
        <path class="cls-16" d="m175.42,155.42v-6.14h4.44v.73h-3.63v1.88h3.4v.72h-3.4v2.09h3.77v.72h-4.58Z"/>
        <path class="cls-16" d="m181.03,155.42v-4.45h.67v.62c.14-.22.33-.39.56-.53.23-.13.5-.2.79-.2.33,0,.6.07.81.21.21.14.36.33.45.57.35-.52.81-.78,1.38-.78.44,0,.78.12,1.02.37.24.24.36.62.36,1.13v3.05h-.75v-2.8c0-.3-.02-.52-.07-.65-.05-.13-.14-.24-.27-.32-.13-.08-.28-.12-.45-.12-.31,0-.57.1-.78.31-.21.21-.31.54-.31,1v2.59h-.75v-2.89c0-.34-.06-.59-.18-.75-.12-.17-.32-.25-.6-.25-.21,0-.41.06-.59.17-.18.11-.31.28-.39.49-.08.22-.12.53-.12.93v2.31h-.75Z"/>
        <path class="cls-16" d="m191.08,154.87c-.28.24-.55.4-.81.5-.26.1-.54.15-.83.15-.49,0-.86-.12-1.13-.36-.26-.24-.39-.54-.39-.92,0-.22.05-.42.15-.6.1-.18.23-.32.39-.43.16-.11.34-.19.54-.25.15-.04.37-.08.67-.11.61-.07,1.06-.16,1.34-.26,0-.1,0-.17,0-.2,0-.31-.07-.52-.21-.65-.19-.17-.48-.26-.86-.26-.35,0-.62.06-.79.19-.17.12-.29.34-.38.66l-.74-.1c.07-.32.18-.57.33-.76.15-.19.38-.34.67-.45.29-.1.63-.16,1.01-.16s.69.04.93.13c.24.09.41.2.52.34.11.14.19.31.23.51.03.13.04.36.04.7v1.01c0,.7.02,1.14.05,1.33.03.19.1.36.19.53h-.79c-.08-.16-.13-.34-.15-.55Zm-.06-1.68c-.27.11-.68.21-1.23.28-.31.04-.53.1-.66.15-.13.06-.23.14-.3.25-.07.11-.1.23-.1.36,0,.2.08.37.23.5.15.13.38.2.67.2s.55-.06.78-.19c.23-.13.39-.3.5-.52.08-.17.12-.42.12-.75v-.28Z"/>
        <path class="cls-16" d="m192.95,150.14v-.87h.75v.87h-.75Zm0,5.27v-4.45h.75v4.45h-.75Z"/>
        <path class="cls-16" d="m194.84,155.42v-6.14h.75v6.14h-.75Z"/>
      </g>
      <g class="cls-22">
        <path class="cls-16" d="m286.14,128.42v-6.14h.81v5.42h3.02v.72h-3.84Z"/>
        <path class="cls-16" d="m293.75,127.88c-.28.24-.55.4-.81.5-.26.1-.54.15-.83.15-.49,0-.86-.12-1.13-.36-.26-.24-.39-.54-.39-.92,0-.22.05-.42.15-.6.1-.18.23-.32.39-.43.16-.11.34-.19.54-.25.15-.04.37-.08.67-.11.61-.07,1.06-.16,1.34-.26,0-.1,0-.17,0-.2,0-.31-.07-.52-.21-.65-.19-.17-.48-.26-.86-.26-.35,0-.62.06-.79.19-.17.12-.29.34-.38.66l-.74-.1c.07-.32.18-.57.33-.76.15-.19.38-.34.67-.45.29-.1.63-.16,1.01-.16s.69.04.93.13c.24.09.41.2.52.34.11.14.19.31.23.51.03.13.04.36.04.7v1.01c0,.7.02,1.14.05,1.33.03.19.1.36.19.53h-.79c-.08-.16-.13-.34-.15-.55Zm-.06-1.68c-.27.11-.68.21-1.23.28-.31.04-.53.1-.66.15-.13.06-.23.14-.3.25-.07.11-.1.23-.1.36,0,.2.08.37.23.5.15.13.38.2.67.2s.55-.06.78-.19c.23-.13.39-.3.5-.52.08-.17.12-.42.12-.75v-.28Z"/>
        <path class="cls-16" d="m295.32,127.1l.75-.12c.04.3.16.53.35.69.19.16.46.24.8.24s.6-.07.77-.21c.17-.14.25-.31.25-.5,0-.17-.07-.3-.22-.4-.1-.07-.36-.15-.77-.26-.55-.14-.94-.26-1.15-.36-.21-.1-.38-.24-.49-.42-.11-.18-.16-.38-.16-.6,0-.2.04-.38.14-.55.09-.17.21-.31.37-.42.12-.09.28-.16.48-.22.2-.06.42-.09.65-.09.35,0,.66.05.92.15.26.1.46.24.59.41.12.17.21.4.26.69l-.74.1c-.03-.23-.13-.41-.29-.54-.16-.13-.39-.19-.68-.19-.35,0-.59.06-.74.17-.15.11-.22.25-.22.4,0,.1.03.19.09.26.06.08.16.15.29.2.08.03.3.09.67.19.53.14.91.26,1.12.35.21.09.38.22.5.4.12.17.18.39.18.65s-.07.49-.22.71c-.15.22-.36.39-.63.52-.28.12-.59.18-.94.18-.58,0-1.02-.12-1.32-.36-.3-.24-.5-.6-.58-1.07Z"/>
        <path class="cls-16" d="m301.55,127.75l.11.67c-.21.04-.4.07-.57.07-.27,0-.49-.04-.64-.13-.15-.09-.26-.2-.32-.34s-.09-.44-.09-.89v-2.56h-.55v-.59h.55v-1.1l.75-.45v1.55h.76v.59h-.76v2.6c0,.22.01.35.04.42.03.06.07.11.13.15.06.04.15.05.26.05.08,0,.19,0,.33-.03Z"/>
        <path class="cls-16" d="m304.67,128.42v-4.45h.68v.63c.33-.49.8-.73,1.42-.73.27,0,.51.05.74.14.23.1.39.22.5.38.11.16.19.34.24.56.03.14.04.38.04.73v2.74h-.75v-2.71c0-.31-.03-.54-.09-.69-.06-.15-.16-.27-.31-.36s-.33-.14-.53-.14c-.32,0-.6.1-.83.31-.23.2-.35.59-.35,1.16v2.43h-.75Z"/>
        <path class="cls-16" d="m312.35,127.88c-.28.24-.55.4-.81.5-.26.1-.54.15-.83.15-.49,0-.86-.12-1.13-.36-.26-.24-.39-.54-.39-.92,0-.22.05-.42.15-.6.1-.18.23-.32.39-.43.16-.11.34-.19.54-.25.15-.04.37-.08.67-.11.61-.07,1.06-.16,1.34-.26,0-.1,0-.17,0-.2,0-.31-.07-.52-.21-.65-.19-.17-.48-.26-.86-.26-.35,0-.62.06-.79.19-.17.12-.3.34-.38.66l-.74-.1c.07-.32.18-.57.33-.76.15-.19.38-.34.67-.45.29-.1.63-.16,1.01-.16s.69.04.93.13c.24.09.41.2.52.34.11.14.19.31.23.51.03.13.04.36.04.7v1.01c0,.7.02,1.14.05,1.33.03.19.1.36.19.53h-.79c-.08-.16-.13-.34-.15-.55Zm-.06-1.68c-.27.11-.68.21-1.23.28-.31.04-.53.1-.66.15-.13.06-.23.14-.3.25-.07.11-.1.23-.1.36,0,.2.08.37.23.5.15.13.38.2.67.2s.55-.06.78-.19c.23-.13.39-.3.5-.52.08-.17.12-.42.12-.75v-.28Z"/>
        <path class="cls-16" d="m314.22,128.42v-4.45h.67v.62c.14-.22.33-.39.56-.53.23-.13.5-.2.79-.2.33,0,.6.07.81.2.21.14.36.33.45.57.35-.52.81-.78,1.38-.78.44,0,.78.12,1.02.37.24.24.36.62.36,1.13v3.05h-.75v-2.8c0-.3-.02-.52-.07-.65-.05-.13-.14-.24-.27-.32-.13-.08-.28-.12-.45-.12-.31,0-.57.1-.78.31-.21.21-.31.54-.31,1v2.59h-.75v-2.89c0-.34-.06-.59-.18-.75-.12-.17-.32-.25-.6-.25-.21,0-.41.06-.59.17-.18.11-.31.28-.39.49-.08.22-.12.53-.12.93v2.31h-.75Z"/>
        <path class="cls-16" d="m324.41,126.99l.78.1c-.12.46-.35.81-.68,1.06-.33.25-.76.38-1.27.38-.65,0-1.17-.2-1.55-.6-.38-.4-.57-.96-.57-1.69s.19-1.33.58-1.74c.39-.41.88-.62,1.5-.62s1.08.2,1.46.61c.38.4.57.97.57,1.71,0,.04,0,.11,0,.2h-3.32c.03.49.17.86.41,1.12.25.26.56.39.93.39.28,0,.51-.07.71-.22.2-.15.35-.38.46-.7Zm-2.48-1.22h2.48c-.03-.37-.13-.66-.29-.84-.24-.29-.55-.44-.93-.44-.35,0-.64.12-.87.35-.24.23-.37.54-.39.93Z"/>
      </g>
      <rect class="cls-1" x="293.58" y="188.96" width="45.12" height="17.1" rx="5.46" ry="5.46"/>
      <rect class="cls-12" x="348.18" y="188.96" width="45.12" height="17.1" rx="5.46" ry="5.46"/>
    </g>
    <text class="cls-25" transform="translate(300.58 198.84)"><tspan x="0" y="0">REGISTRATIONS</tspan></text>
    <g>
      <g>
        <path class="cls-1" d="m411.36,298.51h35.55c2.7,0,4.88,2.19,4.88,4.88v43.98c0,2.7-2.19,4.88-4.88,4.88h-35.55c-7.34,0-13.31-5.96-13.31-13.31v-27.13c0-7.34,5.96-13.31,13.31-13.31Z"/>
        <g class="cls-23">
          <path class="cls-1" d="m411.71,299.42h35.55c2.7,0,4.88,2.19,4.88,4.88v43.98c0,2.7-2.19,4.88-4.88,4.88h-35.55c-7.34,0-13.31-5.96-13.31-13.31v-27.13c0-7.34,5.96-13.31,13.31-13.31Z"/>
        </g>
        <rect class="cls-4" x="388.4" y="298.51" width="50.92" height="53.75" rx="4.05" ry="4.05"/>
      </g>
      <g>
        <g>
          <path class="cls-20" d="m382.07,233.71s-5.67-4.94-7.19-5.79-4.11-.34-6.41-.69c-2.3-.35-5.56-1.9-6.39-1.45-.98.53.04,2.76,3.56,4.14l-1.02-.09-2.5.2s-.92-1.36-1.71-1.35c-1.13.01-1.09.94-1.09.94,0,0-1.71-2.01-2.27.16,0,0-2.01-.76-2.15.76,0,0-.45,1.22,3.86,1.55,0,0,3.66,3.43,4.55,3.78.9.35,4.01-.13,4.01-.13,0,0,.91,1.31,1.86,1.36,1.82.1,6.48-.21,6.48-.21l1.84,2.19,4.6-5.38Z"/>
          <path class="cls-18" d="m367.41,235.79s-.15-.27-.44-.72c-.27-.46-.73-1.14-.86-2.07-.14-.94.29-2.06,1.09-3.04.2-.25.41-.49.64-.74.23-.24.45-.52.71-.7.25-.19.56-.21.78,0,.23.2.32.53.3.88-.04.95-.55,1.84-1.25,2.36l-.16.12.15.13c.48.4.87.85,1.19,1.32l.08.12.12-.08c1.47-1,2.93-1.45,3.96-1.66,1.03-.21,1.65-.21,1.65-.26,0-.01-.15-.03-.44-.03-.29,0-.71.03-1.24.11-1.05.16-2.56.59-4.09,1.59l.2.04c-.33-.49-.74-.97-1.23-1.39v.24c.77-.57,1.33-1.53,1.38-2.6.02-.39-.08-.84-.41-1.13-.16-.14-.38-.23-.6-.23-.22,0-.42.1-.58.21-.31.23-.52.51-.75.75-.23.25-.44.5-.65.76-.82,1.01-1.26,2.24-1.09,3.25.17,1,.67,1.67.98,2.11.33.44.53.66.54.65Z"/>
          <path class="cls-18" d="m361.8,229.73c-.07.06.7,1.08,1.71,2.28.26.3.48.59.75.84.27.25.6.38.87.42.29.03.5-.03.64-.08.14-.05.21-.08.21-.11,0-.02-.09-.02-.23-.02-.14,0-.35.03-.57-.02-.23-.06-.49-.18-.71-.41-.22-.23-.45-.54-.71-.83-1.01-1.2-1.89-2.13-1.96-2.07Z"/>
          <path class="cls-18" d="m363.49,235.41c.07-.07-1.06-1.28-2.24-2.94-1.19-1.65-1.97-3.11-2.06-3.07-.07.03.59,1.58,1.79,3.26,1.2,1.68,2.45,2.81,2.5,2.75Z"/>
          <path class="cls-18" d="m359.92,233.18c.05-.06-.65-.82-1.46-1.81-.82-.98-1.49-1.78-1.56-1.73-.07.05.48.95,1.32,1.94.82,1,1.64,1.69,1.71,1.61Z"/>
          <path class="cls-18" d="m366.67,230.08c.01-.09-.51-.2-1.16-.24-.65-.04-1.19,0-1.19.08s.52.2,1.16.24c.65.04,1.18,0,1.19-.08Z"/>
        </g>
        <path class="cls-4" d="m414.62,218.54s-6.04-.45-9.55,6.59c-2.32,4.66-9.38,17.22-9.38,17.22l-13.88-11.66-8.13,8.8s13.89,16.55,19.29,17.8c5.4,1.25,11.76-2.41,13.75-5.23s8.62-9.71,8.62-9.71l-.71-23.81Z"/>
      </g>
      <g>
        <path class="cls-16" d="m416.31,233.46l.96-15.6c.03-12.11-1.22-26.12.26-30.08,2.74-7.31,12.56-8.88,12.56-8.88,13.25-1.35,15.93,8.78,17.55,18.04.28,1.57,1.03,4.35,1.98,7.57,2.17,6.69,4.85,13.54,9.9,17.97,1.93,1.69,3.26,4.12,3.76,6.63.5,2.52-.75,5.6-3.27,6.1,1.33,1.19,2.07,3.01,1.94,4.79-.12,1.78-1.11,3.48-2.59,4.47-2.09,1.4-4.8,1.32-7.31,1.11-2.49-.21-5.1-.56-7.1-2.05-2.01-1.5-3.08-3.92-3.91-6.28-1-2.84-1.78-5.76-2.32-8.73l-22.42,4.93Z"/>
        <path class="cls-20" d="m429.61,182.32l.94-.66,8.33,4.95c1.27.27,2.13,1.47,1.97,2.76l-5.48,28.7c-.29,1.96-.01,3.82-1.44,5.2l-9.76,9.17c-3.42,3.31-1.88-4.91-3.5-9.39-.11-.31.73-1.28.72-1.5,0-.27-.05-.45-.03-.67.1-2.37.39-4.39.39-4.39.24-2.58.35-3.64.34-3.61,0,0-5.34-1.47-5.73-8.67-.19-3.58.68-8.34,1.61-13.01,1.29-6.46,6.41-9.69,11.64-8.88Z"/>
        <path class="cls-16" d="m427.55,197.29c-.07.48.28.93.78,1.01.5.08.96-.24,1.02-.72.07-.48-.28-.93-.78-1.01-.5-.08-.96.24-1.02.72Z"/>
        <path class="cls-16" d="m418.68,195.89c-.07.48.28.93.78,1.01.5.08.96-.24,1.02-.72.07-.48-.28-.93-.78-1.01-.5-.08-.96.24-1.02.72Z"/>
        <path class="cls-16" d="m418.59,193.54c.1.13.84-.31,1.82-.2.98.09,1.64.67,1.76.56.06-.05-.03-.27-.32-.53-.28-.26-.79-.53-1.4-.59-.61-.06-1.15.11-1.46.31-.32.2-.45.4-.4.46Z"/>
        <path class="cls-16" d="m428.04,194.83c.11.12.81-.39,1.79-.39.98-.01,1.7.49,1.81.37.05-.05-.06-.27-.38-.5-.31-.23-.84-.45-1.45-.45-.61,0-1.13.23-1.42.46-.3.23-.4.45-.35.5Z"/>
        <path class="cls-16" d="m423.97,201.37c.01-.06-.59-.22-1.56-.45-.25-.05-.48-.13-.5-.3-.04-.19.09-.44.24-.72.3-.58.61-1.19.94-1.83,1.31-2.6,2.28-4.75,2.17-4.8-.11-.05-1.25,2.02-2.56,4.62-.32.64-.62,1.25-.91,1.84-.12.27-.32.58-.23.97.05.19.22.35.37.41.16.07.3.08.42.1.99.16,1.6.22,1.61.17Z"/>
        <path class="cls-18" d="m422.1,212.88s4.74.8,9.76-1.55c0,0-2.9,4.66-9.92,3.26l.17-1.71Z"/>
        <path class="cls-16" d="m428.15,190.83c.09.27,1.07.17,2.22.34,1.15.15,2.07.51,2.23.28.07-.11-.08-.37-.45-.64-.37-.27-.95-.53-1.64-.63-.69-.1-1.33,0-1.75.15-.43.16-.65.36-.61.49Z"/>
        <path class="cls-16" d="m419.21,189.61c.15.27.32.19,1.26.41.95.2,2.36.63,2.6.44.11-.09.04-.34-.26-.63-.29-.29-.82-.6-1.47-.74-.65-.14-1.26-.09-1.64.05-.39.14-.55.34-.49.46Z"/>
        <path class="cls-16" d="m438.77,201.69s-4.37.8-8.39-11.29c-1.36-4.08-1.42-8.98-1.42-8.98l1.65-.23s9.38,4.28,9.53,4.43c.15.15,1.69,5.45,1.69,5.45l-3.06,10.62Z"/>
        <path class="cls-20" d="m437.61,201.05c.06-.53.8-1.71,1.33-1.74,1.41-.07,3.91.3,3.57,3.84-.47,4.84-5.23,3.37-5.22,3.23,0-.11.14-3.51.33-5.33Z"/>
        <path class="cls-18" d="m438.94,204.69s.08.07.21.15c.13.08.37.14.63.07.53-.14,1.04-.91,1.15-1.78.05-.44,0-.87-.12-1.23-.11-.37-.32-.64-.57-.71-.25-.08-.45.05-.52.18-.08.13-.06.23-.08.23-.01.01-.1-.09-.04-.29.03-.09.1-.2.22-.28.13-.08.3-.11.48-.08.37.06.67.44.81.84.15.4.22.88.16,1.38-.13.97-.71,1.84-1.43,1.97-.35.06-.62-.07-.76-.2-.14-.13-.15-.24-.14-.25Z"/>
        <path class="cls-19" d="m439.78,206.9c0,.69-.54,1.25-1.23,1.26-.69,0-1.25-.54-1.26-1.23,0-.69.54-1.25,1.23-1.26.69,0,1.25.54,1.26,1.23Z"/>
        <path class="cls-16" d="m454.91,184.34c-1.34-1.66-3.66-2.41-5.74-1.95-2.06.45-3.82,2.05-4.47,4.06l-.59,12.17c.81.35,1.82.17,2.44-.45s.83-1.63.48-2.44c.58.95,1.76,1.5,2.85,1.28,1.08-.22,1.97-1.25,1.97-2.35,0-.9-.6-1.76-1.42-2.09,1.87.32,3.92-.61,4.92-2.25,1.11-1.82.88-4.32-.45-5.97Z"/>
        <path class="cls-19" d="m446.19,195.88s-.07.06-.22.14c-.15.07-.37.21-.67.32-.59.26-1.51.54-2.67.65-1.16.12-2.57.03-4.06-.4-1.48-.42-3.03-1.2-4.39-2.37-1.34-1.18-2.35-2.58-3.04-3.96-.7-1.38-1.11-2.71-1.34-3.85-.23-1.14-.31-2.08-.32-2.72-.02-.32,0-.58,0-.75,0-.17.01-.26.03-.26.02,0,.04.36.08,1,.05.64.16,1.57.41,2.69.25,1.12.68,2.43,1.37,3.77.69,1.34,1.68,2.71,2.99,3.86,1.32,1.14,2.82,1.91,4.27,2.33,1.45.43,2.82.54,3.96.45,2.3-.17,3.56-.99,3.58-.9Z"/>
        <path class="cls-19" d="m446.39,197.43s-.1.31-.42.72c-.32.4-.86.9-1.56,1.27-.7.37-1.42.54-1.93.58-.52.04-.83-.02-.83-.05,0-.09,1.28-.06,2.62-.78,1.36-.7,2.05-1.78,2.13-1.73Z"/>
        <path class="cls-19" d="m447.56,197.06s-.15-.63-.35-1.65c-.19-1.02-.48-2.42-.88-3.95-.4-1.53-.83-2.89-1.16-3.87-.33-.98-.54-1.59-.5-1.6.03-.01.32.56.7,1.53.38.97.84,2.33,1.25,3.87.4,1.54.66,2.96.8,3.99.14,1.03.18,1.67.14,1.68Z"/>
        <path class="cls-18" d="m426.66,204.53c0-.36-.15-.7-.37-.95-.44-.5-1.18-.65-1.77-.35-.59.3-1.01,1.02-1,1.74h0c.25.46.67.8,1.18.92.08.02.16.03.24.04.39.04.8-.03,1.14-.28.34-.25.58-.67.59-1.12Z"/>
        <path class="cls-16" d="m426.34,202.7c-.15-.02-.24,1.01-1.18,1.66-.94.66-2.02.45-2.04.6-.02.06.23.22.69.27.45.05,1.13-.04,1.7-.44.57-.4.85-.98.92-1.4.07-.43-.02-.69-.09-.69Z"/>
      </g>
      <g>
        <g>
          <path class="cls-4" d="m413.92,218.54s-7.46,10.07-8.07,13.56c-.62,3.49,1.12,26.05,2.01,29.95l-5.77,12.99,9.87,2.31,32.81-.56-1.38-21.59,3.32-14.35.34-18.88-11.67-3.88c-3.06,6.18-13.14,4.15-13.68-.79l-7.77,1.25Z"/>
          <path class="cls-4" d="m447.04,221.96s4.02,1.45,6.32,6.08c1.86,3.73,6.96,19.9,8.22,23.99,1.4,4.51,1.84,8.34-.7,11.45-.73.89-.86,1.97-6.23,4.21-5.31,2.22-19.41,6.48-19.41,6.48l-2.94-7.29,17.31-10.62-5-13.48,2.42-20.82Z"/>
          <path class="cls-1" d="m448.34,235.79c.09.02-.96,4.35-2.34,9.66-1.38,5.31-2.57,9.6-2.65,9.58s.96-4.35,2.34-9.66c1.38-5.31,2.57-9.6,2.65-9.57Z"/>
          <g>
            <path class="cls-20" d="m417.45,268.88l1.41-.66-.53.64s-.68.72-.47,1.52c.21.8,1.67.97,1.67.97,0,0-.13.84.42,1.57.51.68,2.47.18,2.47.18l-.27.58c-.33.62.47,1.4.84,1.49.37.09,1.8-.31,2.45-.73.65-.42,3.03-.23,3.03-.23,0,0,2.98.95,4.24.5,1.27-.45,1.63-1.38,1.63-1.38,0,0-.21-5.57-2.04-6.46-.93-.45-6.34-2.53-7.96-3.22-.54-.23-1.15-.25-1.71-.04-1.75.66-4.93,1.99-5.73,2.59,0,0-1.39.87-1.11,1.71.16.48.61,1.17,1.64.96Z"/>
            <path class="cls-18" d="m421.55,266.34s-.61.52-1.41,1.1c-.8.58-1.47,1.02-1.49.99-.02-.03.61-.52,1.41-1.1.8-.58,1.47-1.02,1.49-.99Z"/>
            <path class="cls-18" d="m422.99,269.41s-.8.39-1.74.94c-.94.54-1.68,1.03-1.71,1-.01-.02.16-.15.46-.36.29-.21.71-.48,1.18-.75.48-.27.93-.49,1.26-.63.33-.14.54-.21.55-.19Z"/>
            <path class="cls-18" d="m424.99,271.66s-.58.4-1.34.82c-.76.42-1.39.74-1.41.71-.02-.03.58-.4,1.34-.82.76-.42,1.39-.74,1.41-.71Z"/>
          </g>
          <path class="cls-1" d="m407.34,226.28s0,.11-.01.32c-.03.25-.06.55-.1.91-.1.79-.23,1.93-.37,3.35-.28,2.83-.54,6.76-.5,11.1.04,4.34.37,8.26.71,11.09.17,1.41.32,2.55.43,3.34.05.36.09.66.12.91.02.21.03.32.02.32-.01,0-.04-.1-.09-.31-.05-.24-.11-.54-.18-.9-.15-.78-.34-1.92-.54-3.33-.4-2.82-.76-6.76-.81-11.11-.04-4.36.26-8.29.6-11.12.17-1.42.34-2.56.48-3.34.07-.36.12-.66.16-.9.04-.21.07-.31.08-.31Z"/>
        </g>
        <g>
          <g>
            <g>
              <path class="cls-4" d="m391.66,344.11l7.26,11.08s-8.45,11.09-7.3,13.27l21.28-13.28-10.63-17.73-10.61,6.66Z"/>
              <path class="cls-7" d="m404.92,350.13c.48-.14,1.06.16,1.22.65.17.49-.12,1.09-.6,1.23-.48.15-1.18-.19-1.29-.69-.11-.5.26-1.18.76-1.21"/>
              <path class="cls-1" d="m412.9,355.17l-1.14-1.74-19.97,13.39s-.69,1.02-.16,1.64l21.28-13.28Z"/>
              <path class="cls-14" d="m398.51,355.29c.07.11.62-.17,1.34-.14.72,0,1.27.31,1.34.2.08-.08-.46-.63-1.33-.64-.87-.02-1.42.5-1.34.58Z"/>
              <path class="cls-14" d="m396.86,357.64c.04.12.6.02,1.23.25.63.22,1.02.65,1.12.58.11-.04-.2-.72-.99-.99-.78-.28-1.42.05-1.36.16Z"/>
              <path class="cls-14" d="m397.26,361.19c.11-.04-.07-.66-.7-1.08-.62-.43-1.25-.35-1.24-.24,0,.13.5.24,1.01.6.51.34.82.78.93.72Z"/>
              <path class="cls-14" d="m397.12,352.58c.1.07.49-.37,1.1-.7.61-.34,1.19-.42,1.18-.55.01-.12-.67-.23-1.39.16-.72.39-1,1.03-.9,1.09Z"/>
            </g>
            <path class="cls-1" d="m413.54,276.77s-34.95,11.65-40.7,16.29c-4.63,3.74-4.02,14.46-1.33,18.73,1.09,1.74,25.23,42.24,25.23,42.24l11.99-6.55-16.14-39.54s39.43-7.66,46.72-10.94c9.03-4.07,6.14-13.44,6.14-13.44l-1.58-6.78h-30.33Z"/>
            <g>
              <path class="cls-4" d="m400.57,333.12l7.26,11.08s-8.45,11.09-7.3,13.27l21.28-13.28-10.63-17.73-10.61,6.66Z"/>
              <path class="cls-14" d="m413.83,339.14c.48-.14,1.06.16,1.22.65.17.49-.12,1.09-.6,1.23-.48.15-1.18-.19-1.29-.69-.11-.5.26-1.18.76-1.21"/>
              <path class="cls-1" d="m421.81,344.18l-1.14-1.74-19.97,13.39s-.69,1.02-.16,1.64l21.28-13.28Z"/>
              <path class="cls-14" d="m407.82,344.3c.07.11.62-.17,1.34-.14.72,0,1.27.31,1.34.21.08-.08-.46-.63-1.33-.64-.87-.02-1.42.5-1.34.58Z"/>
              <path class="cls-14" d="m406.15,346.71c.04.12.6.02,1.23.25.63.22,1.02.65,1.12.58.11-.04-.2-.72-.99-.99-.78-.28-1.42.05-1.36.16Z"/>
              <path class="cls-14" d="m406.55,350.31c.11-.04-.07-.66-.7-1.08-.62-.43-1.25-.35-1.24-.24,0,.12.5.24,1.01.6.51.34.82.78.93.72Z"/>
              <path class="cls-14" d="m406.68,342.27c.1.07.49-.38,1.1-.7.61-.34,1.19-.42,1.18-.55.01-.12-.67-.23-1.39.16-.72.39-1,1.03-.9,1.09Z"/>
            </g>
            <g>
              <path class="cls-1" d="m375.9,277.78c-2.01,1.85-5.08,7.92-1.81,15.05,2.07,4.52,30.67,48.73,30.67,48.73l11.6-7.64s-9.94-20.84-13.26-30.6c-2.52-7.42-8.13-18.87-8.49-19.62h0l18.02-6.62s-19.26-6.12-26.28-4.62c-7.01,1.5-10.46,5.32-10.46,5.32Z"/>
              <path class="cls-4" d="m375.9,277.78s.15-.18.48-.5c.34-.31.85-.76,1.58-1.28,1.45-1.03,3.76-2.38,7.02-3.28.41-.1.83-.21,1.26-.31.44-.08.89-.13,1.36-.2.93-.06,1.92-.09,2.94-.02,2.04.11,4.24.41,6.57.85,4.67.87,9.9,2.18,15.56,3.91l.36.11-.36.13c-5.44,2.01-11.53,4.25-18.02,6.64l.08-.2c1.39,2.86,2.79,5.83,4.16,8.9,1.37,3.08,2.74,6.26,3.95,9.59,1.15,3.34,2.46,6.69,3.89,10.07,1.42,3.38,2.93,6.79,4.49,10.24,1.76,3.89,3.52,7.7,5.28,11.41l.06.13-.12.08c-3.99,2.63-7.88,5.18-11.61,7.64l-.13.09-.09-.13c-5.77-8.94-11.12-17.29-15.89-24.81-4.77-7.52-8.97-14.18-12.35-19.79-.84-1.41-1.64-2.74-2.31-4.05-.61-1.34-1.04-2.67-1.27-3.94-.21-1.28-.26-2.48-.19-3.58.1-1.1.28-2.09.55-2.95.51-1.73,1.24-2.94,1.78-3.69.56-.76.94-1.06.94-1.06,0,0-.08.09-.24.27-.17.17-.39.45-.66.83-.53.76-1.23,1.97-1.72,3.69-.25.86-.42,1.84-.52,2.92-.07,1.09,0,2.28.21,3.54.23,1.26.66,2.57,1.27,3.89.67,1.29,1.48,2.62,2.32,4.03,3.4,5.59,7.62,12.24,12.41,19.75,4.79,7.5,10.15,15.85,15.93,24.78l-.22-.05c3.73-2.46,7.61-5.01,11.6-7.64l-.06.2c-1.76-3.71-3.53-7.53-5.28-11.42-1.56-3.45-3.06-6.86-4.49-10.25-1.43-3.38-2.75-6.75-3.89-10.09-1.2-3.31-2.56-6.49-3.93-9.57-1.37-3.07-2.76-6.04-4.15-8.9l-.07-.15.15-.06c6.49-2.38,12.58-4.61,18.03-6.6v.24c-5.64-1.74-10.86-3.07-15.51-3.96-2.32-.45-4.52-.75-6.55-.87-1.01-.08-1.99-.06-2.91,0-.46.06-.91.11-1.34.19-.43.1-.85.2-1.26.3-3.25.87-5.56,2.19-7.02,3.2-.73.51-1.26.94-1.6,1.25-.29.27-.43.39-.51.47Z"/>
            </g>
          </g>
          <path class="cls-4" d="m390.39,279.42c.05-.07,1.26.68,2.46,1.95,1.21,1.26,1.91,2.51,1.83,2.55-.08.05-.88-1.09-2.07-2.32-1.18-1.24-2.28-2.1-2.22-2.18Z"/>
          <path class="cls-1" d="m400.57,333.12s.05-.04.17-.12c.13-.09.31-.2.53-.35.49-.32,1.19-.76,2.07-1.34,1.84-1.18,4.49-2.86,7.77-4.96l.1-.06.06.1c2.84,4.71,6.53,10.83,10.67,17.7l.08.14-.14.09c-2.76,1.72-5.69,3.55-8.7,5.44-4.43,2.76-8.67,5.4-12.58,7.84l-.15.09-.07-.16c-.19-.41-.13-.81-.05-1.17.07-.37.19-.71.32-1.05.26-.67.57-1.3.9-1.92.65-1.22,1.36-2.36,2.06-3.44,1.41-2.16,2.81-4.1,4.12-5.83v.14c-2.23-3.44-4.03-6.23-5.29-8.17-.6-.95-1.08-1.69-1.41-2.21-.15-.24-.27-.43-.36-.57-.08-.13-.12-.19-.11-.19,0,0,.05.07.15.2.1.14.23.33.39.58.35.52.85,1.26,1.48,2.2,1.27,1.92,3.1,4.66,5.35,8.04l.05.07-.05.07c-1.29,1.73-2.68,3.68-4.07,5.84-.69,1.08-1.39,2.22-2.03,3.43-.32.61-.62,1.23-.88,1.88-.12.33-.24.66-.3,1-.07.33-.1.7.03.96l-.22-.06c3.91-2.44,8.15-5.09,12.57-7.86,3.01-1.88,5.94-3.71,8.71-5.43l-.05.22c-4.11-6.89-7.77-13.02-10.59-17.75l.16.04c-3.29,2.03-5.93,3.67-7.78,4.81-.91.56-1.62.99-2.13,1.3-.23.14-.42.25-.56.34-.13.08-.2.11-.2.11Z"/>
        </g>
        <g class="cls-23">
          <polygon class="cls-5" points="377.01 276.77 403.55 278.01 444.8 280.77 443.87 276.77 444.76 276.77 444.68 275.43 378.9 275.43 377.01 276.77"/>
        </g>
        <path class="cls-1" d="m446.58,248.06s.11.2.27.59c.17.44.4.99.67,1.67.57,1.5,1.34,3.52,2.25,5.88l.05.12-.11.07c-1.39.86-2.9,1.79-4.49,2.77-3.3,2.02-6.29,3.84-8.47,5.14-1.06.62-1.93,1.14-2.59,1.52-.61.35-.96.54-.97.52-.01-.02.31-.24.9-.63.65-.41,1.5-.96,2.53-1.62,2.15-1.35,5.12-3.2,8.42-5.22,1.59-.97,3.11-1.9,4.5-2.75l-.06.19c-.85-2.37-1.59-4.41-2.13-5.92-.24-.69-.43-1.26-.59-1.7-.13-.4-.19-.62-.18-.62Z"/>
      </g>
      <g>
        <path class="cls-7" d="m372.15,244.47l35.2,1.75c1.14.05,2.21.64,2.34,1.78l2.78,25.83,18.14.75c.58.02,1.04.52,1.01,1.1-.02.58-.52,1.04-1.1,1.01l-17.82-.74-3.38-.14-36.73-1.52-2.84-27.25c-.15-1.41.98-2.62,2.39-2.56Z"/>
        <path class="cls-16" d="m372.15,244.47s-.19-.03-.56.03c-.36.07-.92.26-1.38.84-.23.28-.41.66-.48,1.11-.08.45.03.93.07,1.45.1,1.04.22,2.25.36,3.6.55,5.41,1.35,13.22,2.32,22.81v.09s.1,0,.1,0c14.99.63,34.69,1.46,56.2,2.37.51.02,1.01.04,1.51.06.23.02.56.02.81-.12.26-.13.46-.35.57-.61.23-.53,0-1.2-.49-1.49-.24-.16-.56-.18-.79-.18l-.75-.03c-1.98-.08-3.95-.16-5.89-.24-3.88-.16-7.65-.31-11.29-.46l.13.12c-1-9.25-1.94-17.88-2.78-25.62-.02-.49-.22-1.03-.6-1.37-.37-.36-.84-.56-1.32-.65-.49-.09-.95-.07-1.42-.11-.46-.02-.93-.04-1.38-.07-1.83-.09-3.6-.17-5.3-.26-3.41-.16-6.56-.31-9.42-.45-5.72-.27-10.27-.48-13.41-.63-1.56-.07-2.76-.12-3.59-.16-.4-.01-.71-.03-.93-.03-.21,0-.31,0-.31,0,0,0,.11.01.31.03.22.01.52.03.93.06.82.05,2.03.11,3.59.2,3.14.17,7.69.41,13.41.71,2.86.15,6.01.31,9.42.48,1.7.09,3.47.18,5.3.27.46.02.92.05,1.38.07.46.03.94.02,1.38.11.44.09.88.28,1.21.59.33.32.5.74.52,1.23.83,7.74,1.75,16.37,2.74,25.62v.12s.13,0,.13,0c3.64.15,7.42.31,11.29.47,1.94.08,3.9.16,5.89.25l.75.03c.26,0,.46.02.65.14.38.22.55.73.37,1.13-.08.2-.24.37-.43.47-.2.1-.4.11-.67.09-.5-.02-1.01-.04-1.51-.06-21.51-.88-41.21-1.69-56.21-2.3l.1.1c-1.02-9.59-1.85-17.39-2.42-22.8-.15-1.35-.28-2.55-.39-3.59-.04-.52-.15-1-.08-1.43.06-.43.23-.8.45-1.08.44-.57.99-.77,1.34-.84.36-.07.55-.05.55-.06Z"/>
        <path class="cls-14" d="m391.3,259.84c-.05,1.22-1.08,2.16-2.3,2.11-1.22-.05-2.16-1.08-2.11-2.3.05-1.22,1.08-2.16,2.3-2.11,1.22.05,2.16,1.08,2.11,2.3Z"/>
        <path class="cls-16" d="m410.97,275.64c-.05,0-.9-6.58-1.9-14.7-1-8.13-1.77-14.72-1.72-14.72.05,0,.9,6.57,1.9,14.7,1,8.12,1.77,14.72,1.72,14.72Z"/>
      </g>
    </g>
  </g>
  <g id="Character">
    <g>
      <path class="cls-16" d="m136.81,32.22c-7.39-1.11-9.06,5.6-16.83,5.34,1.22,4.07,5.28,5.8,5.28,5.8,0,0-6.17,4.48-4.79,11.18,4.84-5.47,11.33-.28,18.39-.5,14.67-.45,19.97-7.25,14.89-13.08,4.72-5.97-8.18-9.18-7.89-13.63-1.48.69-1.42,3.53-1.42,3.53,0,0-5.33.45-9.92-3.28-.19,2.74,2.3,4.64,2.3,4.64Z"/>
      <path class="cls-16" d="m150.96,40.69c3.29.63,5.43-1.84,5.45-3.88,2.34,4.94-1.27,7.63-5.45,3.88Z"/>
      <g>
        <polygon class="cls-2" points="157.9 341.84 150.94 345.85 140.69 330.38 147.65 326.38 157.9 341.84"/>
        <path class="cls-4" d="m150.1,345.26l7.82-4.5c.28-.16.61-.09.79.17l3.97,5.92c.41.61.16,1.56-.5,1.93-2.75,1.52-4.14,2.11-7.58,4.09-2.12,1.22-9.75,5.31-15.4,4.87-3.29-.25-3.36-3.25-1.94-3.58,6.37-1.47,10.82-5.12,11.89-7.79.19-.48.53-.88.95-1.11Z"/>
        <polygon class="cls-11" points="147.65 326.38 140.69 330.39 145.98 338.36 152.94 334.35 147.65 326.38"/>
        <g>
          <path class="cls-1" d="m108.99,146.98s-16.84,66.24-18.6,89.12c-1.92,25.06,51.34,101.38,51.34,101.38l13.03-6.81s-24.66-43.53-41.11-92.75c7.99-25.75,23.9-88.75,23.9-88.75l-28.55-2.18Z"/>
          <g class="cls-23">
            <path class="cls-14" d="m108.99,146.98s-16.84,66.24-18.6,89.12c-1.92,25.06,51.34,101.38,51.34,101.38l13.03-6.81s-24.66-43.53-41.11-92.75c7.99-25.75,23.9-88.75,23.9-88.75l-28.55-2.18Z"/>
          </g>
        </g>
        <path class="cls-13" d="m123.92,173.02c-6.61,11.57-8.84,39.24-7.14,54.35,4.62-16.09,10.45-38.17,14.76-54.76-2.91-2.24-5.75-2.86-7.62.42Z"/>
        <polygon class="cls-1" points="155.22 330.63 141.27 337.94 137.23 333.26 153.76 325.9 155.22 330.63"/>
        <path class="cls-1" d="m148.34,347.88c.64-.37,1.28-.91,1.71-1.32.05-.05.07-.13.05-.2-.02-.07-.09-.12-.16-.12-.31-.03-3.06-.23-3.72.59-.15.19-.19.42-.11.67.13.41.37.67.71.76.44.11.98-.08,1.52-.39Zm1.13-1.29c-1.1.96-2.04,1.45-2.55,1.32-.21-.06-.36-.22-.45-.51-.04-.13-.03-.24.05-.33.35-.44,1.85-.53,2.96-.48Z"/>
        <path class="cls-1" d="m150.02,346.59s.05-.04.06-.06c.03-.05.04-.12.01-.18-.04-.09-1.05-2.16-2.14-2.43-.3-.07-.57-.01-.82.17-.3.22-.41.52-.3.83.28.85,2.16,1.69,3.09,1.7.03,0,.07,0,.1-.03Zm-2.59-2.25c.13-.08.28-.1.43-.06.65.16,1.37,1.26,1.74,1.93-.9-.16-2.23-.85-2.42-1.41-.04-.11-.05-.25.17-.41.02-.02.05-.03.07-.05Z"/>
      </g>
      <path class="cls-2" d="m120.9,90.15l-7.24,12.45c-1.18,2.07-2.35,4.13-3.45,6.16-.54,1.01-1.04,2.03-1.51,2.99-.46.93-.88,1.93-1.05,2.43l-.39-3.7c.1.46.16.93.24,1.36.1.41.15.88.25,1.26.08.41.17.81.25,1.2l.13.58c.02.1.03.19.04.29,0,.04.01.1-.01.14-.04.04.04.1-.21.1,1.76.27,2.96,1.92,2.69,3.67-.27,1.76-1.92,2.96-3.67,2.69-.42-.03-.5-.02-.7-.02l-.5-.02c-.31-.03-.61-.07-.9-.12-.58-.11-1.11-.26-1.64-.46-1.04-.39-1.95-.93-2.79-1.53-.83-.62-1.55-1.29-2.2-2.02-.31-.36-.6-.73-.91-1.11-.28-.37-.52-.76-.78-1.15-.58-.87-.76-1.9-.56-2.85l.18-.85c.39-1.9.86-3.2,1.33-4.53.47-1.31,1-2.52,1.52-3.73,1.04-2.39,2.15-4.68,3.31-6.93,1.14-2.25,2.35-4.45,3.58-6.63,1.25-2.18,2.5-4.3,3.88-6.46h0c1.94-3.03,5.96-3.9,8.98-1.96,2.93,1.89,3.83,5.75,2.1,8.74Z"/>
      <path class="cls-4" d="m116.85,78.09c8.14-.61,12.14,5.14,8.26,14.62-2.13,5.23-5.48,11.43-7.94,15.76-.64,1.15-1.24,2.17-1.72,2.99l-16.32-12.71c3.17-7.51,12.27-20.25,17.71-20.66Z"/>
      <path class="cls-6" d="m115.07,87.36c5.4-3.5-2.11,12.93-5.2,19.75l-4.79-3.74c1.29-4.86,5.85-13.33,10-16.02Z"/>
      <polygon class="cls-2" points="137.89 353.18 129.9 352.57 130.13 333.98 138.12 334.59 137.89 353.18"/>
      <path class="cls-4" d="m129.55,351.62l8.98.69c.33.02.56.27.56.59l-.05,7.14c0,.74-.74,1.39-1.5,1.31-3.12-.29-4.6-.59-8.55-.89-2.43-.19-12.77-.72-16.12-.98-3.28-.25-3.03-3.57-1.59-3.76,6.46-.86,14.49-2.12,16.87-3.72.43-.29.93-.42,1.41-.39Z"/>
      <polygon class="cls-11" points="138.12 334.6 130.13 333.99 130.01 343.57 138.01 344.18 138.12 334.6"/>
      <g>
        <path class="cls-1" d="m124.59,148.18s-4.91,60.63-5.18,83.61c-.3,25.17,7.33,109.22,7.33,109.22l14.63,1.12s-1.09-81.51,1.48-106.26c2.8-26.86,8.86-85.61,8.86-85.61l-27.13-2.07Z"/>
        <path class="cls-21" d="m124.76,148.05s-4.91,60.63-5.18,83.61c-.3,25.17,7.33,109.22,7.33,109.22l14.63,1.12s-1.09-81.51,1.48-106.26c2.8-26.86,8.86-85.61,8.86-85.61l-27.13-2.07Z"/>
      </g>
      <polygon class="cls-1" points="141.97 342.17 126.16 340.96 125.66 335.34 143.05 337.54 141.97 342.17"/>
      <path class="cls-1" d="m126.62,352.79c.74.06,1.56-.03,2.15-.12.07-.01.13-.06.15-.14.02-.07,0-.15-.06-.19-.24-.2-2.4-1.92-3.4-1.61-.23.07-.39.24-.47.49-.12.42-.07.76.16,1.03.3.34.85.49,1.47.54Zm1.66-.43c-1.45.18-2.5.05-2.85-.35-.14-.17-.17-.39-.09-.68.04-.13.11-.21.22-.25.54-.17,1.82.61,2.71,1.27Z"/>
      <path class="cls-1" d="m128.72,352.67s.06,0,.09-.01c.06-.03.1-.08.11-.14.01-.1.35-2.38-.4-3.22-.2-.23-.46-.33-.77-.32-.37.02-.62.2-.71.51-.24.86.83,2.62,1.6,3.15.03.02.06.03.09.03Zm-.87-3.32c.15.01.28.08.39.19.45.5.42,1.82.35,2.58-.65-.64-1.36-1.97-1.2-2.53.03-.11.1-.23.37-.24.03,0,.06,0,.09,0Z"/>
      <path class="cls-1" d="m108.99,146.98l42.73,3.26c.56-3.79.53-16.28,2.27-32.05,1.17-10.59,3.14-22.65,6.63-34.55.25-.85.51-1.69.77-2.53,0,0-2.14-.61-5.21-1.3-2.55-.57-5.76-1.21-8.91-1.6-5.44-.67-13.32-1.45-18.16-1.39-2.81.05-5.57.3-7.77.56-2.82.35-4.49.7-4.49.7,0,0-9.33,22.87-7.85,68.9Z"/>
      <path class="cls-2" d="m110.89,114.52s1.66-2.39,3.17-3.11c1.08-.52,1.9-1.03,2.39-1.37.34-.23.79,0,.82.42.04.63-.29,1.63-1.94,3-.27,1.97-3.33,3.91-3.33,3.91l-1.09-2.86Z"/>
      <polygon class="cls-6" points="117.05 119.79 125.93 120.47 121.11 102.49 112.24 101.81 117.05 119.79"/>
      <polygon class="cls-14" points="116.44 119.74 125.32 120.42 120.51 102.44 111.63 101.76 116.44 119.74"/>
      <path class="cls-6" d="m153.99,118.2c1.17-10.59,3.14-22.65,6.63-34.55-2.84-.47-7.74-.56-8.86,4-1.21,4.89-.91,16.64,2.23,30.55Z"/>
      <path class="cls-2" d="m164.39,87.36c.45,1.39.8,2.61,1.15,3.91.35,1.28.65,2.57.95,3.86.57,2.59,1.09,5.2,1.45,7.87.37,2.67.66,5.36.75,8.14.1,2.78.03,5.63-.37,8.62l-.04.32c-.17,1.25-.75,2.35-1.59,3.17-.69.68-1.35,1.12-1.96,1.48-.59.33-1.16.59-1.66.77-1.02.38-1.91.59-2.76.74-1.67.29-3.15.37-4.59.41-2.86.06-5.54-.18-8.18-.47-2.63-.32-5.22-.74-7.77-1.26-2.56-.53-5.06-1.1-7.61-1.85-1.72-.51-2.71-2.32-2.2-4.04.41-1.4,1.69-2.32,3.08-2.33h.06s7.46-.08,7.46-.08c2.48-.04,4.94-.09,7.36-.21,2.41-.1,4.8-.3,6.98-.61,1.08-.16,2.12-.37,2.92-.63.39-.13.72-.27.87-.36.09-.05.08-.08.04-.06-.08.02-.23.1-.47.33l-1.63,3.49c.06-2.05-.09-4.28-.32-6.54-.26-2.27-.66-4.59-1.08-6.92-.45-2.33-.96-4.68-1.52-7.01-.27-1.17-.57-2.34-.86-3.5l-.88-3.4-.05-.2c-.9-3.47,1.18-7.02,4.65-7.93,3.35-.87,6.77,1.05,7.82,4.3Z"/>
      <path class="cls-4" d="m161.39,81.11c-7.82-2.45-12.5,2.55-11.19,12.74.71,5.62,2.7,12.38,4.18,17.16l17.23-5.3c-1.5-8.04-4.99-22.96-10.22-24.6Z"/>
      <path class="cls-2" d="m129.98,76.83c5.37-.85,6.52-4.04,6.41-7.66-.02-.88-.1-1.8-.24-2.71l6.99-4.99,5.14-3.66c-1.75,5.75-4,16.3-.31,20.51,0,0-7.16,5.28-15.87,8.68-1.38.54-2.97-.18-3.4-1.59-1.67-5.42,1.28-8.57,1.28-8.57Z"/>
      <path class="cls-11" d="m136.15,66.46c.13.91.22,1.83.24,2.71,2.5-.31,6.38-2.22,6.93-4.98.19-.94-.16-2.06-.18-2.72l-6.99,4.99Z"/>
      <path class="cls-2" d="m148.69,45.97c.38,7.97,1,12.61-2.53,17.21-5.3,6.92-15.39,4.62-18.12-3.02-2.46-6.87-2.66-18.76,4.68-22.95,7.24-4.13,15.58.79,15.96,8.76Z"/>
      <path class="cls-16" d="m145.35,41.13c-2.25,4.07-.54,7.06-.54,7.06l.42-1.92s2.84,3.02,2.03,6.48c4.94-2.65,5.5-12.95-1.91-11.62Z"/>
      <path class="cls-16" d="m149.5,42.35c-9,1.98-14.07,1.07-15.67.72,3.77-.25,4.76-1.96,4.76-1.96,0,0-8.98,2.2-10.83,1.5,1.81-5.49,6.03-8.01,14.54-7.68,8.51.33,7.2,7.41,7.2,7.41Z"/>
      <path class="cls-2" d="m152.52,53.39c-.91,1.97-2.51,3.41-4.01,4.09-2.26,1.02-3.39-1.04-2.75-3.49.57-2.2,2.44-5.38,4.71-5.37,2.23.01,3.09,2.51,2.05,4.77Z"/>
      <path class="cls-16" d="m137.02,49.8c.07.64-.21,1.21-.63,1.27s-.81-.42-.88-1.06c-.07-.64.21-1.21.63-1.27s.81.42.88,1.06Z"/>
      <path class="cls-16" d="m129.79,50.79c.07.64-.21,1.21-.63,1.27s-.81-.42-.88-1.06.21-1.21.63-1.27.81.42.88,1.06Z"/>
      <path class="cls-8" d="m132.12,50.79s-1.05,3.91-2.46,5.92c1.25.91,3.12.16,3.12.16l-.66-6.08Z"/>
      <path class="cls-16" d="m135.58,58.25c2.46-.64,3.42-2.53,3.47-2.62.05-.09,0-.21-.09-.25-.09-.05-.21,0-.25.08-.01.02-1.11,2.18-3.92,2.56-.1.01-.18.11-.16.21.01.1.11.18.21.16.26-.04.5-.08.74-.14Z"/>
      <path class="cls-16" d="m139,47.15c.06-.02.12-.05.16-.09.15-.14.15-.39,0-.54-1.44-1.5-3.16-1.16-3.24-1.15-.2.02-.34.24-.29.45.04.21.25.34.45.29.07-.01,1.4-.25,2.53.93.1.1.24.14.37.11Z"/>
      <path class="cls-16" d="m126.41,48.71c.12-.03.22-.12.26-.24.57-1.63,1.93-2,1.94-2.01.2-.05.32-.26.27-.46-.06-.2-.26-.32-.46-.27,0,0,0,0,0,0-.07.02-1.76.49-2.46,2.49-.07.2.03.41.23.49.07.03.15.03.22.01Z"/>
      <path class="cls-2" d="m134.8,117.42l-8.2-5.07.75,10.08s6.87,2.46,7.81-1.18l-.37-3.84Z"/>
      <path class="cls-2" d="m129.2,113.96s-1.7-2.38-3.23-3.1c-1.09-.51-2.12-1.43-2.61-1.76-.34-.23-.79.01-.81.42-.03.63.53,2.04,2.2,3.4.3,1.97,3.4,3.9,3.4,3.9l1.04-2.86Z"/>
      <path class="cls-2" d="m119.5,113.2l.73,6.31c.06.54.45,1,.97,1.15l6.15,1.77-.76-10-5.59-.72c-.86-.11-1.6.61-1.5,1.48Z"/>
      <path class="cls-2" d="m106.96,116.12l7.11-3.6-.18,8.88s-7.37,2.2-7.82-1.55l.88-3.74Z"/>
      <path class="cls-2" d="m117.18,112.86v7.02c0,.4-.26.74-.65.84l-2.64.69.18-8.88,2.02-.52c.55-.14,1.1.28,1.1.85Z"/>
    </g>
  </g>
  <g id="Obj_2" data-name="Obj 2">
    <g>
      <g>
        <path class="cls-4" d="m261.67,283.14c4.24,4.23,3.63,8.52.61,11.55-3.02,3.04-7.31,3.67-11.56-.56-4.24-4.23-6.84-11.71-3.82-14.75,3.02-3.04,10.52-.48,14.77,3.75Z"/>
        <path class="cls-4" d="m276.7,310.87c-5.25.93-8.41-1.56-9.51-5.11-1.1-3.56.28-6.84,5.53-7.77,5.25-.93,12.38.86,13.47,4.41,1.1,3.56-4.25,7.54-9.49,8.47Z"/>
        <path class="cls-4" d="m249,319.18c3.78,1.25,6.39-.25,7.58-2.76,1.2-2.51.53-5.09-3.25-6.34-3.78-1.25-9.25-.7-10.44,1.81-1.2,2.51,2.33,6.03,6.11,7.28Z"/>
        <path class="cls-4" d="m279.63,282.9c-3.63,4.97-8.12,5.38-11.71,3.24-3.59-2.15-4.93-6.04-1.3-11.01s10.87-9.14,14.46-6.99c3.59,2.15,2.19,9.8-1.45,14.77Z"/>
        <path class="cls-16" d="m258.47,348.11c-.33,0-.61-.26-.63-.6-1.95-37.48,12.25-66.6,12.4-66.89.16-.31.53-.44.85-.29.31.16.44.53.29.85-.14.29-14.2,29.13-12.27,66.26.02.35-.25.65-.6.66-.01,0-.02,0-.03,0Z"/>
        <path class="cls-16" d="m263.72,301.32s-.04,0-.06,0c-.35-.03-.6-.34-.57-.69,0-.08.71-8.25-4.89-10.93-.32-.15-.45-.53-.3-.84.15-.32.53-.45.84-.3,6.4,3.06,5.64,11.82,5.61,12.19-.03.33-.31.57-.63.57Z"/>
        <path class="cls-16" d="m259.13,325.38c-.33,0-.6-.25-.63-.58,0-.08-.73-7.85-7.55-10.01-.33-.11-.52-.46-.41-.79.11-.33.46-.52.79-.41,7.64,2.42,8.42,11.03,8.43,11.11.03.35-.23.65-.58.68-.02,0-.03,0-.05,0Z"/>
        <path class="cls-16" d="m260.5,315.71c-.05,0-.1,0-.15-.02-.34-.08-.55-.43-.46-.77,2.96-12.01,12.3-11.73,12.4-11.73.35.02.62.31.6.66-.02.35-.31.62-.66.6-.34-.01-8.41-.21-11.11,10.76-.07.29-.33.48-.61.48Z"/>
      </g>
      <path class="cls-4" d="m284.76,342.6c0,7.76-3.55,14.71-9.14,19.33-.4.33-.87.49-1.34.49h-30.02c-.47,0-.94-.16-1.34-.49-5.58-4.62-9.14-11.56-9.14-19.33,0-2.46.35-4.84,1.02-7.09,0,0,0-.01,0-.02.38-1.27,1.33-2.09,2.36-2.09h44.18c1.03,0,1.98.81,2.36,2.09,0,0,0,.01,0,.02.67,2.24,1.02,4.63,1.02,7.09Z"/>
      <g>
        <path class="cls-14" d="m284.68,344.44c-14.52,4.72-28.85,10.28-42.75,16.61.17.16.35.31.53.46,13.72-6.24,27.84-11.72,42.16-16.39.02-.23.04-.46.06-.69Z"/>
        <path class="cls-14" d="m275.58,333.4h-1.1c-11.69,8.27-23.06,17.19-34.14,26.05.14.16.28.31.43.46,11.29-9.03,22.89-18.12,34.81-26.52Z"/>
        <path class="cls-14" d="m268.47,362.42c5.25-4.3,10.4-8.75,15.42-13.31.1-.37.19-.73.27-1.11-5.42,4.95-11,9.77-16.69,14.42h1Z"/>
        <path class="cls-14" d="m268.5,333.4c-11.93,3.91-23.13,10.1-33.57,16.63.06.21.13.42.2.62,11-6.88,22.83-13.39,35.47-17.25h-2.1Z"/>
        <path class="cls-14" d="m234.18,338.3c3.37-1.78,6.81-3.41,10.32-4.9h-1.58c-2.91,1.27-5.78,2.64-8.6,4.11-.05.26-.1.53-.14.79Z"/>
        <path class="cls-14" d="m249.9,333.4h-.93l-14.76,13.65c.04.24.1.48.15.73l15.55-14.38Z"/>
      </g>
    </g>
    <g>
      <g>
        <path class="cls-1" d="m300.35,31.55c-.68,12.99-11.77,22.97-24.76,22.28-12.99-.68-22.97-11.77-22.28-24.76.68-12.99,11.77-22.97,24.76-22.28,12.99.68,22.97,11.77,22.28,24.76Z"/>
        <path class="cls-6" d="m300.35,29.55c-.68,12.99-11.77,22.97-24.76,22.28-12.99-.68-22.97-11.77-22.28-24.76.68-12.99,11.77-22.97,24.76-22.28,12.99.68,22.97,11.77,22.28,24.76Z"/>
        <path class="cls-1" d="m300.35,29.11c-.68,12.99-11.77,22.97-24.76,22.28-12.99-.68-22.97-11.77-22.28-24.76.68-12.99,11.77-22.97,24.76-22.28,12.99.68,22.97,11.77,22.28,24.76Z"/>
        <path class="cls-14" d="m296.37,28.9c-.57,10.79-9.78,19.08-20.57,18.51-10.79-.57-19.08-9.78-18.51-20.57.57-10.79,9.78-19.08,20.57-18.51,10.79.57,19.08,9.78,18.51,20.57Z"/>
        <path class="cls-5" d="m279.38,44.44l-.71-4.59c.09-.01.18-.03.27-.05l.82,4.57c-.13.02-.26.04-.38.06Zm-7.62-.59c-.12-.04-.25-.08-.37-.12l1.52-4.39c.09.03.17.06.26.09l-1.41,4.43Zm15.03-2.49l-2.77-3.73.23-.17,2.83,3.68c-.1.08-.2.15-.3.23Zm-21.87-1.69c-.09-.09-.18-.18-.27-.28l3.38-3.19.19.2-3.3,3.27Zm26.99-4.48l-4.18-2.02.12-.25,4.25,1.87-.05.11c-.03.07-.09.19-.14.3Zm-31.1-2.4c-.04-.12-.07-.25-.11-.37l4.47-1.26c.02.09.05.18.08.26l-4.44,1.37Zm28.13-5.34c0-.09,0-.17-.01-.26l4.64-.27c0,.13.01.27.02.4l-4.64.14Zm-24.02-1.81l-4.56-.87.07-.37,4.55.95-.06.29Zm22.44-3.76l-.14-.24,3.99-2.38c.06.11.13.22.19.33l-4.04,2.29Zm-20.03-1.52l-3.65-2.88c.08-.1.16-.2.24-.29l3.59,2.94-.18.23Zm16.05-2.68c-.08-.05-.15-.1-.23-.14l2.41-3.97c.11.07.22.14.33.21l-2.51,3.91Zm-11.47-.87l-1.89-4.24c.12-.05.24-.11.37-.16l1.77,4.3c-.08.03-.16.07-.24.1Zm5.98-1l-.28-.02.3-4.64c.13,0,.26.02.39.03l-.41,4.63Z"/>
      </g>
      <g>
        <polyline class="cls-24" points="268.27 25.88 277.17 28.4 277.71 17.87"/>
        <path class="cls-5" d="m278.41,27.94c.02.81-.61,1.48-1.42,1.5s-1.48-.61-1.5-1.42c-.02-.81.61-1.48,1.42-1.5s1.48.61,1.5,1.42Z"/>
      </g>
    </g>
  </g>
</svg>