<?xml version="1.0" encoding="UTF-8"?>
<svg id="Layer_2" data-name="Layer 2" xmlns="http://www.w3.org/2000/svg" xmlns:xlink="http://www.w3.org/1999/xlink" viewBox="0 0 615.65 300.83">
  <defs>
    <style>
      .cls-1 {
        fill: none;
      }

      .cls-1, .cls-2, .cls-3, .cls-4, .cls-5, .cls-6, .cls-7 {
        stroke-width: 0px;
      }

      .cls-2 {
        fill: #fff;
      }

      .cls-8 {
        font-family: KonkhmerSleokchher-Regular, 'Konkhmer Sleokchher';
      }

      .cls-8, .cls-3 {
        fill: #282661;
      }

      .cls-9 {
        clip-path: url(#clippath);
      }

      .cls-4 {
        fill: #f6b817;
      }

      .cls-10 {
        font-size: 12px;
      }

      .cls-5 {
        fill: #1ab2e7;
      }

      .cls-6 {
        fill: #e30a7d;
      }

      .cls-7 {
        fill: #c2c930;
      }

      .cls-11 {
        font-size: 20px;
      }

      .cls-12 {
        font-size: 27px;
      }
    </style>
    <clipPath id="clippath">
      <path class="cls-1" d="m18.15,3.85h119.6c10.02,0,18.15,8.13,18.15,18.15v119.6c0,10.02-8.13,18.15-18.15,18.15H18.15c-10.02,0-18.15-8.13-18.15-18.15V22.01C0,11.99,8.13,3.85,18.15,3.85Z"/>
    </clipPath>
  </defs>
  <g id="Layer_1-2" data-name="Layer 1">
    <g>
      <g>
        <polygon class="cls-3" points="8.59 180.92 19.83 180.92 45.02 217.35 45.02 180.92 56.09 180.92 56.09 236.29 44.86 236.29 19.66 199.86 19.66 236.29 8.59 236.29 8.59 180.92"/>
        <polygon class="cls-3" points="163.38 180.5 176 180.5 191.74 222.05 207.56 180.5 219.93 180.5 197.47 237.05 185.84 237.05 163.38 180.5"/>
        <path class="cls-3" d="m80.4,207.97c0-16.43,12.63-28.9,29.46-28.9s29.46,12.47,29.46,28.9-12.71,28.9-29.46,28.9-29.46-12.46-29.46-28.9m47.43,0c0-10.36-7.77-18.13-17.97-18.13s-18.05,7.77-18.05,18.13,7.77,18.13,18.05,18.13,17.97-7.77,17.97-18.13"/>
        <path class="cls-3" d="m265.04,179.7h13.4l21.79,56.74h-12.42l-4.03-11.02h-24.42l-3.95,11.02h-12.25l21.87-56.74Zm14.88,35.28l-8.31-22.78-8.39,22.78h16.69Z"/>
        <path class="cls-3" d="m346.78,181.62h24.77c10.73,0,18.88,7.83,18.88,18.23,0,7.99-5,14.36-12.34,16.62l13.96,20.81h-13.79l-12.75-19.85h-7.58v19.85h-11.13v-55.66Zm11.13,10.49v15.65h13.39c4.36,0,7.66-3.39,7.66-7.83s-3.31-7.83-7.66-7.83h-13.39Z"/>
        <path class="cls-3" d="m437.02,180.48h13.82l22.47,58.52h-12.81l-4.16-11.36h-25.19l-4.07,11.36h-12.64l22.56-58.52Zm15.35,36.38l-8.57-23.49-8.65,23.49h17.22Z"/>
        <path class="cls-3" d="m493.65,209.91c0-17.46,13.42-30.7,31.31-30.7,15.05,0,27.09,9.63,29.84,23.14h-12.56c-2.41-6.97-9.2-11.7-17.29-11.7-10.92,0-19.18,8.26-19.18,19.26s8.26,19.26,19.18,19.26c8.08,0,14.88-4.73,17.29-11.7h12.56c-2.75,13.5-14.79,23.14-29.84,23.14-17.89,0-31.31-13.24-31.31-30.7"/>
        <polygon class="cls-3" points="578.29 181.66 615.25 181.66 615.25 192.24 589.53 192.24 589.53 204.29 612.56 204.29 612.56 214.87 589.53 214.87 589.53 227.24 615.65 227.24 615.65 237.82 578.29 237.82 578.29 181.66"/>
      </g>
      <g class="cls-9">
        <rect class="cls-7" x="77.95" y="-74.1" width="155.91" height="155.91" transform="translate(42.94 111.37) rotate(-45)"/>
        <rect class="cls-7" x="-77.95" y="81.81" width="155.91" height="155.91" transform="translate(-112.97 46.79) rotate(-45)"/>
      </g>
      <path class="cls-6" d="m258.41,162.76h0c-44.95,0-81.38-36.44-81.38-81.38S213.47,0,258.41,0s81.38,36.44,81.38,81.38-36.44,81.38-81.38,81.38"/>
      <path class="cls-5" d="m601.19,160.26h-115.24c-10.38,0-17.32-10.68-13.1-20.17l57.62-129.46c5.05-11.34,21.15-11.34,26.2,0l57.62,129.46c4.22,9.48-2.72,20.17-13.1,20.17"/>
      <g>
        <path class="cls-2" d="m262.5,59.33c-3.73,0-6.75,3.02-6.75,6.75s3.02,6.75,6.75,6.75,6.75-3.02,6.75-6.75-3.02-6.75-6.75-6.75Zm0,8.62c-1.04,0-1.88-.84-1.88-1.88s.84-1.88,1.88-1.88,1.88.84,1.88,1.88-.84,1.88-1.88,1.88Z"/>
        <path class="cls-2" d="m230.19,86.76c3.12-3.19,3.03-7.23,3-8-.01-.32-.71-5.51-4-8-2.08-1.57-4.3-1.95-6.08-2.02-1.07-.04-1.92-.92-1.92-2v-.99c0-1.1.9-2,2-2h20.17l-8.79-15.07c-1.16-1.99-.2-4.61,2.13-5.29,1.28-.38,2.66.23,3.33,1.38l10.44,17.97c.73,1.26.85,2.82.24,4.23-.76,1.74-2.57,2.79-4.47,2.79h-9.07c.62.9,1.41,2.25,2,4,.12.37,2.31,7.22-1,13-2.92,5.1-9.33,8.02-16.19,7.28-1.03-.11-1.81-1-1.81-2.04v-.04c0-1.14.93-2.03,2.07-2.04,2.09,0,5.35-.52,7.93-3.17Z"/>
        <path class="cls-2" d="m216.43,95.76c-2.04,0-3.7,1.62-3.75,3.66-.03,1.3.09,2.77.51,4.34,1.58,5.86,6.9,11.28,14,12,5.82.59,11.56-2.11,15-7,.77,1.25,3.6,5.5,9,7,5.95,1.65,12.63-.71,17-6,.44.62,5.1,7.05,13,7,7.45-.05,13.45-5.83,15-12,.38-1.5.46-2.91.4-4.14-.07-1.41-1.08-2.65-2.48-2.83-1.55-.2-2.89.86-3.18,2.34-1.08,5.5-5.42,9.42-9.75,9.63-5.41.27-11.27-5.21-11.11-12.55.02-.79-.6-1.45-1.4-1.45h-.01c-.78,0-1.4.64-1.39,1.42.05,6.84-5.28,12.35-11.09,12.58-6.11.25-12.09-5.36-12.08-12.57,0-.79-.62-1.43-1.4-1.43h-.02c-.79,0-1.41.66-1.4,1.45.1,7.33-5.77,12.77-11.1,12.55-4.61-.19-9.32-4.64-10.03-10.65-.22-1.9-1.81-3.35-3.72-3.35h-.01Z"/>
      </g>
      <g>
        <path class="cls-2" d="m549.19,89.76l5.71,3.77c.15.12.15.34,0,.46l-5.53,4.61c-.11.09-.26.09-.38,0l-8.57-6.67c-.13-.1-.15-.29-.05-.42l3.59-4.49c.14-.18.22-.39.22-.62v-1.35c0-.17-.13-.3-.3-.3h-13.7l7.9,6.91.1.23v26.76c-.02.06-.04.12-.06.18-.26.33-1.08,1.24-2.44,1.42-1.84.24-3.11-1.07-3.42-1.42l-.07-.19v-2.89s-.01-20.15-.01-20.15c0-.1-.05-.2-.14-.25-4.95-3.2-9.91-6.4-14.86-9.6-.1-.05-2.32-1.15-2.5-3.5,0-.02,0-.03,0-.05-.1-1.62,1.27-2.96,2.89-2.97l36.23-.47c.25,0,.5.04.72.16,1.01.57,1.66,1.65,1.66,2.83,0,1-1,2-2,3-1.67,1.67-3.33,3.33-5,5Z"/>
        <path class="cls-2" d="m564.5,64.33c-3.73,0-6.75,3.02-6.75,6.75s3.02,6.75,6.75,6.75,6.75-3.02,6.75-6.75-3.02-6.75-6.75-6.75Zm0,8.62c-1.04,0-1.88-.84-1.88-1.88s.84-1.88,1.88-1.88,1.88.84,1.88,1.88-.84,1.88-1.88,1.88Z"/>
        <path class="cls-2" d="m559.19,93.26c-10.22,0-18.5,8.28-18.5,18.5s8.28,18.5,18.5,18.5,18.5-8.28,18.5-18.5-8.28-18.5-18.5-18.5Zm0,29c-5.8,0-10.5-4.7-10.5-10.5s4.7-10.5,10.5-10.5,10.5,4.7,10.5,10.5-4.7,10.5-10.5,10.5Z"/>
        <path class="cls-2" d="m512.69,92.76c-10.22,0-18.5,8.28-18.5,18.5s8.28,18.5,18.5,18.5,18.5-8.28,18.5-18.5-8.28-18.5-18.5-18.5Zm0,29c-5.8,0-10.5-4.7-10.5-10.5s4.7-10.5,10.5-10.5,10.5,4.7,10.5,10.5-4.7,10.5-10.5,10.5Z"/>
      </g>
      <path class="cls-4" d="m365.19,2.26c-10.38,0-17.32,10.68-13.1,20.17l36.43,81.84,21.2,47.62c5.05,11.34,21.15,11.34,26.2,0l57.62-129.46c4.22-9.48-2.72-20.17-13.1-20.17h-115.24Z"/>
      <circle class="cls-1" cx="432.5" cy="64.08" r="1.87"/>
      <path class="cls-2" d="m432.5,70.83c3.73,0,6.75-3.02,6.75-6.75s-3.02-6.75-6.75-6.75-6.75,3.02-6.75,6.75,3.02,6.75,6.75,6.75Zm0-8.62c1.04,0,1.88.84,1.88,1.88s-.84,1.88-1.88,1.88-1.88-.84-1.88-1.88.84-1.88,1.88-1.88Z"/>
      <path class="cls-2" d="m418.19,83.76s.02-.03.03-.04c.9-1.24,2.8-1.11,3.66.16,1.31,1.93,4.47,5.67,9.31,5.88,6.6.29,12.25-6.16,12-11-.1-1.94-1.21-4.83-3-5-.53-.05-1.03.14-1.47.43-.9.59-1.46,1.58-1.64,2.65-.56,3.24-3.05,5.66-5.89,5.92-2.26.21-4.53-.96-5.96-2.95-.02-.03-.03-.07-.03-.11.21-1.55.38-4.6-1.01-7.94-.51-1.24-2.68-6.44-8-8-5.54-1.62-11.66,1.53-14,6-1.57,3-2.03,7.73,0,9,.44.27,1.29.57,2.86.05.08-.03.15-.1.18-.19,1.28-5.13,4.54-8.67,7.97-8.86.41-.02,3.32-.18,5,2l.04.05c1.24,1.63.98,3.93-.58,5.26-9.83,8.37-19.58,17.43-29.16,27.24l2.81,6.34s.09.09.13.14c6.41-5.87,12.81-11.74,19.22-17.61,1.05-.96,2.52-1.32,3.9-.95,6.7,1.8,10.96,7.32,10.64,12.54-.25,4.09-3.27,6.96-4.95,8.26-.66.51-1.05,1.3-1.05,2.13v.16c0,1.18.82,2.2,1.97,2.44h.03c3.53.75,7.39-3.27,9-5.99,4.48-7.56.85-20.47-7-24-1.26-.57-2.48-.82-3.5-.93-1.46-.15-2.34-1.83-1.52-3.04,0,0,.01-.02.02-.03Z"/>
    </g>
    <text class="cls-8" transform="translate(141.91 281.01)"><tspan class="cls-10" x="0" y="0">REGISTRATIONS</tspan><tspan class="cls-11" x="97.88" y="0" xml:space="preserve">      |      </tspan><tspan class="cls-10" x="161.02" y="0" xml:space="preserve">TIMING         </tspan><tspan class="cls-11" x="229.74" y="0">|</tspan><tspan class="cls-10" x="237.22" y="0" xml:space="preserve">          RESULTS</tspan><tspan class="cls-12" x="319.58" y="0"> </tspan></text>
  </g>
</svg>