<?xml version="1.0" encoding="UTF-8"?>
<svg id="Layer_2" data-name="Layer 2" xmlns="http://www.w3.org/2000/svg" viewBox="0 0 500 365.38">
  <defs>
    <style>
      .cls-1 {
        fill: #f5b819;
      }

      .cls-1, .cls-2, .cls-3, .cls-4, .cls-5, .cls-6, .cls-7, .cls-8, .cls-9, .cls-10, .cls-11, .cls-12, .cls-13 {
        stroke-width: 0px;
      }

      .cls-2 {
        isolation: isolate;
      }

      .cls-2, .cls-14 {
        opacity: .2;
      }

      .cls-15 {
        opacity: .5;
      }

      .cls-16 {
        opacity: .6;
      }

      .cls-3 {
        fill: #e6e6e6;
      }

      .cls-4 {
        fill: #c2c932;
      }

      .cls-6, .cls-17 {
        fill: #e0e0e0;
      }

      .cls-7 {
        fill: #f5f5f5;
      }

      .cls-8 {
        fill: #de5753;
      }

      .cls-9 {
        fill: #fff;
      }

      .cls-10 {
        fill: #263238;
      }

      .cls-11 {
        fill: #ea573f;
      }

      .cls-12 {
        fill: #ebebeb;
      }

      .cls-17 {
        font-family: Montserrat-Bold, 'Montserrat Bold';
        font-size: 12px;
        font-weight: 700;
      }

      .cls-13 {
        fill: #e29471;
      }
    </style>
  </defs>
  <g id="Background_Complete" data-name="Background Complete">
    <rect class="cls-12" x="416.78" y="343.54" width="33.12" height=".25"/>
    <rect class="cls-12" x="322.53" y="346.26" width="8.69" height=".25"/>
    <rect class="cls-12" x="396.59" y="334.26" width="19.19" height=".25"/>
    <rect class="cls-12" x="52.46" y="335.94" width="43.19" height=".25"/>
    <rect class="cls-12" x="104.56" y="335.94" width="6.33" height=".25"/>
    <rect class="cls-12" x="131.47" y="340.16" width="93.68" height=".25"/>
    <path class="cls-12" d="m237.01,282.85H43.91c-3.15,0-5.71-2.56-5.71-5.71V5.71c0-3.15,2.56-5.71,5.71-5.71h193.1c3.15,0,5.71,2.56,5.71,5.71v271.43c0,3.15-2.56,5.71-5.71,5.71ZM43.91.25c-3.01,0-5.46,2.45-5.46,5.46v271.43c0,3.01,2.45,5.46,5.46,5.46h193.1c3.01,0,5.46-2.45,5.46-5.46V5.71c0-3.01-2.45-5.46-5.46-5.46H43.91Z"/>
    <path class="cls-12" d="m453.31,282.85h-193.1c-3.15,0-5.71-2.56-5.71-5.71V5.71c0-3.15,2.56-5.71,5.71-5.71h193.1c3.15,0,5.71,2.56,5.71,5.71v271.43c0,3.15-2.56,5.71-5.71,5.71ZM260.21.25c-3.01,0-5.46,2.45-5.46,5.46v271.43c0,3.01,2.45,5.46,5.46,5.46h193.1c3.01,0,5.46-2.45,5.46-5.46V5.71c0-3.01-2.45-5.46-5.46-5.46h-193.1Z"/>
    <rect class="cls-12" y="327.45" width="500" height=".25"/>
    <g>
      <path class="cls-7" d="m50.66,261.79l32.04-.12c2.6,0,4.7,2.11,4.7,4.7v11.29c0,2.6,2.11,4.71,4.71,4.71h46.95c2.6,0,4.71-2.1,4.72-4.7v-41.46c.01-2.59,2.11-4.69,4.71-4.68h10c2.6,0,4.71-2.11,4.71-4.71v-22.62c0-2.6,2.1-4.7,4.7-4.7h16.39c2.6,0,4.7,2.1,4.7,4.7v6.66c0,2.6,2.11,4.71,4.71,4.71h1.53c2.6,0,4.7-2.1,4.7-4.7v-24.62c0-2.6,2.11-4.71,4.71-4.71h16.23c2.59,0,4.71,2.12,4.71,4.71v24.66c0,2.59,2.1,4.7,4.7,4.7h5.06c2.6,0,4.7-2.11,4.7-4.7v-49.71h-.05v-24.9h1v15.34c.1-.13.18-.26.29-.38l37.35-21.45c.79-.86,1.24,0,1.24-1.15v-30.7l2.57-1.84,46.66-33.44v-13.3h1v12.59l.19-.14v149.09c0,2.6,2.11,4.71,4.71,4.71h6.13c2.6,0,4.71-2.1,4.71-4.7l1.47-55.67c.01-.53.14-1.06.37-1.54l9.12-19.04h.68v-21.52c0-2.1,1.7-3.81,3.81-3.81h1.83v-15.25h1v15.25h.96c2.1,0,3.81,1.7,3.81,3.81v.97h4.27v-.97c0-2.1,1.7-3.81,3.81-3.81h1.62v-15.25h1v15.25h1.18c2.1,0,3.81,1.7,3.81,3.81v21.52h.68l9.13,19.04c.23.48.36,1.01.37,1.54l1.5,55.61c0,2.6,2.11,4.71,4.71,4.71h8.61c2.6,0,4.7,2.1,4.7,4.7v6.48c0,2.6,2.1,4.7,4.7,4.7h6.15c2.29-.01,4.25,1.63,4.64,3.89l16.38,86.08c.06.29.09.59.09.89-.01,2.6-2.12,4.7-4.72,4.7H50.71c-.99,0-.05-65.23-.05-65.23Z"/>
      <g>
        <g>
          <g>
            <path class="cls-7" d="m437.58,45.47h-65.89c-8.44,0-10.48-11.82-2.51-14.59.1-.04.2-.07.31-.1-8.82-7.35,10.53-22.84,31.55-1.39-1.64-7.15,17.04-4.57,22.76,5.19,2.03-6.41,19.84,4.72,13.78,10.89Z"/>
            <path class="cls-7" d="m106.1,135.98h-37.23s-8.73-3.29-7.6-12c1.13-8.71,14.31-1.45,14.31-1.45,0,0-4-12.15,8.77-8.7,12.76,3.45,14.01,15.49,14.01,15.49,0,0,16.77-2.93,7.74,6.66Z"/>
          </g>
          <g>
            <g>
              <rect class="cls-6" x="361.87" y="231.72" width="9.42" height="33.77"/>
              <rect class="cls-12" x="380.37" y="253.42" width="9.42" height="12.07"/>
              <rect class="cls-12" x="398.86" y="247.44" width="9.42" height="18.04"/>
              <rect class="cls-12" x="417.36" y="258.57" width="9.42" height="6.92"/>
              <rect class="cls-3" x="435.86" y="240.62" width="9.42" height="24.86"/>
            </g>
            <g>
              <rect class="cls-12" x="54.71" y="234.24" width="68.52" height="8.39"/>
              <rect class="cls-6" x="54.71" y="246.16" width="93.01" height="8.39"/>
              <rect class="cls-12" x="54.71" y="257.96" width="27.13" height="8.39"/>
            </g>
          </g>
        </g>
        <text class="cls-17" transform="translate(299.98 82.73)"><tspan x="0" y="0">23 MILES</tspan></text>
      </g>
    </g>
  </g>
  <g id="Route">
    <g>
      <g>
        <polygon class="cls-4" points="342.56 110.61 316.1 110.61 289.65 137.07 239.9 161.94 187.78 161.94 136.45 213.27 99.46 213.27 99.46 222.14 140.12 222.14 191.45 170.81 241.99 170.81 294.9 144.36 319.78 119.48 344.65 119.48 381.69 100.97 381.69 91.05 342.56 110.61"/>
        <path class="cls-4" d="m99.15,175.25c-4.99,0-9.04,4.05-9.04,9.03,0,3.18,3.66,9.67,6.33,13.96,1.52,2.45,2.71,4.19,2.71,4.19,0,0,1.2-1.74,2.7-4.19,2.67-4.29,6.33-10.78,6.33-13.96,0-4.99-4.05-9.03-9.03-9.03Zm0,13.49c-2.28,0-4.12-1.84-4.12-4.12s1.84-4.12,4.12-4.12,4.12,1.85,4.12,4.12-1.85,4.12-4.12,4.12Z"/>
        <g class="cls-15">
          <polygon class="cls-9" points="342.56 110.61 316.1 110.61 289.65 137.07 239.9 161.94 187.78 161.94 136.45 213.27 99.46 213.27 99.46 222.14 140.12 222.14 191.45 170.81 241.99 170.81 294.9 144.36 319.78 119.48 344.65 119.48 381.69 100.97 381.69 91.05 342.56 110.61"/>
          <path class="cls-9" d="m99.15,175.25c-4.99,0-9.04,4.05-9.04,9.03,0,3.18,3.66,9.67,6.33,13.96,1.52,2.45,2.71,4.19,2.71,4.19,0,0,1.2-1.74,2.7-4.19,2.67-4.29,6.33-10.78,6.33-13.96,0-4.99-4.05-9.03-9.03-9.03Zm0,13.49c-2.28,0-4.12-1.84-4.12-4.12s1.84-4.12,4.12-4.12,4.12,1.85,4.12,4.12-1.85,4.12-4.12,4.12Z"/>
        </g>
      </g>
      <g>
        <path class="cls-4" d="m381.69,48.55c-6.36,0-11.51,5.15-11.51,11.5,0,4.05,4.66,12.31,8.06,17.77,1.93,3.12,3.46,5.34,3.46,5.34,0,0,1.53-2.21,3.44-5.34,3.39-5.46,8.06-13.73,8.06-17.77,0-6.35-5.15-11.5-11.5-11.5Zm0,17.17c-2.9,0-5.24-2.34-5.24-5.24s2.34-5.24,5.24-5.24,5.24,2.35,5.24,5.24-2.35,5.24-5.24,5.24Z"/>
        <g class="cls-15">
          <path class="cls-9" d="m381.69,48.55c-6.36,0-11.51,5.15-11.51,11.5,0,4.05,4.66,12.31,8.06,17.77,1.93,3.12,3.46,5.34,3.46,5.34,0,0,1.53-2.21,3.44-5.34,3.39-5.46,8.06-13.73,8.06-17.77,0-6.35-5.15-11.5-11.5-11.5Zm0,17.17c-2.9,0-5.24-2.34-5.24-5.24s2.34-5.24,5.24-5.24,5.24,2.35,5.24,5.24-2.35,5.24-5.24,5.24Z"/>
        </g>
      </g>
    </g>
  </g>
  <g id="Distance">
    <g>
      <g>
        <path class="cls-1" d="m166.48,49.76c-.74-.54-1.84-.38-2.46.35l-2.48,3.69-11.88-7.2c-.74-.45-1.76-.27-2.35.42l-4.09,5.25c-.62.73-.52,1.75.22,2.29.74.54,1.84.38,2.46-.35l3.06-4.03,2.57,1.56-5.49,7.1h.05s-9.6,12.3-9.6,12.3c-.59.75-.44,1.77.33,2.27.28.19.61.28.95.28.56,0,1.13-.25,1.5-.72l8.3-10.63h0s.24-.3.24-.3c.4-.46,1.27-1.21,2.3-.54,0,0,0,0,0,0l2.36,1.53-6.34,3.59c-.85.48-1.16,1.49-.7,2.26.46.77,1.52,1,2.37.52l8.72-4.94c.52-.3.86-.81.91-1.37.04-.56-.22-1.08-.69-1.39l-2.13-1.38,3.38-4.66,2.85,1.73c.27.17.58.25.89.25.54,0,1.08-.23,1.45-.67l3.51-4.91c.62-.73.52-1.75-.22-2.29Z"/>
        <path class="cls-1" d="m158.7,50.53c1.89,0,3.52-1.43,3.64-3.2.12-1.77-1.31-3.22-3.2-3.23-1.89,0-3.52,1.43-3.64,3.2-.12,1.77,1.31,3.22,3.2,3.23Z"/>
      </g>
      <g>
        <path class="cls-1" d="m147.2,84.39v1.58h-6.34v-1.26l3.24-3.06c.74-.71.88-1.14.88-1.55,0-.66-.46-1.04-1.34-1.04-.72,0-1.33.28-1.74.84l-1.41-.91c.65-.95,1.82-1.56,3.33-1.56,1.87,0,3.12.96,3.12,2.48,0,.82-.23,1.56-1.4,2.65l-1.93,1.82h3.61Z"/>
        <path class="cls-1" d="m147.99,81.78c0-2.77,1.54-4.34,3.6-4.34s3.6,1.57,3.6,4.34-1.52,4.34-3.6,4.34-3.6-1.57-3.6-4.34Zm5.24,0c0-1.91-.67-2.7-1.64-2.7s-1.63.79-1.63,2.7.67,2.7,1.63,2.7,1.64-.79,1.64-2.7Z"/>
      </g>
    </g>
  </g>
  <g id="Yime">
    <g>
      <g>
        <path class="cls-4" d="m305.79,40.52c0-2.77,1.54-4.34,3.6-4.34s3.6,1.57,3.6,4.34-1.52,4.34-3.6,4.34-3.6-1.57-3.6-4.34Zm5.24,0c0-1.91-.67-2.7-1.64-2.7s-1.63.79-1.63,2.7.67,2.7,1.63,2.7,1.64-.79,1.64-2.7Z"/>
        <path class="cls-4" d="m320.87,42.07c0,1.71-1.4,2.79-3.18,2.79-2.31,0-3.75-1.45-3.75-4.16,0-2.9,1.75-4.52,4.28-4.52.89,0,1.75.2,2.34.58l-.72,1.43c-.47-.31-1.01-.42-1.57-.42-1.4,0-2.3.83-2.36,2.43.49-.49,1.2-.74,2.08-.74,1.62,0,2.89,1.03,2.89,2.61Zm-1.88.1c0-.77-.56-1.26-1.43-1.26s-1.45.53-1.45,1.26.54,1.25,1.48,1.25c.83,0,1.4-.48,1.4-1.25Z"/>
        <path class="cls-4" d="m321.64,43.64c0-.7.52-1.15,1.16-1.15s1.16.46,1.16,1.15-.52,1.17-1.16,1.17-1.16-.49-1.16-1.17Z"/>
        <path class="cls-4" d="m331.24,43.13v1.58h-6.34v-1.26l3.24-3.06c.74-.71.88-1.14.88-1.55,0-.66-.46-1.04-1.34-1.04-.72,0-1.33.28-1.74.84l-1.41-.91c.65-.95,1.82-1.56,3.33-1.56,1.87,0,3.12.96,3.12,2.48,0,.82-.23,1.56-1.4,2.65l-1.93,1.82h3.61Z"/>
        <path class="cls-4" d="m338.25,42.15c0,1.42-1.09,2.71-3.48,2.71-1.18,0-2.39-.32-3.2-.9l.76-1.49c.64.48,1.52.76,2.4.76.97,0,1.57-.4,1.57-1.08,0-.64-.47-1.03-1.57-1.03h-.89v-1.28l1.73-1.96h-3.57v-1.56h5.88v1.26l-1.9,2.16c1.51.24,2.28,1.18,2.28,2.41Z"/>
        <path class="cls-4" d="m339.09,43.64c0-.7.52-1.15,1.16-1.15s1.16.46,1.16,1.15-.52,1.17-1.16,1.17-1.16-.49-1.16-1.17Z"/>
        <path class="cls-4" d="m345.34,36.32v8.4h-1.94v-6.84h-1.68v-1.56h3.62Z"/>
        <path class="cls-4" d="m353.84,42.28c0,1.58-1.42,2.58-3.55,2.58s-3.53-1-3.53-2.58c0-.9.47-1.57,1.27-1.98-.62-.38-.97-.97-.97-1.73,0-1.48,1.32-2.4,3.23-2.4s3.25.92,3.25,2.4c0,.76-.36,1.34-.98,1.73.82.41,1.28,1.08,1.28,1.98Zm-1.97-.06c0-.74-.61-1.2-1.58-1.2s-1.56.46-1.56,1.2.6,1.21,1.56,1.21,1.58-.47,1.58-1.21Zm-2.88-3.56c0,.64.5,1.03,1.3,1.03s1.32-.4,1.32-1.03-.53-1.06-1.32-1.06-1.3.4-1.3,1.06Z"/>
      </g>
      <g>
        <path class="cls-4" d="m289.54,47.65c-.23,0-.46-.09-.62-.28l-6-6.68c-.31-.34-.28-.88.06-1.18.34-.31.88-.28,1.18.06l6,6.68c.31.34.28.88-.06,1.18-.16.14-.36.21-.56.21Z"/>
        <path class="cls-4" d="m284.81,27.47v-1.07h-3.42v1.14c-6.63.95-11.85,6.66-11.75,13.56.11,7.65,6.27,13.81,13.71,13.71,7.56-.1,13.71-6.15,13.71-13.71,0-7.07-5.37-12.9-12.25-13.63Zm-1.47,25.66c-6.64,0-12.03-5.4-12.03-12.03s5.4-12.03,12.03-12.03,12.03,5.4,12.03,12.03-5.4,12.03-12.03,12.03Z"/>
        <rect class="cls-4" x="280.82" y="23.64" width="4.56" height="2.32"/>
        <g class="cls-16">
          <path class="cls-4" d="m289.54,47.65c-.23,0-.46-.09-.62-.28l-6-6.68c-.31-.34-.28-.88.06-1.18.34-.31.88-.28,1.18.06l6,6.68c.31.34.28.88-.06,1.18-.16.14-.36.21-.56.21Z"/>
          <path class="cls-4" d="m284.81,27.47v-1.07h-3.42v1.14c-6.63.95-11.85,6.66-11.75,13.56.11,7.65,6.27,13.81,13.71,13.71,7.56-.1,13.71-6.15,13.71-13.71,0-7.07-5.37-12.9-12.25-13.63Zm-1.47,25.66c-6.64,0-12.03-5.4-12.03-12.03s5.4-12.03,12.03-12.03,12.03,5.4,12.03,12.03-5.4,12.03-12.03,12.03Z"/>
          <rect class="cls-4" x="280.82" y="23.64" width="4.56" height="2.32"/>
        </g>
      </g>
    </g>
  </g>
  <g id="Heart_rate" data-name="Heart rate">
    <g>
      <g>
        <path class="cls-4" d="m350.06,192.54h5.06c-4.31,4.49-10.52,8.92-16.42,13.4l-4.01,2.94s-.06.04-.09.06l-3.9-3.26c-4.98-4.31-10.23-8.81-13.94-13.28h7.51l3.29-11.29,4.91,21.64,4.57-11.08,2.85,6.18,3.36-10.82,3.74,10.56,3.07-5.05Z"/>
        <path class="cls-4" d="m356.19,190.18h-6.79l-2.13,3.51-4.09-11.55-3.5,11.28-2.7-5.86-4.19,10.15-5.1-22.43-4.29,14.76h-7.58c-4.65-6.01-6.21-11.92-.2-17.17,7.52-6.58,16.23-.45,20.64,3.53,4.65-3.69,14.86-11.24,22.69-1.42,3.93,4.93,1.57,10.3-2.76,15.2Z"/>
      </g>
      <g>
        <path class="cls-4" d="m328.99,156.55v8.4h-1.94v-6.84h-1.68v-1.56h3.62Z"/>
        <path class="cls-4" d="m336.73,163.36v1.58h-6.34v-1.26l3.24-3.06c.74-.71.88-1.14.88-1.55,0-.66-.46-1.04-1.34-1.04-.72,0-1.33.28-1.74.84l-1.42-.91c.65-.95,1.82-1.56,3.33-1.56,1.87,0,3.12.96,3.12,2.48,0,.82-.23,1.56-1.4,2.65l-1.93,1.82h3.61Z"/>
        <path class="cls-4" d="m343.88,162.3c0,1.49-1.09,2.78-3.49,2.78-1.16,0-2.39-.32-3.2-.9l.77-1.49c.64.48,1.51.76,2.39.76.97,0,1.57-.41,1.57-1.09s-.43-1.09-1.95-1.09h-2.15l.43-4.73h5.12v1.56h-3.5l-.13,1.59h.68c2.48,0,3.47,1.12,3.47,2.6Z"/>
      </g>
    </g>
  </g>
  <g id="Character">
    <g>
      <g>
        <g>
          <g>
            <g>
              <rect class="cls-1" x="176.21" y="134.85" width="7.24" height=".75"/>
              <rect class="cls-1" x="188.97" y="134.85" width="18.67" height=".75"/>
            </g>
            <g>
              <g>
                <path class="cls-1" d="m186.09,275.34c-2.48,0-4.96,0-7.42-.01v-.75c12.4.04,25.1-.02,37.73-.2v.75c-10.11.14-20.28.21-30.31.21Z"/>
                <path class="cls-1" d="m172.57,275.29c-5.33-.03-10.78-.09-16.19-.17v-.75c5.42.08,10.87.13,16.19.17v.75Z"/>
                <rect class="cls-1" x="144.88" y="274.38" width="6.06" height=".75"/>
              </g>
              <g>
                <rect class="cls-1" x="196.9" y="110.25" width="24.03" height=".75"/>
                <rect class="cls-1" x="189.7" y="110.25" width="3.1" height=".75"/>
              </g>
              <g>
                <rect class="cls-1" x="291.34" y="286.43" width="17.29" height=".75"/>
                <rect class="cls-1" x="277.19" y="286.43" width="9.74" height=".75"/>
              </g>
            </g>
          </g>
          <g>
            <path class="cls-13" d="m256.14,128.64c-14,1.23-33.25,7.4-32.8,10.56l-20.14,25.07-6.31,2.34s13.21-32.69,16.65-38.06c2.4-3.75,25.55-11.46,37.66-15.81,5.23-1.88,9.96,1.69,11.52,4.72,0,0,5.02,10.16-6.58,11.18Z"/>
            <path class="cls-13" d="m203.2,164.27l-.46,5.46c-.14,1.69-.93,3.26-2.21,4.38l-4.89,4.29c-.59.51-1.46.52-2.06.02l-3.33-2.82c-.61-.52-.74-1.41-.3-2.07l3.73-5.65,4.49-5.98s5.19.29,5.01,2.39Z"/>
          </g>
          <g>
            <g>
              <g>
                <path class="cls-13" d="m180.64,308.97l-27.91,10.94c-.81-.7-5.56-10.09-5.56-10.09l24.75-11.43,8.72,10.57Z"/>
                <g>
                  <path class="cls-1" d="m153.64,322.51c-.03-.12.02-.25.12-.33.11-.07.24-.07.35,0,.18.12,4.37,2.94,4.79,5.08.1.4.03.82-.2,1.16-.22.43-.68.67-1.16.6-.86-.11-1.76-1.41-2.46-2.87-.59-1.17-1.08-2.39-1.44-3.65Zm4.51,4.35c-.96-1.44-2.2-2.68-3.64-3.65.74,2.23,2.18,5.08,3.17,5.25.13.01.32,0,.56-.36.13-.21.18-.46.12-.7-.05-.19-.12-.37-.2-.55h-.01Z"/>
                  <path class="cls-1" d="m153.69,322.31c.03-.1.12-.18.23-.2.14-.04,3.31-1.25,5.22-.4.54.26.94.74,1.12,1.3.29.77,0,1.15-.26,1.37-1.16.85-4.94-.64-6.22-1.7-.02-.03-.09-.1-.09-.1v-.28Zm5.16-.03c-1.39-.36-2.87-.28-4.21.23,1.53.97,4.41,1.92,5.06,1.36.06-.05.23-.17.05-.67l-.12-.14c-.15-.35-.43-.63-.77-.78Z"/>
                  <path class="cls-1" d="m154.87,319.73l-1.74-1.51c-1.94-1.68-3.06-4.12-3.08-6.68l-.02-3c-.21-.47-.72-.73-1.23-.62l-10.22,1.81c-1.01.25-1.32,2.51-1.27,2.61,2.29,7.13,8.35,21.98,10.54,26.79,2.2,4.82,7.25,3.27,6.78,1.1-2.09-9.71-.95-14.27.31-18.23.26-.74.23-1.55-.08-2.27Z"/>
                </g>
                <g class="cls-14">
                  <path class="cls-5" d="m163.26,302.4l8.66-4,8.72,10.57-12.77,5.01-2.07-2.51c-1.24-1.51-2-3.35-2.18-5.29l-.36-3.78Z"/>
                </g>
              </g>
              <path class="cls-4" d="m213.46,201.27c-1.05,2.66-1.35,3.52-1.91,6.34-2.24,11.48-5.36,50.38-7.39,65.18-.43,3.17-2.63,5.38-5.33,6.65-8.07,3.8-13.31,4.96-31.51,19.9,2.2,4.66,4.28,7.94,6.28,13.41,0,0,35.07-13.48,43.09-20.08,11.81-9.72,26.19-60.8,30.37-73.99,2.37-7.49,5.11-16.44.74-22.9-2.45-3.62-26.43-14.65-34.34,5.49Z"/>
              <path class="cls-1" d="m258.99,114.87c2.65,2.97,3.89,5,3.08,13.76-1.56,17-.52,44.06-1.12,48.24-.91,6.35-36.45,7.15-42.92,1.33l-12.89-52.01c-1.77-7.14,3-14.24,10.27-15.32,2.92-.43,35.53-5.02,43.59,4.01Z"/>
              <path class="cls-4" d="m260.95,176.86h0c1,5.77,1.23,11.63.7,17.42-.91,10.03,2.14,20.02,8.32,27.98h0s-46.37-6.74-57.35-18.76l5.41-25.31s18.77,2.43,42.92-1.33Z"/>
              <g>
                <path class="cls-10" d="m228.78,97.76c-.26-.21-.5-.41-.76-.62t-.02-.02c-2.23-2.82-3.08-6.02-4.03-11.01-.26-1.28-.5-2.68-.78-4.22-.4-2.04-.33-4.15.21-6.16.29-1.08.71-2.1,1.22-3.03,1.19,4.44,1.36,9.05,1.78,13.61.36,3.91.89,7.77,2.39,11.45Z"/>
                <g>
                  <path class="cls-13" d="m229.77,92.4c.56,5.11.95,12.28-1.82,16.35-.96,1.42-1.08,3.25-.13,4.68,1.63,2.46,5.37,6.18,13.96,10.44,2.53-3.12,3.45-5.66,3.63-7.59.21-2.26-1.15-4.34-3.17-5.29-4.14-1.95-3.69-4.42-2.41-8.29l-10.07-10.31Z"/>
                  <path class="cls-2" d="m233.86,96.56l5.91,6.15c-.36,1.02-.62,2.06-.8,3.13-2.4-.55-6.02-2.96-6.32-5.68.1-1.28.52-2.52,1.2-3.6Z"/>
                  <path class="cls-13" d="m251.46,92.29c-.73,6.64-5.94,10.79-11.76,10.89h-.08c-2.18.02-4.43-.52-6.56-1.72-.73-.4-1.42-.87-2.11-1.42-.27-.22-.54-.44-.78-.66-.83-.74-1.54-1.48-2.14-2.25t-.02-.02c-2.23-2.82-3.08-6.02-4.03-11.01-.26-1.28-.5-2.68-.78-4.22-.4-2.04-.33-4.15.21-6.16.29-1.08.71-2.1,1.22-3.03.24-.43.49-.83.78-1.23,3.1-4.44,8.68-6.66,14.15-5.14,4.46,1.19,7.53,4.81,9.47,9.25.2.44.37.89.54,1.34,1.88,5.03,2.4,10.86,1.92,15.36Z"/>
                  <path class="cls-10" d="m238.71,82.5c.11.79.6,1.38,1.1,1.32.5-.06.84-.77.75-1.56-.09-.79-.6-1.38-1.1-1.32-.5.06-.8.8-.75,1.56Z"/>
                  <path class="cls-10" d="m247.48,81.4c.1.8.6,1.38,1.1,1.32.5-.06.84-.77.75-1.56-.09-.79-.6-1.38-1.1-1.31s-.84.75-.75,1.54Z"/>
                  <path class="cls-11" d="m244.95,83.18c.92,1.72,2.06,3.3,3.4,4.7-.74.68-1.73,1-2.71.88l-.69-5.59Z"/>
                  <path class="cls-10" d="m234.96,81.15c.2.01.38-.12.45-.31.69-1.37,1.91-2.39,3.37-2.81.25-.07.4-.33.33-.58-.06-.25-.31-.39-.55-.33,0,0-.01,0-.02,0-1.76.49-3.22,1.73-4,3.41-.08.24.04.5.28.59,0,0,0,0,0,0,.04.02.09.03.14.03Z"/>
                  <path class="cls-10" d="m249.61,76.94c.17,0,.33-.08.42-.23.13-.22.07-.51-.15-.65-1.24-.86-2.83-1.03-4.22-.46-.22.09-.33.36-.24.58,0,.01,0,.02.02.03.1.23.37.33.6.23,0,0,0,0,0,0h0c1.1-.41,2.33-.25,3.3.41.08.05.17.08.26.08Z"/>
                </g>
              </g>
              <path class="cls-2" d="m228.78,88.79c-.41.54-1.73-2.34-2.39-2.48-.79-.17-1.61-.24-2.41-.2-.26-1.28-.5-2.68-.78-4.22-.4-2.04-.33-4.15.21-6.16.29-1.08.71-2.1,1.22-3.03-.06-.25-.13-.5-.21-.75h0c.3-.19.64-.35.97-.48.77-.29,1.61-.4,2.42-.26,1.31.26,2.17,1.21,2.73,2.33-3.36,6.3-.48,13.57-1.76,15.23Z"/>
              <path class="cls-10" d="m228,97.12c-3.72-3.14-6.99-6.99-8.49-11.66-1.6-4.98.15-11.43,3.95-14.96.3-.28.8-.16,1.18,0,.29.13-.55.48-.44.8.07.22.14.44.2.66.08.25.15.5.21.75-.51.93-.92,1.95-1.22,3.03-.54,2.01-.61,4.12-.21,6.16.28,1.54.53,2.93.78,4.22.95,4.98,1.8,8.19,4.03,11.01Z"/>
              <path class="cls-13" d="m221.51,89.71c.81,1.67,2.24,2.94,3.97,3.54,2.31.76,3.57-1.32,3.02-3.6-.51-2.06-2.32-4.93-4.68-4.74-1.71.19-2.94,1.76-2.75,3.5.05.46.2.91.44,1.31Z"/>
              <path class="cls-13" d="m330.26,322.97l2.31,29.89c-.91.57-10.88,5.22-11.27,2.37-1.21-8.71-3.7-27.01-3.7-27.01l12.66-5.25Z"/>
              <path class="cls-1" d="m335.31,352.75c-.13,0-.23-.09-.28-.21-.03-.12,0-.25.1-.33.17-.14,4.09-3.32,6.26-3.1.41.02.79.21,1.06.53.34.33.44.85.23,1.28-.35.79-1.86,1.27-3.46,1.52-1.29.23-2.6.33-3.91.31Zm5.48-3.04c-1.66.5-3.21,1.32-4.56,2.41,2.35-.06,5.5-.6,5.95-1.5.05-.12.09-.31-.18-.64-.16-.19-.39-.3-.64-.32-.2,0-.39,0-.59.03v.02Z"/>
              <path class="cls-1" d="m335.14,352.64c-.09-.06-.14-.17-.12-.28,0-.14-.23-3.53,1.15-5.11.41-.44.98-.68,1.58-.69.82-.05,1.1.34,1.24.65.47,1.36-2.06,4.53-3.45,5.45-.03.02-.12.05-.12.05l-.27-.09Zm1.48-4.94c-.75,1.23-1.11,2.66-1.01,4.1,1.38-1.18,3.12-3.66,2.78-4.44-.03-.07-.1-.27-.62-.24l-.17.08c-.38.04-.72.22-.97.51Z"/>
              <path class="cls-1" d="m333.02,350.76l-12.12,1.35c-.51.06-.91.48-.95.99l-1.26,10.3c-.06,1.04,2.01,1.99,2.13,1.98,7.49-.11,23.46-1.56,28.7-2.25,5.25-.69,5.24-5.97,3.04-6.16-9.9-.84-13.92-3.26-17.35-5.62-.63-.47-1.42-.68-2.2-.58Z"/>
              <g class="cls-14">
                <polygon class="cls-5" points="318.84 337.27 317.6 328.22 330.26 322.97 331.06 335.21 318.84 337.27"/>
              </g>
              <path class="cls-4" d="m241.06,211.4c6.35,11.24,37.28,37.43,52.19,59.82,4.08,6.12,13.9,48.27,23.36,60.21l14.98-1.37c5.43-10.56-7.4-65.17-7.4-65.17-4.51-23.95-31.25-50.69-60.75-77.74-4.94-4.53-12.31-5.9-19.72-1.49-1.35.8-8.83,14.84-2.67,25.75Z"/>
            </g>
            <path class="cls-1" d="m247.75,193.83c-1.17.27-2.41-.47-3.31-1.99-.94-1.59-1.47-3.41-1.56-5.25l-3.27,4.24c-.61.79-1.37,1.58-2.41,1.47-.5-.05-.92-.31-1.23-.73-.46-.63-.63-1.62-.45-2.52.32-1.54,1.33-2.96,2.77-3.89,1.43-.92,3.12-1.26,4.65-.94l-.12-.43.94-.27.07.23.22-.28-.04.42c1.53-.37,3.17.39,4.1,1.47.94,1.09,1.48,2.65,1.61,4.62.1,1.53-.36,3.46-1.95,3.84,0,0-.02,0-.02,0Zm-3.83-8.88l-.02.2c-.2,2.14.3,4.34,1.39,6.19.52.88,1.33,1.74,2.25,1.53,1.07-.26,1.26-1.9,1.2-2.83-.11-1.75-.57-3.11-1.37-4.04-.64-.75-1.75-1.32-2.8-1.22l-.64.16s0,0-.01,0Zm-3.29.25c-.62.14-1.23.4-1.8.77-1.22.79-2.07,1.98-2.34,3.27-.13.62-.01,1.34.28,1.74.15.2.33.31.54.33.56.06,1.09-.52,1.53-1.09l3.84-4.97-.19.05-.04-.18c-.59-.09-1.21-.06-1.82.09Z"/>
            <path class="cls-1" d="m236.14,207.37l-.83-.52c4.09-6.55,6.45-14.09,6.82-21.81l.98.05c-.38,7.88-2.79,15.59-6.97,22.28Z"/>
            <path class="cls-1" d="m255.56,207.18l-.97.12c-1-8.25-5.2-16.09-11.51-21.5l.64-.75c6.5,5.57,10.81,13.64,11.84,22.13Z"/>
            <path class="cls-9" d="m169.03,302.79l-.45-.87c11.03-5.76,39.65-22.03,39.65-28.1,0-12.48,12.22-94.59,12.34-95.41l.97.14c-.12.83-12.33,82.86-12.33,95.27,0,7.9-38.53,28.11-40.17,28.97Z"/>
          </g>
          <g>
            <g>
              <path class="cls-13" d="m207.57,117.71c1.31-3.96,9.59-4.77,12.2-1.6,11.25,13.65,23.74,26.34,23.74,26.34l31.35-6.49,5.09,4.41s-32.37,16.21-38.75,16.22c-6.84,0-23.32-15.89-31.97-25.42-5.66-6.24-1.66-13.46-1.66-13.46Z"/>
              <path class="cls-13" d="m274.86,135.97l5-2.22c1.55-.69,3.31-.75,4.9-.17l6.11,2.23c.73.27,1.16,1.03,1,1.8l-.87,4.27c-.16.78-.88,1.32-1.67,1.26l-6.75-.55-7.41-1.06s-2.24-4.69-.31-5.54Z"/>
            </g>
            <g>
              <polygon class="cls-10" points="277.9 143.01 275.69 144.6 271.81 136.37 274.24 135.23 277.9 143.01"/>
              <path class="cls-10" d="m270.92,135.01h4.03c.54,0,.98.44.98.98v.75h-5.99v-.75c0-.54.44-.98.98-.98Z" transform="translate(-31.88 129.3) rotate(-25.23)"/>
            </g>
          </g>
        </g>
        <path class="cls-10" d="m220.77,81.05c1.13-3.8,4.73-6.39,8.46-7.75,3.72-1.37,7.73-1.81,11.51-3,2.51-.79,5.27-2.38,5.52-5,.15-1.61-.75-3.18-1.98-4.23-1.23-1.05-2.76-1.68-4.25-2.3-1.14-.47-2.36-.95-3.58-.76s-2.39,1.32-2.14,2.53c-3.2-2.03-7.95-1.47-10.96.83-2.02,1.55-3.33,4.58-1.82,6.62-1.74-.88-4.58.12-5.56,1.8s-.43,4.08,1.19,5.16c-2.64-.11-5.09,2.79-4.09,5.24,1,2.45,6.97,3.39,7.72.86Z"/>
      </g>
      <g>
        <path class="cls-10" d="m245.82,91.58c-.68,1.69-1.28,4.83-1.28,4.83-.29,0-.59,0-.88-.02-3.99-.14-5.79-1.53-6.58-3.02-.43-.82-.54-1.68-.55-2.37-.01-.81.17-1.38.17-1.38,2.07,1.34,5.77,1.76,7.76,1.9.83.07,1.36.07,1.36.07Z"/>
        <path class="cls-9" d="m244.46,91.51l-.41,1.41c-3.75-.15-6.38-.75-7.51-1.93-.01-.81.17-1.38.17-1.38,2.07,1.34,5.77,1.76,7.76,1.9Z"/>
        <path class="cls-8" d="m243.65,96.38c-3.99-.14-5.79-1.53-6.58-3.02,1.36.1,2.98.38,4.39,1.04,1.08.5,1.75,1.24,2.18,1.98Z"/>
      </g>
    </g>
  </g>
</svg>