<?xml version="1.0" encoding="utf-8"?>
<!-- Generator: Adobe Illustrator 28.0.0, SVG Export Plug-In . SVG Version: 6.00 Build 0)  -->
<svg version="1.1" id="Layer_1" xmlns="http://www.w3.org/2000/svg" xmlns:xlink="http://www.w3.org/1999/xlink" x="0px" y="0px"
	 viewBox="0 0 4094 5259" style="enable-background:new 0 0 4094 5259;" xml:space="preserve">
<style type="text/css">
	.st0{fill:#F5B819;}
	.st1{fill:#E8950C;}
	.st2{fill:#FFB900;}
	.st3{fill:#C2C932;}
	.st4{opacity:0.6;fill:#FFFFFF;}
	.st5{opacity:0.29;}
	.st6{opacity:0.44;}
	.st7{opacity:0.5;}
	.st8{fill:#FFFFFF;}
	.st9{fill:#E67B62;}
	.st10{fill:none;stroke:#FFFFFF;stroke-width:0.5;stroke-miterlimit:10;}
	.st11{opacity:0.2;}
	.st12{opacity:0.2;fill:none;stroke:#FFFFFF;stroke-width:0.5;stroke-miterlimit:10;}
	.st13{opacity:0.2;fill:#FFFFFF;}
	.st14{fill:#1A2E35;}
	.st15{fill:#D54C38;}
	.st16{opacity:0.3;fill:#4A191B;}
	.st17{fill:#FFBA9A;}
	.st18{opacity:0.2;fill:#FF5C33;}
	.st19{fill:#974245;}
	.st20{fill:#001F40;}
	.st21{opacity:0.28;}
	.st22{fill:#E1E1E1;}
	.st23{fill:#ECECEC;}
	.st24{fill:#F5F5F5;}
	.st25{opacity:0.28;fill:#C2C932;}
	.st26{fill:#F4F4F4;}
	.st27{opacity:0.3;fill:#FFFFFF;}
	.st28{opacity:0.5;fill:#FFFFFF;}
	.st29{opacity:0.4;}
	.st30{opacity:0.96;fill:#C2C932;}
	.st31{opacity:0.4;fill:#C2C932;}
	.st32{fill:#F7CC7F;}
	.st33{fill:#FF8B7B;}
	.st34{fill:#FF5551;}
	.st35{opacity:0.2;fill:#F5B819;}
	.st36{opacity:0.1;fill:#FFFFFF;}
	.st37{fill:none;}
	.st38{font-family:'MongolianBaiti';}
	.st39{font-size:44px;}
	.st40{font-size:18px;}
	.st41{fill:#FCFCFC;}
</style>
<g>
	<g>
		<path class="st0" d="M2141.7,2535.2l-169,0.2l0-39.5c0-13.9,11.2-25.2,25.1-25.2l118.6-0.1c13.9,0,25.2,11.2,25.2,25.1
			L2141.7,2535.2z"/>
		<rect x="2002.6" y="2299.6" class="st0" width="109.3" height="193.6"/>
		<polygon class="st1" points="2002.6,2383.2 2002.6,2299.6 2111.9,2299.6 2111.8,2340.2 		"/>
		<path class="st2" d="M2245.2,2150.3l-7-23c128-38.7,182.3-118.8,165.9-244.8c-0.2-0.2-1.5-1-3.2-0.5l-17.6,4.8
			c-7.1,1.9-11.8,7.2-11.8,13.1v27.3c0,16.6-14,29.8-31.8,30.2c-18.4,0.4-50,0.9-54.2,0.9v-24.1c2.9,0,23-0.4,53.7-0.9
			c4.5-0.1,8.2-2.9,8.2-6.1v-27.3c0-17,11.9-31.6,29.6-36.4l17.6-4.8c7.8-2.1,16-0.8,22.6,3.6c6,4,9.9,10.2,10.8,17
			c8.6,66.2-1,122.1-28.7,166.1C2369.5,2093.1,2317.6,2128.4,2245.2,2150.3z"/>
		<path class="st0" d="M1869,2150.3c-72.4-21.9-124.3-57.2-154.2-104.8c-27.6-44-37.3-99.9-28.7-166.1c0.9-6.8,4.8-13.1,10.8-17
			c6.6-4.4,14.8-5.7,22.6-3.6l17.6,4.8c17.7,4.8,29.6,19.4,29.6,36.4v27.3c0,3.2,3.8,6,8.2,6.1c30.8,0.6,50.9,0.9,53.7,0.9v24.1
			c-4.2,0-35.8-0.6-54.2-0.9c-17.8-0.3-31.8-13.6-31.8-30.2v-27.3c0-5.9-4.7-11.2-11.8-13.1l-17.6-4.8c-1.7-0.5-3,0.3-3.3,0.7
			c-16.3,125.8,38,205.9,166,244.6L1869,2150.3z"/>
		<path class="st0" d="M2297.8,1884.9l-26.2,326.6c-3.1,39.2-22.2,73.5-50.6,96.8c-24.2,19.9-55.2,31.8-88.7,31.8h-150.3
			c-72.8,0-133.5-56-139.3-128.6l-13.6-169.5l-12.6-157.1c-2-24.6,17.5-45.7,42.2-45.7h396.9
			C2280.4,1839.2,2299.8,1860.3,2297.8,1884.9z"/>
		<path class="st0" d="M2221.1,2308.3c-24.2,19.9-55.2,31.8-88.7,31.8h-150.3c-72.8,0-133.5-56-139.3-128.6l-13.6-169.5
			C1924.4,2162.3,2076.2,2265.5,2221.1,2308.3z"/>
		<rect x="1982.1" y="2338.1" class="st3" width="156.6" height="4"/>
		<rect x="1997.9" y="2468.6" class="st3" width="29.1" height="4"/>
		<rect x="2088.2" y="2468.6" class="st3" width="29.1" height="4"/>
		<path class="st0" d="M2181.1,2630.7l-247.7,0.3l-0.1-65.6c0-24.3,19.7-44.1,44-44.1l159.6-0.2c24.3,0,44.1,19.7,44.1,44
			L2181.1,2630.7z"/>
		<rect x="1972.9" y="2519.7" class="st1" width="168.7" height="4"/>
		<ellipse class="st4" cx="2186" cy="1980.1" rx="22.1" ry="43.1"/>
	</g>
	<g class="st5">
		<path class="st0" d="M2064.7,2381.6c-7.3,0.2-14.5-0.1-23-3.1c-18-6.5-40.4,4.2-40.5,24.9c-0.1,16.1,14.7,26.8,28.4,31.7
			c25.9,9.3,79.4,4.4,76.9-34c-0.8-12.3-7.3-18-19.1-19.4C2079.1,2380.6,2071.9,2381.3,2064.7,2381.6z"/>
	</g>
	<g class="st6">
		<g class="st7">
			<path class="st0" d="M2406.1,2625.8c-24.5-72.1-90.1-131.3-166-138.5c-71.6-6.8-140.7,30.4-212.6,31.1
				c-116.3,1.1-212.8-91.2-326.7-114.5c-132.4-27.2-278.5,55.1-324,182.4c-29.4,82.2-14.3,176.4,32.2,249.8h976.1
				C2418.4,2771.5,2429.3,2694.3,2406.1,2625.8z"/>
		</g>
		<g>
			<path class="st8" d="M1494.4,2637.3c94.3-14.7,178.1-82,214.3-170.2c7.6-18.5,12.9-37.7,16.5-57.2c-0.7-0.2-1.4-0.4-2.1-0.6
				c-2.4,13.1-5.6,26.1-9.7,38.9c-14.7,45.3-42,85.9-77.1,117.9c-34.9,31.7-77.8,54.9-123.8,65.6c-47.7,11.1-98.1,7.9-144.6-7.1
				c-0.4-0.1-0.8-0.3-1.2-0.4c-0.1,0.7-0.3,1.4-0.4,2.1C1407.3,2639.7,1451.4,2644,1494.4,2637.3z"/>
			<path class="st8" d="M1647.7,2701c70.4,9.4,142.8,14.5,212.4-3.4c31.6-8.1,62.1-20.9,88.8-39.7c26.8-18.9,49.1-43.5,66.7-71.1
				c14.1-22,25.1-45.5,33.9-69.8c-0.8,0.1-1.6,0.2-2.3,0.2c-6,16.4-13.1,32.5-21.5,48.1c-16.2,30.1-37.3,57.9-63.7,79.9
				c-26.1,21.6-56.9,36.9-89.2,46.6c-68.3,20.7-140.6,17.6-210.6,8.9c-76.5-9.5-153.1-25.7-230.6-22.2c-23.2,1-46.6,3.8-69.5,8.8
				c0,0.7,0,1.5,0.1,2.2c18.7-4.1,37.7-6.8,56.6-8.2C1495.6,2675.8,1571.9,2690.9,1647.7,2701z"/>
			<path class="st8" d="M2336.9,2751.6c-27.1-5.9-53.8-14.2-78.5-26.9c-23-11.8-44.7-27.6-60.1-48.7c-15.8-21.7-23.3-48-21-74.7
				c4.3-49.2,36.4-88.4,77.8-111.8c-1.1-0.2-2.1-0.4-3.2-0.6c-34.8,20.1-62.5,50.9-73.1,91.3c-6.8,25.8-5.2,53.2,6.1,77.5
				c10.9,23.3,29.5,41.9,50.6,56.1c22.3,15,47.5,25.5,73.2,32.9c30.9,8.9,62.8,14.4,94.9,16.4c2.6,0.2,5.1,0.3,7.7,0.4
				c0.2-0.7,0.3-1.4,0.5-2.1C2386.8,2760.2,2361.6,2757,2336.9,2751.6z"/>
			<path class="st8" d="M1773.8,2464.7c4.9-10.3,10.4-20.4,16.3-30c-0.7-0.3-1.3-0.6-2-0.9c-4.3,7-8.3,14.1-12.1,21.4
				c-9.3,18.2-16.8,37.3-22.2,56.9c-6,21.5-11,45.1-5.5,67.2c4.3,17.1,15.4,33,32.4,39.1c19.2,6.9,40.1-0.3,57.1-9.7
				c18.5-10.3,35.5-24,51.6-37.8c16.2-13.8,31.4-28.7,45.6-44.6c5.7-6.4,11.3-12.9,16.7-19.6c-0.8-0.2-1.5-0.5-2.3-0.7
				c-26,32.1-56,61-89.4,85.4c-17.1,12.5-36.4,25.2-58.1,27.3c-21.5,2-39.6-10.4-48.1-29.8c-9.5-21.5-5.6-46-0.2-68
				C1758.5,2501.6,1765.2,2482.7,1773.8,2464.7z"/>
			<path class="st8" d="M2352.5,2695.4c22.3,1.2,44.6-4.3,65-14.1c-0.1-0.6-0.1-1.3-0.2-1.9c-16.9,8-35.2,12.9-54.2,13.9
				c-21.4,1-43.2-4.6-59.1-19.4c-14.3-13.4-21.5-32.9-16-52.1c2.4-8.5,7.3-16.6,14.2-22.2c9-7.3,20.7-9.2,31.9-9.5
				c10.2-0.3,20.4,0.4,30.5-0.9c7.4-0.9,14.6-3,21.4-5.9c-0.4-0.6-0.7-1.2-1.1-1.9c-2.2,0.9-4.5,1.8-6.8,2.5
				c-20.8,6.7-43.1,0.2-63.8,6.8c-16.1,5.2-26.9,19.6-29.6,36.1c-2.9,17.2,3.6,34,15.7,46.3
				C2314,2687.3,2333.1,2694.4,2352.5,2695.4z"/>
			<path class="st8" d="M2147.4,2766.4c-9.7-23-19.3-46-29-69c-6.8-16.1-13.9-33.6-28.4-44.3c-15.4-11.2-36.3-11.2-53.5-4.4
				c-18.3,7.3-32.8,21.5-45.2,36.4c-24.7,29.6-42.4,64.9-52.2,102.1c-4.2,16-7,32.3-8.2,48.7h2.2c3.7-48.1,20.3-95.3,48.5-134.7
				c11.5-16.1,24.9-32.2,41.6-43.1c17.2-11.3,40.1-16.7,59.3-7.1c17.5,8.7,25.9,27.9,33.1,45c9,21.3,17.9,42.7,26.9,64.1
				c10.6,25.3,21.2,50.6,31.9,75.9h2.3C2166.9,2812.8,2157.2,2789.6,2147.4,2766.4z"/>
		</g>
	</g>
	<g>
		<path class="st9" d="M1399.8,2577.8c1.8,8.9,3.9,17.6,6.4,26.3c1.2,4.3,2.6,8.7,4.1,13c1.5,4.4,3.1,8.7,5.2,13.1
			c1.1,2.2,2.1,4.5,3.9,7.1c0.4,0.6,1,1.3,1.6,2.1c0.7,0.8,1.4,1.6,2.7,2.5c0.8,0.6,1.7,1,2.5,1.2c0.8,0.2,1.6,0.4,2.2,0.4
			c1.3,0.1,2.2-0.1,2.9-0.2c1.4-0.3,2.4-0.7,3.2-1.1c1.6-0.8,2.8-1.5,3.9-2.3c1.1-0.8,2.1-1.5,3-2.3c1.9-1.6,3.7-3.1,5.3-4.7
			c3.4-3.2,6.5-6.5,9.6-9.8c3-3.4,6-7.2,8.8-10.7l-6.3-5.9c-6.9,5.4-13.8,10.9-20.8,15.8c-1.7,1.2-3.4,2.4-5.2,3.5
			c-0.3,0.2-0.7,0.4-1,0.6c-0.4-0.8-0.7-1.7-1.1-2.6c-1.4-3.7-2.6-7.8-3.8-11.9c-1.2-4.1-2.3-8.3-3.3-12.5c-2.1-8.4-4.1-17-6.2-25.4
			L1399.8,2577.8z"/>
		<g>
			<path class="st9" d="M1268.8,2716.1c0,0,5.3,1.9,13.2,4.5c21.4,7.1,61.7,17.1,70.1,12.8c11.2-5.8,25.5-50,30.5-61.1l-32.4-10.5
				l-12.7,48.2c0,0-12.8-2.5-26.7-1.1c-5.9,0.6-16,0.5-24.5,0.2c-8.6-0.3-15.7-0.7-15.7-0.7L1268.8,2716.1z"/>
		</g>
		<path class="st0" d="M1268.8,2716.1c0,0,5.3,1.9,13.2,4.5c1.2-3,3-7.7,4.2-11.5c-8.6-0.3-15.7-0.7-15.7-0.7L1268.8,2716.1z"/>
		<path class="st3" d="M1271.4,2714.7c0,0,2.4,0.6,2.8,2.6s-3.4,5.3-4.9,11.3c-0.9,3.4-1.3,4.4-1.5,6.1c-0.2,2.3-2.1,3.9-4.2,5l0,0
			l-5.4-33.8c0,0,5-0.9,7.7-0.1c2.7,0.7,7,1.4,6.8,2.3C1271.6,2712,1269.6,2713.7,1271.4,2714.7z"/>
		<path class="st0" d="M1407.4,2644.5c0,0-20.1,53.3-26.2,58.3c-4.2,3.4-40.9-16.8-40.9-16.8l6.3-35.4L1407.4,2644.5z"/>
		<path class="st3" d="M1380.6,2705.4c0,0-32.9-9.7-42.4-19.9l2.2-7.1c0,0,21.1,14,44.2,19.8L1380.6,2705.4z"/>
		<g>
			<path class="st9" d="M1414.5,2728.3c-1.7,8.1,5.2,42,14.4,81.5c1.2,5,2.3,10.1,3.5,15.2l8.6,0c0,0,0.1-6,0.1-15.3
				c0-29.4-0.7-91.5-5.8-99.2c-6.8-10.2-41.6-62.7-41.6-62.7l-38-2.2C1355.7,2645.6,1347.4,2678.2,1414.5,2728.3z"/>
			<path class="st0" d="M1428.9,2809.8c1.2,5,2.3,10.1,3.5,15.2l8.6,0c0,0,0.1-6,0.1-15.3
				C1438.6,2809.6,1432.6,2809.5,1428.9,2809.8z"/>
			<path class="st3" d="M1437.9,2824c0,0,1.3-2.1,3.3-1.9c2,0.1,4.1,4.8,9.4,8c3,1.8,3.9,2.6,5.4,3.2c2.2,0.9,3.2,3.1,3.5,5.5l0,0
				l-33.9-4.8c0,0,0.7-5,2.1-7.4c1.5-2.4,3.4-6.3,4.2-5.8C1435.4,2823.1,1436.4,2825.4,1437.9,2824z"/>
			<path class="st0" d="M1390.4,2644.3l27.9,35.5c0,0-19.7,23.7-31.8,29.2c-6.4,2.9-41.2-40.5-41.8-48.2s3.2-17.4,3.2-17.4
				L1390.4,2644.3z"/>
			<path class="st10" d="M1351.3,2649.4c0,0,14.9,33.7,38.8,53"/>
			<path class="st3" d="M1420.2,2680.4c0,0-20.9,27.2-33.9,32.4l-5.9-4.6c0,0,20.6-14.6,34.4-34.1L1420.2,2680.4z"/>
		</g>
		<path class="st3" d="M1346.9,2649.2c4.8,10.2,61.2,8.7,61.4-2.5c0.2-7.9,6.4-61.7,9.3-70c2.8-8.4-14.8-16.5-14.8-16.5l-6-2.3
			c0,0-13.4-2.8-22.2-1.1c-0.3,0.1-0.6,0.1-0.9,0.2c-6.2,1.4-12.7,14.9-17,28.4c-1.9,5.8-3.4,11.7-4.2,16.5
			C1349.4,2618.3,1344.9,2645,1346.9,2649.2z"/>
		<path class="st9" d="M1356.6,2585.3c0.6,0,1.2,0.1,1.8,0.1c5.5,0,13.6-1.2,17-8c4.2-8.3,0.9-16.9-0.9-20.6
			c-0.3,0.1-0.6,0.1-0.9,0.2c-5.1,1.1-10.5,10.6-14.6,21.5C1358.2,2580.7,1357.4,2583,1356.6,2585.3z"/>
		<path class="st11" d="M1356.6,2585.3c0.6,0,1.2,0.1,1.8,0.1l14.7-11.8l-14.2,4.9C1358.2,2580.7,1357.4,2583,1356.6,2585.3z"/>
		<path class="st12" d="M1364.2,2584.9c0,0-13.4,45.5-10.1,68.8"/>
		<path class="st13" d="M1409.4,2585.2l-0.9,12.2c0,0-18.9,0.3-29.7-4.3c0,0,0.2-10.2,2.3-13
			C1381.1,2580.1,1390.9,2584.1,1409.4,2585.2z"/>
		<g>
			<g>
				<g>
					<g>
						<path class="st9" d="M1404.7,2564.5c-1.2,0.7-3,2.3-6.1,1.3c-4-1.2-6.5-7.1-6.3-9c3.5-4.9,7-10.8,8.2-16.2l3.1,6.3l4.5,9.1
							l0,0c-0.1,0.1-0.2,0.2-0.3,0.3c-0.1,0.2-0.2,0.3-0.4,0.5c-0.3,0.4-0.6,0.8-0.8,1.2c-0.2,0.3-0.4,0.7-0.5,1
							c-0.5,1-0.9,2.1-1.1,3.2C1404.9,2563.2,1404.8,2563.8,1404.7,2564.5z"/>
					</g>
					<g class="st11">
						<path d="M1405,2562.5c-2.4-1.8-4.7-5.4-4.5-8.5c0.2-2,1.6-3.6,2.4-3.4l3.8,7.8c-0.2,0.3-0.4,0.7-0.5,1
							C1405.6,2560.3,1405.3,2561.4,1405,2562.5z"/>
					</g>
					<g>
						<path class="st9" d="M1402.7,2530.8c3.1-8.3,13.7-10.9,20.1-4.2c6.5,6.7,2.2,19.2-2.7,25.7c-5.5,7.2-17.1,6.5-20.5-2.5
							C1397.3,2543.8,1399.6,2539.1,1402.7,2530.8"/>
						<path class="st14" d="M1427.1,2533.4c0,0,2.6,3.3,3.7,1.4c1-1.9-1.2-3.7-1.2-3.7s5.2-2.6,3.9-4.4s-4.4-1.3-4.4-1.3
							s1.4-5.4-1.1-6c-2.5-0.6-4.5,1.1-4.5,1.1s0.2-4.3-2.3-5.3c-2.4-1-3.7,1.7-3.7,1.7s-2.5-3.1-4.8-2.7c-2.3,0.5-2.2,3.2-2.2,3.2
							s-3-3.3-4.7-2.2c-1.8,1.1-1.6,3.5-1.6,3.5s-2.2-1.3-3.1,0.8c-0.9,2.1,1,3.1,1,3.1s-1.9,0.7-2.1,2c-0.2,1.3,2,2.5,4,0.8
							C1405.9,2523.9,1421.2,2528,1427.1,2533.4z"/>
					</g>
					<path class="st0" d="M1427.4,2533.7c0,0,0.3,4.7-1.3,5.7c-1.6,1-9.7-9.3-23.7-7.9c0,0-0.3-4.1,1.6-5.9
						S1421,2527.1,1427.4,2533.7z"/>
					<path class="st14" d="M1421.8,2529.5c0,0-0.9,2.7-2.5,2.1c-1.6-0.6,0-2.5,0-2.5s-3.6,2.7-4.8,1.3s1.9-3.1,1.9-3.1
						S1420.2,2526.9,1421.8,2529.5z"/>
					<path class="st8" d="M1412.4,2549.8c-0.4,0.9-0.2,2,0.6,2.3c0.8,0.4,1.7-0.1,2.2-1c0.4-0.9,0.2-2-0.6-2.3
						C1413.8,2548.5,1412.9,2548.9,1412.4,2549.8z"/>
					<g>
						<path class="st9" d="M1396.8,2534.6c-0.3,2.4,0.4,4.7,1.6,6.2c1.8,2.3,4.5,1.1,5.4-1.5c0.9-2.4,1-6.4-1.5-7.8
							C1399.9,2530.2,1397.2,2531.9,1396.8,2534.6"/>
					</g>
					<g>
						<path class="st14" d="M1413.7,2539.6c-0.3,0.7-0.2,1.3,0.2,1.5c0.4,0.2,1-0.2,1.3-0.8c0.3-0.7,0.2-1.3-0.2-1.5
							C1414.5,2538.6,1413.9,2539,1413.7,2539.6"/>
					</g>
					<g>
						<path class="st14" d="M1420.9,2542.8c-0.3,0.7-0.2,1.3,0.2,1.5c0.4,0.2,1-0.2,1.3-0.8c0.3-0.7,0.2-1.3-0.2-1.5
							C1421.8,2541.7,1421.2,2542.1,1420.9,2542.8"/>
					</g>
				</g>
				<g>
					<path class="st14" d="M1424.1,2541.5c-0.1-0.1-0.2-0.2-0.2-0.3c-0.1-0.6-0.3-1-0.6-1.3c-0.6-0.5-1.4-0.4-1.4-0.4
						c-0.2,0-0.4-0.1-0.4-0.3c0-0.2,0.1-0.4,0.3-0.4c0,0,1.1-0.1,1.9,0.5c0.5,0.4,0.8,1,0.9,1.8c0,0.2-0.1,0.4-0.3,0.4
						C1424.2,2541.5,1424.2,2541.5,1424.1,2541.5z"/>
				</g>
				<g>
					<path class="st14" d="M1412.8,2536.7c0,0-0.1-0.1-0.1-0.1c-0.1-0.1-0.1-0.4,0-0.5c0,0,0.9-0.7,1.9-0.6c0.6,0.1,1.2,0.4,1.7,1
						c0.1,0.2,0.1,0.4-0.1,0.5c-0.2,0.1-0.4,0.1-0.5-0.1c-0.4-0.5-0.8-0.7-1.2-0.8c-0.7-0.1-1.4,0.4-1.4,0.4
						C1413.1,2536.8,1412.9,2536.8,1412.8,2536.7z"/>
				</g>
				<g>
					<path class="st15" d="M1418.1,2541.1c0,0-0.5,2.3,0.6,4.4c1,2.1-2.8,1.9-2.8,1.9L1418.1,2541.1z"/>
				</g>
			</g>
		</g>
		<path class="st9" d="M1311.9,2592.1c0.1,0.8,0.2,1.6,0.4,2.3c0.2,0.7,0.5,1.5,0.8,2c0.8,1.6,1.6,2.7,2.4,3.8c0.8,1,1.6,2,2.4,2.9
			c1.6,1.8,3.2,3.4,4.9,4.9c3.3,3,6.6,5.8,10.1,8.4c3.4,2.7,6.9,5.2,10.6,7.6l5.8-6.8c-5.5-6.3-11.2-12.5-16.1-18.8
			c-1.2-1.6-2.4-3.1-3.5-4.7c-0.4-0.6-0.7-1.1-1.1-1.6c0.6-0.5,1.5-1.1,2.5-1.6c1.4-0.8,3.1-1.6,4.8-2.4c1.7-0.8,3.5-1.5,5.4-2.2
			c3.7-1.4,7.5-2.7,11.4-4c3.9-1.2,7.8-2.4,11.8-3.5c3.9-1.1,8-2.2,11.8-3.3l-4.2-17.5c-4.4,1-8.5,2.1-12.7,3.3
			c-4.2,1.2-8.3,2.5-12.5,4c-4.1,1.5-8.3,3-12.4,4.9c-4.1,1.8-8.2,3.8-12.5,6.7c-1.1,0.7-2.1,1.5-3.2,2.4s-2.2,1.9-3.3,3.3
			c-1.1,1.4-2.4,3.1-3.2,5.7C1312,2588.9,1311.8,2590.5,1311.9,2592.1z"/>
		<g>
			<g>
				<polygon class="st9" points="1349,2617 1356.9,2624.3 1346.3,2632.4 1342.3,2622.3 				"/>
			</g>
			<path class="st9" d="M1351,2619.2c0,0,3.1,0.3,4.8,1.1c1.7,0.8,2.3,6.8,2.3,6.8l-2-3.1L1351,2619.2z"/>
			<path class="st9" d="M1356.2,2623.1c0,0,3.7,4.4,2.9,6.3c-0.8,1.9-3,0.6-3,0.6s0,2.1-0.9,2.5c-1.1,0.6-1.8-0.2-1.8-0.2
				s0,1.8-0.9,2.1s-1.9,0-1.9,0s0.4,0.7-1.2,1.1c-1.5,0.4-3.2-3.1-3.2-3.1L1356.2,2623.1z"/>
			<g class="st11">
				<path d="M1353.9,2621c0,0,2.2,1.9,3.7,3.3c0.1,0.3,0.1,0.7,0.2,1c-1-1-3.1-3-4.2-3.9c-0.1-0.1-0.2-0.3-0.1-0.4
					C1353.6,2620.9,1353.8,2620.9,1353.9,2621z"/>
			</g>
		</g>
		<path class="st12" d="M1409.1,2563.7c0,0,1.3,10.6-8.6,9.7c-11.7-1.1-12.9-16.9-12.9-16.9"/>
		<g>
			<path class="st9" d="M1458.7,2607.8c0,0-0.4-6.6,1-8.1c1.4-1.5,8.5,3.7,8,5.4c-0.5,1.6-5.2-1.4-5.2-1.4s0.4,4.2-1.6,4.9
				C1458.9,2609.3,1458.7,2607.8,1458.7,2607.8z"/>
			<path class="st9" d="M1460.6,2601c0,0,2.4-5.7,4.9-5.8c2.5-0.1,7.4,5,8,7.6c0.6,2.6-2,5.8-4.7,5.2
				C1466.2,2607.5,1460.6,2601,1460.6,2601z"/>
			<path class="st9" d="M1468.9,2606.9c0,0,0.2,4.2-3.4,5.3c-3.5,1.1-6.8-4.9-6.8-4.9s1.8-5.6,3.9-6.2
				C1464.7,2600.6,1468.9,2606.9,1468.9,2606.9z"/>
			<path class="st11" d="M1465.1,2604.5c-0.3,0.1-0.6,0.2-1,0.2c-1.4,0-3.2-0.7-3.3-0.8c-0.1-0.1-0.2-0.2-0.1-0.4
				c0.1-0.1,0.2-0.2,0.4-0.1c0.7,0.3,2.8,1,3.9,0.6c0.2-0.1,0.4-0.2,0.5-0.5c0.5-1.2-2.4-3-3.5-3.6c-0.1-0.1-0.2-0.2-0.1-0.4
				c0.1-0.1,0.2-0.2,0.4-0.1c0.2,0.1,1.5,0.8,2.5,1.6c1-0.3,2-2.3,2.4-3c0.1-0.1,0.2-0.2,0.4-0.1c0.1,0.1,0.2,0.2,0.1,0.4
				c-0.1,0.3-1.2,2.5-2.4,3.2c0.6,0.7,1.1,1.4,0.9,2.1c0,0.1,0,0.1,0.1,0.2c2.6-0.4,3.5-3.3,3.5-3.4c0-0.1,0.2-0.2,0.3-0.2
				c0.1,0,0.2,0.2,0.2,0.3c0,0.1-1,3.2-3.9,3.7c0.3,0.8,0.9,1.5,1.4,2c0,0,0,0,0,0c2.8-0.3,3.7-3.4,3.7-3.4c0-0.1,0.2-0.2,0.3-0.2
				c0.1,0,0.2,0.2,0.2,0.3c0,0.1-0.9,3.1-3.8,3.7c0.4,0.4,0.8,0.6,0.8,0.7c0.1,0.1,0.2,0.3,0.1,0.4c-0.1,0.1-0.1,0.1-0.2,0.1
				c-0.1,0-0.1,0-0.2,0c-0.1-0.1-2-1.4-2.9-3.3c0.4,2.6-1.1,3.6-1.2,3.6c0,0-0.1,0-0.1,0c-0.1,0-0.2,0-0.2-0.1
				c-0.1-0.1,0-0.3,0.1-0.4C1464.2,2607.7,1465.5,2606.8,1465.1,2604.5C1465.1,2604.5,1465.1,2604.5,1465.1,2604.5z"/>
		</g>
	</g>
	<g>
		<g>
			<g>
				<g>
					<g>
						<polygon class="st3" points="1832.9,2633.9 1829.2,2657.5 1860.9,2657.5 1848.5,2645 1849.4,2633.4 						"/>
						
							<rect x="1841.7" y="2645.9" transform="matrix(0.8619 -0.5071 0.5071 0.8619 -1087.4385 1301.4758)" class="st8" width="7.3" height="2"/>
					</g>
					<path class="st0" d="M1898.3,2462.7c-0.5,2.8-0.9,5.6-1.4,8.3c-0.9,5.2-1.8,10.4-2.7,15.5c-3.3,18.3-7,36-10.9,53.2
						c0,0,0,0,0,0c-7.9,34.6-16.9,67.1-26.9,97.7h-28.2c11.3-54.1,22.3-107.7,25.9-149.1c0.5-6.1,0.9-11.9,1.1-17.5L1898.3,2462.7z"
						/>
				</g>
				<g>
					<g>
						<polygon class="st3" points="1897.2,2632.8 1895.8,2657 1929.6,2657.5 1916.2,2645 1917.2,2633.4 						"/>
						
							<rect x="1908.9" y="2645.9" transform="matrix(0.8783 -0.4782 0.4782 0.8783 -1032.8245 1236.8871)" class="st8" width="7.8" height="2"/>
					</g>
					<path class="st0" d="M1920.9,2636.8h-29.4c-2.1-33.5-4.6-66.2-8.2-97.1c0,0,0,0,0,0c-2.1-18.1-4.6-35.7-7.6-52.4
						c-1-5.4-2-10.7-3-15.9l24.3-0.4l12.1-0.2c0.8,4.9,1.6,9.9,2.2,14.9C1918.1,2534.4,1920,2585.4,1920.9,2636.8z"/>
				</g>
			</g>
			<path class="st16" d="M1911.2,2485.7l-17,0.8l-18.5,0.8l-21.6,1c0.5-6.1,0.9-11.9,1.1-17.5l43.2-8.1c-0.5,2.8-0.9,5.6-1.4,8.3
				l12.1-0.2C1909.8,2475.8,1910.6,2480.7,1911.2,2485.7z"/>
			<polygon class="st3" points="1881.4,2552.5 1880.4,2552.3 1890.4,2502.6 1891.4,2502.8 			"/>
		</g>
		<g>
			<path class="st3" d="M1890.5,2403.8c-14.9,1.6-27.1,0.4-39-6.8l-11.5,19.6l13.4,12l-2.7,42.4c-0.2,2.5,1.2,4.8,3.4,6
				c0.9,0.4,1.8,0.7,2.8,0.7h50.9c2.8,0,5.2-1.7,6.2-4.3c0.2-0.6,0.4-1.3,0.4-2l2.2-44.9l22.8-5.4l-5.3-18
				C1916.8,2405.1,1901.2,2406.2,1890.5,2403.8z"/>
			<g>
				<path class="st17" d="M1851.6,2397l-11.5,19.6l-16-14.3c-0.4-0.3-0.7-0.6-1-1c-3.1-3.1-5.3-7.1-6.2-11.4
					c-0.1-0.6-0.3-1.2-0.4-1.8c-3.5-15.6-10.2-45.9-9.8-48.6c0.5-3.6,4.2-2,4.2-2c0.3-3.4,3.2-1.6,3.2-1.6c0-2,0.6-2.4,2.6-2.3
					c1.9,0.1,4.5,11.9,4.5,11.9s2.9-6.1,5-5.6c2.1,0.4-1.8,12.2-1.8,12.2l13.9,34.1C1842.6,2390.8,1847.1,2394.3,1851.6,2397z"/>
				<path class="st18" d="M1825.2,2395.9c0,2.1-0.8,4-2.2,5.4c-3.1-3.1-5.3-7.1-6.2-11.4c-0.1-0.6-0.3-1.2-0.4-1.8
					c0.3,0,0.7-0.1,1-0.1C1821.7,2388.1,1825.2,2391.6,1825.2,2395.9z"/>
				<g>
					<path class="st19" d="M1818.6,2352.3c-1.7-1.8-1.7-3.7,0.1-5.5l0.4,0.4c-1.6,1.6-1.6,3.2-0.1,4.8L1818.6,2352.3z"/>
					<polygon class="st19" points="1814.7,2340.9 1813.7,2336 1814.2,2335.9 1815.2,2340.8 					"/>
					<polygon class="st19" points="1811.7,2341.7 1810.5,2337.6 1811,2337.5 1812.2,2341.5 					"/>
					
						<rect x="1808.9" y="2338.9" transform="matrix(0.9659 -0.259 0.259 0.9659 -544.5962 548.5182)" class="st19" width="0.5" height="3.9"/>
				</g>
			</g>
			<g>
				<path class="st17" d="M1962.9,2408.4c-0.2,0.4-0.5,0.7-0.7,1.1l-1.5,2.2c-2,3-5.1,5.2-8.6,6.2c-0.2,0.1-0.4,0.1-0.6,0.2
					l-12.1,2.9l-5.2-17.9c4.8-0.6,9.8-1.2,14.9-1.9l15-28.4c0,0,0-12.1,1.7-12.4c1.7-0.4,3,7,3,7s6.5-9.8,8.5-9.8s1.5,2.8,1.5,2.8
					s1.9-2.3,3-1.2c0.6,0.6,0.5,2.7,0.5,2.7s0.7-0.7,2.2-0.1C1987.3,2363,1978.3,2383.8,1962.9,2408.4z"/>
				<path class="st18" d="M1962.9,2408.4c-0.2,0.4-0.5,0.7-0.7,1.1l-1.5,2.2c-2,3-5.1,5.2-8.6,6.2c-0.3-0.8-0.5-1.7-0.5-2.6
					c0-4.3,3.5-7.8,7.8-7.8C1960.7,2407.6,1961.9,2407.9,1962.9,2408.4z"/>
				<g>
					<path class="st19" d="M1970,2374.4l-0.3-0.4c1.9-1.1,2.4-2.7,1.3-4.7l0.4-0.2C1972.7,2371.3,1972.2,2373.1,1970,2374.4z"/>
					<polygon class="st19" points="1976.8,2364.4 1976.3,2364.2 1978.7,2359.7 1979.2,2360 					"/>
					<polygon class="st19" points="1980.1,2365.7 1979.7,2365.5 1981.9,2361.2 1982.4,2361.5 					"/>
					<polygon class="st19" points="1982.3,2366.2 1981.9,2365.9 1984,2362.6 1984.4,2362.9 					"/>
				</g>
			</g>
			
				<rect x="1849.8" y="2411.9" transform="matrix(0.6426 -0.7662 0.7662 0.6426 -1196.9684 2284.373)" class="st0" width="1" height="26.9"/>
			<polygon class="st0" points="1916.4,2444.1 1915.4,2444.1 1916.9,2415.3 1917.9,2415.4 			"/>
			<path class="st0" d="M1890.6,2422.4c-3.2,0-6.6-1.5-9.1-4l0.7-0.7c2.6,2.7,6.1,4,9.4,3.7c2.8-0.3,5.2-1.9,6.7-4.4l0.9,0.5
				c-1.7,2.8-4.3,4.5-7.5,4.9C1891.4,2422.4,1891,2422.4,1890.6,2422.4z"/>
		</g>
		<g>
			<path class="st17" d="M1890.8,2414.3L1890.8,2414.3c-4,0.4-7.6-2.4-8-6.4l-1.9-17.1l14.4-1.6l1.9,17.1
				C1897.6,2410.3,1894.8,2413.9,1890.8,2414.3z"/>
			<path class="st20" d="M1885.7,2397.3c3.3,3.8,7.1,6.5,11.4,7.6l-1-9.2L1885.7,2397.3z"/>
			<path class="st17" d="M1902.9,2378.8c0,0,2.8,18.1-3.6,20.5c-5.9,2.2-13.7-2-13.7-2l-5.2-15.2l6.8-6.2L1902.9,2378.8z"/>
			<path class="st20" d="M1883.2,2387.7c0.4-3.5,1.7-6.5,5.3-8.4c10.3,4.2,16.8,1,21.4-5.7c0,0-5.9,1.3-9.5-1
				c-3.6-2.3-12.7-9-18.5,0.7c-8.1,3.8-6.4,10.3-3.1,14.5L1883.2,2387.7z"/>
			<g>
				<path class="st17" d="M1884.8,2387.2c1.2,2.1,0.7,4.6-1.1,5.6c-1.8,1-4.2,0.2-5.4-1.9c-1.2-2.1-0.7-4.6,1.1-5.6
					C1881.2,2384.3,1883.7,2385.1,1884.8,2387.2z"/>
				<path class="st20" d="M1882.2,2390.9c-0.1-1.6-0.8-2.7-2.1-3.3l0.5-0.9c1.6,0.8,2.5,2.2,2.6,4.2L1882.2,2390.9z"/>
			</g>
		</g>
	</g>
	<g class="st21">
		<g>
			<g>
				<path class="st3" d="M2594.6,2699.3c-11.8,3.4-24.8,3.4-36.6,0c-13.6-3.9-28.7-11.1-21.9-25.5c5.2-11,22.6-22.4,18.7-32.5
					c-3.9-10.1-30-20.2-10.8-38.5s16.2-59,30.4-61c0.7-0.1,1.3-0.1,2,0c0.6-0.1,1.3-0.1,2,0c14.2,2,11.3,42.6,30.4,61
					c19.1,18.3-6.9,28.4-10.8,38.5c-3.9,10.1,13.5,21.4,18.7,32.5C2623.3,2688.2,2608.2,2695.4,2594.6,2699.3z"/>
			</g>
			<g>
				<polygon class="st3" points="2580,2774.2 2572.6,2774.2 2575.2,2582.8 2577.4,2582.8 				"/>
			</g>
		</g>
		<g>
			<path class="st22" d="M2575.5,2627.5c-11.3-4.3-17.3-19.4-17.5-20l0.9-0.4c0.1,0.2,6.1,15.3,17,19.5L2575.5,2627.5z"/>
		</g>
		<g>
			<path class="st22" d="M2563.7,2617.7c-1.3,0-7-0.1-9.4-1.4l0.5-0.9c2.4,1.3,9.1,1.3,9.1,1.3l0,1
				C2564,2617.7,2563.9,2617.7,2563.7,2617.7z"/>
		</g>
		<g>
			<path class="st22" d="M2577.3,2665.1l-0.4-0.9c10.9-4.1,16.9-19.3,17-19.5l0.9,0.4C2594.6,2645.7,2588.6,2660.8,2577.3,2665.1z"
				/>
		</g>
		<g>
			<path class="st22" d="M2589.1,2655.3c-0.2,0-0.2,0-0.3,0l0-1c0.1,0,6.7,0.1,9.1-1.3l0.5,0.9
				C2596.1,2655.2,2590.4,2655.3,2589.1,2655.3z"/>
		</g>
		<g>
			<path class="st22" d="M2577.4,2609l-0.6-0.8c0.1-0.1,8.4-6.4,12.3-16.1l0.9,0.4C2586.1,2602.5,2577.5,2609,2577.4,2609z"/>
		</g>
	</g>
	<g class="st21">
		<g>
			<g>
				<path class="st3" d="M2301.6,2699.3c-11.8,3.4-24.8,3.4-36.6,0c-13.6-3.9-28.7-11.1-21.9-25.5c5.2-11,22.6-22.4,18.7-32.5
					c-3.9-10.1-30-20.2-10.8-38.5c19.1-18.3,16.2-59,30.4-61c0.7-0.1,1.3-0.1,2,0c0.6-0.1,1.3-0.1,2,0c14.2,2,11.3,42.6,30.4,61
					c19.1,18.3-6.9,28.4-10.8,38.5c-3.9,10.1,13.5,21.4,18.7,32.5C2330.2,2688.2,2315.1,2695.4,2301.6,2699.3z"/>
			</g>
			<g class="st21">
				<polygon class="st3" points="2287,2774.2 2279.5,2774.2 2282.2,2582.8 2284.3,2582.8 				"/>
			</g>
		</g>
		<g>
			<path class="st22" d="M2282.5,2627.5c-11.3-4.3-17.3-19.4-17.5-20l0.9-0.4c0.1,0.2,6.1,15.3,17,19.5L2282.5,2627.5z"/>
		</g>
		<g>
			<path class="st22" d="M2270.7,2617.7c-1.3,0-7-0.1-9.4-1.4l0.5-0.9c2.4,1.3,9.1,1.3,9.1,1.3l0,1
				C2270.9,2617.7,2270.8,2617.7,2270.7,2617.7z"/>
		</g>
		<g>
			<path class="st22" d="M2284.2,2665.1l-0.4-0.9c10.9-4.1,16.9-19.3,17-19.5l0.9,0.4C2301.5,2645.7,2295.6,2660.8,2284.2,2665.1z"
				/>
		</g>
		<g>
			<path class="st22" d="M2296.1,2655.3c-0.2,0-0.2,0-0.3,0l0-1c0.1,0,6.7,0.1,9.1-1.3l0.5,0.9
				C2303,2655.2,2297.4,2655.3,2296.1,2655.3z"/>
		</g>
		<g>
			<path class="st22" d="M2284.3,2609l-0.6-0.8c0.1-0.1,8.4-6.4,12.3-16.1l0.9,0.4C2293,2602.5,2284.4,2609,2284.3,2609z"/>
		</g>
	</g>
	<path class="st23" d="M2435.2,2512.7c0.2-2.9-0.6-6.2-3.9-7.6c-6.9-3.1-11.8,2.7-11.8,2.7s-2.7-18.7-17.5-19c-14.8-0.3-17,18-17,18
		s-5.9-6.3-12-4.7c-3.9,1-6.9,6.7-8.5,10.6H2435.2z"/>
	<path class="st23" d="M2307.5,2474.8c-0.1-2.9-0.9-18.1-13-18.1c-13.4,0-14.9,15.5-14.9,15.5s-3.1-7.6-11.5-6.4
		c-5.7,0.8-8.5,7.2-9.2,9H2307.5z"/>
	<path class="st23" d="M2517.5,2471.2c-0.1-2.9-0.9-18.1-13-18.1c-13.4,0-14.9,15.5-14.9,15.5s-3.1-7.6-11.5-6.4
		c-5.7,0.8-8.5,7.2-9.2,9H2517.5z"/>
	
		<ellipse transform="matrix(0.7071 -0.7071 0.7071 0.7071 -1052.719 2390.1062)" class="st24" cx="2358.8" cy="2465.8" rx="18.6" ry="18.6"/>
	<path class="st25" d="M2379.5,2774.2c0-3.9-1-24.2-22.8-27.3c-24.1-3.5-34.2,19.5-34.2,19.5s-4.2-8.7-11.7-9.5
		c-11-1.2-16.6,9.5-16.6,9.5s-16.9-18.5-37.9-15c-18.5,3.1-23.8,19.1-24.8,22.8H2379.5z"/>
	<path class="st3" d="M2440.9,2770c0,0-12.6-12.9-8.4-16s10.9,10.9,10.9,10.9s0.5-12,5.7-11.3c5.2,0.7-2.2,16.5-2.2,16.5H2440.9z"/>
	<path class="st3" d="M2542.4,2774.3c0,0,12.6-12.9,8.4-16c-4.2-3.2-10.9,10.9-10.9,10.9s-0.5-12-5.7-11.3
		c-5.2,0.7,2.2,16.5,2.2,16.5H2542.4z"/>
	<path class="st25" d="M2648,2774c-1.5-4.9-6-12.8-19.1-15.5c-19.5-4-27,10.5-27,10.5c-18.8-6.7-29.3-0.2-34.3,5.1H2648z"/>
	<g>
		<ellipse class="st26" cx="2450.1" cy="2808.7" rx="215.1" ry="6.2"/>
	</g>
	<g>
		<g>
			<path class="st3" d="M2568,2514.8c0,0,11.7,34.7,36.2,29.3c15.4-3.4,12.5-16.6,12.5-16.6s20.4,10.3,31.7-7
				c11.2-17.1-2.7-29.7-2.7-29.7s13.9,5.1,18-5.5c3.3-8.5-17.4-16.1-17.4-16.1L2568,2514.8z"/>
			<path class="st27" d="M2570,2515.8c0,0,11.7,34.7,36.2,29.3c15.4-3.4,12.5-16.6,12.5-16.6s20.4,10.3,31.7-7
				c11.2-17.1-2.7-29.7-2.7-29.7s13.9,5.1,18-5.5c3.3-8.5-17.4-16.1-17.4-16.1L2570,2515.8z"/>
			<path class="st3" d="M2586.2,2519.1c0,0,11.1,140.9-6.5,289.7h33.4c0,0-17.8-228.8-12.3-300.5L2586.2,2519.1z"/>
			<path class="st3" d="M2600,2570.8c0,0,11.1-2.7,17.8-9.9c8-8.5,13.9-13.2,22.2-23.1c0,0-9.5,16.9-16.4,24.9
				c-6.4,7.4-23.2,21.3-23.2,21.3L2600,2570.8z"/>
			<path class="st3" d="M2590.7,2552c0,0-10.6-4.2-16.3-12.3c-6.7-9.5-11.9-15-18.8-26c0,0,7.1,18,12.8,27
				c5.3,8.3,20.8,23.9,20.8,23.9L2590.7,2552z"/>
			<g>
				<path class="st3" d="M2557.8,2462c0,0-22.5-10.6-32.7,10.3s16.3,37.9,16.3,37.9s-11.7,19.1,8.5,27.7
					c16.6,7.1,28.3-11.4,28.3-11.4s16.9,13,28.5-10.5S2602.6,2435.5,2557.8,2462z"/>
				<path class="st27" d="M2556.8,2462c0,0-22.5-10.6-32.7,10.3s16.3,37.9,16.3,37.9s-11.7,19.1,8.5,27.7
					c16.6,7.1,28.3-11.4,28.3-11.4s16.9,13,28.5-10.5S2601.6,2435.5,2556.8,2462z"/>
				<g>
					<path class="st3" d="M2570,2405.5c0,0-30.9,16.7-33.8,36.6c-2.9,19.9,23,23.5,23,23.5s-18.6,29.9-5.7,41.3
						c13,11.3,34.3-6.5,34.3-6.5s19.4,25.9,38.6,18.9s14.5-31.9,14.5-31.9s36.3-21.5,17.8-48.3c-18.5-26.8-44.5-16.8-44.5-16.8
						S2604,2387.1,2570,2405.5z"/>
					<path class="st28" d="M2570,2405.5c0,0-30.9,16.7-33.8,36.6c-2.9,19.9,23,23.5,23,23.5s-18.6,29.9-5.7,41.3
						c13,11.3,34.3-6.5,34.3-6.5s19.4,25.9,38.6,18.9s14.5-31.9,14.5-31.9s36.3-21.5,17.8-48.3c-18.5-26.8-44.5-16.8-44.5-16.8
						S2604,2387.1,2570,2405.5z"/>
				</g>
			</g>
		</g>
		<g>
			<path class="st3" d="M2642.3,2809c-1.4-4.4-5.7-14.8-15.9-16.6c-13-2.3-20.1,12-20.1,12s-6.8-8.6-22.5-7.7
				c-12,0.7-17.4,8.5-19.3,12.2H2642.3z"/>
			<path class="st28" d="M2642.3,2809c-1.4-4.4-5.7-14.8-15.9-16.6c-13-2.3-20.1,12-20.1,12s-6.8-8.6-22.5-7.7
				c-12,0.7-17.4,8.5-19.3,12.2H2642.3z"/>
		</g>
	</g>
	<g>
		<path class="st3" d="M2544.7,2807.2c0,0-12.2-12.5-8.2-15.6c4.1-3.1,10.6,10.5,10.6,10.5s0.5-11.6,5.5-10.9c5,0.7-2.1,16-2.1,16
			H2544.7z"/>
		<path class="st28" d="M2544.7,2806.2c0,0-12.2-12.5-8.2-15.6c4.1-3.1,10.6,10.5,10.6,10.5s0.5-11.6,5.5-10.9c5,0.7-2.1,16-2.1,16
			H2544.7z"/>
	</g>
	<g>
		<g>
			<g>
				<path class="st3" d="M2294.9,2800.3c0,0-16.3-20.9-9.2-23.7s11.6,14.2,11.6,14.2s1.6-22.4,8.2-20.7c6.5,1.7-4.1,23.4-4.1,23.4
					s4.6-9.2,10.6-9s-7.1,14.9-7.1,14.9L2294.9,2800.3z"/>
			</g>
			<g class="st29">
				<path class="st8" d="M2294.9,2800.3c0,0-16.3-20.9-9.2-23.7s11.6,14.2,11.6,14.2s1.6-22.4,8.2-20.7c6.5,1.7-4.1,23.4-4.1,23.4
					s4.6-9.2,10.6-9s-7.1,14.9-7.1,14.9L2294.9,2800.3z"/>
			</g>
		</g>
		<g>
			<g>
				<path class="st3" d="M2365.6,2809.5c2.4-3,5.6-7.6,2.8-7.8c-4.1-0.2-7.3,6.2-7.3,6.2s7.2-14.9,2.8-16.1
					c-4.6-1.2-5.7,14.2-5.7,14.2s-3.1-11.6-8-9.7c-3.4,1.3,1.1,8.9,4.1,13.2H2365.6z"/>
			</g>
			<g class="st29">
				<path class="st8" d="M2365.6,2810c2.4-3,5.6-7.6,2.8-7.8c-4.1-0.2-7.3,6.2-7.3,6.2s7.2-14.9,2.8-16.1
					c-4.6-1.2-5.7,14.2-5.7,14.2s-3.1-11.6-8-9.7c-3.4,1.3,1.1,8.9,4.1,13.2H2365.6z"/>
			</g>
		</g>
		<path class="st3" d="M2253.3,2810.5c0,0,9.6-17.4,22.3-19.8c16-3,24,8.5,24,8.5s5.4-7.4,14.5-6.2c6.5,0.8,11,6.2,11,6.2
			s11-8,19.7-3.3c8.3,4.5,10.3,14.6,10.3,14.6H2253.3z"/>
	</g>
	<g>
		<g>
			<g class="st21">
				<path class="st3" d="M1975.9,2719.3c0,0,60.7-32.2,71.1-49.1c10.4-16.8-4.9-17.8-4.9-17.8s27.1-28.4,23.3-40.3
					c-3.8-11.9-17.8-1-17.8-1s17.4-41.8,9.2-46c-15.3-7.8-36.8,37.1-36.8,37.1s4.6-19.5-5.9-18.9c-15.9,1-15.2,45.1-15.2,45.1
					s-1.8-16.9-11.4-11.4C1970.3,2627,1975.9,2719.3,1975.9,2719.3z"/>
			</g>
			<path class="st30" d="M1982.1,2610.3c7.5-4.5,14.9,8.6,14.9,8.6s-0.8-34.5,15.1-35.4c10.5-0.6,5.9,18.9,5.9,18.9
				s21.5-44.9,36.8-37.1l-80.9,153.4C1973.3,2707.9,1967.2,2619.2,1982.1,2610.3z"/>
		</g>
		<g>
			<g>
				<path class="st3" d="M1973.5,2718.7c0,0,49.6,6.6,62.5,0.7c12.9-5.9,3.6-13.2,3.6-13.2s27.6-5.8,29.7-15
					c2.1-9.1-10.6-8.4-10.6-8.4s26.5-18.5,22.9-24.7c-6.6-11.6-36.9,7.1-36.9,7.1s10.2-10.2,3.4-14.4c-10.3-6.4-26.5,21.5-26.5,21.5
					s1-6.9-7-7.6C2000.2,2663.4,1973.5,2718.7,1973.5,2718.7z"/>
			</g>
			<path class="st3" d="M2016.3,2660.8c8,0.8,7.4,12.6,7.4,12.6s16.5-33,26.8-26.6c6.8,4.2-1.2,18.1-1.2,18.1s27.9-17.2,34.4-5.6
				l-108.3,60.2C1979,2712.5,2002.8,2659.5,2016.3,2660.8z"/>
		</g>
	</g>
	<g>
		<g>
			<g>
				<path class="st31" d="M1780.9,2728c0,0-72.7-35.9-85.3-54.6c-12.5-18.7,5.9-19.8,5.9-19.8s-32.5-31.6-27.9-44.9
					c4.6-13.3,21.6-0.6,21.6-0.6s-21.1-47-11.3-51.6c18.3-8.7,44,41.3,44,41.3s-5.5-21.7,7.1-21c19,1.1,18.3,50.2,18.3,50.2
					s2.2-18.8,13.6-12.7C1787.6,2625.3,1780.9,2728,1780.9,2728z"/>
			</g>
			<path class="st3" d="M1771.1,2606.7c-9-5-17.9,9.6-17.9,9.6s0.9-38.4-18.1-39.4c-12.6-0.7-7.1,21-7.1,21s-25.7-50-44-41.3
				l97,170.6C1781.7,2715.3,1788.9,2616.6,1771.1,2606.7z"/>
		</g>
		<g>
			<g>
				<path class="st3" d="M1779,2725.4c0,0-59.5,7.4-74.9,0.8c-15.4-6.6-4.4-14.7-4.4-14.7s-33.1-6.5-35.6-16.6
					c-2.6-10.1,13.2-9.1,13.2-9.1s-32.2-20.7-28-27.6c7.9-12.9,44.3,7.9,44.3,7.9s-12.3-11.3-4.1-16c12.3-7.1,31.8,23.9,31.8,23.9
					s-1.2-7.6,8.4-8.5C1747,2663.8,1779,2725.4,1779,2725.4z"/>
			</g>
			<path class="st3" d="M1728.7,2655c-9.6,0.8-9.5,10.2-9.5,10.2s-17.8-28.1-30.1-21c-8.2,4.7,1.5,20.1,1.5,20.1
				s-33.4-19.1-41.3-6.2l129.8,67C1774.8,2717.4,1744.8,2653.6,1728.7,2655z"/>
		</g>
	</g>
	<g>
		<g>
			<polygon class="st0" points="1902.3,2438 1901.2,2436.3 1899.7,2437.6 1901.3,2427.9 1903.9,2428.3 			"/>
			<polygon class="st0" points="1907.1,2437.6 1905.6,2436.3 1904.5,2438 1902.9,2428.3 1905.5,2427.9 			"/>
		</g>
		<path class="st0" d="M1909.3,2430.1c0,0.6-0.5,1-0.7,1.5c-0.2,0.5-0.1,1.2-0.4,1.6c-0.3,0.4-1,0.5-1.4,0.9
			c-0.4,0.3-0.7,0.9-1.3,1.1c-0.5,0.2-1.1-0.2-1.7-0.2s-1.2,0.3-1.7,0.2c-0.5-0.2-0.8-0.8-1.3-1.1c-0.4-0.3-1.1-0.4-1.4-0.9
			c-0.3-0.4-0.2-1.1-0.4-1.6c-0.2-0.5-0.7-1-0.7-1.5c0-0.6,0.5-1,0.7-1.5c0.2-0.5,0.1-1.2,0.4-1.6c0.3-0.4,1-0.5,1.4-0.9
			c0.4-0.3,0.7-0.9,1.3-1.1c0.5-0.2,1.1,0.2,1.7,0.2s1.2-0.3,1.7-0.2c0.5,0.2,0.8,0.8,1.3,1.1c0.4,0.3,1.1,0.4,1.4,0.9
			c0.3,0.4,0.2,1.1,0.4,1.6C1908.8,2429.1,1909.3,2429.5,1909.3,2430.1z"/>
		<path class="st32" d="M1905.2,2434.9c-0.2,0-0.4,0-0.6-0.1c-0.2-0.1-0.5-0.1-0.8-0.1s-0.5,0.1-0.8,0.1c-0.2,0-0.4,0.1-0.6,0.1
			c-0.1,0-0.1,0-0.2,0c-0.2-0.1-0.4-0.3-0.6-0.5c-0.2-0.2-0.3-0.4-0.5-0.5c-0.2-0.2-0.4-0.3-0.7-0.4c-0.3-0.1-0.6-0.2-0.7-0.4
			c-0.1-0.2-0.2-0.5-0.2-0.8c0-0.2,0-0.5-0.1-0.8c-0.1-0.2-0.2-0.5-0.3-0.7c-0.2-0.3-0.3-0.5-0.3-0.8s0.2-0.5,0.3-0.8
			c0.1-0.2,0.3-0.4,0.3-0.7c0.1-0.2,0.1-0.5,0.1-0.8c0-0.3,0.1-0.6,0.2-0.8c0.1-0.2,0.4-0.3,0.7-0.4c0.2-0.1,0.5-0.2,0.7-0.4
			c0.2-0.2,0.4-0.3,0.5-0.5c0.2-0.2,0.4-0.5,0.6-0.5c0.1,0,0.1,0,0.2,0c0.2,0,0.4,0,0.6,0.1c0.2,0.1,0.5,0.1,0.8,0.1
			s0.5-0.1,0.8-0.1c0.2,0,0.4-0.1,0.6-0.1c0.1,0,0.1,0,0.2,0c0.2,0.1,0.4,0.3,0.6,0.5c0.2,0.2,0.3,0.4,0.5,0.5
			c0.2,0.2,0.4,0.3,0.7,0.4c0.3,0.1,0.6,0.2,0.7,0.4c0.1,0.2,0.2,0.5,0.2,0.8c0,0.2,0,0.5,0.1,0.8c0.1,0.2,0.2,0.5,0.3,0.7
			c0.2,0.3,0.3,0.5,0.3,0.8s-0.2,0.5-0.3,0.8c-0.1,0.2-0.3,0.4-0.3,0.7c-0.1,0.2-0.1,0.5-0.1,0.8c0,0.3-0.1,0.6-0.2,0.8
			c-0.1,0.2-0.4,0.3-0.7,0.4c-0.2,0.1-0.5,0.2-0.7,0.4c-0.2,0.2-0.4,0.3-0.5,0.5c-0.2,0.2-0.4,0.5-0.6,0.5
			C1905.3,2434.9,1905.3,2434.9,1905.2,2434.9z"/>
		
			<ellipse transform="matrix(0.1385 -0.9904 0.9904 0.1385 -766.4672 3979.0947)" class="st3" cx="1903.8" cy="2430.1" rx="3.9" ry="3.9"/>
		<circle class="st8" cx="1903.8" cy="2430.1" r="3.7"/>
		
			<ellipse transform="matrix(9.843126e-02 -0.9951 0.9951 9.843126e-02 -701.8421 4085.4988)" class="st32" cx="1903.8" cy="2430.1" rx="3.4" ry="3.4"/>
		<g>
			<path class="st8" d="M1902,2431.5l0.1-1h-0.4v-0.3h0.4l0.1-0.7h-0.4v-0.3h0.5l0.1-0.9h0.3l-0.1,0.9h0.5l0.1-0.9h0.3l-0.1,0.9h0.4
				v0.3h-0.4l-0.1,0.7h0.4v0.3h-0.5l-0.1,1h-0.3l0.1-1h-0.5l-0.1,1H1902z M1903,2430.3l0.1-0.7h-0.5l-0.1,0.7H1903z"/>
			<path class="st8" d="M1905.1,2428.8L1905.1,2428.8l-0.6,0.3l-0.1-0.3l0.7-0.4h0.4v3.2h-0.4V2428.8z"/>
		</g>
	</g>
	<g>
		<polygon class="st0" points="1709.4,2784.6 1532.7,2784.6 1547.4,2695.8 1694.7,2695.8 		"/>
		<polygon class="st0" points="1504.6,2784.6 1532.7,2784.6 1547.4,2695.8 1515.1,2736 		"/>
		<polygon class="st0" points="1737.6,2784.6 1709.5,2784.6 1694.7,2695.8 1727.1,2736 		"/>
	</g>
	<g>
		<polygon class="st0" points="2204.4,2787.6 2027.7,2787.6 2042.4,2698.8 2189.7,2698.8 		"/>
		<polygon class="st0" points="1999.6,2787.6 2027.7,2787.6 2042.4,2698.8 2010.1,2739 		"/>
		<polygon class="st0" points="2232.6,2787.6 2204.5,2787.6 2189.7,2698.8 2222.1,2739 		"/>
	</g>
	<g>
		<path class="st33" d="M2431.9,2804.9l-10.1,1.5c0,0,0,0,0,0c-0.1-0.3-2.2-5.7-5.6-13.7c-0.3-0.7-0.6-1.5-0.9-2.2
			c-6.2-14.8-16-36.9-25-52.6c-2.5-4.4-5.1-10.5-7.6-17.7c-0.1-0.2-0.2-0.4-0.2-0.7c-12.1-34.9-22.8-93.4-22.8-93.4
			s35.4-11.3,41.5,0c6.1,11.2,4.5,94.9,4.5,94.9c7.7,9.8,17.2,45.6,22.4,67.2C2430.4,2798,2431.9,2804.9,2431.9,2804.9z"/>
		<path class="st0" d="M2417.9,2796.9c2.3,5.7,3.7,9.3,3.8,9.5c0,0,0,0,0,0l10.1-1.5c0,0-1.2-5.4-3.1-13.5
			C2425,2793,2421.4,2794.9,2417.9,2796.9z"/>
		<path class="st11" d="M2403.2,2720.7l-2.5,8.9l-18-9.4c-0.1-0.2-0.2-0.5-0.2-0.7L2403.2,2720.7z"/>
		<path class="st0" d="M2407.7,2673.7l-6.5,0.6l-3.1-7.5l-0.6,8.2c0,0-22,6-29,4.2l-0.8-5.1l-2.5-15.3l40.6-28.3L2407.7,2673.7z"/>
		<path class="st11" d="M2405.8,2630.6c0.8,3.5-2.6,22.3-21.1,34.9c-9,6.1-13.9,8-17,8.7l-2.5-15.3L2405.8,2630.6z"/>
		<path class="st33" d="M2353,2564.4c0.6,7.6,0.8,15,0.7,22.5c-0.1,3.8-0.2,7.6-0.5,11.4c-0.3,3.8-0.7,7.7-1.6,11.8
			c-0.5,2.1-0.9,4.2-2.1,6.8c-0.3,0.7-0.7,1.4-1.2,2.2c-0.6,0.8-1.3,1.7-2.6,2.7c-0.5,0.3-1.4,0.9-2,1c-0.3,0.1-0.7,0.2-1,0.3
			c-0.3,0.1-0.6,0.1-0.9,0.1c-0.3,0-0.5,0-0.7,0c-0.2,0-0.5,0-0.7,0c-0.3,0-0.7-0.1-1-0.2c-1.2-0.3-2-0.6-2.7-0.9
			c-1.3-0.6-2.3-1.3-3.2-1.9c-0.9-0.6-1.7-1.3-2.5-1.9c-1.6-1.3-3-2.6-4.4-3.9c-5.6-5.3-10.5-10.9-15.2-16.7l5.3-5.2
			c2.9,2.2,5.7,4.5,8.6,6.7c2.9,2.2,5.7,4.4,8.6,6.4c1.4,1,2.9,2,4.3,2.9c0.7,0.4,1.4,0.8,2,1.2c0.6,0.3,1.3,0.6,1.6,0.7
			c0.2,0.1,0.3,0-0.1-0.1c-0.1,0-0.2-0.1-0.4-0.1c-0.1,0-0.2,0-0.3,0c-0.1,0-0.2,0-0.4,0c-0.2,0-0.3,0-0.5,0.1
			c-0.2,0-0.5,0.1-0.7,0.2c-0.1,0-0.2,0.1-0.3,0.1c-0.1,0.1-0.3,0.1-0.4,0.2c-0.1,0.1-0.3,0.1-0.4,0.2l-0.3,0.2
			c-0.6,0.4-0.7,0.6-0.7,0.6c0,0,0-0.1,0.1-0.2c0.3-0.8,0.6-2.3,0.8-3.8c0.4-3.1,0.6-6.6,0.7-10.1c0.1-3.5,0.1-7.1,0-10.7
			c-0.1-7.1-0.4-14.5-0.6-21.6L2353,2564.4z"/>
		<g>
			<path class="st33" d="M2317.4,2593.7c0,0,0.4-6-0.9-7.4c-1.3-1.4-7.7,3.4-7.3,4.9c0.4,1.5,4.7-1.3,4.7-1.3s-0.3,3.8,1.5,4.5
				C2317.2,2595,2317.4,2593.7,2317.4,2593.7z"/>
			<path class="st33" d="M2315.6,2587.4c0,0-2.2-5.2-4.5-5.3c-2.3-0.1-6.8,4.6-7.3,6.9c-0.5,2.3,1.9,5.3,4.3,4.8
				C2310.6,2593.3,2315.6,2587.4,2315.6,2587.4z"/>
			<path class="st33" d="M2308.1,2592.8c0,0-0.1,3.9,3.1,4.9c3.2,1,6.3-4.5,6.3-4.5s-1.6-5.2-3.5-5.7
				C2312,2587.1,2308.1,2592.8,2308.1,2592.8z"/>
			<path class="st11" d="M2311.6,2590.6c0.3,0.1,0.6,0.2,0.9,0.2c1.3,0,2.9-0.7,3-0.7c0.1-0.1,0.2-0.2,0.1-0.3
				c-0.1-0.1-0.2-0.2-0.3-0.1c-0.7,0.3-2.6,0.9-3.5,0.6c-0.2-0.1-0.4-0.2-0.4-0.4c-0.5-1.1,2.2-2.8,3.2-3.3c0.1-0.1,0.2-0.2,0.1-0.3
				c-0.1-0.1-0.2-0.2-0.3-0.1c-0.2,0.1-1.3,0.7-2.3,1.5c-0.9-0.3-1.9-2.1-2.2-2.8c-0.1-0.1-0.2-0.2-0.3-0.1
				c-0.1,0.1-0.2,0.2-0.1,0.3c0.1,0.3,1.1,2.3,2.2,2.9c-0.6,0.6-1,1.3-0.8,1.9c0,0.1,0,0.1-0.1,0.2c-2.4-0.4-3.2-3-3.2-3.1
				c0-0.1-0.2-0.2-0.3-0.2c-0.1,0-0.2,0.2-0.2,0.3c0,0.1,0.9,2.9,3.5,3.4c-0.3,0.7-0.8,1.3-1.3,1.8c0,0,0,0,0,0
				c-2.6-0.3-3.4-3.1-3.4-3.1c0-0.1-0.2-0.2-0.3-0.2c-0.1,0-0.2,0.2-0.2,0.3c0,0.1,0.9,2.9,3.5,3.4c-0.4,0.4-0.7,0.6-0.7,0.6
				c-0.1,0.1-0.1,0.2-0.1,0.4c0,0.1,0.1,0.1,0.2,0.1c0.1,0,0.1,0,0.1,0c0.1-0.1,1.8-1.3,2.6-3c-0.3,2.3,1,3.3,1.1,3.3
				c0,0,0.1,0,0.1,0c0.1,0,0.2,0,0.2-0.1c0.1-0.1,0-0.3-0.1-0.4C2312.4,2593.6,2311.2,2592.8,2311.6,2590.6
				C2311.6,2590.6,2311.6,2590.6,2311.6,2590.6z"/>
		</g>
		<g>
			<path class="st3" d="M2402.6,2618.9c-19.5,10.6-47.8,12.1-47.9,7.3c-0.5-18.6-6.4-30-11.1-35c-9.6-10.2-4.5-11-4.6-17.4
				c0-1-0.2-2.2-0.6-3.6c-0.1-0.3-0.1-0.6-0.2-0.8c-1.6-7,0-12.9,6.5-15.6c0.3-0.1,0.6-0.2,0.8-0.3c2.1-0.8,1.7-1.2,3.8-1.9
				c0,0,0.1,0,0.1,0c5.5-1.7,10.8-2.7,16.9-3.7c0.9-0.2,1.9-0.3,2.9-0.5c1.3-0.2,2.5-0.4,3.8-0.5c0.6-0.1,1.2-0.1,1.8-0.2
				c6.7-0.7,12.6,4.5,12.6,11.2c0,4,0.2,7.9,0.5,11.6C2390,2592.3,2397.5,2609.1,2402.6,2618.9z"/>
			<path class="st33" d="M2344.7,2553.6c-0.8,2.2-2.8,8-4.8,12.5c-0.6,1.3-1.1,2.3-1.6,3.2
				C2336.6,2562.3,2338.2,2556.4,2344.7,2553.6z"/>
			<path class="st33" d="M2366.4,2547.6c-1.2,4.2-4.3,13.4-9.2,16.1c-6.1,3.4-11.8-4.6-7.7-12.4
				C2354.9,2549.7,2360.2,2548.7,2366.4,2547.6z"/>
			<path class="st33" d="M2388,2569.3c-4.9,3.5-10.6,5.4-13.8,3.1c-6.7-4.6-2.5-21.3-1.2-25.8c0.6-0.1,1.2-0.1,1.8-0.2
				c6.7-0.7,12.6,4.5,12.6,11.2c0,1.6,0,3.1,0.1,4.6c0.1,2.1,0.2,4.1,0.4,6.2C2388,2568.7,2388,2569,2388,2569.3z"/>
			<path class="st11" d="M2387.9,2568.4l-9.9-7l9.6,0.8C2387.6,2564.4,2387.8,2566.4,2387.9,2568.4z"/>
			<path class="st13" d="M2342.4,2568.1l-1.2,10.6c0,0,15.4,0.4,25-3.6c0,0,1.4-8.9,0.1-11.3
				C2366.4,2563.8,2357.8,2567.2,2342.4,2568.1z"/>
			<g>
				<path class="st33" d="M2365.2,2548.7c0,0-3.5,3.6-6.7,8.1c-0.7,0.9-1.4,1.8-2.3,2.6c-2.3,2.1-4.5,3.5-5.5,2.4
					c-0.2-0.2-0.4-0.5-0.6-0.8c-1.1-2-0.9-4.5,0.4-6.3c1.5-2,1.4-4.1,0.5-6.1c-0.5-1.1-1.2-2.3-2-3.3l1.1-2.2l5.9-10.1
					C2357.3,2538.3,2360.2,2546.9,2365.2,2548.7z"/>
				<path class="st11" d="M2351.2,2548.5c-0.5-1.1-1.2-2.3-2-3.3l1.1-2.2l4.5-0.5C2354.7,2542.5,2354,2546.3,2351.2,2548.5z"/>
				<path class="st33" d="M2356,2522.9c2,8.9,3,12.7,0,18.4c-4.6,8.6-15.8,9.1-20.4,0.9c-4.1-7.4-6.7-20.7,0.8-26.6
					C2343.7,2509.8,2354,2514,2356,2522.9"/>
				<path class="st14" d="M2331.7,2528.7c0,0-7.2-5.3,2.3-13.2c0,0,6.6-8.9,16.9-5.2c10.3,3.6,12.7,15.3,6.8,26.6
					c0,0-0.7-9.1-4.5-11.1s-7.8-3.4-6.8-6.5c0,0-11.3,4.7-12.9,1.8C2332.8,2521.6,2331.6,2522.8,2331.7,2528.7z"/>
				<path class="st14" d="M2393.7,2538.8c-16.9,3.7-14.6-8.4-19.6-8.5c-5-0.2-2.3,5.8-7.3,7.2c-5,1.4-9.2-5.9-9.2-5.9l0.5-2.5
					c0-0.3,2.4-2.2,4.1-1c1.7,1.2,4.2-4.3,9.5-6.8c5.3-2.6,9.7,1.4,12.2,8.3C2386.4,2536.4,2393.7,2538.8,2393.7,2538.8z"/>
				<path class="st8" d="M2337.8,2539.8c0,0,4.6-1.6,5.7-3.5c0,0,0.4,3.5-2,4.6C2339.1,2542,2337.8,2539.8,2337.8,2539.8z"/>
				<path class="st14" d="M2341.2,2529.1c0.2,0.7,0,1.4-0.5,1.5s-1-0.3-1.2-1.1s0-1.4,0.5-1.5
					C2340.4,2527.9,2341,2528.3,2341.2,2529.1"/>
				<path class="st14" d="M2334,2531.3c0.2,0.7,0,1.4-0.5,1.5c-0.5,0.1-1-0.3-1.2-1.1c-0.2-0.7,0-1.4,0.5-1.5
					C2333.3,2530.1,2333.8,2530.6,2334,2531.3"/>
				<path class="st14" d="M2333,2530.2l-1.9,0C2331.2,2530.2,2332.4,2531.3,2333,2530.2"/>
				<path class="st34" d="M2337.1,2531.7c0,0-0.6,1.9-1.3,3.6c-0.2,0.6,0.1,1.2,0.7,1.3c1,0.2,2,0.1,2,0.1L2337.1,2531.7z"/>
				<path class="st33" d="M2360.9,2528.1c-0.3,1.9-1.4,3.4-2.6,4.1c-1.8,1.1-3.4-0.8-3.5-3.1c-0.1-2.1,0.8-5.2,2.9-5.3
					C2359.8,2523.6,2361.2,2525.9,2360.9,2528.1"/>
				<path class="st14" d="M2343,2526.9c-0.1,0-0.2-0.1-0.3-0.1c-1.3-1.5-2.9-1.2-2.9-1.2c-0.2,0-0.5-0.1-0.5-0.4
					c0-0.2,0.1-0.5,0.4-0.5c0.1,0,2.1-0.3,3.7,1.5c0.2,0.2,0.1,0.5,0,0.6C2343.2,2526.8,2343.1,2526.9,2343,2526.9"/>
				<path class="st14" d="M2330.7,2528.9c-0.1,0-0.2,0-0.3-0.1c-0.2-0.1-0.3-0.4-0.2-0.6c1.2-2.1,3.3-2.2,3.3-2.2
					c0.2,0,0.4,0.2,0.5,0.4c0,0.2-0.2,0.4-0.4,0.5c-0.1,0-1.6,0.1-2.6,1.8C2330.9,2528.8,2330.8,2528.9,2330.7,2528.9"/>
				<path class="st14" d="M2340.2,2528l-1.9,0C2338.3,2528,2339.6,2529.1,2340.2,2528"/>
			</g>
			<path class="st0" d="M2332.3,2517c0,0-7.3,0.4-13.1,1.4c-4.5,0.8,0.8,3.9,12.5,3.9s17.5-4.5,17.5-4.5
				C2341.3,2517.9,2334.7,2517.8,2332.3,2517z"/>
			<path class="st35" d="M2332.3,2517c0,0-7.3,0.4-13.1,1.4c-4.5,0.8,0.8,3.9,12.5,3.9s17.5-4.5,17.5-4.5
				C2341.3,2517.9,2334.7,2517.8,2332.3,2517z"/>
			<path class="st0" d="M2331.6,2517.1c0,0,0.8-3.6,4.9-4.2c0,0,8.9,1.9,18.7,0c0,0,3.8,1,4.3,5.5
				C2359.6,2518.4,2346.8,2520.5,2331.6,2517.1z"/>
			<path class="st36" d="M2331.6,2517.1c0,0,0.8-3.6,4.9-4.2c0,0,8.9,1.9,18.7,0c0,0,3.8,1,4.3,5.5
				C2359.6,2518.4,2346.8,2520.5,2331.6,2517.1z"/>
		</g>
		<path class="st33" d="M2387.6,2708.9l15,8.9l-5.9,5.4c0,0-4.4-0.9-11.1-2.6h0c-23.7-5.8-76.6-20.7-72.6-36.6
			c4.4-17.5,32.9-45.3,44.2-55.9l45.5-9.2c14.5,25.7-56.7,65.4-59.7,63.5L2387.6,2708.9z"/>
		<path class="st0" d="M2402.6,2717.7l-5.9,5.4c0,0-4.4-0.9-11.1-2.6l-1.3-0.3l3.4-11.4L2402.6,2717.7z"/>
		<path class="st0" d="M2354.7,2626.2l-16.5,19.2l20.5,11.7l6.5-2.4l-1.6,5.3l11.1,9c0,0,43.2-28,28-50
			C2389.2,2622,2370.1,2617.9,2354.7,2626.2z"/>
		<path class="st12" d="M2398.8,2619.5c0,0,12.8,18.3-28.4,43.4"/>
		<path class="st3" d="M2425,2805.4c0,0-1.9-1.5-3.8-0.6s-2.2,6-5.9,10.8c-2.2,2.7-2.7,3.8-3.9,4.9c-1.7,1.6-1.9,4-1.4,6.4l0,0
			l30-16.3c0,0-2.4-4.5-4.6-6.2c-2.2-1.7-5.4-4.7-5.9-4C2427.1,2803.7,2427,2806.3,2425,2805.4z"/>
		<path class="st3" d="M2399.2,2720.6c0,0-2.4-0.4-3.6,1.2c-1.2,1.6,0.9,6.3-0.2,12.3c-0.6,3.4-0.6,4.6-1.2,6.1
			c-0.8,2.2,0.3,4.4,1.8,6.2l0,0l18.9-28.5c0,0-4.2-2.8-6.9-3.3s-7-1.6-7.1-0.7C2400.2,2718.1,2401.3,2720.5,2399.2,2720.6z"/>
		<g>
			<path class="st33" d="M2428.1,2569.5c0,0.2-0.1,0.5-0.1,0.7c0,0.2-0.1,0.5-0.1,0.6c-0.2,0.8-0.4,1.3-0.6,1.8
				c-0.4,1-0.9,1.6-1.3,2.1c-0.8,1.1-1.5,1.9-2.3,2.6c-1.5,1.5-2.9,2.6-4.3,3.8c-1.4,1.1-2.9,2.2-4.3,3.2c-5.8,4.1-11.7,7.7-17.8,11
				l-4.2-6.1c2.5-2.2,5.1-4.5,7.5-6.8c2.5-2.2,5-4.5,7.4-6.8c1.2-1.1,2.4-2.3,3.5-3.4c0.6-0.6,1.2-1.2,1.7-1.8
				c-0.7-0.3-1.5-0.6-2.3-0.9c-1.4-0.5-2.9-0.9-4.4-1.4c-3-0.9-6.2-1.6-9.4-2.3c-6.4-1.4-13-2.6-19.4-3.8l2.3-14.8
				c7.1,1,13.8,2.4,20.7,4.1c3.4,0.9,6.8,1.9,10.3,3.1c1.7,0.6,3.5,1.3,5.2,2.1c1.8,0.8,3.6,1.6,5.5,2.9c1,0.6,2,1.3,3.1,2.4
				c0.3,0.2,0.6,0.6,0.8,0.9c0.3,0.4,0.6,0.7,0.9,1.1c0.1,0.2,0.3,0.4,0.4,0.7c0.1,0.2,0.3,0.5,0.4,0.8c0.1,0.2,0.3,0.6,0.4,0.9
				l0.2,0.5c0.1,0.3,0.2,0.7,0.3,1.1c0.1,0.4,0.1,0.7,0.1,1C2428.2,2568.9,2428.2,2569.2,2428.1,2569.5z"/>
			<g>
				<polygon class="st33" points="2395,2588.2 2386.6,2591.1 2392,2600.7 2398.3,2594.4 				"/>
			</g>
			<path class="st33" d="M2392.8,2589.1c0,0-2.5-0.8-4-0.7c-1.5,0.1-4,4.4-4,4.4l2.5-1.6L2392.8,2589.1z"/>
			<path class="st33" d="M2387.6,2590.3c0,0-4.2,2-4.3,3.7c-0.1,1.7,2,1.5,2,1.5s-0.7,1.6-0.2,2.2c0.6,0.8,1.4,0.4,1.4,0.4
				s-0.6,1.3,0,1.9c0.6,0.6,1.4,0.6,1.4,0.6s-0.5,0.4,0.5,1.2c1,0.8,3.4-1.2,3.4-1.2L2387.6,2590.3z"/>
			<g class="st11">
				<path d="M2390,2589.5c0,0-2.3,0.7-3.9,1.3c-0.2,0.2-0.3,0.5-0.5,0.7c1.1-0.4,3.4-1.2,4.5-1.5c0.1,0,0.2-0.2,0.2-0.3
					C2390.3,2589.6,2390.1,2589.5,2390,2589.5z"/>
			</g>
		</g>
	</g>
	<g>
		<path class="st8" d="M1597.7,2758.8l1.3-9.6h-4v-2.9h4.4l0.9-7.1h-4.2v-2.9h4.6l1.3-9.3h2.8l-1.2,9.3h5.1l1.3-9.3h2.9l-1.2,9.3h4
			v2.9h-4.4l-0.9,7.1h4.2v2.9h-4.6l-1.3,9.6h-2.9l1.3-9.6h-5.1l-1.3,9.6H1597.7z M1607.4,2746.3l0.9-7.1h-5.1l-0.9,7.1H1607.4z"/>
	</g>
	<g>
		<path class="st8" d="M2099.7,2761.8l1.3-9.6h-4v-2.9h4.4l0.9-7.1h-4.2v-2.9h4.6l1.3-9.3h2.8l-1.2,9.3h5.1l1.3-9.3h2.9l-1.2,9.3h4
			v2.9h-4.4l-0.9,7.1h4.2v2.9h-4.6l-1.3,9.6h-2.9l1.3-9.6h-5.1l-1.3,9.6H2099.7z M2109.4,2749.3l0.9-7.1h-5.1l-0.9,7.1H2109.4z"/>
	</g>
	<rect x="2121.3" y="2729.3" class="st37" width="30.7" height="39.7"/>
	<text transform="matrix(1 0 0 1 2121.3477 2759.8398)" class="st8 st38 st39">2</text>
	<rect x="1621.3" y="2726.3" class="st37" width="22.7" height="39.7"/>
	<text transform="matrix(1 0 0 1 1621.3477 2756.8398)" class="st8 st38 st39">3</text>
	<rect x="2017" y="2401" class="st37" width="78" height="14"/>
	<text transform="matrix(1 0 0 1 2017 2413.4482)" class="st8 st38 st40">WelCome</text>
	<g>
		<polygon class="st0" points="1963.4,2746.6 1786.7,2746.6 1801.4,2657.8 1948.7,2657.8 		"/>
		<polygon class="st0" points="1758.6,2746.6 1786.7,2746.6 1801.4,2657.8 1769.1,2698 		"/>
		<polygon class="st0" points="1991.6,2746.6 1963.5,2746.6 1948.7,2657.8 1981.1,2698 		"/>
	</g>
	<g>
		<path class="st8" d="M1862.7,2717.8l1.3-9.6h-4v-2.9h4.4l0.9-7.1h-4.2v-2.9h4.6l1.3-9.3h2.8l-1.2,9.3h5.1l1.3-9.3h2.9l-1.2,9.3h4
			v2.9h-4.4l-0.9,7.1h4.2v2.9h-4.6l-1.3,9.6h-2.9l1.3-9.6h-5.1l-1.3,9.6H1862.7z M1872.4,2705.3l0.9-7.1h-5.1l-0.9,7.1H1872.4z"/>
	</g>
	<rect x="1878.3" y="2685.3" class="st37" width="25.7" height="32.7"/>
	<text transform="matrix(1 0 0 1 1878.3477 2715.8398)" class="st41 st38 st39">1</text>
</g>
</svg>
